<?xml version="1.0" encoding="utf-8"?>
<!-- Generator: Adobe Illustrator 16.0.0, SVG Export Plug-In . SVG Version: 6.00 Build 0)  -->
<!DOCTYPE svg PUBLIC "-//W3C//DTD SVG 1.1//EN" "http://www.w3.org/Graphics/SVG/1.1/DTD/svg11.dtd">
<svg version="1.1" id="svg4468" xmlns:svg="http://www.w3.org/2000/svg"
	 xmlns="http://www.w3.org/2000/svg" xmlns:xlink="http://www.w3.org/1999/xlink" x="0px" y="0px" width="1282.947px"
	 height="1113.05px" viewBox="11.403 139.5 1282.947 1113.05" enable-background="new 11.403 139.5 1282.947 1113.05"
	 xml:space="preserve">
<g id="Canada" transform="translate(-959.79,0.708441)">
	<path id="CA-AB" opacity="0.1" fill="#B0B4C4" d="M1259.5,1028.021c-53.521-14.135-47.759-11.977-50.938-19.061l-2.678-5.968
		l2.172-11.052c2.29-11.654,2.164-14.603-0.889-20.685c-1.037-2.065-3.959-7.889-6.494-12.939c-2.535-5.052-5.561-12.026-6.726-15.5
		s-3.421-8.293-5.015-10.71c-1.593-2.416-3.194-6.017-3.558-8c-0.364-1.983-1.947-5.084-3.519-6.891s-2.857-3.763-2.857-4.346
		c0-0.584-0.935-2.374-2.077-3.979c-1.202-1.688-2.479-5.752-3.03-9.644c-0.6-4.237-1.846-8.025-3.367-10.237
		c-1.328-1.931-2.873-4.732-3.433-6.227s-2.605-3.744-4.543-5c-3.475-2.251-4.759-5.919-2.55-7.284c0.55-0.34,1-3.116,1-6.17
		c0-5.432,6.559-24.262,51.175-146.92l4.034-11.091l22.146,7.365c12.18,4.05,30.695,9.869,41.145,12.932
		c10.45,3.062,28.866,8.454,40.924,11.982c12.058,3.529,22.034,6.527,22.17,6.662c0.66,0.66-2.974,15.339-3.96,15.998
		c-0.623,0.418-2.219,1.048-3.546,1.399c-2.51,0.666-13.009,11.043-13.06,12.907c-0.016,0.585,1.579,1.831,3.543,2.768
		c3.436,1.639,3.679,1.626,6.44-0.341c1.578-1.124,3.163-2.966,3.521-4.093c0.357-1.128,0.857-1.844,1.109-1.591
		c0.252,0.252-1.313,7.823-3.479,16.825c-5.113,21.251-10.624,44.269-18.165,75.866c-3.348,14.025-7.17,30-8.494,35.5
		c-6.678,27.733-12.622,52.507-15.836,66c-16.972,71.239-15.538,65.555-16.484,65.359
		C1273.808,1031.782,1267.2,1030.054,1259.5,1028.021z"/>
	<g id="CA-BC">
		<path opacity="0.1" fill="#B0B4C4" d="M1047,975.74c-6.386-4.062-16-16.637-16-20.927c0-2.386-0.591-3.21-2.936-4.095
			c-2.969-1.121-5.242-5.012-6.552-11.219c-0.348-1.649-1.648-4.574-2.89-6.5c-1.241-1.925-3.043-5.524-4.005-8
			c-0.962-2.475-3.576-7.545-5.808-11.267c-2.45-4.085-4.56-9.237-5.323-13c-0.695-3.428-1.868-7.709-2.605-9.512
			c-1.283-3.139-1.213-3.383,1.64-5.714c1.639-1.34,3.845-2.452,4.902-2.472c1.978-0.037,7.937,5.692,17.578,16.9
			c3.025,3.517,5.957,6.882,6.515,7.479c0.558,0.598,2.571,3.11,4.474,5.585c1.903,2.476,3.719,4.726,4.037,5
			c1.398,1.212,3.938,10.038,4.572,15.889c0.606,5.598,1.304,7.197,5.637,12.922c5.769,7.622,6.259,8.745,7.218,16.561
			c0.396,3.229,1.323,7.576,2.058,9.66c0.735,2.084,1.071,4.054,0.747,4.379C1058.755,978.911,1050.314,977.848,1047,975.74z"/>
		<path opacity="0.1" fill="#B0B4C4" d="M1205.5,1013.434c-0.912-0.266-21.511-6.668-37.5-11.654
			c-5.515-1.72-63.946-23.627-88-32.992c-4.125-1.606-8.85-3.414-10.5-4.018c-3.821-1.397-4.466-2.409-4.485-7.03
			c-0.01-2.587-0.67-4.302-2.115-5.5c-5.813-4.816-7.9-7.23-7.9-9.141c0-1.154-0.389-2.1-0.864-2.1
			c-2.425,0-5.921-5.317-6.534-9.938c-0.993-7.484-4.328-13.995-10.231-19.973c-5.284-5.352-5.337-5.465-4.754-10.25
			c0.478-3.922,0.301-4.84-0.931-4.84c-0.836,0-1.67-0.354-1.853-0.786c-0.184-0.434-2.471-2.027-5.083-3.543
			c-2.612-1.515-4.784-3.299-4.826-3.963c-0.042-0.664-0.263-2.107-0.491-3.208c-0.558-2.698-0.612-4.476-0.457-15.207
			c0.129-8.958,0.215-9.275,3.171-11.764c2.795-2.353,2.951-2.807,1.945-5.691c-0.601-1.725-1.093-4.91-1.093-7.078
			c0-2.988-0.978-5.335-4.041-9.701c-3.386-4.827-3.949-6.312-3.473-9.159c0.312-1.869,1.49-4.174,2.617-5.121
			c2.274-1.911,2.062-3.48-1.392-10.278c-1.738-3.422-2.027-5.871-2.001-16.953c0.03-12.529,0.114-13.037,2.579-15.5
			c1.401-1.4,4.938-3.446,7.859-4.547c7.189-2.707,12.853-7.84,12.853-11.648c0-3.993,2.161-8.689,5.881-12.781
			c2.782-3.06,3.119-4.094,3.119-9.585c0-5.57-0.283-6.406-2.984-8.813c-3.426-3.053-9.406-14.363-11.054-20.91
			c-0.97-3.853-0.758-5.971,1.569-15.705c2.376-9.938,2.564-11.913,1.606-16.904c-0.596-3.108-1.339-9.927-1.65-15.152
			c-0.311-5.225-0.765-10.445-1.008-11.602s-0.698-3.856-1.01-6c-0.312-2.144-1.905-9.523-3.54-16.398s-3.195-13.51-3.468-14.743
			c-0.31-1.403-1.873-2.819-4.17-3.779c-7.013-2.93-7.931-2.896-9.86,0.37c-1.296,2.194-3.428,3.606-7.855,5.204
			c-3.342,1.206-7.848,3.038-10.014,4.071c-2.166,1.032-4.042,1.877-4.17,1.877c-0.127,0,0.165-1.462,0.649-3.25
			c1.354-4.999,0.467-17.044-1.474-20.006c-2.056-3.138-1.78-12.421,0.355-11.952c0.73,0.16,10.834,6.512,22.452,14.115
			c31.672,20.724,66.287,41.781,83.125,50.566c8.25,4.304,15.45,8.144,16,8.531c2.721,1.918,33.566,17.537,45,22.786
			c7.15,3.282,22.675,9.694,34.5,14.248c11.825,4.554,21.859,8.589,22.298,8.968s0.342,1.771-0.215,3.092
			c-0.557,1.321-5.786,15.677-11.62,31.901c-5.834,16.226-12.342,34.226-14.462,40c-23.148,63.047-28,77.315-28,82.34
			c0,3.007-0.632,6.118-1.493,7.348c-2.165,3.091-0.932,7.415,2.798,9.812c4.662,2.997,10.706,14.211,11.428,21.202
			c0.395,3.826,1.539,7.234,3.43,10.216c1.56,2.461,2.837,4.924,2.837,5.474s1.059,2.149,2.353,3.554
			c1.294,1.405,2.931,4.704,3.637,7.331c0.707,2.627,1.681,5.021,2.166,5.32c1.269,0.784,5.434,9.373,6.258,12.903
			c0.385,1.65,3.906,9.491,7.825,17.424c4.12,8.34,7.13,15.722,7.137,17.5c0.007,1.692-0.774,7.295-1.734,12.45
			c-1.8,9.664-1.538,13.828,1.125,17.893C1207.318,1013.134,1207.238,1013.941,1205.5,1013.434z"/>
		<path opacity="0.1" fill="#B0B4C4" d="M976.24,824.733c-4.061-9.402-5.558-20.584-4.896-36.592
			c0.385-9.318,1.038-14.896,1.86-15.886c0.697-0.84,1.273-2.253,1.282-3.141c0.024-2.604,4.346-2.497,8.345,0.206
			c4.788,3.236,11.17,9.582,11.17,11.105c0,0.658-4.05,5.417-9,10.573c-10.517,10.956-10.656,11.526-6.512,26.508
			c1.368,4.946,2.493,9.78,2.5,10.742C981.013,831.745,978.447,829.844,976.24,824.733z"/>
	</g>
	<path id="CA-MB" opacity="0.1" fill="#B0B4C4" d="M1453.219,765.843l-0.719,6.312c-0.398,3.481-0.854,7.02-1,7.844
		c-0.146,0.825-0.597,3.976-1,7c-0.403,3.025-0.851,6.176-1,7c-0.149,0.825-1.047,7.308-2,14.406
		c-1.635,12.173-1.641,13.089-0.031,15.812c1.671,2.829,1.649,2.946-1.125,6.438c-1.559,1.962-3.344,4.318-3.969,5.219
		c-0.625,0.901-1.465,7.476-1.844,14.625c-0.379,7.15-0.827,14.801-1,17c-0.173,2.2-0.612,8.051-0.969,13
		c-0.356,4.95-0.82,11.7-1.062,15c-1.008,13.728-1.451,19.413-2,27c-0.318,4.4-0.766,10.25-1,13s-0.692,9.5-1.031,15
		s-0.778,11.801-0.969,14c-0.19,2.2-0.631,8.726-1,14.5c-0.369,5.775-0.821,12.075-1,14c-0.179,1.926-0.648,8.676-1.031,15
		c-0.382,6.325-0.813,12.176-0.969,13c-0.512,2.729-1.883,25.386-1.938,32l-0.062,6.5l6,0.594c9.621,0.978,18.803,2.011,21.5,2.406
		c1.375,0.202,4.975,0.635,8,0.969c5.833,0.646,9.147,1.034,18,2.094c3.025,0.362,9.775,0.956,15,1.312s14.075,0.771,19.656,0.938
		l10.125,0.312l0.625-4.812c0.33-2.647,0.829-10.212,1.125-16.812c0.296-6.6,0.74-15.149,0.969-19c0.229-3.85,0.679-13.75,1-22
		c1.113-28.574,1.433-31.539,3.812-35.531c1.219-2.043,8.309-10.19,15.781-18.094c7.473-7.902,15.577-16.604,18-19.344
		c2.423-2.739,4.856-5.505,5.406-6.125c9.624-10.849,14.252-16.162,19.438-22.375c3.432-4.11,9.351-10.916,13.156-15.125
		c3.806-4.208,8.462-9.4,10.344-11.531c1.882-2.13,5.687-6.35,8.469-9.375c2.782-3.024,5.085-5.985,5.094-6.562
		c0.017-1.12-5.231-3.284-9.75-4.031c-6.916-1.142-8.821-1.798-9.969-3.438c-0.968-1.381-2.558-1.737-7.312-1.625
		c-3.33,0.079-6.357,0.646-6.75,1.25c-0.807,1.241-12.373,2.677-14.625,1.812c-1.023-0.393-1.225-1.204-0.688-2.656
		c0.782-2.114,0.608-3.348-2.219-16.75c-2.03-9.625-2.552-12.492-3.25-18c-0.8-6.313-3.359-8.243-13.812-10.438
		c-6.692-1.404-8.957-2.311-9.844-3.938c-1.249-2.289-1.224-10.194,0.062-20.875l0.812-6.75l-5.344-0.125
		c-2.927-0.068-5.65-0.214-6.062-0.312s-4.125-0.526-8.25-0.969c-4.125-0.441-8.175-0.92-9-1.062c-0.825-0.142-4.626-0.597-8.438-1
		s-7.861-0.883-9-1.062c-1.139-0.179-4.763-0.599-8.062-0.938c-3.3-0.338-9.6-1.007-14-1.5s-10.7-1.153-14-1.469
		c-3.3-0.314-8.103-0.843-10.656-1.156L1453.219,765.843z M1481.812,937.718c3.858,0.033,6.44,1.841,8.375,5.656
		c1.152,2.272,2.419,4.351,2.812,4.625c1.873,1.309,6.448,13.462,5.594,14.844c-0.54,0.875,1.256,6.39,3.219,9.906
		c0.687,1.23,1.14,4.605,1.031,7.5c-0.208,5.557,3.099,17.807,6.25,23.22c1.269,2.179,1.849,5.693,2.062,12.53
		c0.293,9.367,0.245,9.506-2.125,9.844c-1.322,0.189-3.24,1.427-4.281,2.75c-2.164,2.751-3.984,3.047-6.062,0.969
		c-1.709-1.709-1.185-8.865,0.875-12.03c0.729-1.119,1.564-3.315,1.844-4.875c0.279-1.561,1.061-3.514,1.75-4.345
		c1.997-2.405,1.921-4.776-0.188-6.093c-1.646-1.028-2.132-0.909-3.188,0.78c-1.364,2.186-3.781,2.699-3.781,0.812
		c0-0.648,0.528-2.606,1.156-4.344c2.693-7.448-1.691-13.875-7.969-11.688c-2.561,0.894-3.288,0.732-4.969-1.125
		c-1.077-1.19-2.639-4.274-3.5-6.875c-0.861-2.6-2.68-6.199-4.031-8c-1.737-2.313-2.345-4.16-2.031-6.281
		c0.403-2.734,0.028-3.229-4.438-5.562c-6.505-3.397-9.143-2.411-9.344,3.469c-0.077,2.254-0.29,6.344-0.469,9.094
		c-0.891,13.741-0.894,13.76,3.188,17c8.766,6.962,9.468,7.854,10.875,14c0.756,3.301,1.352,7.622,1.344,9.595
		c-0.008,1.972,1.164,5.896,2.594,8.718c3.342,6.596,3.479,11.723,0.344,12.562c-3.301,0.885-4.558,0.773-5.344-0.5
		c-0.683-1.104-3.438-13.844-5.375-24.75c-1.095-6.163-2.551-8.078-9.531-12.594c-5.54-3.583-8.223-6.386-7.938-8.281
		c0.104-0.688,0.244-2.126,0.312-3.188c0.068-1.061,0.747-2.527,1.5-3.281c0.893-0.892,1.337-3.692,1.312-8
		c-0.037-6.61-0.013-6.597-3.844-8.75c-4.278-2.404-5.844-4.668-5.844-8.469c0-2.06,0.489-2.562,2.469-2.562
		c3.706,0,4.959-3.186,2.5-6.312c-1.088-1.383-1.969-3.01-1.969-3.625c0-1.315,4.695-3.371,7.406-3.25
		c2.4,0.107,7.594,5.024,7.594,7.188c0,0.901,1.046,2.623,2.312,3.812l2.281,2.156l1.344-3.625
		c2.233-6.175,6.29-11.302,9.562-12.062C1479.096,937.911,1480.526,937.708,1481.812,937.718z"/>
	<path id="CA-NB" opacity="0.1" fill="#B0B4C4" d="M2029.573,1116.277c-2.275-0.581-5.016-3.686-6.652-7.54
		c-0.646-1.52-2.175-3.014-3.397-3.32c-4.056-1.018-10.466-17.709-10.528-27.417c-0.021-3.333-0.608-5.048-2.263-6.613
		c-3.891-3.683-9.126-6.379-12.394-6.383l-3.161-0.004l-0.39-6.25c-0.215-3.438-0.229-6.587-0.03-7
		c0.198-0.412,3.146-0.784,6.552-0.825c7.351-0.091,11.438-1.446,15.603-5.176c1.889-1.69,5.94-3.537,10.513-4.791
		c6.909-1.896,7.704-1.931,11.168-0.483c3.556,1.485,3.82,1.459,5.713-0.572c4.062-4.36,15.749-7.832,15.659-4.652
		c-0.02,0.688-0.679,2.375-1.465,3.75c-2.116,3.703-1.909,12.209,0.37,15.115c1.027,1.312,2.193,3.871,2.591,5.688
		c0.441,2.021,2.521,5.027,5.362,7.75c4.457,4.271,4.885,4.447,10.742,4.447c3.355,0,6.361,0.261,6.68,0.579
		s-1.668,2.906-4.414,5.75s-6.135,7.576-7.528,10.515c-3.562,7.511-16.072,20.156-19.938,20.156c-2.188,0-3.172,0.67-4.114,2.797
		C2042.438,1115.891,2035.894,1117.888,2029.573,1116.277z"/>
	<g id="CA-NL">
		<path opacity="0.1" fill="#B0B4C4" d="M2141.12,1006.426c-2.765-3.516-2.688-7.783,0.21-11.743
			c3.077-4.203,3.418-9.311,0.681-10.18c-2.577-0.818-2.545-2.903,0.111-7.201c1.898-3.071,2.054-4.348,1.473-12.118
			c-1.047-13.991-0.729-30.411,0.902-46.685c0.11-1.1,0.545-5.586,0.965-9.97c0.887-9.242,2.73-12.605,9.913-18.09
			c3.929-3,4.976-3.394,6.239-2.346c3.749,3.111,4.516,6.665,4.07,18.86c-0.238,6.506-0.682,12.23-0.984,12.722
			c-0.305,0.492-0.843,3.578-1.197,6.858l-0.645,5.965l2.535-3c1.394-1.649,2.551-3.307,2.57-3.683
			c0.079-1.501,4.227-1.877,7.532-0.683c3.71,1.342,3.808,1.525,3.528,6.615l-0.178,3.25h5.018c2.76,0,5.258-0.388,5.551-0.862
			s2.683-1.457,5.309-2.182c2.627-0.726,7.026-2.357,9.776-3.627c4.97-2.293,9.466-2.37,13.618-0.232
			c2.176,1.12,3.157,6.49,1.631,8.933c-1.015,1.626-0.887,2.277,0.773,3.938c1.714,1.713,2.688,1.879,7.029,1.192
			c6.386-1.009,7.448-0.624,7.448,2.701c0,2.833-2.062,6.454-5.347,9.389c-1.078,0.963-1.44,1.75-0.807,1.75
			c0.646,0,1.153,1.504,1.153,3.419c0,1.88,0.273,4.13,0.606,5c0.703,1.83,2.394,2.131,2.394,0.426c0-1.856,4.97-7.845,6.511-7.845
			c0.777,0,1.946,1.794,2.607,4c1.364,4.555,2.728,4.914,6.91,1.821c1.621-1.198,3.29-1.833,3.709-1.411
			c0.42,0.422,0.867,3.765,0.996,7.429s0.307,8.34,0.396,10.391c0.236,5.385-3.823,11.246-8.01,11.565
			c-2.515,0.191-3.378-0.267-4.295-2.277c-1.438-3.156-2.144-3.16-3.825-0.018c-2.72,5.082-4.95,1.934-6.136-8.663
			c-0.867-7.758-2-10.837-3.986-10.837c-0.482,0-0.878,1.646-0.878,3.655c0,2.953-0.756,4.373-3.934,7.396
			c-3.561,3.387-4.029,4.434-4.941,11.015c-1.342,9.679-3.734,12.252-11.587,12.457c-6.767,0.178-7.282-1.438-2.038-6.384
			c2.854-2.691,3.5-4.032,3.5-7.256c0-3.729-0.121-3.889-2.14-2.809c-3.793,2.029-8.146,2.933-9.344,1.938
			c-1.199-0.995-2.909-0.229-12.959,5.8c-3.036,1.822-6.767,3.51-8.289,3.75s-4.311,0.697-6.195,1.016s-7.96,2.393-13.5,4.609
			s-10.582,4.234-11.203,4.482S2142.286,1007.909,2141.12,1006.426z"/>
		<path opacity="0.1" fill="#B0B4C4" d="M2016.821,934.508c-0.177-0.164-2.035-0.525-4.13-0.802s-4.675-1.286-5.733-2.245
			c-1.525-1.38-3.123-1.639-7.691-1.243c-7.318,0.634-8.074,0.329-8.793-3.541c-1.191-6.422-1.322-7.2-1.396-8.355
			c-0.043-0.648-0.768-1.87-1.612-2.714c-1.38-1.381-1.859-1.338-4.75,0.425c-1.769,1.078-4.157,1.962-5.31,1.964
			c-2.539,0.004-6.041-3.486-4.471-4.456c1.141-0.705,1.41-6.653,0.462-10.189c-0.361-1.345-2.133-2.751-4.736-3.761
			c-7.374-2.858-15.148-14.94-12.636-19.636c0.575-1.075,1.491-1.955,2.035-1.955c1.031,0,2.775-3.837,3.297-7.253
			c0.166-1.089,1.256-2.716,2.422-3.613c1.165-0.898,2.565-2.829,3.11-4.291c0.947-2.539,1.183-2.615,5.302-1.715
			c2.37,0.519,5.435,1.718,6.81,2.664c3.522,2.426,7.166,1.696,9.521-1.905c1.896-2.898,2.189-2.996,6.979-2.325
			c2.75,0.386,5.795,0.67,6.767,0.631c1.434-0.057,1.695,0.586,1.385,3.401c-0.211,1.909-0.556,3.588-0.768,3.729
			c-4.446,2.986-7.866,6.042-8.311,7.427c-0.309,0.963-1.913,2.65-3.564,3.75c-3.515,2.342-3.726,3.541-1.049,5.964
			c2.396,2.168,8.301,1.406,10.262-1.324c2.346-3.267,7.365-5.078,11.008-3.971c4.717,1.433,8.339-0.265,10.42-4.883
			c1.756-3.898,1.963-9.073,0.424-10.612c-0.498-0.498-1.776,0.03-2.973,1.227c-1.314,1.314-3.38,2.1-5.519,2.1
			c-7.53,0-8.203-2-3.582-10.659c1.65-3.092,3-6.646,3-7.898c0-3.02-3.308-10.622-5.363-12.328c-0.9-0.747-1.637-2.095-1.637-2.994
			c0-2.79-4.994-11.483-8.226-14.318c-2.114-1.855-3.312-4.043-3.834-7c-0.418-2.365-1.279-7.227-1.916-10.802
			c-0.637-3.574-1.186-9.425-1.219-13c-0.07-7.531-1.932-11.558-5.717-12.368c-1.424-0.305-4.052-1.465-5.839-2.578
			c-3.615-2.251-4.211-5.237-1.746-8.756c1.049-1.496,1.242-2.851,0.639-4.472c-0.889-2.387-0.854-3.311,0.33-8.702
			c0.757-3.444,0.201-3.648-8.903-3.263c-2.161,0.092-3.69-0.072-3.398-0.365c0.292-0.292-0.231-3.785-1.164-7.763
			c-1.328-5.672-2.113-7.296-3.636-7.524c-1.068-0.16-2.437-1.084-3.042-2.053c-1.422-2.278-5.544-17.274-4.919-17.899
			c1.047-1.047,12.681,9.262,16.731,14.825c2.37,3.255,5.078,5.918,6.017,5.918c0.938,0,2.645,1.318,3.792,2.93
			c1.146,1.611,3.599,3.865,5.447,5.008c2.195,1.356,4.108,3.812,5.511,7.07c1.381,3.211,2.763,4.997,3.87,5.005
			c0.947,0.007,2.697,1.519,3.889,3.359c1.678,2.591,3.084,3.493,6.234,3.996c3.51,0.562,4.369,1.232,6.269,4.892
			c1.211,2.332,2.455,6.026,2.766,8.208c0.528,3.717,0.855,4.05,5.177,5.27c2.537,0.716,5.38,2.149,6.317,3.186
			c1.555,1.718,1.576,2.319,0.245,6.803c-1.228,4.131-1.248,5.308-0.129,7.347c0.732,1.336,1.568,3.553,1.859,4.928
			c0.456,2.162,1.988,3.008,11.312,6.251c5.931,2.062,11.589,3.75,12.573,3.75s3.513,1.865,5.619,4.146l3.828,4.146l8.881,0.409
			c4.885,0.226,10.59,1.064,12.678,1.864c3.898,1.493,6.332,0.949,9.379-2.098c0.955-0.955,2.785-0.788,8.521,0.778
			c4.018,1.098,7.574,2.42,7.903,2.939c1.289,2.029-0.383,5.688-3.115,6.82c-1.547,0.642-5.214,3.884-8.148,7.206
			c-2.934,3.322-6.686,7.471-8.335,9.219s-5.103,5.403-7.673,8.124c-4.779,5.058-6.993,11.061-4.439,12.04
			c2.127,0.816,12.414-10.02,13.129-13.83c0.443-2.367,2.96-5.874,8.311-11.581c6.938-7.398,8.029-8.185,11.387-8.185
			c3.078,0,4.105,0.568,6,3.312c1.912,2.771,2.695,3.196,4.786,2.6c4.701-1.34,9.682-0.949,12.115,0.95
			c1.312,1.024,5.085,3.354,8.385,5.176s6.13,3.401,6.287,3.509c0.158,0.107-0.251,1.377-0.909,2.821
			c-1.684,3.696,0.291,9.734,4.589,14.032c3.279,3.279,7.533,10.399,7.533,12.608c0,1.648-6.808,12.069-10.251,15.689l-3.04,3.198
			l-4.08-5.198c-2.244-2.858-4.513-5.502-5.042-5.873s-2.564,0.131-4.524,1.114c-1.959,0.984-5.921,2.345-8.803,3.022
			c-2.882,0.679-8.507,2.49-12.5,4.025s-12.21,4.665-18.26,6.955s-13.149,5.058-15.776,6.149
			c-9.537,3.967-30.319,11.151-34.224,11.832c-3.244,0.565-5.052,0.182-9.567-2.035c-3.062-1.503-6.029-2.43-6.595-2.061
			c-0.565,0.37-1.085,2.473-1.154,4.672c-0.157,4.938-1.239,13.865-1.745,14.385
			C2021.958,934.378,2017.243,934.903,2016.821,934.508z"/>
	</g>
	<g id="CA-NS">
		<path opacity="0.1" fill="#B0B4C4" d="M2063.66,1148.678c-5.845-1.265-8.686-4.567-11.051-12.85
			c-1.157-4.053-1.345-6.394-0.659-8.199c1.467-3.855,8.089-13.629,12.436-18.351c2.137-2.321,4.489-5.083,5.227-6.136
			s2.475-2.199,3.861-2.547c2.842-0.714,11.526-6.563,11.526-7.764c0-1.041-4.487,0.7-9.807,3.805
			c-9.246,5.396-7.949-3.368,2.206-14.904c4.464-5.072,5.523-5.771,8.596-5.675c9.529,0.301,20.23-1.4,23.723-3.771
			c2.169-1.472,4.168-2.134,5.161-1.708c0.892,0.382,3.704,0.771,6.25,0.863c5.272,0.191,9.436,2.508,11.108,6.178
			c1.066,2.341,0.698,2.963-5.296,8.948c-3.543,3.538-7.116,7.147-7.941,8.021c-3.555,3.763-12.351,10.461-14.417,10.979
			c-1.32,0.331-3.456,2.625-5.166,5.548c-2.678,4.576-3.174,4.946-6.044,4.517c-2.588-0.387-3.321-0.043-4.25,1.996
			c-0.618,1.355-1.123,2.925-1.123,3.487s-1.354,4.274-3.009,8.25c-2.273,5.462-4.606,8.864-9.549,13.93
			c-3.598,3.688-6.631,6.642-6.741,6.565C2068.591,1149.787,2066.322,1149.253,2063.66,1148.678z"/>
		<path opacity="0.1" fill="#B0B4C4" d="M2130.976,1072.718c-0.839-0.67-3.709-3.577-6.38-6.46c-3.56-3.844-4.581-5.578-3.83-6.5
			c0.563-0.692,2.414-5.424,4.112-10.516c3.443-10.32,6.689-17.243,8.086-17.243c1.767,0,4.036,4.469,4.05,7.973
			c0.022,5.702,0.97,7.808,3.831,8.515c3.484,0.86,8.155,5.364,8.155,7.862c0,1.087-1.397,4.152-3.104,6.813
			c-2.251,3.509-3.743,4.837-5.432,4.837c-1.445,0-3.138,1.138-4.464,3C2133.631,1074.327,2133.181,1074.481,2130.976,1072.718z"/>
	</g>
	<g id="CA-NT">
		<path opacity="0.1" fill="#B0B4C4" d="M1172.062,374.25c-1.697-0.029-4.131,0.279-7.625,0.719
			c-5.371,0.676-10.358,1.437-11.094,1.719c-0.961,0.369-1.2,1.867-0.844,5.344c0.576,5.628-0.701,7.104-3.062,3.5
			c-0.912-1.393-1.975-2.531-2.344-2.531c-1.667,0-16.203,26.308-19.062,34.5c-1.728,4.95-3.799,10.001-4.594,11.219
			c-2.298,3.522-1.75,4.521,4.844,9c14.004,9.513,14.384,10.468,8.625,22.281c-2.011,4.125-3.892,9.382-4.156,11.688
			c-0.448,3.907-0.21,4.406,3.406,7.312c2.135,1.717,3.691,3.466,3.438,3.875c-0.253,0.41-0.59,3.345-0.719,6.531
			c-0.25,6.175-1.438,8.208-5.469,9.219c-2.831,0.711-4.406,3.14-4.406,6.812c0,1.411-0.416,2.562-0.906,2.562
			c-0.49,0-1.168,1.179-1.531,2.625c-0.481,1.916-0.119,3.222,1.375,4.812c1.428,1.521,2.056,3.538,2.062,6.625
			c0.005,2.62,0.991,6.453,2.406,9.375c1.651,3.409,2.239,5.974,1.875,8.219c-0.355,2.188,0.148,4.566,1.531,7.219
			c2.026,3.887,2.019,4.035,0.25,9.875c-2.395,7.911-4.82,21.129-5.469,29.75c-0.29,3.851-0.798,7.916-1.125,9.031
			c-0.38,1.3,0.187,2.918,1.562,4.5c2.659,3.061,4.268,6.858,5.938,13.969c1.503,6.399,3.428,10.596,6.312,13.75l2.062,2.25
			l-2.156,2.312c-1.435,1.527-2.188,3.588-2.188,6.062c0,2.063-0.482,4.635-1.062,5.719c-0.948,1.771-0.414,2.265,5.25,4.844
			c3.468,1.58,8.046,4.06,10.156,5.5c3.045,2.079,4.542,2.478,7.25,1.969c4.049-0.759,3.764-1.784,3.844,14.438l0.062,12.344
			l11,4.438c35.703,14.424,77.83,28.779,118.5,40.375c11.825,3.372,28.025,8.091,36,10.5s15.85,4.647,17.5,4.938
			c1.65,0.291,9.75,1.886,18,3.562c8.25,1.678,16.243,3.264,17.75,3.531c1.507,0.269,7.356,1.417,13,2.531
			c5.644,1.115,11.6,2.244,13.25,2.531c1.65,0.288,9.3,1.816,17,3.375c15.772,3.193,21.448,3.656,21.562,1.781
			c0.042-0.688,0.242-2.086,0.438-3.125c0.195-1.038,0.644-5.763,1-10.5c0.356-4.736,0.83-9.75,1.031-11.125
			c0.202-1.375,0.618-5.425,0.938-9c0.911-10.209,2.485-26.513,3.031-31.5c0.181-1.649,0.636-7.05,1-12
			c0.364-4.949,0.827-9.675,1.031-10.5c0.204-0.824,0.633-5.324,0.969-10c0.336-4.675,1.056-12.221,1.594-16.781
			c0.538-4.56,0.734-8.706,0.438-9.188c-0.298-0.48-6.948-4.211-14.781-8.312c-16.567-8.674-33.558-17.665-46.188-24.438
			l-8.906-4.781l-6.156-10l-6.156-10l-11.312-2.406l-11.312-2.438l-9.688-13.062c-5.332-7.195-13.738-18.719-18.688-25.594
			s-14.729-20.302-21.719-29.844c-6.99-9.541-13.397-18.417-14.25-19.719c-1.447-2.209-1.312-2.985,1.969-11.656
			c12.34-32.61,12.314-32.447,6.094-40.594c-1.884-2.467-3.438-4.872-3.438-5.344c0-0.471-0.491-0.844-1.094-0.844
			s-2.29-0.845-3.75-1.875c-1.46-1.029-4.456-2.086-6.656-2.344c-3.422-0.4-4.592,0.03-8.125,2.906
			c-3.564,2.903-4.487,3.204-6.75,2.344c-3.34-1.27-3.293-2.016,0.344-5.5c1.631-1.562,2.662-3.334,2.281-3.938
			c-0.381-0.603-0.707-3.421-0.719-6.281c-0.037-8.661-1.395-8.668-10.094,0.031c-4.211,4.212-7.873,7.656-8.125,7.656
			c-0.721,0-3.799-3.275-3.938-4.188c-0.069-0.451-0.181-6.594-0.25-13.656c-0.124-12.736-0.161-12.849-2.688-14
			c-3.589-1.635-5.248-1.462-8.219,0.875c-1.919,1.51-3.833,2.005-7.375,1.844c-3.24-0.148-4.506-0.587-3.938-1.312
			c0.462-0.59,1.066-2.336,1.344-3.875c0.453-2.509,0.018-3.037-4.125-5.125c-4.632-2.335-11.948-2.837-18.125-1.281
			c-1.375,0.346-7.232,0.888-13,1.219c-7.646,0.438-10.689,1.004-11.281,2.062c-0.446,0.798-2.159,1.438-3.781,1.438
			c-2.802,0-2.923-0.214-2.938-4.25C1175.982,375.913,1175.795,374.314,1172.062,374.25z M1254.906,514.406
			c26.007,0.094,28.094,0.455,28.094,4.625c0,0.976-2.138,3.565-4.75,5.781c-3.166,2.687-4.416,4.365-3.75,5.031
			c1.187,1.186,14.972,6.755,21.812,8.812c4.7,1.415,4.791,1.543,4.125,4.656c-0.735,3.441-2.155,5.688-3.594,5.688
			c-0.494,0-2.652,1.165-4.812,2.594l-3.938,2.594l-5.781-2.688c-3.19-1.477-6.655-3.137-7.688-3.688
			c-2.503-1.334-3.942,0.317-6.062,6.875c-2.018,6.241-2.403,6.57-10.281,9.219c-3.42,1.15-6.683,2.094-7.25,2.094
			c-1.879,0-1.064-2.887,1.75-6.219c5.854-6.93,5.783-6.781,2.406-6.781c-1.809,0-4.256,1.043-6.062,2.562
			c-4.924,4.144-8.675,4.754-13.188,2.156c-2.109-1.214-4.342-3.343-4.969-4.719c-1.065-2.337-0.698-2.921,5.906-9.219
			c3.887-3.706,9.067-7.7,11.5-8.844c2.433-1.143,4.638-2.91,4.906-3.938c0.755-2.887-3.236-5.991-7.844-6.094
			c-2.165-0.048-6.818-1.061-10.344-2.25c-5.264-1.775-6.485-2.6-6.781-4.594c-0.198-1.335,0.13-2.729,0.719-3.094
			C1229.62,514.605,1241.268,514.357,1254.906,514.406z M1288.906,643c0.411,0,2.248,2.068,4.062,4.594
			c1.814,2.526,4.873,6.015,6.812,7.75c5.38,4.815,9.335,9.302,11.812,13.406c1.973,3.27,3.034,3.901,8.875,5.375
			c6.196,1.564,7.044,1.574,12.5,0.031c3.949-1.116,6.562-2.567,8.031-4.438c3.04-3.867,6.788-5.545,13.094-5.906
			c5.364-0.307,5.408-0.275,5.219,2.469c-0.275,3.998-4.228,8.475-8.562,9.719c-2.062,0.592-5.661,2.935-8,5.188
			c-2.339,2.254-7.175,5.407-10.75,7.031s-8.212,3.861-10.312,4.969c-2.204,1.163-4.883,1.811-6.344,1.531
			c-1.798-0.344-3.45,0.318-5.688,2.281c-1.731,1.521-4.895,3.483-7.031,4.375c-2.137,0.893-5.062,1.535-6.5,1.406
			c-18.461-1.654-20.202-2.287-29.031-10.5c-7.952-7.396-7.875-9.281,0.438-9.281c3.078,0,6.468,0.462,7.531,1.031
			c2.27,1.215,4.992,0.068,9.219-3.875c2.2-2.053,3.588-2.512,6.781-2.281c4.59,0.332,6.938-1.119,6.938-4.312
			c0-2.974-4.071-14.701-7.688-22.125C1287.575,645.818,1287.1,643,1288.906,643z"/>
		<path opacity="0.1" fill="#B0B4C4" d="M1395.5,450.981c-7.15-2.083-18.4-5.4-25-7.372s-15.6-4.602-20-5.843
			c-7.522-2.124-7.791-2.292-4.5-2.823c1.925-0.311,8.45-0.369,14.5-0.13c8.914,0.352,11.867,0.871,15.571,2.737
			c4.59,2.312,16.805,5.907,17.547,5.165c0.218-0.219-2.29-2.96-5.574-6.092c-6.247-5.959-11.081-8.61-15.762-8.644
			c-3.555-0.025-19.3-4.13-25.673-6.692c-4.636-1.864-4.986-2.274-6.735-7.877c-1.015-3.251-1.852-6.454-1.859-7.118
			c-0.013-1.088,4.666-2.748,17.985-6.382l4.5-1.227l-3.5-0.807c-1.925-0.444-4.777-0.922-6.338-1.062
			c-3.046-0.273-6.271-4.785-5.276-7.38c0.292-0.761-0.023-1.732-0.701-2.16s-2.039-2.043-3.023-3.591
			c-2.36-3.708-1.498-7.382,2.805-11.943c3.964-4.203,5.534-6.896,5.534-9.49c0-5.082,14.833-13.17,29.645-16.166
			c5.421-1.096,11.938-2.269,14.484-2.606c4.452-0.589,4.669-0.499,5.665,2.358c1.243,3.565,0.14,9.308-2.914,15.167
			c-1.17,2.244-1.857,4.35-1.528,4.679c0.328,0.329,2.641-1.076,5.137-3.122l4.539-3.72l6.236,3.567
			c3.43,1.961,7.328,4.496,8.662,5.631l2.427,2.065l-2.031,4.808l-2.032,4.808l4.105-0.918c2.258-0.505,4.406-1.23,4.772-1.611
			c0.367-0.381-0.002-2.648-0.82-5.039c-0.817-2.391-1.343-4.439-1.167-4.553c4.247-2.734,5.8-3.444,6.183-2.824
			c0.545,0.883-21.189,88.419-22.188,89.358C1408.804,454.484,1402.65,453.065,1395.5,450.981z"/>
		<path opacity="0.1" fill="#B0B4C4" d="M1296.562,385.858c-0.252-0.747-0.908-5.239-1.459-9.983
			c-0.911-7.864-1.489-9.441-6.551-17.877c-3.054-5.089-5.542-9.758-5.529-10.375c0.031-1.56,2.994-4.945,5.978-6.83
			c1.375-0.868,4.971-5.564,7.991-10.436c3.02-4.871,6.341-9.757,7.38-10.857s5.206-6.419,9.259-11.821
			c7.051-9.396,7.375-10.067,7.488-15.5c0.065-3.124,0.036-6.285-0.066-7.027c-0.245-1.791,2.83-5.117,4.292-4.64
			c0.636,0.207,2.821,0.574,4.855,0.815c2.034,0.242,6.084,1.384,9,2.539c2.915,1.155,7.182,2.566,9.479,3.136
			c3.416,0.847,4.382,1.626,5.289,4.267c0.61,1.777,3.535,5.685,6.5,8.684c5.365,5.429,5.416,5.453,11.211,5.3
			c8.163-0.216,9.274,1.005,13.927,15.29c5.915,18.159,5.134,20.004-10.014,23.666c-6.96,1.683-13.868,4.693-15.592,6.794
			c-0.275,0.335-1.874,1.165-3.553,1.843c-1.68,0.678-4.157,2.228-5.506,3.443c-1.349,1.216-5.476,4.46-9.172,7.21
			c-5.361,3.989-7.443,6.363-10.295,11.742c-1.966,3.708-4.564,7.271-5.774,7.919s-2.2,1.041-2.2,0.874
			c0-0.278-1.205-0.058-8.5,1.55c-1.375,0.303-5.983,0.794-10.24,1.091C1298.766,387.094,1296.917,386.91,1296.562,385.858z"/>
		<path opacity="0.1" fill="#B0B4C4" d="M1412.621,310.922c-2.542-2.792-4.621-5.891-4.621-6.885c0-2.477,3.948-4.854,10.237-6.163
			c10.118-2.106,13.081-5.375,4.872-5.375c-3.324,0-4.621-0.527-6.09-2.474c-1.795-2.379-1.941-2.407-3.815-0.711
			c-2.375,2.15-8.131,2.84-10.914,1.31c-2.915-1.603-12.212-12.69-12.927-15.415c-0.649-2.478,1.929-6.209,4.292-6.209
			c0.739,0,1.379-0.337,1.421-0.75c0.32-3.133,1.12-4.845,3.354-7.176c1.413-1.476,2.57-3.568,2.57-4.65
			c0-2.666,5.707-9.423,7.958-9.423c0.996,0,2.549-1.125,3.45-2.5c1.374-2.097,2.419-2.5,6.48-2.5
			c6.414,0,10.111,2.764,10.111,7.558c0,2.848,0.633,3.833,3.822,5.943c5.119,3.388,7.499,8.461,7.686,16.387
			c0.165,7.013,1.635,9.098,6.434,9.127c4.928,0.03,5.011,0.708,1.737,14.235c-2.253,9.312-3.49,12.75-4.588,12.75
			c-0.827,0-4.07,1.8-7.206,4c-5.33,3.739-6.158,4-12.673,4h-6.971L1412.621,310.922z"/>
		<path opacity="0.1" fill="#B0B4C4" d="M1381.778,266.316c-0.951-0.25-2.18-2.099-2.747-4.134
			c-1.385-4.977,0.699-7.655,8.389-10.778c6.678-2.712,8.896-2.96,10.321-1.154c1.823,2.311,0.948,4.913-2.552,7.59
			c-1.912,1.463-5.081,4.122-7.042,5.91c-1.96,1.788-3.808,3.198-4.105,3.134C1383.744,266.82,1382.726,266.565,1381.778,266.316z"
			/>
		<path opacity="0.1" fill="#B0B4C4" d="M1372.571,249.429c-0.864-0.865-1.571-2.665-1.571-4c0-2.277-0.343-2.429-5.5-2.429
			c-8.886,0-11.753-4.366-7.25-11.039c1.646-2.439,3.462-3.643,6.765-4.484c2.482-0.632,6.675-2.357,9.316-3.832
			s5.182-2.447,5.644-2.162s4.082-2.519,8.043-6.232c9.185-8.61,10.716-9.382,18.268-9.215c3.418,0.076,7.34-0.064,8.715-0.311
			c2.964-0.532,7.504,1.537,8.379,3.818c1.919,5-0.178,10.564-4.997,13.261c-1.072,0.6-1.821,2.712-2.141,6.037
			c-0.46,4.789-0.769,5.276-4.848,7.667c-2.396,1.404-4.814,3.408-5.374,4.454c-1.329,2.484-4.733,3.519-6.567,1.997
			c-2.209-1.833-1.86-8.63,0.548-10.692c1.1-0.942,2-2.058,2-2.48c0-1.216-3.671,2.014-13.595,11.962
			C1378.78,251.399,1375.926,252.783,1372.571,249.429z"/>
		<path opacity="0.1" fill="#B0B4C4" d="M1450.346,222.044c-3.238-1.45-4.371-2.746-6.157-7.043
			c-1.203-2.897-2.188-5.878-2.188-6.625s-0.926-1.924-2.057-2.617c-5.387-3.296-7.67-12.758-3.079-12.758
			c2.045,0,5.136,2.974,5.136,4.942c0,0.931,0.895,1.085,3.25,0.561c4.233-0.942,21.555-1.792,23.253-1.141
			c1.022,0.392,1.094,1.462,0.322,4.821c-0.546,2.374-1.169,5.216-1.385,6.316c-1.486,7.583-2.847,11.558-4.452,13.01
			C1460.359,223.89,1454.977,224.117,1450.346,222.044z"/>
		<path opacity="0.1" fill="#B0B4C4" d="M1468,193.121c0-0.483-1.317-1.424-2.928-2.091s-3.721-2.088-4.689-3.159
			c-1.269-1.402-2.521-1.78-4.477-1.35c-1.494,0.328-3.002,0.133-3.353-0.434c-1.533-2.48,6.007-9.094,8.565-7.514
			c0.532,0.33,1.628,0.051,2.435-0.618c1.265-1.05,8.936-0.887,9.907,0.21c0.866,0.977-3.057,15.834-4.181,15.834
			C1468.576,194,1468,193.605,1468,193.121z"/>
	</g>
	<g id="CA-NU">
		<path opacity="0.1" fill="#B0B4C4" d="M1472.5,509.074c-4.903-1.18-12.266-5.441-17.558-10.163
			c-1.597-1.424-4.711-3.404-6.922-4.401c-2.212-0.997-4.077-2.42-4.146-3.161s-0.182-1.911-0.25-2.599
			c-0.224-2.233-4.389-2.068-5.11,0.203c-0.939,2.961-5.987,5.232-12.93,5.817c-3.302,0.278-6.58,1.082-7.285,1.787
			c-2.969,2.969-8.413,3.696-22.687,3.028c-21.249-0.994-27.556-2.091-27.664-4.811c-0.028-0.701-0.235-3.075-0.461-5.275
			c-0.226-2.199-0.615-6.649-0.866-9.889c-0.526-6.79-2.341-9.207-7.6-10.117c-5.965-1.033-18.022-9.496-18.022-12.649
			c0-0.464-0.074-1.182-0.164-1.595c-0.09-0.412-0.979-4.35-1.975-8.75c-0.995-4.399-1.821-8.306-1.836-8.679
			c-0.028-0.758,0.199-0.694,43.334,12.124c16.972,5.044,31.014,9.015,31.204,8.825c0.19-0.19,5.343-20.354,11.449-44.809
			c6.107-24.454,11.33-45.133,11.607-45.953c0.276-0.821,2.296,3.004,4.487,8.5c3.874,9.712,3.974,10.263,3.565,19.723
			c-0.494,11.436,0.616,14.479,4.035,11.062c1.724-1.724,1.966-3.073,1.692-9.402c-0.176-4.064-0.527-12.97-0.781-19.791
			l-0.461-12.4l3.171-3.321c2.96-3.1,3.432-3.261,7.077-2.419c2.26,0.521,4.918,2.09,6.306,3.721
			c2.318,2.725,2.346,2.731,0.809,0.192c-0.874-1.445-1.976-3.973-2.447-5.618c-1.217-4.241,1.968-7.854,7.927-8.991
			c5.345-1.02,9.295,0.812,13.426,6.228c3.765,4.936,2.8,9.099-4.085,17.62l-5.485,6.789l0.235,12.53
			c0.263,14.04,1.187,22.258,3.157,28.112c1.224,3.634,1.136,4.397-1.073,9.301c-1.744,3.873-2.245,6.335-1.821,8.946
			c0.893,5.505,7.173,13.716,16.353,21.384c10.582,8.838,14.319,15.588,12.122,21.892c-1.039,2.979-1.102,3.002-6.688,2.373
			c-3.102-0.349-6.067-1.04-6.59-1.535c-0.522-0.496-1.486-0.902-2.143-0.902c-2.627,0-2.191,3.299,1.117,8.471
			c5.512,8.617,4.4,14.001-3.676,17.809C1481.044,510.073,1477.579,510.295,1472.5,509.074z"/>
		<path opacity="0.1" fill="#B0B4C4" d="M1751.112,962.234c-5.131-2.053-6.112-2.835-6.112-4.871c0-2.741,0.546-3.018,7.438-3.766
			c4.598-0.5,5.136-0.315,7.795,2.663c3.673,4.114,3.496,8.085-0.37,8.283C1758.411,964.618,1754.474,963.579,1751.112,962.234z"/>
		<path opacity="0.1" fill="#B0B4C4" d="M1541.917,772.613c-0.229-0.212-4.017-0.705-8.416-1.095
			c-4.398-0.389-8.224-0.838-8.5-0.998c-0.275-0.16-4.101-0.61-8.5-1c-4.398-0.391-8.224-0.838-8.5-0.995
			c-0.275-0.156-3.426-0.578-7.001-0.936c-3.575-0.358-8.525-0.877-11-1.154c-9.408-1.052-12.83-1.408-24-2.502
			c-11.624-1.138-13.371-1.519-12.616-2.752c0.229-0.375,0.735-4.956,1.124-10.182c0.389-5.225,0.834-10.175,0.989-11
			c0.155-0.824,0.578-5.324,0.939-10c0.361-4.675,0.843-9.625,1.07-11s0.669-5.649,0.981-9.5c0.679-8.369,1.405-16.364,2.045-22.5
			c0.259-2.475,0.674-6.75,0.923-9.5c1.631-18.012,2.039-22.25,3.083-32c0.354-3.3,0.714-7.03,0.802-8.289
			c0.132-1.897-1.212-3.02-7.841-6.542c-10.129-5.384-28.661-15.176-43.5-22.983c-6.325-3.328-13.3-7.033-15.5-8.233
			c-3.867-2.11-5.933-4.712-13.605-17.139l-3.604-5.839l-11.42-2.396l-11.42-2.396l-5.562-7.591
			c-3.06-4.175-14.724-20.19-25.92-35.591c-11.197-15.399-22.97-31.566-26.163-35.927c-3.192-4.359-5.809-8.41-5.812-9
			c-0.007-0.973,12.921-36.623,13.564-37.404c1.2-1.458,10.888,7.28,14.821,13.371c2.654,4.108,9.991,10.316,14.746,12.475
			c2.01,0.913,3.135,0.918,4.812,0.02c1.91-1.021,2.75-0.712,6.577,2.424c2.414,1.978,5.249,4.821,6.301,6.319
			c2.362,3.362,6.186,11.969,6.186,13.922c0,2.572-2.568,4.111-8.012,4.803c-5.442,0.69-9.988,2.876-9.988,4.802
			c0,0.59,0.991,2.52,2.203,4.289c1.874,2.733,3.708,3.674,12.25,6.275c15.789,4.809,18.815,5.287,26.078,4.127
			c3.55-0.566,7.646-1.574,9.105-2.238c2.383-1.086,2.813-0.961,4.257,1.241c0.884,1.348,4.307,5.997,7.606,10.333
			c7.8,10.247,10.376,15.251,9.841,19.113c-0.32,2.31-0.175,2.689,0.598,1.556c0.633-0.93,0.792-5.375,0.418-11.694l-0.604-10.194
			l10.559-5.251c6.064-3.016,10.75-5.982,11.008-6.97c0.423-1.616,0.2-1.613-3.685,0.045c-2.273,0.971-6.499,2.368-9.39,3.105
			c-4.896,1.249-5.444,1.2-8-0.708c-6.752-5.041-1.057-14.594,9.094-15.252c2.111-0.137,6.161-1.01,9-1.94
			c2.84-0.93,6.409-1.536,7.934-1.347c3.306,0.41,6.033,4.143,6.256,8.562c0.087,1.729,0.94,4.655,1.896,6.502
			c2.491,4.812,10.126,12.122,12.8,12.258c1.252,0.062,2.727,0.22,3.276,0.348c0.55,0.127,1.51,0.301,2.133,0.385
			c0.623,0.083,2.997,3.014,5.276,6.512l4.144,6.36l6.12,0.64c3.366,0.353,9.094,0.64,12.728,0.64c3.633,0,9.753,0.9,13.6,2
			c3.847,1.101,6.995,2,6.997,2s0.093-1.641,0.203-3.646c0.11-2.005,0.897-5.39,1.75-7.52c0.853-2.131,1.55-5.051,1.55-6.489
			c0-2.534,0.145-2.597,4.602-1.985c5.722,0.784,11.898,2.854,18.679,6.26c2.871,1.442,5.375,2.761,5.564,2.93
			c0.273,0.244-3.37,13.906-5.396,20.233c-0.227,0.705,0.65,1.686,1.947,2.179c1.304,0.496,2.924,2.382,3.623,4.218l1.265,3.321
			l0.679-3c0.438-1.931,0.135-4.068-0.849-6c-0.908-1.782-1.546-5.754-1.571-9.784c-0.045-7.182,0.958-8.92,4.598-7.969
			c3.567,0.934,10.606-2.639,13.824-7.013c2.535-3.447,3.035-5.059,3.035-9.776c0-4.378-0.449-6.055-2-7.458
			c-2.3-2.081-2.79-9.31-0.769-11.331c1.71-1.71-4.444-7.259-10.136-9.137c-3.437-1.134-4.964-2.484-7.767-6.866
			c-2.978-4.655-3.485-6.31-3.462-11.278c0.016-3.203,0.502-6.708,1.08-7.789c0.821-1.534,0.462-3.329-1.634-8.16l-2.686-6.194
			l1.936-5.612c1.633-4.732,2.596-5.975,6.143-7.922c3.851-2.115,4.114-2.51,3.126-4.68c-0.931-2.042-0.614-2.944,2.294-6.538
			c7.831-9.677,7.113-9.116,10.734-8.381c2.335,0.475,3.707,1.498,4.5,3.357c0.627,1.471,2.834,4.156,4.905,5.97
			c6.813,5.965,7.782,8.073,8.169,17.787c0.341,8.55,0.494,9.036,5.456,17.286c6.244,10.382,6.924,16.01,1.694,14.021
			c-2.022-0.769-2.173-0.585-1.77,2.162c0.242,1.65-0.158,4.814-0.89,7.031c-1.247,3.777-1.192,4.141,0.881,5.819
			c1.836,1.486,2.834,1.617,5.896,0.772c3.829-1.058,7.191-0.431,14.848,2.769c3.171,1.324,3.523,1.765,2.342,2.918
			c-0.766,0.748-3.417,1.642-5.892,1.986c-7.042,0.981-7.556,2.638-2.912,9.405c3.675,5.354,4.494,8.067,4.859,16.104
			c0.193,4.252,1.76,0.181,2.501-6.5c1.154-10.397,2.506-13.582,6.467-15.237l3.519-1.47l6.717,7.354
			c4.698,5.143,7.038,8.614,7.784,11.547c1.595,6.274,1.307,10.065-0.935,12.307c-1.1,1.101-2,3.283-2,4.852
			c0,2.921,1.839,9.254,2.946,10.148c0.341,0.275,2.114,2.863,3.94,5.75c1.827,2.888,3.625,5.25,3.995,5.25
			c1.547,0,5.307-3.365,6.104-5.464c0.474-1.245,1.131-4.912,1.46-8.149c0.33-3.237,1.241-7.236,2.025-8.887
			c0.784-1.649,2.335-6.174,3.446-10.053c1.111-3.88,3.376-9.055,5.033-11.5c3.574-5.276,3.776-7.543,0.941-10.561
			c-2.382-2.536-5.278-14.545-4.292-17.793c1.297-4.268,3.447-5.594,9.073-5.594c4.044,0,6.747,0.738,10.986,3
			c3.092,1.65,6.518,3,7.612,3c1.096,0,3.433,1.528,5.193,3.396s5.158,4.393,7.549,5.612c4.21,2.148,7.884,5.559,7.952,7.383
			c0.019,0.489-0.707,1.431-1.612,2.093c-1.51,1.104-1.473,1.443,0.445,4.11c1.151,1.599,2.381,4.536,2.733,6.528
			c0.595,3.36,0.424,3.697-2.368,4.671c-1.655,0.577-3.511,1.985-4.123,3.128c-0.611,1.144-1.996,2.079-3.077,2.079
			c-2.653,0-2.471,1.909,0.516,5.382c1.363,1.585,2.758,4.37,3.099,6.189c0.413,2.2,1.713,4.057,3.884,5.544
			c7.083,4.854,7.087,14.889,0.012,26.979c-8.378,14.317-8.959,14.951-13.312,14.527c-2.121-0.206-5.049-1.156-6.506-2.11
			l-2.649-1.736l1.57,3.758c1.744,4.173,0.653,5.961-2.952,4.838c-3.71-1.156-5.152-1.099-6.721,0.269
			c-1.361,1.187-2.091,1.18-5-0.049c-1.873-0.79-4.08-2.392-4.905-3.559c-1.266-1.789-2.126-2.018-5.5-1.46
			c-2.2,0.363-4.797,1.079-5.771,1.591c-1.586,0.833-1.392,1.289,1.845,4.342c3.385,3.191,3.571,3.682,2.905,7.62
			c-0.513,3.035-2.207,5.973-6.072,10.529c-2.949,3.477-5.646,7.451-5.992,8.833c-0.347,1.383-1.145,2.516-1.772,2.518
			c-0.628,0.003,0.139,1.03,1.704,2.282c2.403,1.924,2.798,2.894,2.539,6.245c-0.168,2.183-1.027,5.093-1.91,6.468
			s-2.499,3.851-3.593,5.5c-1.094,1.65-3.989,6.479-6.435,10.729c-5.062,8.798-6.701,9.771-16.441,9.771
			c-7.157,0-9.157,1.446-9.678,7c-0.323,3.444-0.4,3.499-4.828,3.438c-2.475-0.034-5.73-0.341-7.233-0.681
			c-4.007-0.907-4.27,0.759-0.528,3.343c1.794,1.238,3.432,2.38,3.639,2.536c1.046,0.788,1.16,8.721,0.169,11.726
			c-1.323,4.008-5.039,5.938-11.985,6.227c-7.852,0.325-7.477,0.153-5.801,2.661c1.416,2.12,1.293,2.455-2.128,5.784
			c-5.068,4.933-10.917,12.645-13.625,17.966c-1.26,2.476-3.285,5.399-4.501,6.498c-2.637,2.383-5.006,6.72-5.006,9.163
			c0,0.969-2.329,6.688-5.175,12.709c-4.344,9.19-5.157,11.808-5.066,16.29l0.107,5.34h-4.267
			C1544.253,773,1542.146,772.826,1541.917,772.613z"/>
		<path opacity="0.1" fill="#B0B4C4" d="M1743.857,717.306c-5.328-3.306-5.112-13.075,0.422-19.065
			c2.246-2.432,4.788-2.262,7.971,0.532c3.203,2.813,1.622,14.405-2.487,18.233C1747.208,719.386,1747.208,719.386,1743.857,717.306
			z"/>
		<path opacity="0.1" fill="#B0B4C4" d="M1692.062,706.118c-2.321-4.339,0.959-14.182,5.836-17.507
			c3.907-2.664,5.005-2.899,12.73-2.726c4.704,0.105,5.23,0.361,6.364,3.099c1.126,2.717,0.955,3.423-1.911,7.889
			c-4.168,6.494-10.108,10.374-16.735,10.928C1693.882,708.174,1693.044,707.95,1692.062,706.118z"/>
		<path opacity="0.1" fill="#B0B4C4" d="M1669.75,684.235c-1.366-0.298-1.75-1.419-1.75-5.108c0-2.6-0.54-5.267-1.2-5.927
			s-3.697-1.244-6.75-1.3c-11.806-0.212-13.641-2.761-7.092-9.854c3.764-4.076,4.426-5.872,4.257-11.546
			c-0.584-19.647,0.008-25.889,3.905-41.18c1.217-4.776,1.593-5.231,4.824-5.837c3.048-0.572,3.801-0.288,5.777,2.18
			c1.25,1.561,3.062,4.748,4.025,7.084c1.5,3.633,2.187,4.254,4.753,4.304c1.979,0.038,5.895,2.077,11.5,5.989
			c4.675,3.262,11.303,7.851,14.729,10.195c3.426,2.346,6.24,4.94,6.255,5.765c0.015,0.825,1.135,3.301,2.489,5.5
			c1.355,2.2,2.479,4.792,2.495,5.759c0.027,1.529,0.717,1.681,5.281,1.157c4.718-0.541,5.625-0.313,8.944,2.241
			c3.208,2.47,3.648,3.303,3.351,6.343c-0.507,5.164-1.196,6.283-5.312,8.615c-3.731,2.114-3.733,2.114-8.232,0.167
			c-2.891-1.251-5.813-1.776-8.175-1.47c-2.915,0.379-4.117,0.006-5.819-1.806c-1.18-1.256-2.001-3.083-1.825-4.061
			c0.47-2.615-8.543-7.221-10.671-5.454c-0.83,0.689-1.51,2.294-1.51,3.565c0,3.558-1.817,7.54-4.796,10.51
			c-1.487,1.483-3.705,4.021-4.928,5.641c-3.138,4.153-7.038,8.27-7.979,8.42C1673.785,684.53,1671.288,684.571,1669.75,684.235z"/>
		<path opacity="0.1" fill="#B0B4C4" d="M1538.396,526.656c-3.352-1.09-7.627-3.918-11.896-7.869
			c-1.65-1.527-3.381-2.779-3.846-2.782c-1.979-0.011-6.654-4.301-6.654-6.104c0-2.513,15.854-23.9,17.718-23.9
			c2.511,0,11.717,9.695,14.399,15.164c4.061,8.279,6.883,16.107,6.883,19.092c0,2.042-0.953,3.347-3.842,5.259
			C1547.202,528.131,1543.857,528.431,1538.396,526.656z"/>
		<path opacity="0.1" fill="#B0B4C4" d="M1909.746,677.413c-0.185-0.185-6.524-0.601-14.089-0.925
			c-10.825-0.464-14.199-0.951-15.848-2.288c-1.152-0.936-3.522-2.91-5.267-4.39c-2.66-2.258-3.966-2.646-8.106-2.406
			c-5.459,0.313-8.719-0.62-19.176-5.492c-6.287-2.929-7.208-3.723-8.357-7.203c-1.144-3.468-1.099-4.02,0.403-4.86
			c1.862-1.042,2.287-2.849,0.669-2.849c-0.562,0-3.261-1.538-5.995-3.419c-2.733-1.881-6.331-3.719-7.993-4.083
			c-1.911-0.42-3.562-1.707-4.489-3.502c-2.208-4.27-7.313-7.418-12.959-7.991c-4.208-0.428-5.303-0.162-7.205,1.745
			c-1.638,1.644-3.414,2.25-6.583,2.25c-3.681,0-4.99,0.607-8.629,4l-4.29,4h-8.294c-13.788,0-16.896-2.526-18.198-14.793
			c-0.452-4.266-0.21-4.981,2.581-7.644c2.377-2.268,3.079-3.798,3.079-6.715c0-2.577,0.557-4.073,1.75-4.707
			c0.963-0.512,7.092-0.996,13.621-1.077c10.763-0.133,12.162-0.364,15-2.487c4.438-3.32,9.171-5.577,11.696-5.577
			c1.777,0,2.046-0.403,1.499-2.25c-0.784-2.646-1.383-5.003-1.49-5.866c-0.042-0.34-1.93-1.844-4.195-3.344
			c-3.872-2.562-4.088-2.956-3.604-6.572c0.284-2.116,1.171-5.111,1.972-6.657s3.783-7.387,6.629-12.981l5.173-10.17l-1.959-7.069
			c-1.865-6.73-7.704-16.032-12.629-20.12c-0.954-0.792-2.808-3.139-4.118-5.216c-1.362-2.157-4.499-4.95-7.317-6.515
			c-3.938-2.187-5.103-3.444-5.772-6.239c-0.753-3.142-1.142-3.465-3.797-3.157c-1.627,0.188-3.633,0.924-4.458,1.634
			s-3.368,2.229-5.652,3.378c-3.553,1.785-4.322,1.882-5.332,0.664c-1.676-2.019-0.336-5.543,3.322-8.742
			c3.046-2.663,3.071-2.757,1.139-4.218c-2.537-1.919-3.884-1.916-7.616,0.015c-3.909,2.021-5.86,1.227-5.86-2.389
			c0-1.929,0.67-3.178,2.031-3.785c1.893-0.844,1.704-1.225-2.75-5.565c-8.129-7.922-12.729-11.562-14.031-11.105
			c-0.688,0.241-1.25,1.976-1.25,3.855V478l-10.25,0.235c-5.638,0.129-13.229,0.175-16.872,0.103
			c-5.581-0.112-6.603,0.126-6.5,1.515c0.105,1.418-1.062,1.633-8.378,1.542c-4.675-0.058-13.225-0.451-19-0.873
			c-6.433-0.471-11.891-0.382-14.09,0.23c-4.422,1.23-7.752-0.849-9.481-5.92c-0.972-2.853-1.553-3.296-4.032-3.08
			c-11.798,1.024-12.374,0.979-15.37-1.231c-6.62-4.885-12.026-12.685-12.026-17.352c0-1.498,0.975-2.03,4.64-2.532
			c2.552-0.351,6.474-0.637,8.714-0.637c3.495,0,3.867-0.194,2.611-1.368c-2.169-2.027-7.694-3.632-12.507-3.632
			c-3.103,0-4.437-0.47-4.959-1.75c-1.767-4.322-3.213-12.658-2.948-17.001c1.251-20.592,1.643-22.931,5.936-35.44
			c6.24-18.185,10.877-26.594,16.514-29.954c8.938-5.326,23.423-3.845,25.139,2.571c0.665,2.488,0.276,3.48-2.622,6.688
			c-1.964,2.173-3.703,5.378-4.111,7.577c-0.389,2.095-1.377,4.839-2.196,6.098c-1.806,2.775-4.339,13.192-3.527,14.506
			c0.321,0.519,0.716,4.255,0.878,8.302c0.329,8.227,0.754,9.403,3.391,9.403c1.167,0,2.083-1,2.52-2.75
			c0.377-1.512,1.42-3.563,2.316-4.558c1.312-1.456,1.394-2.139,0.42-3.5c-2.511-3.51-3.562-6.843-3.633-11.53
			c-0.057-3.727,0.397-5.22,1.976-6.5c1.127-0.914,2.35-2.449,2.719-3.412c0.368-0.962,1.134-1.75,1.701-1.75
			s1.031-0.911,1.031-2.024c0-3.569,7.613-14.39,11.767-16.724c4.418-2.483,13.98-4.259,16.973-3.152
			c1.801,0.666,3.495,3.22,9.557,14.401c3.824,7.054,6.655,14.846,6.141,16.898c-0.714,2.842,2.977,7.604,5.886,7.597
			c1.198-0.003,3.887-0.48,5.976-1.061c3.133-0.87,3.689-1.399,3.175-3.019c-1.084-3.417,4.971-8.341,12.093-9.836
			c5.644-1.185,6.305-1.128,9.5,0.82c1.889,1.151,4.56,2.111,5.935,2.133c3.122,0.049,7.529,3.661,8.501,6.968
			c0.993,3.375,3.429,6,5.566,6c1.271,0,1.944,1.107,2.433,4c0.372,2.2,1.066,4,1.544,4s3.373,2.485,6.435,5.522
			c4.585,4.549,5.664,5.21,6.117,3.75c0.303-0.975,1.189-3.244,1.971-5.043c1.57-3.613,2.52-3.662,11.193-0.573
			c3.631,1.293,4.572,2.244,6.382,6.452c1.246,2.896,3.275,5.616,4.912,6.583c1.534,0.906,3.302,2.605,3.929,3.775
			c2.098,3.921,4.535,4.701,7.471,2.392c3.187-2.506,5.613-2.041,11.459,2.193c3.729,2.702,4.204,3.457,3.629,5.778
			c-1.719,6.933-1.787,8.252-0.415,7.96c0.75-0.159,2.147-1.527,3.104-3.04c2.521-3.983,5.59-3.542,10.444,1.5
			c4.591,4.769,6.746,8.29,6.888,11.25c0.267,5.574,0.577,6.196,3.893,7.777c1.9,0.906,4.151,2.995,5.003,4.642l1.548,2.994
			l-4.565,2.676c-3.757,2.201-4.98,2.486-6.903,1.61c-3.102-1.413-3.788-0.512-1.857,2.436c1.514,2.311,1.45,6.443-0.162,10.514
			c-0.867,2.188,2.486,5.237,7.366,6.699c2.105,0.631,5.581,2.34,7.723,3.797c2.142,1.458,5.469,2.723,7.394,2.812
			s4.625,0.631,6,1.204c1.375,0.574,5.108,0.847,8.297,0.606l5.796-0.438l5.367,5.586c4.707,4.898,5.87,5.601,9.454,5.71
			c2.247,0.069,4.63,0.182,5.295,0.25c0.665,0.069,1.513,1.61,1.884,3.426c0.372,1.815,0.969,3.594,1.326,3.952
			c0.358,0.357,3.776-0.434,7.598-1.758l6.946-2.409l3.769,2.148c3.518,2.005,3.789,2.497,4.078,7.403
			c0.38,6.47-0.175,8.825-2.79,11.841c-1.907,2.198-1.93,2.463-0.369,4.188c1.341,1.48,1.45,2.317,0.561,4.271
			c-0.608,1.336-0.852,4.002-0.54,5.924c0.735,4.529-2.607,9.639-6.307,9.639c-2.131,0-2.396,0.332-1.804,2.25
			c1.069,3.458,4.292,9.541,5.425,10.241c2.091,1.292,0.884,3.365-3.109,5.341c-4.058,2.007-4.179,2.01-7.62,0.166
			c-1.923-1.031-5.708-2.441-8.41-3.134c-4.249-1.089-5.375-1.954-8.32-6.392c-3.827-5.766-10.794-12.473-12.957-12.473
			c-0.784,0-2.021-0.58-2.747-1.29c-4.046-3.953-10.821-6.376-10.821-3.87c0,0.462-1.189,1.382-2.645,2.045l-2.645,1.204
			l2.722,2.842c3.25,3.392,3.236,7.944-0.028,9.562c-1.571,0.779-1.901,1.535-1.32,3.023c0.427,1.092,0.808,1.642,0.846,1.222
			c0.115-1.25,7.305,2.153,8.672,4.104c0.693,0.99,3.078,3.831,5.299,6.312c3.931,4.391,5.274,5.056,15.744,7.785
			c3.118,0.813,4.297,1.69,4.762,3.542c0.34,1.354,1.519,2.943,2.62,3.533s3.109,2.824,4.461,4.966s5.632,7.131,9.51,11.087
			l7.052,7.193l-0.206,13.923c-0.113,7.657-0.526,14.122-0.92,14.364c-1.087,0.672-19.226-5.13-28.864-9.233
			c-4.707-2.004-9.946-4.84-11.642-6.302c-2.853-2.459-5.686-2.974-11.667-2.119c-1.709,0.244-0.561,1.942,2.041,3.021
			c1.536,0.636,3.607,2.67,4.604,4.521c1.487,2.762,3.183,3.886,9.459,6.272c4.205,1.6,12.485,6.032,18.398,9.851l10.753,6.942
			l-0.253,6l-0.252,6l-5.709,0.125C1912.65,677.692,1909.931,677.597,1909.746,677.413z"/>
		<path opacity="0.1" fill="#B0B4C4" d="M1764.255,673.688c-3.758-2.534-4.93-5.17-3.215-7.236c1.654-1.993,3.633-1.82,7.056,0.616
			c3.054,2.175,3.813,5.623,1.704,7.732C1768.27,676.331,1768.134,676.303,1764.255,673.688z"/>
		<path opacity="0.1" fill="#B0B4C4" d="M1775.191,662.287c-1.831-0.35-2.245-0.995-2-3.114c0.234-2.027,0.931-2.745,2.887-2.973
			c3.361-0.391,7.275,2.715,6.376,5.059C1781.804,662.955,1780.016,663.209,1775.191,662.287z"/>
		<path opacity="0.1" fill="#B0B4C4" d="M1759.009,551.163c-6.734-6.734-4.515-27.509,3.5-32.76
			c3.55-2.326,8.983-1.082,12.609,2.888c2.813,3.08,2.882,3.419,2.882,14.258c0,12.386-0.427,13.265-8.151,16.787
			C1764.701,554.682,1762.266,554.419,1759.009,551.163z"/>
		<path opacity="0.1" fill="#B0B4C4" d="M1786.5,532.808c-2.982-1.397-5.485-5.214-4.483-6.835c1.196-1.936,9.122-1.38,10.733,0.754
			c1.921,2.543,1.508,4.091-1.5,5.62C1789.36,533.309,1787.874,533.453,1786.5,532.808z"/>
		<path opacity="0.1" fill="#B0B4C4" d="M1726.667,506.334c-1.048-1.048-0.825-1.646,1.706-4.59c1.477-1.717,2.627-4.683,3.048-7.86
			c0.651-4.905,2.961-9.884,4.587-9.884c1.495,0,1.976,3.163,0.81,5.323c-0.647,1.197-1.081,3.649-0.964,5.449
			C1736.207,500.224,1729.278,508.945,1726.667,506.334z"/>
		<path opacity="0.1" fill="#B0B4C4" d="M1522.314,434.948c-2.574-2.127-4.747-4.673-4.828-5.657
			c-0.896-10.769-2.494-13.488-11.578-19.713c-1.743-1.194-4.597-4.851-6.342-8.125c-3.092-5.803-3.137-6.066-1.756-10.453
			c0.778-2.475,2.512-5.325,3.852-6.333c2.421-1.823,2.466-1.81,7.777,2.2c5.133,3.875,5.406,3.961,6.999,2.202
			c0.912-1.007,2.12-3.507,2.686-5.554c0.882-3.193,0.747-4.029-0.943-5.869c-4.789-5.213-5.978-8.457-4.925-13.443
			c1.142-5.407,4.169-10.202,6.44-10.202c0.858,0,3.922,1.351,6.808,3.002c4.504,2.577,5.418,2.796,6.452,1.551
			c2.453-2.957,13.434-5.276,15.794-3.336c0.712,0.585,1.25,3.296,1.25,6.298c0,4.094-0.391,5.422-1.75,5.949
			c-1.667,0.646-1.667,0.74,0,1.967c2.569,1.892,2.224,2.969-2.75,8.568c-2.475,2.787-4.5,5.525-4.5,6.085
			c0,0.56,1.35,1.489,3,2.064c2.31,0.805,3.004,1.656,3.015,3.698c0.008,1.459,0.664,3.777,1.457,5.152
			c2.978,5.162,3.695,7.691,4.164,14.677c0.429,6.395,0.209,7.608-2.014,11.129c-2.587,4.099-8.109,8.193-11.049,8.193
			c-0.931,0-1.437,0.412-1.125,0.916c0.978,1.581-4.149,6.657-7.881,7.803C1527.188,438.755,1526.739,438.604,1522.314,434.948z"/>
		<path opacity="0.1" fill="#B0B4C4" d="M1563.635,415.927c-2.127-1.673-2.635-2.913-2.635-6.435c0-2.399-0.464-5.584-1.031-7.076
			c-2.353-6.186-0.515-29.133,2.961-36.991c1.153-2.607,2.371-6.453,2.706-8.548c0.85-5.315,3.903-7.049,14.984-8.508
			c3.017-0.397,5.216,0.016,8.21,1.544c2.25,1.147,5.022,2.086,6.162,2.086c2.888,0,8.779,2.588,12.703,5.582
			c3.292,2.511,3.298,2.531,1.684,5.719c-0.891,1.76-2.261,3.932-3.043,4.827c-0.783,0.895-1.655,2.92-1.938,4.5
			c-0.283,1.58-2.029,5.123-3.879,7.873c-1.894,2.814-3.915,7.558-4.623,10.851c-0.692,3.218-1.739,5.997-2.327,6.176
			s-3.962,0.574-7.498,0.879c-3.537,0.305-6.765,0.9-7.174,1.324c-0.604,0.625-1.546,7.795-1.839,13.994
			c-0.075,1.606-5.304,4.275-8.373,4.275C1567.356,418,1565.084,417.067,1563.635,415.927z"/>
		<path opacity="0.1" fill="#B0B4C4" d="M1708.164,382.75c-4.64-7.544-11.307-21.937-10.788-23.288
			c0.866-2.255,21.002-1.992,25.245,0.33c5.75,3.146,12.874,10.563,16.221,16.889c1.96,3.704-0.901,5.491-8.359,5.221
			c-4.774-0.173-7.225,0.283-10.396,1.936C1713.986,387.017,1710.599,386.709,1708.164,382.75z"/>
		<path opacity="0.1" fill="#B0B4C4" d="M1608.5,335.474c-2.2-1.355-5.376-2.466-7.059-2.469c-5.121-0.008-6.611-1.879-6.987-8.772
			c-0.184-3.377-0.784-6.982-1.336-8.012c-1.564-2.923-2.17-12.256-0.943-14.547c0.604-1.128,1.178-4.554,1.277-7.612
			c0.151-4.691-0.248-6.109-2.549-9.062c-1.501-1.925-2.885-4.4-3.076-5.5c-0.3-1.724-1.381-2.083-7.837-2.604
			c-4.12-0.333-8.221-0.921-9.112-1.308c-2.271-0.985-11.456-12.608-12.14-15.362c-0.31-1.25-0.133-3.834,0.394-5.742
			c1.15-4.164,3.583-5.027,11.534-4.093c8.255,0.97,13.176,4.085,14.782,9.357c0.823,2.702,3.384,3.443,10.052,2.909
			c7.986-0.64,11.454,1.303,11.484,6.433c0.011,1.787,0.795,2.944,2.53,3.735c3.832,1.746,4.888,4.98,3.212,9.843
			c-1.397,4.056-1.386,4.102,1.934,7.347c1.837,1.796,3.34,4.27,3.34,5.498c0,1.86,0.707,2.336,4.25,2.858
			c2.338,0.345,8.075,1.373,12.75,2.284l8.5,1.657l5.597-2.656c3.078-1.461,6.073-2.656,6.655-2.656s2.97-1.597,5.306-3.548
			c4.158-3.474,4.417-3.544,12.345-3.357c9.354,0.221,12.217,1.046,19.098,5.501c8.274,5.357,12.701,12.804,9.509,15.996
			c-0.656,0.656-0.588,2.062,0.2,4.15c1,2.649,0.931,3.448-0.429,4.958c-0.892,0.99-1.784,3.375-1.983,5.3
			c-0.315,3.05-0.982,3.81-5.186,5.907c-8.303,4.144-20.404,4.114-22.265-0.056c-0.809-1.813-1.152-1.917-2.42-0.732
			c-0.813,0.759-3.491,2.377-5.952,3.595c-3.876,1.918-6.48,2.265-19.475,2.597c-16.033,0.409-19.743-0.351-20.996-4.3
			c-0.873-2.75-1.581-2.558-5.504,1.489c-1.866,1.925-3.866,3.486-4.446,3.469C1612.975,337.952,1610.7,336.829,1608.5,335.474z"/>
		<path opacity="0.1" fill="#B0B4C4" d="M1574.5,332.275c-2.058-0.507-13.126-8.043-15.927-10.845
			c-2.444-2.444-1.899-5.597,2.348-13.569c3.362-6.31,4.469-7.549,7.75-8.681c4.529-1.561,9.294-0.487,13.555,3.054
			c2.595,2.157,2.758,2.826,3.391,13.92c0.663,11.608,0.655,11.665-1.93,14.25C1581.206,332.885,1578.889,333.357,1574.5,332.275z"
			/>
		<path opacity="0.1" fill="#B0B4C4" d="M1535.34,313.917c-4.561-2.099-9.34-7.098-9.34-9.771c0-0.936,1.441-2.965,3.203-4.511
			l3.203-2.811l-9.309,0.304c-10.529,0.344-12.098-0.548-12.098-6.885c0-4.776-1.273-6.625-6.984-10.138
			c-2.759-1.698-5.016-3.359-5.016-3.691c0-0.333,0.76-1.892,1.689-3.464c1.568-2.656,2.012-2.817,6.25-2.266
			c5.414,0.705,8.061,1.911,8.061,3.672c0,0.708,2.018,3.392,4.483,5.965c3.325,3.471,5.233,4.679,7.391,4.679
			c2.599,0,2.952-0.386,3.331-3.634c0.454-3.884-0.953-5.88-6.455-9.159c-1.513-0.901-2.75-2.206-2.75-2.9s2.241-3.033,4.981-5.199
			c3.729-2.947,5.677-3.837,7.75-3.541c1.522,0.218,5.202,0.624,8.177,0.902c2.975,0.279,6.497,1.221,7.828,2.093l2.42,1.585
			l-0.555,18.545c-0.329,11.001-0.995,19.076-1.638,19.85c-0.628,0.757-0.81,2.763-0.432,4.775c1.012,5.394-0.753,7.698-5.817,7.597
			C1541.396,315.869,1537.628,314.97,1535.34,313.917z"/>
		<path opacity="0.1" fill="#B0B4C4" d="M1462.617,307.552c-4.107-2.524-6.843-2.562-9.527-0.133
			c-0.899,0.814-2.165,1.153-2.812,0.753c-1.539-0.951,3.913-23.792,5.591-23.421c0.732,0.162,1.132-1.635,1.132-5.09
			c0-6.702,4.688-30.397,6.61-33.41c2.957-4.633,10.818-0.788,8.239,4.031c-0.688,1.288-0.726,2.709-0.105,4.096
			c1.072,2.395,0.75,8.785-0.573,11.396c-0.482,0.95-0.83,3.527-0.773,5.728c0.088,3.424,0.447,4.049,2.5,4.339
			c1.318,0.186,4.388-0.219,6.821-0.9c3.992-1.118,4.613-1.051,6.34,0.675c3.695,3.695,4.579,17.553,1.393,21.845
			c-0.833,1.123-2.437,3.489-3.562,5.259C1479.235,310.029,1470.047,312.117,1462.617,307.552z"/>
		<path opacity="0.1" fill="#B0B4C4" d="M1489.962,307.4c-0.71-1.867-0.523-3.171,0.742-5.197c0.93-1.487,1.728-2.792,1.773-2.901
			s1.51-0.448,3.254-0.755c2.99-0.527,3.288-0.292,5.242,4.125c1.259,2.846,1.711,5.044,1.152,5.602
			c-0.506,0.505-3.235,1.077-6.067,1.269C1491.342,309.864,1490.83,309.684,1489.962,307.4z"/>
		<path opacity="0.1" fill="#B0B4C4" d="M1684.503,276.009c-0.348-1.095-0.407-2.354-0.134-2.797c0.761-1.23-0.558-2.76-3.849-4.464
			c-2.847-1.475-3.083-1.432-5.299,0.958c-1.711,1.847-2.896,2.323-4.521,1.817c-1.211-0.376-3.326-0.919-4.701-1.205
			s-3.481-1.681-4.681-3.099c-1.847-2.183-2.422-2.379-3.75-1.276c-0.863,0.716-1.569,2.489-1.569,3.939
			c0,3.437-3.184,5.457-7.208,4.572c-1.672-0.367-8.583-0.737-15.357-0.822c-10.789-0.135-12.665-0.414-15.126-2.245
			c-2.406-1.792-2.852-2.893-3.107-7.695c-0.194-3.651,0.247-6.659,1.268-8.632c2.4-4.641,8.294-10.06,10.942-10.06
			c4.278,0,4.897-2.333,1.481-5.581c-5.563-5.289-7.267-10.94-4.743-15.735c1.666-3.164,2.777-3.652,8.351-3.667
			c6.078-0.017,10.093,2.923,11.64,8.527c0.563,2.042,2.11,4.797,3.436,6.123c1.98,1.98,2.773,2.217,4.439,1.326
			c1.93-1.033,1.812-1.308-2.425-5.667c-2.449-2.52-4.988-5.873-5.642-7.451c-1.059-2.556-0.896-3.252,1.482-6.372l2.671-3.502
			h-6.828c-8.513,0-11.273-1.615-11.273-6.597c0-1.916,0.932-5.309,2.07-7.54c1.138-2.231,1.831-4.295,1.539-4.587
			c-1.575-1.576,2.892-6.275,8.89-9.352l6.61-3.39l6.63,3.482c8.437,4.432,7.92,4.253,7.975,2.761
			c0.026-0.703,0.375-2.065,0.774-3.028s0.34-1.794-0.131-1.849c-0.472-0.055-2.16-0.214-3.752-0.354
			c-4.122-0.362-10.922-7.967-13.151-14.709c-0.972-2.936-3.271-7.315-5.11-9.732c-1.839-2.417-3.344-4.749-3.344-5.183
			c0-0.434-0.862-1.062-1.916-1.397c-2.84-0.901-3.948-5.344-3.182-12.751c0.897-8.667,1.928-9.808,8.346-9.242
			c6.664,0.588,8.477,1.91,15.795,11.523c3.384,4.445,6.299,7.936,6.479,7.756c1.107-1.108-1.595-7.201-4.82-10.867
			c-4.965-5.643-4.755-8.656,0.799-11.478c2.2-1.118,5.792-3.255,7.982-4.75c2.189-1.495,4.777-2.718,5.75-2.718
			c1.112,0,1.768-0.756,1.768-2.04c0-1.122,1.83-3.833,4.067-6.026l4.066-3.986l-2.566-3.051c-1.412-1.678-2.581-3.804-2.599-4.724
			c-0.018-0.92-1.061,0.352-2.317,2.827c-6.183,12.167-10.956,16.449-18.486,16.583c-2.565,0.045-7.242,0.699-10.391,1.452
			c-7.934,1.896-11.166,0.723-11.579-4.204c-0.167-1.999,0.372-5.253,1.199-7.232s1.242-3.598,0.922-3.598
			c-1.069,0-4.316,4.288-4.316,5.701c0,0.767-1.149,2.46-2.554,3.762c-2.055,1.904-3.105,2.209-5.373,1.559
			c-6.698-1.921-11.561-7.524-9.102-10.487c1.076-1.297,0.945-1.534-0.85-1.534c-1.167,0-2.46-0.068-2.872-0.151
			c-1.654-0.333-3.188-3.534-3.218-6.715c-0.025-2.671,0.793-4.12,3.968-7.021c4.292-3.924,4.874-5.113,2.5-5.113
			c-0.825,0-2.4-0.9-3.5-2s-3.039-2-4.309-2c-8.67,0-6.308-9.305,3.309-13.034c1.925-0.747,5.135-3.069,7.134-5.162
			c3.087-3.232,4.269-3.805,7.858-3.805c3.967,0,4.188-0.147,3.619-2.414c-0.47-1.872,0.066-2.979,2.392-4.936
			c1.648-1.387,2.997-3.396,2.997-4.464c0-2.506,2.038-4.172,4.534-3.707c1.081,0.202,2.466,0.401,3.076,0.443
			c0.611,0.042,2.714,1.165,4.675,2.495c3.822,2.594,4.715,2.072,4.715-2.753c0-1.194,1.575-4.387,3.5-7.094s3.5-5.725,3.5-6.705
			s1.783-3.657,3.963-5.948c3.192-3.355,4.475-4.068,6.594-3.663c2.191,0.419,2.795,0.034,3.61-2.304
			c1.065-3.056,5.243-5.099,9.057-4.429c7.571,1.33,9.957,1.123,14.418-1.252c4.971-2.646,12.688-3.644,15.756-2.037
			c1.354,0.709,3.572,0.486,7.752-0.779c4.241-1.284,6.477-1.502,8.104-0.791c1.236,0.54,4.722,0.823,7.747,0.63
			c7.435-0.475,9.28,0.126,10.762,3.504c1.369,3.121,4.077,4.885,8.669,5.648c3.861,0.642,5.523,2.44,6.619,7.163
			c1.396,6.022,1.123,11.309-0.979,18.912c-1.48,5.355-2.693,7.618-5.212,9.729c-1.806,1.512-3.815,2.75-4.467,2.75
			c-1.804,0-6.92,6.271-9.81,12.023c-1.42,2.828-2.582,5.35-2.582,5.605c0,1.293,5.05-3.471,5.973-5.634
			c0.587-1.378,2.407-3.403,4.045-4.5c1.637-1.097,2.978-2.332,2.979-2.745c0.005-1.133,4.793-0.899,5.516,0.27
			c0.347,0.561,0.63,3.528,0.63,6.593c0,4.23-0.586,6.459-2.435,9.252c-3.741,5.654-6.866,12.159-6.446,13.419
			c0.208,0.624-1.726,5.878-4.296,11.675c-2.571,5.797-5.14,11.665-5.707,13.04c-1.263,3.058-3.421,14.063-3.824,19.494
			c-0.391,5.271-5.109,9.791-9.731,9.322c-2.819-0.286-3.184,0.002-3.798,3c-0.374,1.823-1.688,4.388-2.919,5.699
			c-2.1,2.235-10.326,5.813-11.247,4.892c-0.229-0.23-1.278,0.538-2.329,1.707c-1.887,2.099-1.883,2.144,0.34,3.628
			c2.683,1.792,2.966,5.811,0.595,8.431c-1.329,1.469-1.379,1.851-0.25,1.944c0.773,0.063,1.855,0.22,2.405,0.348
			c0.55,0.128,1.832,0.301,2.849,0.385c1.017,0.083,3.154,1.55,4.75,3.258c3.667,3.925,4.159,11.092,0.901,13.126
			c-2.617,1.635-2.522,2.569,0.5,4.947c1.375,1.082,2.5,2.825,2.5,3.875c0,1.202-0.926,2.141-2.5,2.536
			c-2.018,0.506-2.5,1.247-2.5,3.839c0,4.492-4.458,9.308-9.017,9.741l-3.483,0.331l0.341,7.522c0.308,6.769,0.107,7.77-2,10
			c-6.152,6.511-6.169,6.547-4.271,9.444c0.949,1.45,3.122,3.357,4.828,4.238s3.606,2.292,4.225,3.136
			c1.497,2.043,0.913,7.164-1.413,12.395C1700.771,273.217,1686.426,282.067,1684.503,276.009z"/>
		<path opacity="0.1" fill="#B0B4C4" d="M1497.493,238.584c-2.757-2.757-3.247-7.124-1.396-12.435c1.358-3.895,3.16-4,5.768-0.338
			c3.932,5.521,3.985,12.128,0.116,14.199C1500.352,240.882,1499.53,240.621,1497.493,238.584z"/>
		<path opacity="0.1" fill="#B0B4C4" d="M1571.118,237.217c-7.129-3.698-7.881-7.289-2.521-12.033
			c4.368-3.868,9.886-4.285,14.983-1.135c5.592,3.456,5.685,7.868,0.261,12.431C1580.455,239.33,1575.719,239.604,1571.118,237.217z
			"/>
		<path opacity="0.1" fill="#B0B4C4" d="M1562.346,220.549c-3.307-1.438-4.864-4.339-3.924-7.304
			c0.348-1.093-0.578-3.072-2.457-5.25c-3.66-4.244-4.37-6.704-3.688-12.765c0.605-5.373,3.668-8.669,7.112-7.655
			c1.16,0.342,4.769,2.377,8.017,4.523s6.214,3.902,6.59,3.902c1.604,0,3.004,5.589,3.004,12.001v6.907l-4.644,3.546
			C1567.177,222.409,1566.801,222.487,1562.346,220.549z"/>
		<path opacity="0.1" fill="#B0B4C4" d="M1540.704,218.676c-1.212-1.277-3.779-4.123-5.704-6.323
			c-6.164-7.046-9.238-8.726-15.503-8.473c-4.968,0.201-5.856-0.086-8.521-2.751c-3.11-3.11-3.798-6.725-1.94-10.195
			c0.569-1.063,1.694-1.934,2.5-1.934s2.337-0.872,3.401-1.937c1.67-1.669,1.794-2.463,0.896-5.75
			c-0.62-2.273-2.412-4.953-4.437-6.636c-6.412-5.33-3.649-13.677,4.527-13.677c4.456,0,10.076,3.921,10.076,7.03
			c0,1.861,1.442,3.253,3.731,3.601c2.439,0.37,7.145,4.952,9.319,9.075c1.22,2.313,2.997,5.042,3.948,6.063
			c3.437,3.688,3.891,5.515,2.421,9.738c-1.981,5.693-1.791,7.002,1.58,10.841c1.65,1.879,3,4.124,3,4.988
			c0,2.876-2.191,6.431-4.656,7.554C1543.27,220.835,1542.582,220.655,1540.704,218.676z"/>
		<path opacity="0.1" fill="#B0B4C4" d="M1598.09,207.853c-2.244-2.335-4.342-5.071-4.662-6.082c-0.32-1.01-1.72-3.059-3.109-4.554
			c-3.594-3.865-7.318-11.616-7.318-15.23c0-3.956,3.903-7.988,7.732-7.988c2.598,0,6.268-2.841,6.268-4.851
			c0-0.892-4.855-3.508-6.5-3.503c-0.55,0.002-3.132,0.357-5.737,0.791c-6.055,1.005-9.148,0.206-10.477-2.708
			c-0.791-1.737-0.701-2.998,0.36-5.024c0.844-1.61,1-2.705,0.386-2.705c-0.567,0-1.933-0.9-3.032-2
			c-2.247-2.248-2.606-6.962-0.902-11.851c0.982-2.819,1.515-3.149,5.067-3.149c3.659,0,3.914-0.176,3.257-2.245
			c-0.392-1.235-2.049-3.412-3.682-4.838c-2.518-2.198-2.866-3.064-2.291-5.686c0.808-3.677,2.811-5.544,6.411-5.976
			c6.237-0.748,6.419-1.482,1.627-6.562l-3.512-3.724l2.021-3.964c1.112-2.18,3.341-4.646,4.952-5.479
			c2.328-1.204,2.993-2.287,3.24-5.271c0.29-3.507,0.545-3.776,3.843-4.053c3.649-0.308,9.484,2.752,11.054,5.797
			c2.215,4.298,4.914,10.771,4.914,11.785c0,2.143,4.199,8.687,8.612,13.422c3.229,3.464,4.388,5.526,4.388,7.81
			c0,2.352,1.21,4.382,5,8.389c4.379,4.63,5,5.812,5,9.517c0,4.478,0.374,4.965,9.957,12.942c3.573,2.975,4.043,3.865,4.043,7.657
			c0,3.692-0.833,5.394-5.972,12.2c-3.285,4.35-7.11,8.518-8.5,9.262c-1.657,0.887-2.528,2.205-2.528,3.825
			c0,1.359-1.667,4.659-3.705,7.331c-4.117,5.397-4.748,5.709-8.979,4.428c-1.901-0.576-2.224-0.236-2.5,2.635
			c-0.309,3.217-0.44,3.304-5.481,3.596C1602.409,212.085,1601.979,211.901,1598.09,207.853z"/>
		<path opacity="0.1" fill="#B0B4C4" d="M1474.308,192c0.306-1.375,0.861-4.188,1.235-6.25s1.092-3.75,1.597-3.75
			c1.437,0-0.133,9.32-1.853,11C1473.914,194.341,1473.811,194.235,1474.308,192z"/>
		<path opacity="0.1" fill="#B0B4C4" d="M1549.977,148.718c-3.406-2.724-5.772-6.783-5.235-8.98
			c0.845-3.451,2.258-4.738,5.204-4.738c2.057,0,3.338,0.974,5.377,4.09c3.204,4.894,3.31,6.278,0.678,8.91
			C1553.722,150.279,1552.161,150.465,1549.977,148.718z"/>
	</g>
	<path id="CA-ON" opacity="0.1" fill="#B0B4C4" d="M1749.472,1249.055c1.06-2.05,2.442-2.953,5.234-3.42
		c2.087-0.349,4.372-1.008,5.079-1.466c1.859-1.203,2.82-8.178,1.259-9.143c-0.879-0.543-0.962-1.33-0.278-2.649
		c0.534-1.033,1.273-3.552,1.643-5.599s1.491-4.297,2.494-5c3.604-2.529,6.745-8.359,6.411-11.897
		c-0.176-1.86-0.391-7.034-0.478-11.498c-0.147-7.599,0.072-8.526,3.437-14.542l3.593-6.426l-1.791-3.958
		c-0.985-2.177-2.755-4.814-3.933-5.862c-2.089-1.858-2.908-4.596-1.376-4.596c0.422,0,3.401,2.687,6.622,5.971
		c5.318,5.421,10.725,8.91,16.112,10.396c5.478,1.512,8.495-7.678,4.448-13.542c-2.644-3.829-13.536-15.646-16.347-17.735
		c-1.044-0.776-4.869-1.752-8.5-2.169c-3.631-0.418-9.062-1.471-12.069-2.34c-3.881-1.122-9.742-1.581-20.193-1.581
		c-13.735,0-14.822-0.138-16.168-2.06c-0.794-1.134-3.818-3.288-6.722-4.788c-4.287-2.215-5.3-3.229-5.396-5.406
		c-0.064-1.475-1.411-4.031-2.994-5.684c-2.469-2.576-2.642-3.094-1.219-3.64c2.218-0.851,2.092-3.006-0.378-6.474
		c-1.12-1.573-2.915-4.848-3.989-7.275c-1.709-3.864-2.431-4.491-5.794-5.028c-3.843-0.615-14.469-5.695-17.049-8.151
		c-0.753-0.717-1.486-3.034-1.63-5.148c-0.144-2.115-0.603-5.138-1.021-6.718l-0.759-2.873l-8.074,0.529
		c-7.482,0.49-8.499,0.315-13.859-2.391l-5.785-2.92l-4.125,2.604c-3.754,2.37-3.983,2.746-2.551,4.18
		c1.434,1.433,0.973,1.968-5.126,5.942c-3.686,2.402-8.33,6.108-10.321,8.236c-4.048,4.328-4.531,4.38-18.88,2.013
		c-4.125-0.68-10.686-1.326-14.579-1.435c-6.71-0.188-13.421-2.552-13.421-4.729c0-0.432-1.155-0.785-2.566-0.785
		c-1.562,0-4.009-1.366-6.25-3.491c-3.656-3.465-3.751-3.491-12.862-3.5c-6.609-0.006-9.578-0.408-10.606-1.437
		c-0.785-0.785-3.18-1.743-5.321-2.13c-5.504-0.993-6.083-1.73-6.847-8.721c-0.624-5.705-0.944-6.354-3.863-7.824
		c-3.06-1.541-3.18-1.833-3.077-7.5c0.115-6.392,1.303-33.199,1.899-42.897c0.203-3.3,0.657-13.151,1.009-21.892
		c0.803-19.952-0.923-16.819,22.918-41.608c5.024-5.225,12.046-12.826,15.602-16.891c3.557-4.065,6.932-7.891,7.501-8.5
		c0.569-0.61,6.417-7.409,12.994-15.109c6.577-7.699,14.211-16.491,16.965-19.535c13.483-14.911,19.515-21.683,21.344-23.965
		l2.004-2.5l3.329,1.888c4.084,2.315,10.829,8.619,10.829,10.119c0,0.605,1.479,2.535,3.288,4.288
		c2.429,2.354,4.848,3.487,9.25,4.335c4.111,0.792,6.898,2.026,8.979,3.98c2.861,2.686,5.391,3.647,10.033,3.815
		c1.127,0.041,4.502,2.256,7.5,4.923l5.449,4.848l18.738,0.625c16.322,0.546,19.271,0.898,22.872,2.735l4.134,2.109l-0.679,8.667
		c-0.373,4.768-1.065,9.057-1.537,9.532c-0.479,0.483-0.025,2.236,1.028,3.968c1.037,1.706,2.164,5.142,2.504,7.635
		c1.089,7.999,1.259,8.825,2.2,10.695c0.509,1.011,0.783,3.906,0.609,6.436c-0.254,3.713,0.258,5.499,2.658,9.285
		c3.859,6.086,15.885,20.616,17.062,20.616c2.287,0,8.671,8.255,10.464,13.531l1.93,5.675l6.183-0.466l6.183-0.466l0.634,5.113
		c1.002,8.083,1.416,11.72,2.002,17.612c0.302,3.025,0.743,6.625,0.98,8c0.238,1.375,0.705,5.2,1.038,8.5
		c0.332,3.301,0.77,7.125,0.971,8.5c0.482,3.287,1.424,11.262,2.066,17.5c0.283,2.75,0.712,6.575,0.951,8.5
		c1.502,12.042,2.476,20.237,3.018,25.386c0.341,3.237,1.971,8.907,3.622,12.601c2.532,5.664,3.911,7.356,8.811,10.811
		c6.461,4.557,15.487,7.759,24.558,8.711c4.149,0.436,7.415,1.534,10.588,3.562c2.522,1.612,5.448,2.94,6.5,2.952
		c1.066,0.013,3.122,1.732,4.648,3.891l2.735,3.869l8.635-0.476c7.479-0.412,9.48-0.94,14.945-3.944
		c6.326-3.478,11.382-5.07,11.524-3.631c0.152,1.53,0.725,4.065,1.391,6.166c0.535,1.687-0.133,2.834-3.131,5.374
		c-6.245,5.292-11.431,10.789-18.836,19.965c-3.85,4.771-7.45,8.711-8,8.754c-1.686,0.131-5.686,3.901-5.117,4.822
		c1.163,1.881-6.853,4.922-13.496,5.12c-11.937,0.355-29.132,7.429-32.798,13.491c-3.634,6.009-3.604,7.464,0.18,9.045
		c1.879,0.785,4.291,1.199,5.359,0.92c1.472-0.385,2.347,0.336,3.602,2.967c1.944,4.079,1.281,4.646-5.437,4.646
		c-4.048,0-14.973,4.124-17.793,6.717c-1.32,1.214-1.204,1.604,0.976,3.256l2.476,1.877l-2.746,0.688
		c-1.511,0.379-4.736,0.188-7.168-0.424c-9.484-2.389-11.729-1.336-23.537,11.03c-6.472,6.778-7.98,7.868-11,7.942
		c-1.925,0.048-4.955,0.237-6.734,0.421l-3.235,0.334L1749.472,1249.055z"/>
	<path id="CA-PE" opacity="0.1" fill="#B0B4C4" d="M2100.67,1071.336c-0.288-0.288-4.271-0.686-8.848-0.883
		c-4.577-0.196-10.798-1.085-13.822-1.974c-6.699-1.969-8.073-2.301-10-2.419c-4.076-0.249-4.503-1.719-2.031-6.995
		c1.306-2.786,2.964-5.066,3.685-5.066c0.722,0,3.35,1.953,5.84,4.34c3.643,3.489,4.746,4.077,5.641,3
		c0.654-0.789,3.145-1.34,6.055-1.34c2.719,0,5.701-0.401,6.627-0.894c3.198-1.696,12.143-3.983,12.611-3.224
		c0.259,0.418-0.161,1.979-0.934,3.468c-0.771,1.488-1.508,4.702-1.634,7.143C2103.655,1070.448,2102.117,1072.784,2100.67,1071.336
		z"/>
	<g id="CA-QC" opacity="0.1">
		<path fill="#B0B4C4" d="M1898.798,1145.235c-0.898-1.521-1.81-4.333-2.026-6.25c-0.371-3.292-0.62-3.502-4.516-3.789
			c-4.122-0.305-9.482,1.76-15.41,5.935c-2.019,1.422-4.441,1.869-10.121,1.869c-7.41,0-7.484-0.026-9.846-3.493
			c-1.309-1.921-3.229-3.496-4.269-3.5c-1.039-0.003-4.168-1.408-6.952-3.122c-3.533-2.174-6.739-3.258-10.61-3.587
			c-8.441-0.717-17.829-3.814-23.591-7.782c-4.247-2.926-5.739-4.792-8.23-10.294c-1.839-4.062-3.297-9.293-3.685-13.222
			c-0.354-3.574-0.823-7.85-1.044-9.5c-0.222-1.649-0.897-7.274-1.503-12.5c-0.606-5.225-1.291-11.074-1.522-13
			c-0.232-1.925-0.665-5.524-0.963-8c-0.299-2.475-1.888-16.199-3.531-30.5c-1.645-14.3-3.234-27.177-3.534-28.614
			c-0.478-2.296-0.161-2.692,2.587-3.241c2.896-0.579,3.081-0.858,2.457-3.696c-0.527-2.4-0.073-3.977,2.086-7.239
			c1.518-2.293,2.755-5.304,2.751-6.688c-0.005-1.387-1.835-6.345-4.068-11.021c-2.232-4.675-4.542-10.3-5.133-12.5
			c-0.591-2.199-1.843-5.093-2.781-6.428c-1.157-1.648-1.624-3.982-1.45-7.262c0.278-5.234-2.369-10.925-5.981-12.858
			c-1.149-0.614-1.92-2.104-1.934-3.737c-0.012-1.493-0.902-3.84-1.978-5.215s-1.966-2.951-1.978-3.503
			c-0.033-1.49,4.854-5.822,10.498-9.306c2.738-1.69,6.407-4.787,8.152-6.882c1.745-2.096,5.18-6.007,7.634-8.693
			c2.986-3.271,5.671-7.846,8.126-13.848c3.324-8.129,3.648-9.752,3.479-17.418c-0.137-6.202-0.921-10.639-2.943-16.652
			c-1.517-4.509-3.027-9.394-3.358-10.855c-1.047-4.624-9.979-14.227-16.43-17.666c-7.719-4.113-13.67-10.053-13.966-13.938
			c-0.124-1.633,0.531-4.717,1.456-6.854c0.926-2.137,1.805-4.56,1.954-5.384s1.194-2.247,2.323-3.16
			c1.551-1.256,2.052-2.828,2.052-6.438c0-3.367,0.578-5.391,1.961-6.862c1.818-1.936,1.857-2.391,0.536-6.225
			c-0.784-2.275-1.627-5.249-1.873-6.606c-0.554-3.053-3.186-8.241-6.194-12.211c-2.054-2.709-2.275-4.1-2.285-14.347
			c-0.008-8.186-0.396-11.809-1.395-13c-0.761-0.909-2.661-4.737-4.224-8.508l-2.84-6.854l2.573-5.248
			c2.453-5.001,2.797-5.278,7.297-5.896c7.511-1.029,13.875-0.759,18.22,0.774c5.719,2.018,13.698,2.729,16.911,1.507
			c1.509-0.573,4.534-2.816,6.725-4.985s4.456-3.933,5.035-3.92c1.756,0.037,21.077,10.21,27.497,14.477
			c4.889,3.249,5.984,4.47,5.835,6.5c-0.101,1.375,0.575,3.648,1.503,5.051c1.514,2.29,2.738,2.679,11.952,3.794
			c5.646,0.685,12.448,1.95,15.116,2.813l4.852,1.57l-0.683,5.465c-0.666,5.332,0.076,8.781,4.696,21.807
			c0.585,1.65,1.019,4.235,0.965,5.745c-0.062,1.699,0.863,3.708,2.425,5.27c1.389,1.389,3.416,4.541,4.506,7.005l1.982,4.481
			l4.927-0.601c4.744-0.578,5.122-0.433,10.22,3.923c2.912,2.487,6.523,4.831,8.027,5.208c1.503,0.377,2.732,1.087,2.732,1.577
			c0,1.862,2.115,0.747,6.368-3.358c3.281-3.167,4.577-5.299,5.084-8.369c0.479-2.901,1.343-4.422,2.923-5.142
			c1.385-0.631,2.769-2.69,3.615-5.381c1.554-4.938,1.387-15.326-0.295-18.347c-0.616-1.106-0.99-2.452-0.831-2.99
			c0.158-0.538,0.744-3.442,1.301-6.454c0.915-4.954,3.282-8.526,4.961-7.489c0.355,0.22,0.957,2.093,1.335,4.161
			c0.851,4.652,5.161,12.261,6.944,12.261c1.217,0,4.064,10,3.56,12.5c-0.551,2.728,0.268,3.111,5.785,2.712l5.75-0.416
			l-0.152,6.353c-0.084,3.493-0.632,7.872-1.217,9.729c-0.688,2.186-0.728,4.007-0.11,5.161c1.16,2.168,6.493,5.56,10.193,6.482
			c3.358,0.839,3.644,1.727,4.313,13.459c0.297,5.193,1.163,11.71,1.925,14.481s1.651,6.646,1.978,8.609
			c0.401,2.411,1.594,4.31,3.673,5.847c2.997,2.216,7.868,10.972,7.888,14.178c0.005,0.877,0.848,2.353,1.871,3.279
			c1.024,0.927,2.644,3.419,3.599,5.537c1.682,3.728,1.67,4.008-0.357,8.589l-2.095,4.736l-5.254-0.545
			c-2.89-0.301-6.632-0.843-8.315-1.206c-2.715-0.586-3.337-0.255-5.5,2.92c-2.674,3.927-4.374,4.415-7.022,2.019
			c-0.958-0.867-4.488-2.143-7.845-2.834c-6.672-1.375-7.316-1.094-8.461,3.693c-0.378,1.579-1.735,3.271-3.138,3.911
			c-1.914,0.871-2.473,1.884-2.473,4.475c0,2.381-0.896,4.285-3.1,6.59c-2.716,2.839-3.032,3.742-2.548,7.285
			c0.305,2.225,1.168,5.23,1.92,6.679c2.286,4.407,8.235,10.375,12.342,12.38c4.336,2.116,5.054,4.514,3.071,10.245
			c-1.079,3.12-0.961,3.518,1.738,5.84c2.921,2.513,6.384,2.753,12.187,0.846c1.916-0.63,2.174-0.216,2.797,4.479
			c0.474,3.568,1.466,5.952,3.201,7.688c2.295,2.295,2.999,2.455,8.034,1.826c4.536-0.567,5.869-0.373,7.486,1.091
			c1.082,0.979,2.733,1.92,3.669,2.092c4.651,0.851,14.878,1.109,16.018,0.405c0.71-0.438,1.489-2.781,1.73-5.206
			c0.562-5.645,1.291-12.329,1.383-12.678c0.039-0.149,1.932,0.678,4.204,1.838c3.047,1.554,5.216,1.963,8.25,1.556
			c4.339-0.582,20.358-6.029,37.117-12.621c25.711-10.112,41.535-15.924,47.428-17.42c3.534-0.897,7.041-2.142,7.792-2.765
			c0.804-0.667,1.686-0.76,2.145-0.226c2.34,2.723,7.136,9.272,7.136,9.743c0,0.301-2.812,2.693-6.25,5.316
			c-9.17,6.996-14.635,13.21-15.255,17.348c-0.289,1.926-2.545,7.551-5.012,12.5c-2.468,4.95-4.894,10.125-5.39,11.5
			c-1.123,3.108-17.296,11.798-27.594,14.825c-3.851,1.132-12.399,3.621-19,5.532c-38.673,11.198-57.357,18.231-60.846,22.904
			c-1.027,1.376-2.272,4.693-2.767,7.37c-0.494,2.678-1.834,7.906-2.977,11.618c-1.805,5.863-2.391,6.75-4.459,6.75
			c-4.756,0-14.558,11.156-18.013,20.5c-1.018,2.75-3.282,7.263-5.032,10.028c-1.752,2.765-3.396,6.59-3.654,8.5
			c-1.135,8.378-16.477,33.216-24.46,39.602c-11.213,8.967-26.635,25.374-25.191,26.801c0.219,0.217,4.224-3.837,8.898-9.008
			c4.675-5.172,11.459-11.629,15.075-14.351c6.214-4.676,13.017-11.865,17.573-18.572c4.067-5.986,11.352-20.428,11.352-22.504
			c0-1.17,0.515-3.11,1.145-4.312c1.819-3.473,11.024-14.82,14.855-18.313c1.925-1.755,5.738-5.254,8.474-7.776
			c2.736-2.522,7.686-6.237,11-8.254c3.314-2.018,9.401-6,13.526-8.852c5.226-3.611,9.483-5.673,14.037-6.794
			c6.137-1.512,6.896-1.499,12.4,0.204c4.802,1.485,6.185,2.428,7.645,5.207c3.972,7.563,3.349,12.709-2.386,19.668
			c-5.564,6.754-7.618,8.075-13.479,8.678c-11.474,1.179-21.023,3.861-24.151,6.785c-4.057,3.79-7.393,4.933-15.304,5.238
			c-9.464,0.366-10.024,1.037-9.237,11.056l0.643,8.187l-3.854,0.617c-2.12,0.339-5.055,0.398-6.521,0.133
			c-1.975-0.358-3.08,0.102-4.262,1.774c-1.958,2.771-6.22,16.632-6.996,22.758c-0.314,2.476-1.007,7.426-1.539,11
			c-0.532,3.575-1.163,8.439-1.401,10.811c-0.778,7.715-3.757,14.315-7.728,17.121c-1.999,1.413-4.649,4.038-5.89,5.835
			c-1.24,1.796-3.205,3.457-4.365,3.69c-1.161,0.233-9.394,2.026-18.296,3.984c-8.902,1.957-18.593,3.559-21.535,3.559
			C1900.999,1148,1900.258,1147.707,1898.798,1145.235z"/>
		<path fill="#B0B4C4" d="M2062.013,992.205c-1.367-0.223-3.617-1.184-5-2.134c-1.382-0.949-5.078-2.282-8.215-2.96
			c-7.147-1.546-8.536-4.118-4.155-7.701c2.278-1.864,4.174-2.369,9.357-2.494c13.666-0.329,18.586,0.264,27.75,3.344
			c9.13,3.068,9.25,3.15,9.25,6.357c0,3.817-0.37,3.976-11.5,4.91C2067.384,992.544,2064.724,992.647,2062.013,992.205z"/>
	</g>
	<path id="CA-SK" opacity="0.1" fill="#B0B4C4" d="M1419.917,1058.613c-0.229-0.213-4.017-0.69-8.417-1.062
		c-4.4-0.371-9.125-0.842-10.5-1.044c-1.375-0.203-5.425-0.656-9-1.007c-3.575-0.35-7.625-0.796-9-0.989
		c-1.375-0.194-5.425-0.65-9-1.015s-17.525-3.139-31-6.164c-13.475-3.026-25.175-5.646-26-5.823c-4.545-0.972-7.117-1.553-13-2.934
		c-3.575-0.84-7.4-1.684-8.5-1.875s-5.502-1.15-9.783-2.132c-6.324-1.449-7.688-2.092-7.272-3.426
		c0.478-1.533,8.342-33.841,9.041-37.143c0.175-0.824,1.73-7.35,3.457-14.5c1.727-7.149,4.747-19.75,6.712-28
		s5.812-24.225,8.55-35.5c2.737-11.274,5.156-21.396,5.376-22.49c0.219-1.095,1.755-7.619,3.413-14.5
		c1.658-6.88,5.06-21.06,7.558-31.51c2.499-10.449,6.062-25.3,7.919-33c1.856-7.699,5.019-20.827,7.027-29.171l3.652-15.172
		l5.176,0.428c2.846,0.236,7.384,0.764,10.083,1.172c2.699,0.409,8.402,0.329,12.674-0.177c7.328-0.869,8.107-0.768,13.845,1.807
		c5.666,2.543,8.073,2.729,8.073,0.622c0-1.124-21.247-11.472-26.5-12.905c-2.2-0.601-5.013-1.095-6.25-1.098S1355.1,759.1,1354,758
		c-2.205-2.204-5.102-2.551-8.065-0.965c-2.282,1.222-2.327,0.896-0.844-6.024c0.856-3.991,1.449-4.986,2.75-4.617
		c1.482,0.419,8.549,1.873,15.231,3.133c1.335,0.252,3.328,0.646,4.428,0.876c3.337,0.699,44.82,8.774,47.5,9.248
		c1.375,0.242,7.9,1.515,14.5,2.827c6.6,1.312,13.8,2.558,16,2.768c3.853,0.369,3.994,0.51,3.848,3.819
		c-0.084,1.89-1.31,11.761-2.723,21.936c-1.414,10.176-2.854,20.75-3.202,23.5c-0.619,4.905-1.835,7.5-3.512,7.5
		c-1.533,0-7.521,6.644-8.824,9.791c-0.948,2.289-1.01,3.951-0.237,6.4c2.224,7.055,1.833,10.509-1.587,14.038
		c-2.218,2.289-2.919,3.71-2.312,4.691c0.707,1.145,1.463,0.909,4.036-1.256c1.741-1.466,3.832-2.665,4.646-2.665
		c1.501,0,1.482,3.151-0.137,23c-0.247,3.025-0.706,9.551-1.021,14.5c-0.313,4.95-0.76,11.025-0.989,13.5
		c-0.23,2.476-0.687,9-1.013,14.5c-0.327,5.5-0.771,11.575-0.986,13.5c-0.216,1.926-0.675,8.45-1.021,14.5
		c-0.346,6.051-0.786,12.125-0.979,13.5s-0.659,7.9-1.038,14.5c-0.378,6.601-0.809,12.676-0.956,13.5
		c-0.148,0.825-0.596,7.125-0.995,14s-0.85,13.176-1,14c-0.15,0.825-0.601,7.125-1,14c-0.399,6.875-0.877,13.301-1.062,14.279
		c-0.184,0.979-0.429,4.69-0.544,8.25C1422.707,1058.307,1421.732,1060.299,1419.917,1058.613z"/>
	<path id="CA-YT" opacity="0.1" fill="#B0B4C4" d="M1160.44,680.675c-1.067-0.703-5.315-2.794-9.44-4.646
		c-6.298-2.828-28.022-14.104-63.674-33.052c-11.333-6.022-52.852-31.826-83.576-51.941c-10.88-7.123-15.75-10.88-15.75-12.149
		c0-2.531,3.087-7.381,6.315-9.92c5.8-4.562,2.451-7.506-8.949-7.867c-2.259-0.071-3.282-0.665-3.664-2.128
		c-0.292-1.115-0.907-1.927-1.367-1.802c-1.871,0.508-5.274-1.399-5.875-3.291c-0.478-1.506,1.891-5.753,9.312-16.699
		c13.764-20.3,39.209-57.982,58.868-87.18c15.657-23.254,35.89-53.236,63.213-93.674l12.28-18.175l3.183,1.097
		c6.56,2.261,8.458,4.512,9.201,10.911c0.377,3.248,1.736,7.98,3.02,10.516c1.284,2.536,2.627,6.345,2.985,8.465
		c0.479,2.832,1.733,4.78,4.73,7.345c3.721,3.185,3.947,3.646,2.583,5.253c-2.1,2.475-12.217,18.953-14.589,23.762
		c-1.085,2.2-2.772,6.476-3.749,9.5c-0.977,3.025-2.78,7.525-4.008,10c-4.361,8.792-4.609,8.122,5.959,16.066
		c7.278,5.471,9.549,7.731,9.549,9.507c0,1.281-1.61,5.411-3.577,9.178c-2.335,4.47-3.758,8.759-4.1,12.354
		c-0.512,5.396-0.449,5.562,3.121,8.285c3.898,2.974,3.741,2.147,2.62,13.781c-0.035,0.369-1.381,0.96-2.991,1.313
		c-3.165,0.695-6.074,4.251-6.074,7.424c0,1.088-0.911,3.521-2.023,5.408c-2.183,3.698-1.7,7.009,1.397,9.579
		c1.141,0.946,1.443,2.419,1.084,5.276c-0.382,3.04,0.021,4.691,1.73,7.093c1.596,2.241,2.269,4.709,2.372,8.695
		c0.079,3.074,0.927,7.081,1.894,8.95c1.684,3.256,1.672,3.656-0.292,10.487c-2.612,9.083-3.882,16.174-4.614,25.757
		c-0.322,4.209-1.081,9.077-1.688,10.818c-0.98,2.813-0.826,3.462,1.396,5.846c3.338,3.582,4.27,5.556,6.235,13.205
		c0.915,3.562,2.921,8.813,4.458,11.669c2.041,3.792,2.452,5.323,1.523,5.68c-0.699,0.269-1.499,2.657-1.777,5.309
		c-0.278,2.65-0.83,6.079-1.227,7.617c-0.86,3.336,0.418,4.576,8.53,8.284c3.025,1.382,7.23,3.708,9.346,5.168s5.04,2.677,6.5,2.703
		l2.654,0.047l-0.279,10.446c-0.153,5.745-0.406,10.572-0.561,10.727C1162.506,681.828,1161.506,681.378,1160.44,680.675z"/>
	<circle class="medschool delay-2" fill="#FFFFFF" cx="1787.623" cy="1217.625" r="6"/>
	<circle class="medschool delay" fill="#FFFFFF" cx="1067.79" cy="950.792" r="6"/>
	<circle class="medschool delay-2" fill="#FFFFFF" cx="1250.79" cy="901.125" r="6"/>
	<circle class="medschool" fill="#FFFFFF" cx="1343.123" cy="962.792" r="6"/>
	<circle class="medschool delay" fill="#FFFFFF" cx="1487.79" cy="1044.125" r="6"/>
	<circle class="medschool" fill="#FFFFFF" cx="1229.79" cy="960.125" r="6"/>
	<circle class="medschool delay-2" fill="#FFFFFF" cx="1821.957" cy="1196.292" r="6"/>
	<circle class="medschool" fill="#FFFFFF" cx="1867.79" cy="1150.125" r="6"/>
	<circle class="medschool delay" fill="#FFFFFF" cx="1761.123" cy="1112.792" r="6"/>
	<circle class="medschool" fill="#FFFFFF" cx="1925.123" cy="1107.458" r="6"/>
	<circle class="medschool delay-2" fill="#FFFFFF" cx="2097.79" cy="1106.792" r="6"/>
	<circle class="medschool" fill="#FFFFFF" cx="2239.939" cy="964.419" r="6"/>
	<circle class="medschool delay" fill="#FFFFFF" cx="1848.457" cy="1181.458" r="6"/>
	<circle class="medschool" fill="#FFFFFF" cx="1810.957" cy="1211.958" r="6"/>
	<circle class="medschool" fill="#FFFFFF" cx="1625.957" cy="1070.958" r="6"/>
</g>
<style>
	.medschool {
	    -webkit-animation: pulsate 3s ease-out;
	    -webkit-animation-iteration-count: infinite; 
	    opacity: 0
	}
	@-webkit-keyframes pulsate {
	    0% { opacity: 0.2;}
	    50% {opacity: 1; }
	    100% {opacity: 0.2; r:8}
	}
	.delay {
	    -webkit-animation-delay: 1s; /* Chrome, Safari, Opera */
	    animation-delay: 1s;
	}
	.delay-2 {
		-webkit-animation-delay: 2s; /* Chrome, Safari, Opera */
	    animation-delay: 2s;
	}
</style>
</svg>
