<?xml version="1.0" encoding="utf-8"?>
<!-- Generator: Adobe Illustrator 16.0.0, SVG Export Plug-In . SVG Version: 6.00 Build 0)  -->
<!DOCTYPE svg PUBLIC "-//W3C//DTD SVG 1.1//EN" "http://www.w3.org/Graphics/SVG/1.1/DTD/svg11.dtd">
<svg version="1.1"
	 id="svg2" xmlns:dc="http://purl.org/dc/elements/1.1/" xmlns:cc="http://creativecommons.org/ns#" xmlns:rdf="http://www.w3.org/1999/02/22-rdf-syntax-ns#" xmlns:svg="http://www.w3.org/2000/svg"
	 xmlns="http://www.w3.org/2000/svg" xmlns:xlink="http://www.w3.org/1999/xlink" x="0px" y="0px" width="167px" height="202px"
	 viewBox="11 1 167 202" enable-background="new 11 1 167 202" xml:space="preserve">
<g id="g10" transform="matrix(1.25,0,0,-1.25,0,270.2525)" opacity="0.95">
	<g id="g12">
		<g>
			<g>
				<defs>
					<rect id="SVGID_1_" x="-212.827" y="-35.206" width="1017.925" height="337.814"/>
				</defs>
				<clipPath id="SVGID_2_">
					<use xlink:href="#SVGID_1_"  overflow="visible"/>
				</clipPath>
				<g id="g14" clip-path="url(#SVGID_2_)">
					<g id="g20" transform="translate(102.1616,152.6406)">
						<path id="path22" fill="#231F20" d="M-29.6,25.6v-0.275c0-0.825,0.413-1.65,1.787-1.65c1.375,0,1.788,0.825,1.788,1.65V25.6
							H-29.6z M-23.139,7.451h-0.274c0-4.125-2.475-6.875-2.475-6.875h-0.275c0,0-2.475,2.75-2.475,6.875h-0.275
							c-0.548-1.65-1.788-2.475-3.025-2.475c-2.062,0-2.75,1.925-2.75,1.925c1.1,2.612,1.652,4.125,2.2,5.775
							c0.55,1.651,1.1,3.575,1.1,4.675c0,0.826-0.275,1.925-2.2,2.475l-1.1,0.275c-0.55,0.138-1.237,0.275-1.787,0.275
							c-0.963,0-1.788-0.413-1.788-2.199h-0.275c-0.548,0.549-1.375,1.649-1.375,3.574c0,1.1,0.275,1.65,1.102,2.2
							c1.1,0.687,3.712,1.65,6.323,2.2l1.1,1.65c0,0,1.375,0.275,3.163,0.275c3.575,0,8.112-1.1,10.037-1.1
							c1.375,0,3.025,0.551,3.85,1.648h0.275V27.8c0-2.475-1.65-3.85-5.225-3.85V23.4c3.575,0,5.5-1.65,5.5-4.4
							c0-1.925-1.1-3.025-1.65-3.3h-0.275c-0.137,0.55-0.825,1.375-1.787,1.375c-0.963,0-1.788-0.688-1.788-2.063
							c0-1.649,1.1-6.186,1.925-8.112c0,0-0.688-1.925-2.75-1.925C-21.35,4.975-22.588,5.8-23.139,7.451 M-5.538-10.7
							c1.375-1.375,3.987-2.75,8.388-2.75c4.4,0,8.662,1.375,8.662,1.375h0.274c0-3.025-3.849-5.5-6.05-6.325
							c-2.199-0.825-4.674-1.1-6.874-1.1c-2.2,0-5.775,0.55-6.876,1.1v-0.275c1.101-1.925,3.576-3.3,5.5-3.85
							c1.925-0.55,3.576-0.688,4.4-0.688c0.826,0,2.475,0.137,2.475,0.137v-0.275c0,0-0.824-1.511-3.299-2.75
							c-2.2-1.1-4.538-1.375-6.188-1.375c-2.749,0-5.087,0.825-7.013,2.475h-0.275c0.275-1.925,2.75-6.6,6.05-6.6
							c0.963,0,1.925,0.414,1.925,1.65h0.275c0,0,1.1-0.55,1.1-2.198c0-1.652-1.1-3.85-4.538-3.85c-5.362,0-8.663,6.048-9.488,9.073
							h-0.275c0-4.95,1.65-9.35,1.65-9.35l-0.137-0.136c-2.613,0.961-5.638,4.536-6.463,7.836h-0.275
							c0-11.273,3.574-14.575,8.113-14.575c3.437,0,5.086,1.652,5.086,1.652h0.276c0-6.325-3.3-8.525-6.6-8.525
							c-2.75,0-5.225,1.375-6.6,3.848h-0.275c0-4.123,1.65-8.798,7.15-8.798c2.199,0,3.3,0.823,3.3,0.823h0.274
							c0-3.573-2.199-6.323-5.775-6.323c-3.024,0-5.5,2.473-6.324,4.398h-0.275c0,0,1.099-3.573,1.099-6.598
							c0-3.576-1.649-6.601-2.749-7.975h-0.275c-1.1,1.374-2.75,4.399-2.75,7.975c0,3.024,1.1,6.598,1.1,6.598h-0.276
							c-0.824-1.925-3.299-4.398-6.323-4.398c-3.575,0-5.777,2.75-5.777,6.323h0.275c0,0,1.102-0.823,3.3-0.823
							c5.5,0,7.152,4.675,7.152,8.798h-0.277c-1.375-2.473-3.85-3.848-6.6-3.848c-3.3,0-6.6,2.2-6.6,8.525h0.277
							c0,0,1.648-1.652,5.087-1.652c4.538,0,8.113,3.302,8.113,14.575h-0.277c-0.825-3.3-3.85-6.875-6.462-7.836l-0.138,0.136
							c0,0,1.65,4.4,1.65,9.35h-0.273c-0.825-3.025-4.125-9.073-9.488-9.073c-3.438,0-4.537,2.198-4.537,3.85
							c0,1.648,1.098,2.198,1.098,2.198h0.277c0-1.236,0.962-1.65,1.923-1.65c3.302,0,5.775,4.675,6.05,6.6h-0.275
							c-1.925-1.65-4.262-2.475-7.012-2.475c-1.65,0-3.987,0.275-6.187,1.375c-2.475,1.239-3.3,2.75-3.3,2.75v0.275
							c0,0,1.649-0.137,2.475-0.137c0.825,0,2.475,0.137,4.4,0.688c1.925,0.55,4.398,1.925,5.498,3.85v0.275
							c-1.1-0.55-4.675-1.1-6.873-1.1c-2.2,0-4.675,0.275-6.875,1.1c-2.201,0.825-6.05,3.3-6.05,6.325h0.275
							c0,0,4.262-1.375,8.662-1.375c4.4,0,7.012,1.375,8.388,2.75v0.275c-7.425,0-11.827,1.1-14.3,2.2
							c-2.475,1.1-5.775,3.3-5.775,7.7h0.275c0,0,3.025-2.2,8.662-2.2c4.4,0,7.012,1.375,8.113,2.475v0.275
							c-6.05,0-10.452,0.825-13.475,2.475c-3.025,1.65-5.225,4.125-5.225,7.7h0.275c0,0,3.025-2.201,8.662-2.201
							c4.4,0,7.013,1.376,8.113,2.475v0.275c-6.05,0-10.45,0.825-13.475,2.475c-3.025,1.651-5.225,4.125-5.225,7.7h0.275
							c0,0,3.025-2.2,8.662-2.2c4.401,0,7.013,1.375,8.113,2.475v0.275c-6.05,0-10.45,0.825-13.475,2.475
							c-3.025,1.65-5.225,4.125-5.225,11.275h0.275c5.775-4.4,9.763-5.225,14.713-5.225c5.637,0,9.9,1.1,11.549,1.1
							c1.513,0,3.162-0.825,3.162-3.025c0-2.338-1.925-5.363-1.925-11.138c0-7.561,3.3-12.512,7.7-12.512c0,0,0.825-2.2,3.85-2.2
							c1.375,0,1.925,0.413,1.925,0.413h0.275c0.688-3.85,3.85-5.363,3.85-5.363h0.275c0,0,3.163,1.513,3.85,5.363h0.275
							c0,0,0.55-0.413,1.925-0.413c3.025,0,3.85,2.2,3.85,2.2c4.4,0,7.7,4.95,7.7,12.512c0,5.775-1.925,8.8-1.925,11.138
							c0,2.2,1.65,3.025,3.162,3.025c1.65,0,5.913-1.1,11.55-1.1c4.948,0,8.938,0.825,14.712,5.225h0.275
							c0-7.15-2.2-9.625-5.225-11.275s-7.424-2.475-13.474-2.475V21.2c1.099-1.1,3.712-2.475,8.112-2.475
							c5.637,0,8.662,2.2,8.662,2.2h0.275c0-3.575-2.2-6.049-5.225-7.7c-3.024-1.65-7.425-2.475-13.475-2.475v-0.275
							C0.237,9.376,2.849,8,7.249,8c5.637,0,8.662,2.201,8.662,2.201h0.275c0-3.575-2.2-6.05-5.225-7.7
							C7.937,0.85,3.537,0.025-2.514,0.025V-0.25c1.101-1.1,3.713-2.475,8.113-2.475c5.637,0,8.662,2.2,8.662,2.2h0.275
							c0-4.4-3.3-6.6-5.775-7.7s-6.875-2.2-14.299-2.2V-10.7z M-78.687,32.475c0-41.25,5.087-60.225,12.925-75.348
							c8.387-16.087,18.975-25.712,37.949-37.4l1.788-1.1l1.787,1.1c18.974,11.688,29.562,21.312,37.949,37.4
							C21.548-27.75,26.636-8.775,26.636,32.475v11H-78.687V32.475z M-28.089-86.323c-18.56,9.901-32.31,21.588-42.623,40.425
							c-10.312,18.837-13.75,40.973-13.75,83.873v11H32.411v-11c0-42.9-3.438-65.036-13.75-83.873S-5.401-76.422-23.963-86.323
							l-2.062-1.099L-28.089-86.323z"/>
					</g>
				</g>
			</g>
		</g>
	</g>
</g>
</svg>
