<?xml version="1.0" encoding="utf-8"?>
<!-- Generator: Adobe Illustrator 16.0.0, SVG Export Plug-In . SVG Version: 6.00 Build 0)  -->
<!DOCTYPE svg PUBLIC "-//W3C//DTD SVG 1.1//EN" "http://www.w3.org/Graphics/SVG/1.1/DTD/svg11.dtd">
<svg version="1.1" id="Layer_1" xmlns="http://www.w3.org/2000/svg" xmlns:xlink="http://www.w3.org/1999/xlink" x="0px" y="0px"
	 width="407.802px" height="493.081px" viewBox="0 -45.919 407.802 493.081" enable-background="new 0 -45.919 407.802 493.081"
	 xml:space="preserve">
<path fill="#98002E" d="M356.678-19.769l0.562,180.188c0,127.348-112.34,210.768-152.379,222.441
	C52.476,308.353,51.37,186.006,50.813,160.964c-1.112-18.889,0-180.733,0-180.733"/>
<path fill="#231F20" d="M358.902-19.769l0.563,180.188h-4.459l-0.548-180.188 M359.466,160.418
	c0,51.17-18.354,95.103-42.276,130.692l-3.332-2.228c23.915-35.046,41.149-78.415,41.149-128.465H359.466z M317.189,291.11
	c-36.695,53.382-87.303,86.754-111.78,93.976l-1.112-3.889c23.921-7.229,73.413-39.479,109.561-92.313L317.189,291.11z
	 M205.409,385.086h-1.665l1.117-2.227L205.409,385.086z M203.744,385.086C51.922,310.011,49.702,188.224,49.14,161.53h3.895
	c0.553,26.133,2.783,146.26,152.939,219.667L203.744,385.086z M53.035,161.53L53.035,161.53h-2.221H53.035z M49.14,161.53v-0.566
	h3.895v0.566H49.14z M53.035,160.964L53.035,160.964h-2.221H53.035z M49.14,160.964c-1.109-18.889,0-180.733,0-180.733h3.895
	c0,0-1.112,161.845,0,180.733H49.14z M49.14-19.769V-22h1.674v2.231H49.14z M50.813-22h305.865v3.897H50.813V-22z M356.678-22h2.225
	v2.231h-2.225V-22z"/>
<path fill="#EDB111" d="M65.269,388.98c21.135,1.117,27.251-8.34,23.359-35.579c-3.9-25.59-11.684-32.827-15.576-37.272
	c-4.445-5.006-26.695-12.79-21.683-24.468c0,0-25.027-8.896-31.151,12.796c-5.56,20.012,26.695,35.59,26.695,35.59
	C49.702,343.944,90.854,369.515,65.269,388.98"/>
<path fill="#231F20" d="M65.269,387.874c10.013,0.551,16.685-1.67,20.021-6.677l2.227,1.111c-3.895,6.115-11.125,8.354-22.247,8.354
	 M85.289,381.197c3.339-5.565,3.895-14.462,2.227-27.796h2.221c2.224,13.891,1.668,23.346-2.221,28.907L85.289,381.197z
	 M89.737,353.401L89.737,353.401h-1.109H89.737z M87.516,353.401c-3.895-23.924-11.125-31.728-14.463-35.607l1.673-1.665
	c3.886,3.896,11.123,12.246,15.011,37.272H87.516z M73.052,317.794L73.052,317.794l0.562-1.113L73.052,317.794z M73.052,317.794
	c-0.556-0.553,0,0-0.556-0.553l1.677-1.674c1.109,0.562,0.553,0.562,0.553,0.562L73.052,317.794z M74.173,315.567L74.173,315.567
	l-1.121,0.562L74.173,315.567z M72.496,317.241c-1.109-1.674-3.889-3.342-7.228-4.995l1.668-2.235
	c3.341,2.235,6.116,3.889,7.236,5.557L72.496,317.241z M65.269,312.246c-8.339-5.019-18.912-11.685-15.022-21.136l2.229,1.105
	c-3.336,7.233,6.683,13.354,14.461,17.794L65.269,312.246z M51.922,290.543c0.553,0,1.112,1.118,0.553,1.674l-1.106-0.556
	L51.922,290.543z M50.813,292.778c0,0-23.356-8.352-29.483,12.229l-2.221-0.55c6.675-23.354,32.813-13.914,32.813-13.914
	L50.813,292.778z M21.33,305.007L21.33,305.007l-1.112-0.55L21.33,305.007z M21.33,305.007
	c-5.001,18.911,26.139,33.924,26.139,33.924l-1.112,2.227c0,0-33.361-16.117-27.248-36.699L21.33,305.007z M47.469,338.931
	c0,0,0,0.555,0.562,0.555l-1.118,0.562L47.469,338.931z M48.031,339.485c0,0.562,1.109,1.119,2.783,2.783l-1.674,1.672
	c-1.67-1.116-2.783-2.224-3.333-2.785L48.031,339.485z M50.813,342.269c4.445,3.344,12.231,9.451,17.235,16.686l-1.665,1.105
	c-5.56-6.658-12.796-12.795-17.244-16.117L50.813,342.269z M68.048,358.953c7.787,9.46,11.128,21.132-2.221,31.146l-1.668-2.225
	c11.675-8.351,8.893-18.905,2.224-27.814L68.048,358.953z M65.269,390.663c-1.109-0.564-1.662-1.683-1.109-2.789l1.109,1.106
	V390.663z"/>
<path fill="#98002E" d="M65.269,297.218c0,0-40.594-23.355-46.16,12.793c1.671-14.455,5.565-22.244,13.905-33.917
	c4.453-6.127,3.338-11.122,9.454-17.235c12.24-11.133,30.584-2.236,30.584-2.236l8.901,16.128
	C81.953,272.749,71.94,274.433,65.269,297.218"/>
<path fill="#231F20" d="M64.712,298.332c-0.553,0-38.929-22.238-43.933,11.679H18c6.113-38.373,47.828-13.904,47.828-13.904
	 M20.78,310.011c-0.562,1.668-2.78,1.112-2.78,0h1.109H20.78z M18,310.011c0.547-7.216,2.218-13.332,4.442-18.35l2.232,1.117
	c-2.232,5-3.344,10.561-3.895,17.231L18,310.011L18,310.011z M22.442,291.661c2.232-5.561,5.56-10.559,9.46-16.129l2.224,1.679
	c-3.895,5.556-7.23,10.011-9.452,15.567L22.442,291.661z M31.902,275.532L31.902,275.532l1.112,0.562L31.902,275.532z
	 M31.902,275.532c2.224-2.221,2.777-4.995,3.895-7.233l2.224,0.562c-1.115,2.777-1.668,5.572-3.895,8.352L31.902,275.532z
	 M35.797,268.299c0.556-3.327,1.67-6.663,5.56-10.005l1.668,1.671c-3.339,3.339-3.895,6.106-5.004,8.896L35.797,268.299z
	 M41.356,258.294L41.356,258.294l1.112,0.564L41.356,258.294z M41.356,258.294c12.796-12.245,32.257-2.773,32.257-2.773
	l-0.562,2.222c-0.556,0-18.344-8.349-30.028,2.224L41.356,258.294z M73.614,255.521c0.559,0,0.559,0,0.559,0.545l-1.121,0.557
	L73.614,255.521z M74.173,256.063l8.898,16.136l-2.232,1.112l-8.898-16.129L74.173,256.063z M83.071,272.199
	c0.55,0.55,0,1.661-1.118,1.661v-1.111L83.071,272.199z M81.953,273.86c0,0-9.457,1.672-15.57,23.918l-2.224-1.101
	c6.671-23.366,17.793-25.041,17.793-25.041L81.953,273.86L81.953,273.86z M66.383,297.778c0,0.554-1.115,1.121-1.671,0.554
	l0.556-1.114L66.383,297.778z"/>
<path fill="#98002E" d="M68.607,361.731c1.112,0,11.675,16.133-4.448,27.249c-1.115,0.557-8.342,0.557-13.346-1.669
	c-5.006-2.775-8.345-6.671-7.789-7.788C49.14,362.836,66.937,362.291,68.607,361.731"/>
<path fill="#231F20" d="M68.607,360.624c0.55,0,1.67,0.557,2.224,1.667l-1.673,1.663c-0.55-0.557,0-1.118-0.55-1.118
	 M70.831,362.291c1.109,1.106,1.665,2.783,2.221,5.001l-2.221,0.557c-0.553-1.662-1.112-3.33-1.673-3.895L70.831,362.291z
	 M73.052,367.292c1.121,1.677,1.673,3.895,1.673,6.678H71.94c0-2.227-0.553-4.455-1.109-6.121L73.052,367.292z M74.726,373.97
	c0,4.995-2.229,11.116-10.013,16.129l-1.106-2.225c6.671-4.456,8.334-9.454,8.334-13.904H74.726z M63.606,387.874L63.606,387.874
	l0.553,1.106L63.606,387.874z M65.269,389.537c-1.109,1.126-3.897,1.126-7.786,1.126l0.559-2.789c2.783,0.551,5.004,0.551,5.565,0
	L65.269,389.537z M57.482,390.663c-2.224-0.564-5.007-1.126-7.236-2.238l1.124-2.221c2.218,1.107,4.448,1.67,6.671,1.67
	L57.482,390.663z M51.37,386.204L51.37,386.204l-0.556,1.108L51.37,386.204z M50.246,388.425L50.246,388.425l1.124-2.221
	L50.246,388.425z M50.246,388.425L50.246,388.425l0.567-1.112L50.246,388.425z M50.246,388.425c-2.777-1.671-4.995-3.339-6.11-5.007
	l1.671-1.659c1.103,1.659,3.333,3.327,5.563,4.445L50.246,388.425z M44.136,383.418c-2.221-1.659-2.78-3.333-2.221-4.453l2.221,1.12
	c0,0,0.553,0.557,1.671,1.674L44.136,383.418z M41.915,378.965L41.915,378.965l1.109,0.56L41.915,378.965z M41.915,378.965
	L41.915,378.965l2.221,1.12L41.915,378.965z M44.136,380.085L44.136,380.085l-1.112-0.562L44.136,380.085z M41.915,378.965
	c5.554-15.567,20.577-17.784,25.583-18.341l0.55,2.773c-4.442,0.557-18.909,2.229-23.912,16.688L41.915,378.965z M67.498,360.624
	c0.55,0,1.109,0,1.109,0l0.55,2.212c-0.55,0-0.55,0-1.109,0.562L67.498,360.624z M68.607,360.624L68.607,360.624v1.107V360.624z"/>
<path fill="#EDB111" d="M346.112,390.099c-26.695,1.102-31.696-11.134-27.248-35.597c4.459-28.362,13.903-34.479,18.353-38.373
	c3.896-5.006,23.356-11.122,18.354-27.245c0,0,13.352-7.244,29.478,13.344c7.789,11.117-19.468,40.598-27.807,46.162
	C343.329,356.179,317.189,390.099,346.112,390.099"/>
<path fill="#231F20" d="M346.112,391.199c-13.899,0.559-21.687-2.219-26.128-8.34l2.222-1.662c3.327,5.557,11.116,8.34,23.906,7.228
	 M319.984,382.859c-4.45-6.669-4.45-16.124-2.795-28.357l2.795,0.558c-2.232,11.678-1.674,20.572,2.222,26.139L319.984,382.859z
	 M319.984,355.06L319.984,355.06l-1.12-0.558L319.984,355.06z M317.189,354.502c4.457-26.127,12.8-33.928,17.241-37.821l2.232,1.676
	c-5.01,3.89-12.8,11.679-16.681,36.703L317.189,354.502z M336.664,318.354L336.664,318.354l-1.115-1.113L336.664,318.354z
	 M334.431,316.681c0.567-0.552,1.117-1.113,1.677-1.662l1.665,1.662c-0.557,0.562-0.557,1.113-1.108,1.676L334.431,316.681z
	 M337.772,316.681L337.772,316.681l-0.557-0.552L337.772,316.681z M336.107,315.019c1.108-1.119,3.326-2.771,5.56-4.445l1.662,2.213
	c-2.218,1.682-4.437,2.781-5.558,3.895L336.107,315.019z M341.667,310.571c6.675-4.465,16.129-10.571,12.793-21.137l2.78-0.552
	c3.333,12.234-6.672,18.906-13.911,23.901L341.667,310.571z M354.459,289.435c0-0.551,0.548-1.111,0.548-1.668l0.562,1.117
	L354.459,289.435z M355.007,287.767c0,0,14.467-7.777,31.151,13.907l-2.229,1.121c-15.009-19.474-27.251-12.799-27.251-12.799
	L355.007,287.767z M386.159,301.674L386.159,301.674l-1.112,0.554L386.159,301.674z M386.159,301.674c0,0,0,0,0,0.554l-2.229,1.111
	c0,0,0,0,0-0.544L386.159,301.674z M386.159,302.228L386.159,302.228l-1.112,0.567L386.159,302.228z M386.159,302.228
	c3.886,6.125-0.551,16.129-7.233,25.029l-2.216-1.117c6.107-8.897,10.562-17.787,7.22-22.801L386.159,302.228z M378.925,327.257
	c-6.669,9.46-15.017,17.794-20.022,21.131l-1.106-2.232c4.445-2.774,12.784-11.119,18.914-20.016L378.925,327.257z M358.902,348.388
	L358.902,348.388l-0.557-1.123L358.902,348.388z M358.902,348.388c0,0.559-0.557,0.559-1.106,1.119l-1.117-2.242
	c0.562-0.533,0.562-0.533,1.117-1.109L358.902,348.388z M357.795,349.507L357.795,349.507l-0.556-1.119L357.795,349.507z
	 M357.795,349.507c-6.677,3.327-16.129,13.329-20.579,22.236l-2.218-1.112c5-9.45,14.457-19.467,21.68-23.366L357.795,349.507z
	 M337.216,371.743c-1.668,3.339-2.785,6.121-2.785,8.897h-2.776c0-3.326,1.113-6.671,3.345-10.011L337.216,371.743z
	 M334.431,380.642c-0.554,2.219,0.567,4.444,2.232,5.563l-1.665,2.221c-2.23-2.221-3.345-5.007-3.345-7.783L334.431,380.642
	L334.431,380.642z M336.664,386.204c1.662,1.67,5.003,2.221,9.448,2.221v2.774c-5.001,0-8.896-1.102-11.113-2.774L336.664,386.204z
	 M346.112,388.425c1.11,0,1.11,2.774,0,2.774v-1.102V388.425z"/>
<path fill="#98002E" d="M344.441,299.45c2.781-11.128,27.814-23.355,41.718,7.229c-2.783-16.136-10.572-24.47-13.902-31.146
	c-4.459-7.233-1.677-11.674-7.232-16.123c-14.455-12.243-34.484,6.663-34.484,6.663l-5.006,9.46
	C325.533,275.532,336.664,279.987,344.441,299.45"/>
<path fill="#231F20" d="M343.329,298.899c0.563-2.795,2.783-6.121,6.127-8.356l1.663,1.674c-2.777,2.222-5.007,5.001-5.559,7.233
	 M349.456,290.543c2.774-2.222,6.669-3.89,10.562-4.44l0.555,2.221c-3.896,0.562-7.223,2.221-9.454,3.895L349.456,290.543z
	 M360.019,286.103c4.445-0.563,8.898,0,13.351,2.781l-1.677,2.227c-3.896-2.227-7.783-2.787-11.119-2.787L360.019,286.103z
	 M373.369,288.884c5.001,2.777,10.007,8.334,13.9,17.225l-2.224,0.57c-3.895-7.779-8.337-12.794-13.354-15.568L373.369,288.884z
	 M387.824,306.106c0,1.121-2.216,2.244-2.777,0.57h1.112L387.824,306.106z M385.046,306.679
	c-2.229-11.674-7.228-19.457-11.122-25.574l2.215-1.678c3.903,6.112,8.907,14.458,11.686,26.682L385.046,306.679z M373.924,281.104
	L373.924,281.104l1.109-0.57L373.924,281.104z M373.924,281.104c-1.111-1.678-2.231-3.354-2.785-5.011l2.229-1.116
	c0.556,1.116,1.665,2.772,2.771,4.449L373.924,281.104z M373.369,274.433v0.545l-1.112,0.556L373.369,274.433z M371.139,276.094
	c-2.222-3.345-2.776-6.127-3.342-8.345l2.782-0.551c0.56,2.218,1.112,4.439,2.789,7.232L371.139,276.094z M367.797,267.749
	c-0.548-2.777-1.112-5.004-3.889-7.23l1.67-2.225c3.896,3.342,4.451,5.564,5.001,8.904L367.797,267.749z M363.909,260.519
	L363.909,260.519l1.114-1.108L363.909,260.519z M363.909,260.519c-13.341-11.676-32.255,6.681-32.255,6.681l-1.665-2.228
	c0,0,20.579-19.468,35.59-6.678L363.909,260.519z M329.438,265.521l0.552-0.549l0.55,1.101L329.438,265.521z M331.654,266.64
	l-5.014,9.455l-2.215-1.662l5.012-8.91L331.654,266.64z M324.979,276.646c-0.553-0.552-0.553-1.112-0.553-2.213l1.106,1.101
	L324.979,276.646z M326.1,273.86c0,0.57,11.669,5.011,19.461,25.039L343.329,300c-7.222-18.896-18.351-23.354-18.351-23.354
	L326.1,273.86z M345.561,299.45c0,1.111-1.668,1.111-2.231,0.55l1.112-0.55H345.561z"/>
<path fill="#98002E" d="M341.111,363.954c-1.112-0.557-20.026,25.583,3.33,25.583c1.119,0,7.238,0,11.684-2.783
	c5.016-2.773,6.666-8.89,6.116-9.438C356.125,363.397,342.779,364.519,341.111,363.954"/>
<path fill="#231F20" d="M340.552,365.074c0,0-0.554,1.661-1.659,3.895l-2.229-1.677c2.229-3.338,4.447-5.001,5.003-4.456
	 M336.664,367.292L336.664,367.292l1.108,0.557L336.664,367.292z M338.893,368.969c-1.677,2.218-2.785,5.001-3.895,7.778
	l-2.23-0.557c0.555-3.334,2.23-6.115,3.896-8.898L338.893,368.969z M334.999,376.747c-0.567,2.776-1.124,5.562,0,7.789l-2.23,1.104
	c-1.661-2.781-1.113-6.117,0-9.45L334.999,376.747z M334.999,384.536c1.108,2.218,3.895,3.889,9.442,3.889v2.774
	c-6.67,0-10.566-2.219-11.674-5.559L334.999,384.536z M344.441,388.425c0.563,0,3.348,0,5.564-0.551l1.112,2.225
	c-3.33,0.564-5.559,1.102-6.678,1.102L344.441,388.425L344.441,388.425z M350.006,387.874c1.674-0.562,3.896-1.12,5.563-2.232
	l1.108,2.232c-1.671,1.106-3.895,1.663-5.56,2.225L350.006,387.874z M355.569,385.642L355.569,385.642l0.556,1.112L355.569,385.642z
	 M355.569,385.642c1.671-1.104,2.776-2.224,3.896-3.883l2.218,1.659c-1.11,1.668-2.781,3.336-5.006,4.456L355.569,385.642z
	 M359.466,381.759c1.106-1.674,1.674-3.895,1.674-3.895l2.216-1.117c0.554,0.567,0,3.895-1.672,6.671L359.466,381.759z
	 M361.14,377.864v-0.55h1.102L361.14,377.864z M361.14,377.314c-5.016-10.579-15.027-11.688-18.92-12.24l0.56-2.238
	c3.895,0,15.017,1.118,20.576,13.911L361.14,377.314z M342.779,362.836L342.779,362.836v1.118V362.836z M342.22,365.074
	c-0.554,0-1.108,0-1.108,0l0.556-2.238c0,0,0.554,0,1.112,0L342.22,365.074z M341.111,365.074h-0.56l0.56-1.12V365.074z"/>
<path fill="#EDB111" d="M136.455,353.942c-58.391-45.041-93.987-28.903-106.771-16.125c-6.68,6.675-3.342,11.127-3.342,11.127
	s8.337,11.113,11.125,15.01c1.662,4.459,1.662,12.793,5.557,15.569c8.898-24.466,37.814-26.122,83.974,9.457
	c44.497,35.046,93.986,53.951,147.379,6.672c45.039-38.367,75.629-40.595,88.979-18.905c2.224-2.777,5.007-9.455,5.564-13.911
	c1.109-4.998,10.005-13.329,10.005-13.329s5.004-7.238-2.786-12.238c-5.56-3.34-37.812-34.474-92.871,8.344
	C227.654,390.663,211.537,411.787,136.455,353.942"/>
<path fill="#231F20" d="M135.34,355.06c-23.356-18.343-42.821-26.141-58.95-28.92l0.553-2.222
	c16.132,2.222,36.155,10.572,60.07,28.916 M76.391,326.14c-23.356-3.339-38.37,5.012-45.606,12.239l-2.221-1.662
	c7.789-7.798,23.912-16.692,48.38-12.799L76.391,326.14z M30.784,338.379c-6.11,6.113-3.327,10.009-3.327,10.009l-2.232,1.119
	c0,0-3.895-5.564,3.339-12.79L30.784,338.379z M25.225,349.507L25.225,349.507l1.118-0.562L25.225,349.507z M26.896,348.388
	c0.562,0,9.457,11.672,11.684,15.01l-2.227,1.678c-7.789-12.24-11.128-15.567-11.128-15.567L26.896,348.388z M38.58,363.397
	L38.58,363.397l-1.112,0.557L38.58,363.397z M38.58,363.397c0.55,1.677,1.106,4.451,1.667,6.678l-2.227,0.556
	c-0.553-2.218-1.115-4.444-1.668-6.112L38.58,363.397z M40.247,370.075c1.109,3.339,1.668,7.239,3.333,8.345l-1.112,2.222
	c-2.783-2.222-3.889-6.115-4.448-10.011L40.247,370.075z M44.136,380.085c0,0.557-1.112,1.112-1.668,0.557l0.556-1.117
	L44.136,380.085z M41.915,378.965c1.109-3.333,2.774-6.106,4.442-8.334l2.227,1.112c-1.674,2.227-3.333,5.004-4.448,8.342
	L41.915,378.965z M46.357,370.631c3.889-5.557,9.46-8.897,16.688-10.007l0.562,2.773c-6.677,1.121-11.684,3.895-15.022,8.346
	L46.357,370.631z M63.045,360.624c6.674-1.115,15.02,0,25.021,3.895l-1.109,2.219c-8.893-3.34-17.238-4.445-23.351-3.34
	L63.045,360.624z M88.066,364.519c11.134,4.451,24.471,11.673,39.497,23.906l-1.118,1.674
	c-15.011-11.679-28.363-18.912-39.488-23.361L88.066,364.519z M127.563,388.425L127.563,388.425l-0.564,0.557L127.563,388.425z
	 M127.563,388.425c22.236,16.686,45.595,30.039,70.066,33.369l-0.553,2.777c-25.03-3.33-48.386-17.241-70.631-34.474
	L127.563,388.425z M197.628,421.794c23.913,3.342,49.498-3.895,75.629-27.236l1.668,2.219c-26.688,23.9-52.817,30.577-77.85,27.796
	L197.628,421.794z M273.257,394.558L273.257,394.558l1.12,1.096L273.257,394.558z M273.257,394.558
	c8.907-7.244,17.804-13.359,25.027-18.366l1.673,2.229c-7.786,4.439-16.125,10.562-25.032,18.355L273.257,394.558z M298.285,376.19
	c15.021-9.455,27.248-13.899,37.822-14.459l0.557,2.787c-10.563,0.556-22.807,4.994-36.706,13.9L298.285,376.19z M336.107,361.731
	c11.115-0.553,19.462,3.343,25.576,10.576l-2.218,1.661c-5.564-6.678-13.354-10.016-22.803-9.45L336.107,361.731z M361.684,372.308
	c1.106,1.106,2.226,2.219,2.78,3.884l-2.224,1.674c-0.558-1.674-1.668-2.782-2.774-3.896L361.684,372.308z M364.464,377.864
	c-0.556,0.556-1.674,0.556-2.224,0l1.113-1.117L364.464,377.864z M362.241,376.19c1.114-1.108,2.224-3.883,3.338-6.115l2.219,1.111
	c-1.112,2.228-2.219,5.004-3.333,6.678L362.241,376.19z M365.579,370.075c1.105-2.783,1.671-5.557,2.219-7.784l2.782,0.545
	c-0.55,2.238-1.662,5.577-2.782,8.351L365.579,370.075z M367.797,362.291c1.12-5.006,10.021-13.903,10.021-13.903l1.662,1.652
	c0,0-8.343,8.913-8.901,12.796L367.797,362.291z M380.042,350.04h-0.562l-0.557-0.533L380.042,350.04z M377.819,348.388
	c0,0,4.438-5.563-2.232-10.009l1.123-2.228c8.898,5.565,3.333,13.889,3.333,13.889L377.819,348.388z M376.709,336.151
	L376.709,336.151l-0.57,1.115L376.709,336.151z M375.586,338.379c-0.553-0.562-1.112-1.11-2.218-1.662l1.104-2.227
	c1.112,0.545,2.235,1.101,2.235,1.661L375.586,338.379z M373.369,336.717c-9.46-6.683-40.047-28.364-88.98,10.015l-1.674-1.681
	c50.607-40.044,82.31-17.237,91.76-10.561L373.369,336.717z M282.714,345.051L282.714,345.051l0.554,0.562L282.714,345.051z
	 M284.389,346.729c-3.34,2.776-6.679,5.555-10.57,8.328l-1.668-1.656c3.343-2.776,6.679-5.57,10.563-8.352L284.389,346.729z
	 M273.818,355.06c-48.383,39.498-66.738,54.507-138.479,0l1.674-2.226c69.515,53.396,87.871,38.924,135.136,0.567L273.818,355.06z
	 M135.34,355.06L135.34,355.06l1.115-1.115L135.34,355.06z"/>
<path fill="#FFFFFF" d="M50.813,89.787c7.784-3.889,16.685-8.903,28.363-8.903c15.567,0,27.248,7.796,40.044,7.796
	c16.12,0,21.127-10.009,41.145-9.46c18.914,0,26.139,8.908,43.933,8.908c17.244,0,28.363-10.02,47.833-10.02
	c13.905,0,32.258,9.456,40.592,9.456c13.904,0,22.25-8.893,41.155-8.893c10.563,0,19.474,2.212,22.801,6.663v21.691
	c-7.223-6.667-19.462-7.771-30.037-7.771c-16.676,0.542-20.569,10.554-37.251,10.554c-18.351,0-26.141-9.45-43.937-9.45
	c-13.902,0-25.024,8.887-41.156,8.887c-18.903,0-29.469-8.887-45.592-8.887c-18.358,0-25.027,9.999-40.049,9.999
	c-12.787,0-25.58-8.335-39.479-8.335c-12.793,0-21.694,4.446-28.363,11.118"/>
<path fill="#231F20" d="M50.079,114.909c-0.712-0.297-1.185-0.997-1.185-1.771l0,0V89.783c0-0.724,0.411-1.389,1.063-1.715l0,0
	c7.708-3.842,16.969-9.098,29.22-9.104l0,0c16.227,0.079,28.055,7.9,40.041,7.798l0,0c7.443-0.011,12.257-2.198,17.899-4.59l0,0
	c5.612-2.386,11.986-4.905,21.67-4.894l0,0c0.524,0,1.069,0.007,1.577,0.024l0,0c19.692,0.11,26.973,9.025,43.93,8.906l0,0
	c16.383,0.126,27.606-9.914,47.833-10.016l0,0c14.559,0.071,33.256,9.604,40.596,9.453l0,0c12.914,0.158,21.543-8.801,41.151-8.891
	l0,0c10.82,0.084,20.098,2.023,24.332,7.43l0,0c0.253,0.332,0.388,0.731,0.388,1.147l0,0v21.694c0,0.761-0.454,1.45-1.148,1.752l0,0
	c-0.704,0.308-1.515,0.174-2.07-0.345l0,0c-6.435-6.042-18.275-7.303-28.676-7.262l0,0c-7.946,0.272-12.65,2.702-17.828,5.274l0,0
	c-5.135,2.579-10.746,5.297-19.48,5.28l0,0c-19.188-0.127-27.006-9.581-43.938-9.454l0,0c-13.024-0.127-24.272,8.789-41.156,8.891
	l0,0c-19.591-0.09-30.29-9.001-45.592-8.891l0,0c-17.489-0.134-23.941,9.804-40.045,10.003l0,0
	c-13.605-0.114-26.333-8.434-39.479-8.336l0,0c-12.354,0.024-20.629,4.206-27.009,10.553l0,0c-0.368,0.368-0.858,0.562-1.357,0.562
	l0,0C50.565,115.054,50.316,115.007,50.079,114.909L50.079,114.909z M52.731,108.826c6.592-5.332,15.173-8.744,26.447-8.725l0,0
	c14.65,0.103,27.506,8.447,39.479,8.337l0,0c13.936,0.2,20.823-9.859,40.045-9.998l0,0c16.945,0.114,27.385,8.971,45.592,8.887l0,0
	c15.379,0.103,26.376-8.76,41.156-8.887l0,0c18.659,0.127,26.418,9.576,43.938,9.449l0,0c7.942-0.019,12.612-2.308,17.771-4.87l0,0
	c5.112-2.562,10.688-5.413,19.483-5.685l0,0c9.348,0.037,20.185,0.763,28.115,5.826l0,0V85.993
	c-2.843-3.235-11.062-5.491-20.885-5.404l0,0c-18.201-0.097-26.262,8.734-41.152,8.891l0,0c-9.332-0.157-27.343-9.533-40.595-9.46
	l0,0c-18.715-0.097-29.729,9.896-47.833,10.023l0,0c-18.63-0.121-25.795-9.02-43.997-8.911l0,0
	c-0.507-0.019-1.003-0.019-1.509-0.019l0,0c-9.033,0.013-14.602,2.235-20.172,4.586l0,0c-5.54,2.355-11.152,4.905-19.397,4.893l0,0
	c-13.604-0.103-25.143-7.872-40.041-7.792l0,0c-10.61-0.007-18.883,4.347-26.447,8.164l0,0L52.731,108.826L52.731,108.826z"/>
<path fill="#FFFFFF" d="M51.37,134.279c7.789-4.452,16.679-9.453,27.807-9.453c16.129,0,27.804,8.344,40.588,8.344
	c16.129,0,20.583-10.569,41.159-10.016c18.355,0,26.143,9.453,43.938,8.901c16.68,0,28.363-10.018,47.824-10.018
	c13.902,0,31.703,9.466,40.592,9.466c13.91,0,21.695-8.902,40.598-8.902c11.131,0,20.026,2.225,23.365,6.666v22.253
	c-7.233-7.232-19.468-8.332-30.028-8.332c-16.679,0.543-20.588,10.563-37.267,10.563c-18.905,0-26.139-9.463-43.928-9.463
	c-13.91,0-25.033,8.896-41.156,8.896c-18.92,0-29.478-8.896-45.611-8.896c-18.903,0-25.019,9.999-40.03,9.999
	c-12.796,0-25.589-7.781-40.044-7.781c-12.793,0-21.135,4.459-27.807,11.139"/>
<path fill="#231F20" d="M50.634,159.415c-0.713-0.297-1.185-0.997-1.185-1.771l0,0v-23.367c0-0.683,0.369-1.323,0.966-1.662l0,0
	c7.788-4.446,17.031-9.702,28.764-9.708l0,0c16.812,0.084,28.665,8.469,40.584,8.342l0,0c7.43-0.011,12.089-2.313,17.683-4.844l0,0
	c5.559-2.532,11.962-5.208,21.93-5.189l0,0c0.513,0,1.05,0,1.546,0.017l0,0c18.631,0.115,26.545,9.049,42.445,8.922l0,0
	c0.466,0,0.943-0.006,1.492-0.017l0,0c15.81,0.12,27.627-9.92,47.826-10.018l0,0c14.572,0.08,32.684,9.613,40.592,9.461l0,0
	c12.904,0.17,20.977-8.803,40.598-8.898l0,0c11.37,0.078,20.643,2.036,24.896,7.43l0,0c0.247,0.332,0.385,0.731,0.385,1.153l0,0
	v22.25c0,0.774-0.472,1.474-1.185,1.771l0,0c-0.719,0.297-1.545,0.133-2.09-0.417l0,0c-6.452-6.555-18.216-7.805-28.609-7.768l0,0
	c-7.952,0.271-12.663,2.7-17.841,5.28l0,0c-5.135,2.579-10.754,5.303-19.49,5.286l0,0c-19.729-0.127-27.021-9.6-43.924-9.467l0,0
	c-13.033-0.126-24.279,8.796-41.158,8.898l0,0c-19.61-0.09-30.296-9.014-45.61-8.898l0,0c-9.111,0.012-14.97,2.362-20.715,4.838l0,0
	c-5.704,2.478-11.357,5.167-19.315,5.159l0,0c-13.568-0.096-26.273-7.859-40.04-7.781l0,0c-12.35,0.037-20.021,4.187-26.456,10.579
	l0,0c-0.368,0.368-0.857,0.562-1.355,0.562l0,0C51.122,159.56,50.872,159.513,50.634,159.415L50.634,159.415z M53.285,153.302
	c6.449-5.305,14.646-8.743,25.894-8.713l0,0c15.132,0.08,28.012,7.879,40.04,7.782l0,0c7.057-0.005,11.969-2.313,17.792-4.845l0,0
	c5.793-2.519,12.445-5.165,22.237-5.153l0,0c16.957,0.109,27.385,8.978,45.609,8.893l0,0c15.369,0.103,26.365-8.766,41.16-8.893l0,0
	c18.666,0.132,25.842,9.581,43.924,9.461l0,0c7.945-0.019,12.621-2.308,17.772-4.875l0,0c5.118-2.567,10.701-5.42,19.496-5.691l0,0
	c9.307,0.037,20.166,0.76,28.109,6.204l0,0v-17.544c-2.856-3.228-11.076-5.487-21.446-5.413l0,0
	c-18.189-0.096-25.684,8.741-40.598,8.905l0,0c-9.879-0.151-27.361-9.545-40.592-9.467l0,0
	c-18.726-0.097-30.277,9.889-47.783,10.016l0,0c-0.508,0.013-1.021,0.024-1.535,0.024l0,0c-17.61-0.127-25.409-9.037-42.512-8.923
	l0,0c-0.495-0.017-0.985-0.024-1.479-0.024l0,0c-9.298,0.019-14.837,2.362-20.347,4.852l0,0c-5.467,2.483-10.977,5.202-19.265,5.189
	l0,0c-13.652-0.127-25.144-8.427-40.584-8.342l0,0c-10.097-0.006-18.365,4.354-25.894,8.647l0,0L53.285,153.302L53.285,153.302z"/>
<path fill="#FFFFFF" d="M334.431,249.942l-9.452,18.918c-4.446-0.562-11.121-2.221-16.123-2.221
	c-14.461,0-19.467,6.672-34.479,6.672c-12.793,0-21.691-4.451-33.365-4.451c-13.908,0-21.142,5.57-35.039,5.57
	c-13.904,0-21.135-5.57-36.155-5.57c-13.349,0-20.571,6.115-35.032,5.57c-12.793,0-20.576-5.57-32.811-5.57
	c-7.233,0-12.793,1.105-20.023,2.227L71.94,250.505c7.236-3.895,13.908-5.001,22.803-5.001c13.346,0,20.029,5.558,32.822,6.122
	c16.679,0,26.127-6.678,42.253-6.122c13.905,0,20.026,5.558,35.043,5.558c12.229,0,25.576-5.558,40.037-5.558
	c13.899,0,15.021,5.558,26.699,5.558c13.342,0,22.797-6.112,36.148-6.112C317.189,244.948,328.874,246.61,334.431,249.942"/>
<path fill="#231F20" d="M134.785,276.327c-13.429-0.071-21.245-5.646-32.81-5.57l0,0c-7.025,0-12.445,1.074-19.735,2.203l0,0
	c-0.821,0.12-1.635-0.296-1.997-1.043l0,0L70.23,251.335c-0.448-0.915-0.091-2.021,0.808-2.504l0,0
	c7.539-4.074,14.672-5.24,23.707-5.227l0,0c13.985,0.065,20.75,5.66,32.822,6.119l0,0c15.438,0.061,24.739-6.091,40.348-6.156l0,0
	c0.633,0,1.297,0.007,1.907,0.037l0,0c14.558,0.071,20.622,5.623,35.04,5.558l0,0c11.668,0.049,25.103-5.517,40.035-5.558l0,0
	c7.188-0.021,11.377,1.498,14.89,2.914l0,0c3.528,1.399,6.272,2.621,11.813,2.644l0,0c12.692,0.065,22.149-6.041,36.146-6.112l0,0
	c9.692,0.042,21.399,1.588,27.661,5.264l0,0l-0.979,1.627l0.979-1.627c0.85,0.508,1.163,1.584,0.719,2.475l0,0l-9.452,18.92
	c-0.36,0.719-1.135,1.135-1.933,1.032l0,0c-4.622-0.597-11.256-2.222-15.887-2.204l0,0c-13.674-0.107-18.715,6.568-34.479,6.672l0,0
	c-13.28-0.043-22.229-4.496-33.366-4.45l0,0c-13.283-0.071-20.514,5.499-35.035,5.57l0,0c-14.539-0.071-21.715-5.632-36.152-5.57
	l0,0c-12.114-0.077-19.308,5.531-33.226,5.603l0,0C135.98,276.358,135.352,276.349,134.785,276.327L134.785,276.327z
	 M136.596,272.562c12.632,0.074,19.771-5.521,33.226-5.6l0,0c15.596,0.061,22.88,5.637,36.153,5.571l0,0
	c13.267,0.065,20.502-5.507,35.034-5.571l0,0c12.212,0.048,21.064,4.49,33.366,4.447l0,0c14.256,0.104,19.229-6.561,34.479-6.669
	l0,0c4.849,0.012,10.78,1.392,15.037,2.048l0,0l8.013-16.035c-5.485-2.488-15.833-3.945-24.157-3.909l0,0
	c-12.705-0.069-22.162,6.042-36.146,6.11l0,0c-6.145,0.021-9.797-1.534-13.224-2.911l0,0c-3.446-1.362-6.767-2.626-13.478-2.644l0,0
	c-13.984-0.043-27.25,5.506-40.035,5.555l0,0c-15.625-0.062-21.798-5.631-35.125-5.561l0,0c-0.609-0.024-1.213-0.031-1.822-0.031
	l0,0c-14.377-0.064-23.769,6.104-40.432,6.149l0,0c-13.436-0.661-20.039-6.184-32.738-6.112l0,0
	c-8.073,0.012-13.98,0.897-20.284,3.945l0,0l8.586,17.648c6.541-1.04,11.973-2.032,18.928-2.032l0,0
	c12.904,0.077,20.655,5.644,32.871,5.571l0,0C135.443,272.55,136.029,272.562,136.596,272.562L136.596,272.562z"/>
<path fill="#FFFFFF" d="M98.082,293.317c3.895-0.539,7.787-0.539,12.79-1.102c12.796-0.556,19.467,3.34,32.811,2.221
	c11.125-0.553,17.241-3.895,28.363-4.438c13.896-0.564,21.69,4.438,35.593,4.438c13.346,0,20.58-4.438,33.926-5.002
	c13.344,0,20.021,3.883,32.254,3.344c11.671,0,17.801-5.557,28.926-5.557c3.88,0,9.447,3.32,9.447,3.32
	c-6.68,8.907-15.02,20.58-15.574,20.58c-4.998-2.223-17.244,3.895-28.363,3.895c-12.236,0-18.354-4.445-30.578-4.445
	c-12.789,0-19.473,5.558-33.378,4.996c-12.229,0-16.12-4.444-31.693-4.444c-14.461,0-21.688,5.006-36.149,5.006
	c-8.345,0-22.244-1.662-21.129-1.11C107.536,306.679,101.977,301.118,98.082,293.317"/>
<path fill="#231F20" d="M97.521,292.217c2.786-0.556,5.565-1.106,8.904-1.106v2.774c-2.783,0-5.565,0-8.342,1.12 M106.424,291.11
	c1.112,0,2.78,0,4.448-0.567v2.774c-1.668,0-2.783,0-4.448,0.566V291.11z M110.872,290.543L110.872,290.543v1.674V290.543z
	 M110.872,290.543c6.119,0,11.122,0.567,15.573,1.674v2.222c-5.006-0.554-9.454-1.121-15.573-1.121V290.543z M126.445,292.217
	c5.56,0.562,10.569,1.668,16.685,1.101l0.553,2.789c-7.228,0-12.231-0.551-17.238-1.668V292.217z M143.129,293.317h0.553v1.119
	L143.129,293.317z M143.683,293.317c5.565-0.539,10.01-1.102,13.902-2.207l0.559,2.207c-4.451,1.119-8.896,2.238-14.461,2.787
	V293.317z M157.585,291.11c4.453-1.114,8.901-2.228,13.91-2.228l0.55,2.228c-5.56,0.551-9.454,1.105-13.902,2.207L157.585,291.11z
	 M171.495,288.884L171.495,288.884l0.55,1.112L171.495,288.884z M171.495,288.884c7.784-0.562,13.343,1.112,19.462,2.227
	l-0.557,2.207c-5.562-1.101-11.122-2.207-18.354-2.207L171.495,288.884z M190.957,291.11c5.006,1.105,10.007,2.207,16.682,2.207
	v2.787c-6.674,0-12.244-1.668-17.238-2.787L190.957,291.11z M207.639,293.317c6.68,0,12.231-1.102,17.248-2.774l0.551,2.774
	c-5.566,1.119-10.564,2.787-17.797,2.787v-2.787H207.639z M224.885,290.543L224.885,290.543l0.551,1.674L224.885,290.543z
	 M224.885,290.543c5.002-1.108,10.559-2.222,16.68-2.222v2.222c-6.121,0.567-11.125,1.674-16.129,2.774L224.885,290.543z
	 M241.564,288.321L241.564,288.321v1.113V288.321z M241.564,288.321c6.672,0,11.679,0.562,16.125,1.675l-0.559,2.782
	c-4.445-1.117-9.457-2.235-15.566-2.235V288.321z M257.689,289.996c5.004,1.114,10.015,2.221,16.129,1.665v2.775
	c-6.114,0-11.125-1.119-16.688-1.658L257.689,289.996z M273.818,294.438L273.818,294.438v-1.66V294.438z M273.818,291.661
	c5.555,0,10.015-1.665,13.899-2.777l1.109,2.777c-4.438,1.117-8.892,2.224-15.009,2.775V291.661L273.818,291.661z M287.718,288.884
	c5.005-1.117,9.454-2.781,15.025-2.781v2.781c-5.571,0-9.466,1.112-13.916,2.777L287.718,288.884z M302.744,286.103
	c4.443,0,9.999,3.332,9.999,3.332l-1.104,2.228c0,0-5.016-2.777-8.896-2.777L302.744,286.103L302.744,286.103z M312.743,289.435
	c0.563,0.562,1.114,1.108,0.563,1.676l-1.115-0.566L312.743,289.435z M313.307,291.11c-3.342,4.994-7.236,10.008-10.014,13.896
	l-2.225-1.668c3.336-3.889,7.23-8.901,10.006-13.343L313.307,291.11z M303.293,305.007c-3.336,4.445-6.121,7.778-7.229,7.239
	l1.106-2.235c0,0,1.677-2.783,3.897-6.672L303.293,305.007z M296.617,309.452l0.556,0.559l-0.556,1.112V309.452z M296.066,312.246
	c-2.228-1.123-6.678,0-11.678,1.098l-0.557-2.221c5.557-1.671,10.007-2.771,12.784-1.671L296.066,312.246z M284.389,313.344
	L284.389,313.344v-1.098V313.344z M284.389,313.344c-5.017,1.675-10.57,2.785-16.136,2.785v-2.229
	c5.004,0,10.575-1.652,15.579-2.775L284.389,313.344z M268.253,316.129c-6.108,0-11.122-1.11-15.567-2.229l0.558-2.221
	c4.446,1.106,8.901,2.221,15.011,2.221L268.253,316.129L268.253,316.129z M252.686,313.899L252.686,313.899v-1.114V313.899z
	 M252.686,313.899c-4.449-1.114-8.899-2.222-15.011-2.222v-2.776c6.11,0,11.116,1.108,15.567,2.776L252.686,313.899z
	 M237.675,311.679c-6.124,0-10.571,1.106-15.567,2.221l-0.566-2.221c5.003-1.105,10.01-2.777,16.134-2.777V311.679z
	 M222.107,313.899c-5.018,1.668-10.571,3.342-17.811,2.779v-2.213c7.239,0,12.24-1.123,17.244-2.788L222.107,313.899z
	 M204.297,314.467L204.297,314.467v1.101V314.467z M204.297,316.681c-6.109,0-10.004-1.113-14.455-2.214l0.559-2.221
	c4.451,1.098,8.338,2.221,13.896,2.221V316.681z M189.842,314.467c-4.448-1.122-9.452-2.221-17.238-2.221v-2.794
	c8.342,0.559,13.337,1.671,17.796,2.794L189.842,314.467z M172.604,309.452L172.604,309.452v1.671V309.452z M172.604,312.246
	c-6.68,0-12.24,1.098-17.797,2.221l-0.564-2.221c5.568-1.123,11.134-2.794,18.361-2.794V312.246z M154.808,314.467
	c-5.56,1.662-11.125,2.774-18.353,2.774v-2.774c7.228,0,12.793-1.122,17.788-2.221L154.808,314.467z M136.455,317.241
	c-4.451,0-10.572-0.562-15.017-0.562v-2.779c4.445,0.566,10.566,0.566,15.017,0.566V317.241z M121.438,316.681
	c-3.339-0.552-5.009-1.662-5.009-1.113l-2.218-1.101c0.562-1.123,3.335-0.567,7.228-0.567L121.438,316.681L121.438,316.681z
	 M114.211,314.467L114.211,314.467l1.115,0.552L114.211,314.467z M116.429,315.567c-0.55,0.562-1.104-2.225-0.55-1.668l-1.106,2.229
	c-1.121-0.562-1.121-1.111-0.562-1.662L116.429,315.567z M115.879,313.899c1.112,1.117,0,2.779-1.106,2.229l0.553-1.111
	L115.879,313.899z M114.211,315.567c-1.112-1.102-2.777-2.782-3.895-3.89l1.667-1.668c1.668,1.112,2.789,2.774,3.895,3.89
	L114.211,315.567z M110.316,311.679c-5.563-6.107-10.01-11.115-13.346-17.794l2.229-1.106c2.777,6.121,7.225,11.117,12.784,17.232
	L110.316,311.679z M96.97,293.885c-0.559-0.567,0-1.106,0.55-1.668l0.562,1.101L96.97,293.885z"/>
<path fill="#EDB111" d="M194.293,191.004h-16.135c0,0-11.122-1.109-6.663-12.244c-1.12,0-12.245,1.115-13.352,12.244
	c-1.109,8.896,5.004,10.009,5.004,10.009s-6.113,1.106-5.004,10.576c1.106,10.559,12.231,12.217,13.352,12.217
	c-4.459-11.117,6.663-12.217,6.663-12.217h15.578l0.557,15.564c0,0-1.109,11.68-12.793,6.666c0,1.117,1.67,12.229,12.793,13.347
	c9.451,1.115,10.004-5,10.004-5s1.112,6.115,10.575,5c11.12-1.117,12.782-12.229,12.231-13.347
	c-11.131,5.014-12.231-6.665-12.231-6.665v-15.565h15.567c0,0,11.685,1.1,7.235,12.217c1.112,0,12.226-1.658,13.339-12.217
	c0.555-9.47-5.561-10.576-5.561-10.576s6.115-1.113,5.561-10.009c-1.113-11.129-12.227-12.244-13.339-12.244
	c4.448,11.135-7.235,12.244-7.235,12.244h-15.567v-15.57c0,0,1.101-11.678,12.231-7.231c0.551-1.124-1.111-12.233-12.231-13.348
	c-9.463-0.567-10.575,5.564-10.575,5.564s-0.553-6.131-10.004-5.564c-11.123,1.115-12.793,12.224-12.793,13.348
	c11.684-4.446,12.793,7.231,12.793,7.231"/>
<path fill="#231F20" d="M194.293,191.553h-16.135v-2.21h16.135 M178.158,191.553L178.158,191.553v-0.549V191.553z M178.158,191.553
	c0,0-12.781-0.549-8.339-13.342l2.786,0.549c-3.886,10.021,6.113,10.583,6.113,10.583L178.158,191.553z M171.495,177.1
	c0.55,0,1.109,1.111,1.109,1.66h-1.109V177.1z M171.495,179.875c-0.562,0-5.571,0.56-8.904,3.895l-1.668-2.224
	c3.9-3.334,9.452-4.445,10.572-4.445V179.875z M162.591,183.769c-1.668,1.118-2.78,3.895-3.341,7.235l-2.215-0.558
	c0-3.897,1.67-6.677,3.889-8.901L162.591,183.769z M159.25,191.004L159.25,191.004h-1.106H159.25z M159.25,191.004
	c-1.106,7.78,3.897,8.896,3.897,8.896v2.22c0,0-7.787-1.106-6.113-11.673L159.25,191.004z M163.147,199.899
	c1.112,0,1.112,2.22,0,2.22v-1.106V199.899z M163.147,202.119c0,0-5.004,1.12-3.897,9.47h-2.215
	c-1.674-10.576,6.113-11.689,6.113-11.689L163.147,202.119L163.147,202.119z M159.25,211.589L159.25,211.589h-1.106H159.25z
	 M159.25,211.589c0.562,3.326,1.673,5.559,3.341,7.221l-1.668,1.672c-2.218-1.672-3.889-4.457-3.889-8.893H159.25z M162.591,218.81
	c3.333,3.338,8.342,3.89,8.904,3.89v2.227c-1.12,0-6.671-0.563-10.572-4.444L162.591,218.81z M172.604,223.267
	c0,1.094-0.559,1.658-1.109,1.658v-1.119L172.604,223.267z M169.819,224.36c-4.442-12.771,8.339-13.893,8.339-13.893l0.559,2.219
	c0,0-9.999,1.112-6.113,10.578L169.819,224.36z M178.158,210.469L178.158,210.469v1.12V210.469z M178.158,210.469h15.582v2.22
	h-15.582V210.469z M193.74,210.469c0.553,0,1.111,0.543,1.111,1.12h-1.111V210.469z M194.852,211.589l0.543,15.564h-2.211
	l-0.563-15.564H194.852z M195.395,227.153L195.395,227.153h-1.102H195.395z M195.395,227.153c0,0-1.102,13.339-14.448,8.341
	l1.106-2.786c10.015,3.891,11.13-6.109,11.13-6.109L195.395,227.153z M180.391,233.819c0-0.545,0.556-1.111,1.663-1.111
	l-0.553,1.111H180.391z M182.612,233.819c0,0.562,0.559,5.568,3.892,8.902l-1.665,1.664c-3.892-3.895-4.448-9.449-4.448-10.566
	H182.612z M186.503,242.722c1.674,1.665,4.454,2.782,7.79,3.327v2.794c-4.451-0.562-7.229-2.232-9.455-4.456L186.503,242.722z
	 M194.293,246.049L194.293,246.049v1.117V246.049z M194.293,246.049c8.342,1.117,8.893-3.883,8.893-3.883h2.225
	c0,0-0.547,7.776-11.116,6.677L194.293,246.049L194.293,246.049z M203.186,242.166c0-1.112,2.225-1.112,2.225,0h-1.112H203.186z
	 M205.409,242.166c0,0,1.12,5,9.463,3.883l0.56,2.794c-11.135,1.102-12.246-6.677-12.246-6.677H205.409z M214.872,246.049
	L214.872,246.049v1.117V246.049z M214.872,246.049c1.665,0,3.33-0.545,4.442-1.101l1.115,2.218c-1.666,0.56-3.34,1.115-4.998,1.677
	L214.872,246.049z M219.314,244.948c2.793-1.672,4.447-3.896,5.57-6.115l2.219,1.102c-1.111,2.787-3.342,5.569-6.674,7.231
	L219.314,244.948z M224.885,238.833c1.106-1.674,1.106-3.896,1.106-4.451h2.774c0,0.557-0.549,3.333-1.664,5.553L224.885,238.833z
	 M225.992,234.382C225.992,234.382,225.992,234.938,225.992,234.382l2.227-1.105c0.549,0.545,0.549,0.545,0.549,1.105H225.992z
	 M227.104,232.708c0.551,0,1.114,0,1.114,0.566l-1.114,0.545V232.708z M227.654,235.494c-12.782,4.998-13.902-8.341-13.902-8.341
	l2.786-0.555c0,0,0.553,9.998,10.565,6.108L227.654,235.494z M213.751,227.153L213.751,227.153h1.121H213.751z M213.751,227.153
	v-15.564h2.786v15.564H213.751z M213.751,211.589c0-0.576,0.567-1.12,1.121-1.12v1.12H213.751z M214.872,210.469h15.567v2.22
	h-15.567V210.469z M230.439,210.469L230.439,210.469v1.12V210.469z M230.439,210.469c0,0,13.347,1.12,8.349,13.892l-2.235-1.094
	c3.9-9.467-6.113-10.578-6.113-10.578V210.469L230.439,210.469z M237.675,224.925c-1.123,0-1.68-0.564-1.123-1.658l1.123,0.539
	V224.925z M237.675,222.698c0.554,0,5.005-0.551,8.343-3.889l1.656,2.221c-3.889,3.33-8.887,3.895-9.999,3.895V222.698
	L237.675,222.698z M247.674,221.03L247.674,221.03l-1.101-1.112L247.674,221.03z M246.018,218.81c1.656-1.662,3.33-3.895,3.33-7.221
	h2.782c-0.562,4.436-2.229,7.221-4.456,9.441L246.018,218.81z M249.348,211.589L249.348,211.589h1.666H249.348z M249.348,211.589
	c1.117-8.35-3.895-9.47-3.895-9.47l0.564-2.22c0,0,7.225,1.113,6.111,11.689L249.348,211.589L249.348,211.589z M245.454,202.119
	c-1.112,0-1.112-2.22,0-2.22v1.113V202.119z M245.454,199.899c0,0,5.012-1.115,3.896-8.896l2.781-0.558
	c1.112,10.566-6.111,11.673-6.111,11.673L245.454,199.899z M249.348,191.004L249.348,191.004h1.666H249.348z M249.348,191.004
	c0-3.34-1.674-6.117-3.33-7.787l1.656-1.672c2.227,2.224,3.895,5.003,4.456,8.901L249.348,191.004z M246.018,183.217
	c-3.338-2.783-7.789-3.343-8.343-3.343V177.1c1.112,0,6.11,1.111,9.999,4.445L246.018,183.217z M236.552,178.76
	c-0.557-0.549,0-1.66,1.123-1.66v1.66H236.552z M238.788,178.211c4.998,12.793-8.349,13.342-8.349,13.342v-2.21
	c0,0,10.014-0.562,6.112-10.583L238.788,178.211z M230.439,191.553L230.439,191.553v-0.549V191.553z M230.439,191.553h-15.567v-2.21
	h15.567V191.553z M214.872,191.553c-0.554,0-1.121-0.549-1.121-0.549h1.121V191.553z M213.751,191.004v-15.57h2.786v15.57H213.751z
	 M213.751,175.434L213.751,175.434h1.121H213.751z M213.751,175.434c0,0,1.121-13.344,13.901-8.355l-0.551,2.235
	c-10.013-3.889-10.565,6.12-10.565,6.12H213.751z M228.218,168.765c0,0.549-0.563,1.107-1.114,0.549v-1.112L228.218,168.765z
	 M225.992,167.647v0.555h2.773c0,0.563,0,0.563-0.548,0.563L225.992,167.647z M228.766,168.202L228.766,168.202h-1.111H228.766z
	 M225.992,168.202c0-1.124,0-2.777-1.105-5.007l2.217-1.106c1.115,2.781,1.664,4.989,1.664,6.113H225.992z M224.885,163.195
	c-1.123-2.231-2.777-4.449-5.57-5.55l1.115-2.233c3.332,1.667,5.562,4.452,6.674,6.677L224.885,163.195z M219.314,157.646
	c-1.112-0.567-2.777-1.122-4.442-1.122l0.56-2.774c1.658,0.538,3.332,0.538,4.998,1.663L219.314,157.646z M214.872,156.524
	L214.872,156.524v-1.669V156.524z M214.872,156.524c-8.343-1.112-9.463,3.895-9.463,3.895l-2.224-0.555
	c0,0,1.111-7.229,12.246-6.114L214.872,156.524z M205.409,160.418c0,1.112-2.224,1.112-2.224,0h1.111H205.409z M203.186,160.418
	c0,0-0.549-5.006-8.893-3.895v-2.774c10.568-1.115,11.116,6.114,11.116,6.114L203.186,160.418z M194.293,156.524L194.293,156.524
	v-1.669V156.524z M194.293,156.524c-3.336,0-6.116,1.671-7.79,3.34l-1.665-1.669c2.227-2.226,5.004-3.908,9.455-4.445V156.524
	L194.293,156.524z M186.503,159.864c-3.333,3.332-3.892,7.784-3.892,8.338h-2.221c0-0.555,0.556-6.113,4.448-10.007L186.503,159.864
	z M182.053,169.314c-1.106,0.559-1.663,0-1.663-1.112h1.109L182.053,169.314z M180.947,167.079
	c13.346-4.989,14.448,8.355,14.448,8.355h-2.211c0,0-1.115-10.009-11.129-6.12L180.947,167.079z M195.395,175.434L195.395,175.434
	h-1.102H195.395z M195.395,175.434v15.57h-2.211v-15.57H195.395L195.395,175.434z M195.395,191.004c0,0-0.543,0.549-1.102,0.549
	v-0.549H195.395z"/>
<path fill="#231F20" d="M60.824,355.06l-0.564-1.658l-1.101,0.543c-0.562,0-1.118,0-1.676,0.559c0-0.559-0.553-0.559-0.553-0.559
	v1.67 M56.929,346.729c0.553,0,0.553,0,1.112,0c0-0.576,0.556-0.576,1.118-0.576c0.55,0,1.101-0.541,1.665-0.541
	c1.112-0.562,2.221-1.12,2.783-2.232c0.553-1.662,1.106-2.773,0.553-4.449c-0.553-1.662-2.224-3.34-5.001-3.34
	c-0.562,0-1.676,0-2.229,0v1.678c2.229-0.552,3.33,0.549,4.442,2.778c0.564,3.333-1.112,4.445-4.442,5.565L56.929,346.729
	L56.929,346.729z M56.929,353.942c-0.564-0.541-0.564-1.108-0.564-1.658l-1.106-5.021c0.559,0,1.106,0,1.671-0.533v-1.117
	c-0.564,0-1.671,0.541-2.221,0.541l-2.232-6.668c0-0.557,0-0.557,0-0.557c0.559,0,0.559-0.551,0.559-0.551
	c0.553,0,1.118,0,1.118-0.562c1.106,0,1.665,0,2.212-0.549h0.564v-1.678c0,0.562-0.564,0.562-0.564,0.562l-10.558,2.777l0.55,1.116
	c1.112,0,2.783-1.116,3.345-0.562c0.544,0.562,0.544,0.562,0.544,1.119l3.341,13.338v0.56c0.565,0.558-1.112,1.112-1.665,1.112
	h-1.109l0.556,1.671l5.56-1.671L56.929,353.942L56.929,353.942z"/>
<path fill="#231F20" d="M76.944,337.817c0.562,0,1.121,0,1.121,0c2.774,0.562,3.336,2.229,2.774,3.899
	c0,0.552-0.556,1.662-1.112,2.228c-0.55,1.105-1.662,1.105-2.221,1.105c-0.562,0-0.562,0-0.562,0v1.68
	c1.121,1.102,1.121,2.215,1.121,4.435c0,0.556,0,0.556,0,1.67c0,0.567,0,1.668,0.547,2.226c0.564,1.119,1.671,1.682,2.227,1.682
	c2.783,0.545,3.889-2.238,3.889-4.456l-1.106-0.563c0,1.113-0.55,3.895-1.668,2.781c-0.553-1.102-0.553-2.218-0.553-2.781
	l-0.562-1.681c0-2.209-1.662-3.31-3.333-3.886c2.777,0,6.116-0.543,6.672-4.438c0.55-3.339-3.339-5.001-6.672-5.564h-0.562
	 M73.614,338.931c0-0.552,0-1.113,0.559-1.662h1.109c0.553,0,1.109,0,1.662,0.549v-1.664l-8.896-0.562l-0.55,0.562l2.221,0.563
	c0.559,0,1.112,0,1.112,0.552c0,0.549,0,0.549,0,1.11l-1.673,13.341c0,0,0,0.564-0.55,0.564v0.55c-1.109,0.567-1.671,0-2.78,0v1.108
	l8.898,1.672v-1.672c-0.553,0-1.673,0-2.785-0.541c0,0,0-0.567,0-1.683l0.556-5.565h1.677c1.109,0,2.218,0,2.771,0.576v-1.68
	c-0.553,0-1.109,0-1.662,0c-0.556,0-1.668-0.559-2.786-0.559L73.614,338.931z"/>
<path fill="#231F20" d="M102.533,353.401c-0.556,2.777-2.227,5.552-5.012,6.656v1.121c4.456,0,7.795-3.342,8.904-6.678
	c1.665-4.462,0-10.559-5.565-12.784c-1.109,0-2.221-0.562-3.338,0v1.106c1.118,0,1.679,0,3.338,0.556
	C105.869,345.612,103.642,351.164,102.533,353.401 M97.521,360.06c-1.109,0-2.215,0-3.333-0.551
	c-5.004-1.671-3.333-7.789-2.783-10.562c1.115-2.791,3.338-5.565,6.116-6.121v-1.105c-4.445,0-7.784,3.332-8.893,6.112
	c-2.224,5.003,0,10.565,5.003,12.793c1.112,0.556,2.78,0.556,3.889,0.556L97.521,360.06L97.521,360.06z"/>
<path fill="#231F20" d="M129.219,361.731c0.559,0.56,1.12,0.56,1.673,1.104c0.559,0.562,0.559,1.118,0.559,1.683
	c-0.559,0-0.559,0-1.112,0l-7.233,11.113c-0.556,0-0.556,0-1.112,0.56c-0.556,0.557-1.106-0.56-1.667-0.56l-1.106-0.55l-0.564,0.55
	l13.908,10.572l4.451-5.563l-1.121-0.557c0,0.557-0.553,0.557-0.553,0.557c-2.221,1.668-3.889,2.776-6.669,1.117
	c-0.562-0.562-1.106-1.117-1.673-1.117c-0.553,0-0.553-0.557-1.115-1.117c-0.55,0-1.104-0.56-1.104-1.104v-0.556l3.892-5.558
	l1.668,0.551c1.665,1.668,1.665,2.773,0,5.007l1.112,1.101l5.563-7.222l-1.121-1.112c-2.215,2.227-3.33,2.783-5.554,1.112
	l-0.562-0.558l3.342-5c0.559-1.111,1.112-0.56,2.774,0l0.562,0.551c3.892,3.339,4.451,3.895,2.218,8.896l1.121,0.56l3.335-6.115
	l-13.352-9.451"/>
<path fill="#231F20" d="M143.683,393.432l0.562-1.111c0-0.562-1.677-1.12-1.677-1.656c-0.556,0-0.556-0.564-0.556-1.126l3.892-6.119
	l7.789,5.007l-3.338,6.133c-1.106,1.096-2.774-0.566-3.33-1.126l-1.121,1.126l7.789,4.989l1.115-0.55
	c-0.564-0.56-1.667-1.104-2.224-1.671c0,0-0.556-0.551,0-1.112l8.339-12.796h0.55c0.564,0.562,1.118,1.118,2.232,1.118l0.553-0.557
	l-7.789-5.016l-0.548,1.12c0,0,1.663,1.112,2.221,1.674v0.551l-3.336,5.564l-8.348-5.015l3.895-5.545h0.562
	c0.55,0,2.224,0.55,2.224,0.55l1.103-0.55l-8.339-5.568l-0.553,1.11c0.553,0.558,2.783,1.669,2.229,2.774l-7.786,12.793
	c-0.559,0-2.227-0.551-3.339-1.112l-0.562,1.112"/>
<path fill="#231F20" d="M166.486,406.229l0.55-1.673c-0.55-0.548-2.212-0.548-2.212-1.114c-0.564,0-0.564,0-0.564-0.551
	c0.564,0,0.564,0,0.564-0.56l6.671-12.233c0,0,0-0.562,0.55-0.562c0-0.558,0.559-0.558,1.112,0c0.553,0,1.112,0.562,1.67,0.562
	l0.556-1.117l-7.784-3.896l-0.564,1.118c0.564,0.55,1.682,0.55,1.682,1.67c0,0,0,0,0,0.551l-6.127,12.24
	c-0.553,0.55-0.553,1.111-1.668,1.111c-0.559,0-1.673-0.562-2.218-1.111l-0.562,1.111"/>
<path fill="#231F20" d="M174.828,397.326c0.556-0.551,0.556-0.551,0.556-1.112c0.553-1.126,1.668-2.224,2.221-2.224
	c1.673-1.115,2.224-1.671,3.895-1.115c0.553,0.557,1.112,0.557,1.112,1.115c0,0,0,0,0,0.566l-4.454,13.34c0,0,0,1.106-0.553,1.106
	c-0.553,0-0.553,0-1.106,0l-2.229-0.556v1.117l9.454,2.776v-1.677h-0.553c-0.559,0-1.67,0-2.224-0.544c-0.556-0.558,0-1.118,0-1.674
	l3.892-12.796c0.556,0,0.556-0.564,0.556-1.096c0.546-0.566,1.109,0,1.671,0c1.67,0.53,2.776,1.656,2.776,3.336
	c0.56,1.653,0,2.771,0,3.884l0.56,0.556l2.218-7.244l-15.567-4.989l-2.783,6.678"/>
<path fill="#231F20" d="M208.195,407.33c0,3.9-1.666,8.346-6.121,8.346v1.671c6.121,0,9.463-5.56,9.463-9.448
	c0.55-5.007-2.78-10.005-8.352-10.571c-0.549,0-0.549,0-1.111,0v1.11c0.562,0,0.562,0,1.111,0
	C208.756,398.997,208.756,405.109,208.195,407.33 M202.074,415.676c0,0,0,0-0.553,0c-5.558-0.551-5.558-6.109-5.008-9.445
	c0-3.339,1.115-7.793,5.561-7.793v-1.11c-6.11,0-8.891,5.006-8.891,8.903c-0.563,5.558,2.211,10.553,8.338,11.116h0.553V415.676z"/>
<path fill="#231F20" d="M236.552,410.666l-0.557-1.101c-0.554,0-1.662,0.557-2.216,0.557c-0.555,0-0.555-0.557-0.555-0.557
	s0-0.562-0.564-0.562l-3.895-12.79c-0.549,0-0.549-0.562-0.549-0.562c0-0.564,0.549-0.564,0.549-1.096
	c1.119-0.566,1.119-0.566,1.672-1.126v-0.557l-8.33,2.777v1.122c1.101,0,2.218-0.562,2.776-0.562c0,0.562,0.552,0.562,0.552,1.112
	l4.449,12.796c0,0.544,0,1.107,0,1.665c-0.556,0-1.668,0.556-2.232,0.556l0.564,1.662"/>
<path fill="#231F20" d="M249.348,404.009l-1.111-0.566c0,0-0.562,0.566-1.109,0.566c-0.553,0-0.553,0-1.107,0
	c-1.119,0-1.678-1.117-2.232-2.231l-5.559-8.901l18.903,6.672l0.56-0.55l-7.226-12.243c-1.674-2.218-1.674-3.336,1.104-4.444
	l-1.104-1.111l-6.68,3.889l1.114,1.118c1.674-1.118,2.773-1.118,3.892,1.108l5.011,7.774v0.564l-16.691-6.672l-5.004,3.339
	l1.119,0.556c0,0,0.556,0,1.107,0c0.561-0.556,1.662-0.556,1.662-0.556l6.128,10.013c0.556,1.109,2.218,2.225,1.101,3.897
	c-0.545,0.557-1.101,0.557-1.66,1.101l0.561,1.118"/>
<path fill="#231F20" d="M277.152,361.181c1.119-0.557,1.677-1.121,2.221-1.121c0.564,0,0.564,0,0.564,0.564l8.891,11.119
	c0.562,0.564,0.562,0.564,0,1.671c-0.545,0-1.109,0.556-1.663,1.111l0.554,1.105l13.352-9.444l-3.896-6.129l-1.105,0.565
	c0.551,0.556,0.551,1.108,1.105,1.667c0,1.663,0.562,2.783,0,4.445c-0.556,0.556-1.665,1.677-2.777,2.231
	c-0.556,0.545-1.117,1.106-2.224,1.662c-0.553,0-1.11-0.556-1.671-1.117l-7.232-10.561c-0.554-0.558-0.554-0.558-0.554-1.115
	c0,0,0,0,0-0.554l0.554-0.545c0.564-0.562,1.121-1.125,1.674-1.125l-0.553-0.557l-7.789,5"/>
<path fill="#231F20" d="M298.285,354.502c-0.551,0-0.551-0.56-0.551-1.101c-0.562-1.117-0.562-2.237-0.562-2.776
	c0-1.681,0.562-2.794,2.227-3.896c0.56,0,1.112-0.576,1.672,0c0,0,0,0.533,0.55,0.533l6.128,12.245c0,0.55,0.553,1.115,0,1.671
	l-0.561,0.553l-1.676,0.56l1.111,1.106l7.792-4.444l-0.56-1.115h-0.549c-0.564,0.56-0.564,1.115-1.668,1.115
	c-0.564,0-1.106-0.558-1.106-1.115l-6.681-11.685c0-0.541-0.56-0.541-0.56-1.104c0,0,0.56-0.559,1.112-0.559
	c1.664-1.112,2.781-1.112,3.895,0c1.105,0.559,2.232,1.662,3.34,2.771l1.104-0.533l-4.442-6.125l-13.905,7.78l2.777,6.673"/>
<path fill="#231F20" d="M313.307,340.047h0.551c0.559,0,1.677-0.562,2.231-0.562c0.554,0.562,0.554,1.119,0.554,1.119l2.221,11.68
	c0,1.658,0,2.218,1.669,2.773c1.674,1.12,2.79,1.12,3.895,1.12c1.106,0,1.674,0,2.785,0c2.228-0.563,3.896-1.677,5.557-3.345
	c1.106-2.209,1.106-3.889,0.555-6.104l-1.109-5.574c-0.559-2.777-1.105-3.889,2.786-4.439l-0.567-1.682l-7.79,1.682v1.102
	c2.798,0,3.349,0,3.897,2.229l1.674,8.898c0,0,0,1.68-0.559,2.773c-0.548,1.682-2.216,2.782-3.893,2.782c-1.662,0-3.336,0-4.438,0
	c-1.678-1.101-1.678-2.782-2.238-4.462l-2.221-10.555c0,0,0.553-0.557,1.119-0.557c0.549-0.551,1.662-0.551,2.223-0.551v-1.111
	l-8.898,1.662"/>
<path fill="#231F20" d="M342.22,356.179l0.56-1.119c-2.78-0.558-2.78-2.226-1.668-3.896l2.781-12.785l2.22,18.361l1.11,0.545
	l10.572-15.567l-4.444,14.461c0,1.106-0.566,1.106-1.671,1.106c0,0-0.562-0.545-1.111-0.545l-0.562,1.098l8.896,2.786v-1.671
	c-0.557,0-1.106,0-1.662-0.558c-0.562,0-0.562-0.559-0.562-1.11l2.788-12.234c0.553-0.559,0.553-1.671,0.553-2.227
	c0.555,0,0.555,0,1.121,0c0.544,0,1.65,0,2.216,0.556l0.554-1.662l-6.669-1.668l-8.898,12.784l-1.668-15.017l-6.675-1.666
	l-0.564,1.115l1.678,0.551c0.556,0,0.556,0,1.108,0c0,0.562,0,1.111,0,1.668l-2.786,10.555c0,1.124-0.541,1.68-1.107,2.794
	c-0.554,0.567-1.662,0.567-2.777,0.567v1.101"/>
<path fill="#231F20" d="M271.598,389.537l3.896-3.896v-1.104c-1.115,1.104-2.783,2.218-3.343,1.104l-0.553-0.556 M271.598,381.197
	l5.002-3.883l3.895,1.649v0.56v0.562c-0.557,1.112-1.665,1.674-2.223,2.225l1.102,1.108l6.684-5.554l-0.566-1.117
	c-1.102,0.567-1.656,1.117-3.324,0.567l-10.566-5.571v2.782l3.896,2.222l-3.896,3.338v1.112H271.598z M269.921,386.204
	c0.562,1.67,0,2.776-0.545,3.333l0.545,1.126l1.677-1.126v-4.451c0-0.55,0-0.55-0.559-1.105c0,0-0.557-1.12-0.557-1.671l1.115-1.111
	v-1.112l-1.115,0.557l-2.229-7.784l3.345,1.669v-2.782l-5.562-2.773l-1.674,0.545L269.921,386.204z"/>
<path fill="#231F20" d="M110.316,348.944c1.667,0.562,1.667,0.562,1.117,2.774l-3.344,17.249l1.115,1.106l14.467-10.017
	c1.109-0.551,2.212-1.105,3.895,0l0.544-0.551l-6.116-4.449l-0.556,0.555c0.556,1.127,2.232,2.225,1.668,3.34
	c-0.556,0.556-1.668,0.556-2.218,1.105l-8.904,6.127l2.789-12.242v-1.109c0.553-1.114,1.106,0,1.657,0
	c0.562,0.566,1.117,0.566,1.117,1.109l1.109-1.109l-7.784-5.003"/>
<path fill="#231F20" d="M125.333,71.982H75.282c0,0-4.451,1.122-4.451-4.435c0-5.561,0-65.083,0-65.083s-2.783,0-3.895-2.207v67.289
	c0,0,0,7.786,6.677,7.786c4.998,0,51.719,0,51.719,0"/>
<path fill="#231F20" d="M66.957,71.786c-0.917-2.142-0.904-4.176-0.91-4.241l0,0V0.257l1.681-0.401
	c0.749,1.646,3.086,1.729,3.105,1.722l0,0h0.885v0.885c0,0,0,59.523,0,65.081l0,0c0.114,3.554,1.604,3.505,2.668,3.644l0,0
	c0.425,0,0.682-0.065,0.682-0.065l0,0l0.097-0.03h50.164v0.891v-0.891h0.887v5.126h-0.887c0,0-46.718,0-51.713,0l0,0
	c-0.024,0-0.048,0-0.071,0l0,0C69.862,76.219,67.823,73.909,66.957,71.786L66.957,71.786z M67.823,67.545
	c0.019,0.006,0.006,1.795,0.76,3.548l0,0c0.795,1.757,2.076,3.326,5.032,3.355l0,0c2.495,0,15.423,0,27.73,0l0,0
	c10.297,0,20.154,0,23.098,0l0,0v-1.58H75.357c-0.181,0.036-0.526,0.09-0.971,0.09l0,0c-0.771,0-1.89-0.168-2.848-0.999l0,0
	c-0.962-0.837-1.602-2.28-1.597-4.415l0,0c0-5.179,0-57.208,0-64.284l0,0c-0.579-0.097-1.364-0.311-2.118-0.788l0,0V67.545
	L67.823,67.545z"/>
<rect x="70.278" y="1.925" fill="#FFFFFF" width="55.605" height="69.514"/>
<path fill="#231F20" d="M70.279,72.322h-0.892V1.036h57.383v71.286H70.279L70.279,72.322z M124.998,70.551V2.806H71.165v67.745
	H124.998L124.998,70.551z"/>
<path fill="#231F20" d="M143.129-8.094H85.848c0,0-12.234-0.546-17.241,5.007c-1.671,3.895-1.109,5.552,6.118,5.552
	c5.557,0,52.272,0,52.272,0v71.2l16.131-11.124"/>
<path fill="#231F20" d="M126.108,3.349c-6.468,0-46.279,0-51.383,0l0,0c-2.616-0.005-4.412-0.198-5.71-0.718l0,0
	c-1.312-0.479-2.131-1.641-2.079-2.88l0,0c0.007-0.999,0.354-2.011,0.857-3.191l0,0l0.054-0.131l0.101-0.108
	c4.646-5.046,13.992-5.274,16.993-5.316l0,0c0.591,0,0.939,0.017,0.904,0.017l0,0h57.284v0.887v-0.887h0.887v71.985l-17.908,12.34
	V3.349L126.108,3.349z M126.995,1.577h0.885v70.397l14.364-9.896V-7.213H85.802c0,0-0.305-0.011-0.861-0.011l0,0
	c-2.82-0.042-11.808,0.476-15.579,4.622l0,0c-0.435,1.02-0.659,1.838-0.653,2.354l0,0c0.047,0.635,0.113,0.826,0.975,1.239l0,0
	c0.868,0.365,2.527,0.593,5.041,0.587l0,0C80.283,1.577,126.995,1.577,126.995,1.577L126.995,1.577z"/>
<polyline fill="#FFFFFF" points="136.455,64.208 136.455,-6.424 78.064,-6.424 74.726,-1.97 132.563,-1.97 133.12,66.433 "/>
<path fill="#231F20" d="M131.681-1.085H72.957l4.663-6.226h59.716v71.516v0.479l-5.093,3.393L131.681-1.085L131.681-1.085z
	 M76.494-2.857h56.946l0.55,67.643l1.575-1.052V-5.539L78.504-5.545L76.494-2.857L76.494-2.857z"/>
<path fill="#EDB111" d="M124.221,19.715h2.777l16.131-10.561v8.89l-16.685,10.569h-2.224c0,2.78-1.671,5.571-4.457,5.571
	c-2.774,0-4.439-2.792-4.439-5.571c-2.789,0-5.009-1.667-5.009-4.449c0-2.229,2.221-4.449,5.009-4.449
	c0-2.777,1.665-4.995,4.439-4.995C122.55,14.72,124.221,16.938,124.221,19.715"/>
<path fill="#231F20" d="M124.221,18.611h2.777v2.218h-2.777 M127.563,20.83h-0.564v-1.115L127.563,20.83z M126.445,18.611
	l16.123-10.572l1.115,2.225l-16.12,10.565L126.445,18.611z M142.568,8.04c0.562-0.566,1.677,0,1.677,1.115h-1.115L142.568,8.04z
	 M144.245,9.154v8.89h-2.232v-8.89H144.245z M144.245,18.044c0,0.567,0,1.119-0.562,1.119l-0.553-1.119H144.245z M143.683,19.163
	l-16.685,10.569l-1.115-2.231l16.685-10.563L143.683,19.163z M126.998,29.732l-0.553,0.552v-1.671L126.998,29.732z M126.445,30.284
	h-2.224v-2.783h2.224V30.284z M123.106,28.613c0-0.56,0.562-1.112,1.115-1.112v1.112H123.106z M125.883,28.613
	c0,1.671-1.104,3.329-2.215,4.446l-1.674-1.667c0.556-0.551,1.112-1.661,1.112-2.78L125.883,28.613L125.883,28.613z M123.668,33.059
	c-0.562,1.125-2.229,2.229-3.903,2.229v-2.783c1.124,0,1.674-0.563,2.229-1.112L123.668,33.059z M119.765,35.288
	c-1.665,0-3.335-1.104-3.886-2.229l1.667-1.667c0.553,0.549,1.109,1.112,2.218,1.112L119.765,35.288L119.765,35.288z
	 M115.879,33.059c-1.106-1.118-2.227-2.775-2.227-4.446h2.777c0,1.119,0.562,2.229,1.117,2.78L115.879,33.059z M115.326,27.501
	c0.553,0,1.104,0.552,1.104,1.112h-1.104V27.501z M115.326,30.284c-1.674,0-3.342-1.11-4.454-1.671l1.665-2.218
	c0.562,0.551,1.674,1.106,2.789,1.106V30.284z M110.872,28.613c-1.112-1.112-2.229-2.772-2.229-4.449h2.791
	c0,1.115,0.55,1.676,1.104,2.231L110.872,28.613z M108.643,24.164c0-1.664,1.118-2.777,2.229-3.895l1.665,1.667
	c-0.553,0.564-1.104,1.674-1.104,2.229L108.643,24.164L108.643,24.164z M110.872,20.269c1.112-1.106,2.78-1.658,4.454-1.658v2.218
	c-1.115,0-2.227,0.557-2.789,1.106L110.872,20.269z M116.429,19.715c0,0.554-0.55,1.115-1.104,1.115v-1.115H116.429z
	 M113.652,19.715c0-1.671,1.121-3.334,2.227-4.455l1.667,1.678c-0.556,0.555-1.117,1.674-1.117,2.777H113.652z M115.879,15.26
	c0.55-1.11,2.221-2.217,3.886-2.217v2.777c-1.109,0-1.665,0.561-2.218,1.118L115.879,15.26z M119.765,13.043
	c1.674,0,3.342,1.106,3.903,2.217l-1.674,1.678c-0.556-0.557-1.106-1.118-2.229-1.118V13.043z M123.668,15.26
	c1.112,1.121,2.215,2.784,2.215,4.455h-2.777c0-1.104-0.556-2.223-1.112-2.777L123.668,15.26z M124.221,20.83
	c-0.553,0-1.115-0.561-1.115-1.115h1.115V20.83z"/>
<path fill="#EDB111" d="M124.221,48.078h2.224l16.685-11.124v9.454L126.445,56.98h-2.224c0,2.773-2.227,5.007-5.001,5.007
	c-2.229,0-4.448-2.234-4.448-5.007c-2.789,0-4.456-2.222-4.456-4.459c0-2.773,1.667-4.443,4.456-4.443
	c0-2.789,2.218-5.564,4.448-5.564C121.994,42.514,124.221,45.289,124.221,48.078"/>
<path fill="#231F20" d="M113.073,58.675c-2.917-0.777-4.671-3.497-4.676-6.157l0,0c-0.006-1.755,0.557-3.431,1.748-4.616l0,0
	c0.798-0.803,1.819-1.316,2.939-1.565l0,0c0.694-3.011,2.917-5.542,6.131-5.739l0,0c3.413,0.094,5.876,2.589,6.656,5.557l0,0
	l16.193-10.795c0.587-0.396,1.341-0.432,1.964-0.097l0,0c0.628,0.336,1.011,0.982,1.011,1.689l0,0v9.454
	c0,0.659-0.33,1.263-0.885,1.617l0,0l-16.688,10.573c-0.305,0.192-0.659,0.299-1.024,0.299l0,0h-0.582
	c-0.83,2.888-3.479,5.001-6.646,5.005l0,0C116.256,63.824,113.796,61.636,113.073,58.675L113.073,58.675z M117.653,45.441
	c-0.58,0.719-0.975,1.754-0.969,2.635l0,0c0,0.509-0.198,0.994-0.557,1.353l0,0c-0.365,0.365-0.844,0.563-1.353,0.563l0,0
	c-1.976,0.185-2.359,0.58-2.544,2.526l0,0c0.054,1.336,0.879,2.539,2.544,2.544l0,0c0.503,0,0.994,0.204,1.353,0.563l0,0
	c0.354,0.354,0.557,0.85,0.557,1.353l0,0c0.006,1.761,1.581,3.089,2.532,3.089l0,0c1.725,0,3.083-1.364,3.091-3.089l0,0
	c0-0.503,0.202-0.999,0.563-1.353l0,0c0.352-0.359,0.844-0.563,1.353-0.563l0,0h1.664l15.329-9.71v-4.821l-13.706,9.138
	c-0.324,0.209-0.683,0.324-1.066,0.324l0,0h-2.221c-0.509,0-1.001-0.204-1.353-0.563l0,0c-0.361-0.354-0.563-0.851-0.563-1.353l0,0
	c0.005-0.881-0.384-1.875-0.995-2.575l0,0c-0.616-0.707-1.364-1.078-2.096-1.072l0,0c-0.011-0.001-0.025-0.003-0.04-0.003l0,0
	C118.868,44.427,118.209,44.737,117.653,45.441L117.653,45.441z"/>
<path fill="#231F20" d="M127.563,74.768c-2.229,1.679-4.456,3.34-5.568,1.679c-1.106-1.679,1.674-3.343,3.889-5.008 M125.883,71.439
	l15.579-10.565l2.221,3.333l-16.12,10.561L125.883,71.439z M141.462,60.875c2.783-1.676,4.998-3.346,5.563-1.676
	c1.109,1.676-1.121,3.343-3.342,5.009L141.462,60.875z"/>
<path fill="#231F20" d="M224.327,71.982H173.71c0,0-4.448,1.122-4.448-4.435c0-5.561,0-65.083,0-65.083s-2.227,0-3.338-2.207v67.289
	c0,0,0,7.786,6.68,7.786c5.001,0,51.722,0,51.722,0"/>
<path fill="#231F20" d="M165.941,71.787c-0.908-2.144-0.901-4.175-0.908-4.241l0,0V0.256l1.682-0.396
	c0.841,1.729,2.542,1.718,2.547,1.718l0,0h0.884v0.89c0,0,0,59.517,0,65.08l0,0c0.12,3.55,1.609,3.502,2.667,3.641l0,0
	c0.426,0,0.684-0.067,0.684-0.067l0,0l0.09-0.024h50.742v0.884v-0.884h0.881v5.125h-0.881c-0.009,0-46.727,0-51.727,0l0,0
	c-0.019,0-0.037,0-0.057,0l0,0C168.858,76.221,166.814,73.916,165.941,71.787L165.941,71.787z M166.807,67.546
	c0.024,0.006,0.006,1.796,0.763,3.544l0,0c0.798,1.76,2.079,3.329,5.034,3.358l0,0c4.593,0,44.362,0,50.837,0l0,0v-1.58h-49.654
	c-0.183,0.036-0.526,0.09-0.972,0.09l0,0c-0.77,0-1.886-0.162-2.848-0.998l0,0c-0.961-0.841-1.598-2.283-1.591-4.415l0,0
	c0-5.19,0-57.359,0-64.315l0,0c-0.445-0.105-1.007-0.304-1.568-0.674l0,0L166.807,67.546L166.807,67.546z"/>
<rect x="169.263" y="1.925" fill="#FFFFFF" width="56.172" height="69.514"/>
<path fill="#231F20" d="M169.264,72.325h-0.888V1.036h57.942v71.289H169.264L169.264,72.325z M224.549,70.553V2.808h-54.401v67.745
	H224.549L224.549,70.553z"/>
<path fill="#231F20" d="M242.124-8.094h-57.835c0,0-12.243-0.546-16.688,5.007c-2.224,3.895-1.676,5.552,6.11,5.552
	c5.568,0,51.727,0,51.727,0v71.2l16.688-11.124"/>
<path fill="#231F20" d="M224.546,3.348c-6.437,0-45.728,0-50.837,0l0,0c-2.7,0-4.571-0.18-5.911-0.648l0,0
	c-1.329-0.409-2.272-1.479-2.224-2.724l0,0c0.011-1.124,0.529-2.212,1.334-3.618l0,0c4.203-5.105,13.484-5.303,16.473-5.357l0,0
	c0.59,0,0.938,0.019,0.908,0.019l0,0h57.831v0.89v-0.89h0.881v71.994l-18.455,12.301V3.348L224.546,3.348z M168.371-2.652
	c-0.699,1.19-1.041,2.136-1.029,2.627l0,0c0.048,0.469,0.078,0.65,1.046,1.052l0,0c0.962,0.35,2.711,0.553,5.322,0.553l0,0
	c2.782,0,15.715,0,27.949,0l0,0c12.233,0,23.771,0,23.776,0l0,0h0.885l-0.006,70.425l14.922-9.943v-69.27h-56.995
	c0,0-0.301-0.019-0.859-0.019l0,0c-0.103-0.001-0.214-0.003-0.334-0.003l0,0C179.899-7.23,171.394-6.568,168.371-2.652
	L168.371-2.652z"/>
<polyline fill="#FFFFFF" points="235.443,64.208 235.443,-6.424 177.052,-6.424 173.71,-1.97 231.551,-1.97 232.107,66.433 "/>
<path fill="#231F20" d="M230.667-1.087H171.94l4.67-6.227h59.716v71.523v0.469l-5.102,3.396L230.667-1.087L230.667-1.087z
	 M175.48-2.855h56.946l0.549,67.642l1.582-1.057V-5.541h-57.063L175.48-2.855L175.48-2.855z"/>
<path fill="#EDB111" d="M223.209,19.715h2.783l16.132-10.561v8.89l-16.688,10.569h-2.227c0,2.78-2.225,5.571-4.445,5.571
	c-2.791,0-4.445-2.792-4.445-5.571c-2.781,0-5.562-1.667-5.562-4.449c0-2.229,2.78-4.449,5.562-4.449
	c0-2.777,1.654-4.995,4.445-4.995C220.984,14.72,223.209,16.938,223.209,19.715"/>
<path fill="#231F20" d="M223.209,18.611h2.783v2.218h-2.783 M226.544,20.83h-0.553v-1.115L226.544,20.83z M224.885,18.611
	l16.68-10.572l1.115,2.225L226.544,20.83L224.885,18.611z M241.564,8.04c0.56-0.566,1.658,0,1.658,1.115h-1.1L241.564,8.04z
	 M243.223,9.154v8.89h-2.211v-8.89H243.223z M243.223,18.044c0,0.567,0,1.119-0.543,1.119l-0.557-1.119H243.223z M242.68,19.163
	l-16.688,10.569l-1.665-2.231l17.236-10.563L242.68,19.163z M225.992,29.732l-0.557,0.552v-1.671L225.992,29.732z M225.436,30.284
	h-2.227v-2.783h2.227V30.284z M222.107,28.613c0-0.56,0.543-1.112,1.102-1.112v1.112H222.107z M224.327,28.613
	c0,1.671-0.565,3.329-1.677,4.446l-1.666-1.667c0.557-0.551,1.125-1.661,1.125-2.78L224.327,28.613L224.327,28.613z M222.65,33.059
	c-1.109,1.125-2.221,2.229-3.887,2.229v-2.783c0.551,0,1.666-0.563,2.221-1.112L222.65,33.059z M218.764,35.288
	c-1.674,0-3.332-1.104-4.445-2.229l2.219-1.667c0.553,0.549,1.109,1.112,2.227,1.112V35.288z M216.537,31.393L216.537,31.393
	l-1.105,1.112L216.537,31.393z M214.318,33.059c-1.119-1.118-1.666-2.775-1.666-4.446h2.779c0,1.119,0.543,2.229,1.106,2.78
	L214.318,33.059z M214.318,27.501c0.554,0,1.113,0.552,1.113,1.112h-1.113V27.501z M214.318,30.284c-1.666,0-3.34-1.11-4.459-1.671
	l1.678-2.218c0.55,0.551,1.662,1.106,2.781,1.106V30.284z M209.859,28.613c-1.664-1.112-2.221-2.772-2.221-4.449h2.786
	c0,1.115,0,1.676,1.112,2.231L209.859,28.613z M207.639,24.164c0-1.664,0.557-2.777,2.221-3.895l1.678,1.667
	c-1.112,0.564-1.112,1.674-1.112,2.229L207.639,24.164L207.639,24.164z M211.537,21.936L211.537,21.936l-1.112-1.106L211.537,21.936
	z M209.859,20.269c1.119-1.106,2.793-1.658,4.459-1.658v2.218c-1.119,0-2.231,0.557-2.781,1.106L209.859,20.269z M215.432,19.715
	c0,0.554-0.56,1.115-1.113,1.115v-1.115H215.432z M212.65,19.715c0-1.671,0.548-3.334,1.668-4.455l2.218,1.678
	c-0.563,0.555-1.106,1.674-1.106,2.777H212.65z M216.537,16.938L216.537,16.938l-1.105-1.118L216.537,16.938z M214.318,15.26
	c1.113-1.11,2.771-2.217,4.445-2.217v2.777c-1.117,0-1.674,0.561-2.227,1.118L214.318,15.26z M218.764,13.043
	c1.666,0,2.777,1.106,3.887,2.217l-1.666,1.678c-0.555-0.557-1.67-1.118-2.221-1.118V13.043L218.764,13.043z M222.65,15.26
	c1.111,1.121,1.677,2.784,1.677,4.455h-2.218c0-1.104-0.567-2.223-1.125-2.777L222.65,15.26z M223.209,20.83
	c-0.559,0-1.102-0.561-1.102-1.115h1.102V20.83z"/>
<path fill="#EDB111" d="M223.209,48.078h2.227l16.688-11.124v9.454L225.436,56.98h-2.227c0,2.773-2.779,5.007-5.007,5.007
	c-2.771,0-4.451-2.234-4.451-5.007c-2.774,0-4.995-2.222-4.995-4.459c0-2.773,2.221-4.443,4.995-4.443
	c0-2.789,1.681-5.564,4.451-5.564C220.43,42.514,223.209,45.289,223.209,48.078"/>
<path fill="#231F20" d="M213.475,61.759c-0.75-0.887-1.236-1.952-1.471-3.097l0,0c-2.939-0.741-5.095-3.197-5.166-6.144l0,0
	c-0.018-1.9,0.818-3.625,2.135-4.72l0,0c0.873-0.735,1.916-1.216,3.041-1.454l0,0c0.584-2.9,2.631-5.663,6.188-5.748l0,0
	c3.065,0.201,5.688,2.488,6.595,5.567l0,0h0.055l16.209-10.804c0.584-0.396,1.336-0.432,1.967-0.096l0,0
	c0.623,0.336,1.01,0.979,1.01,1.689l0,0v9.457c0,0.656-0.337,1.263-0.891,1.611l0,0l-16.689,10.576
	c-0.307,0.192-0.662,0.295-1.021,0.295l0,0h-0.646c-0.953,3.007-3.771,4.907-6.586,5.008l0,0c-0.02,0-0.04,0-0.061,0l0,0
	C216.262,63.9,214.559,63.062,213.475,61.759L213.475,61.759z M218.202,44.425c-0.722,0.019-1.214,0.301-1.726,0.957l0,0
	c-0.488,0.648-0.817,1.684-0.812,2.693l0,0c0,0.512-0.199,0.992-0.559,1.353l0,0c-0.362,0.368-0.848,0.566-1.354,0.566l0,0
	c-2.067,0.108-3.033,0.931-3.082,2.524l0,0c0,0.974,1.323,2.543,3.082,2.543l0,0c0.508,0,0.992,0.205,1.354,0.566l0,0
	c0.358,0.36,0.559,0.841,0.559,1.353l0,0c0.107,2.056,0.949,3.048,2.538,3.089l0,0c0.476,0.019,1.377-0.324,2.032-0.949l0,0
	c0.674-0.626,1.063-1.418,1.059-2.14l0,0c0-0.506,0.205-0.999,0.559-1.353l0,0c0.359-0.361,0.854-0.566,1.36-0.566l0,0h1.665
	l15.325-9.709v-4.823l-13.708,9.139c-0.319,0.211-0.68,0.325-1.059,0.325l0,0h-2.225c-0.507,0-1-0.206-1.359-0.559l0,0
	c-0.354-0.36-0.56-0.854-0.56-1.36l0,0c0.017-0.746-0.435-1.761-1.155-2.519l0,0c-0.667-0.743-1.551-1.132-1.893-1.132l0,0
	C218.229,44.424,218.214,44.424,218.202,44.425L218.202,44.425z"/>
<path fill="#231F20" d="M226.544,74.768c-2.218,1.679-4.437,3.34-5.003,1.679c-1.111-1.679,1.109-3.343,3.344-5.008 M224.885,71.439
	l16.126-10.565l1.669,3.333l-16.136,10.561L224.885,71.439z M241.012,60.875c2.211-1.676,4.441-3.346,5.562-1.676
	c0.553,1.676-1.674,3.343-3.895,5.009L241.012,60.875z"/>
<path fill="#231F20" d="M322.755,72.559H272.15c0,0-4.446,1.106-4.446-4.468c0-5.55,0-64.506,0-64.506s-2.226,0-3.343-2.777v67.283
	c0,0,0,8.356,6.679,8.356c5.003,0,51.716,0,51.716,0"/>
<path fill="#231F20" d="M322.752,77.334c0,0-46.713,0-51.713,0l0,0c-7.691-0.192-7.553-9.234-7.566-9.242l0,0V0.809l1.707-0.333
	c0.952,2.33,2.516,2.19,2.523,2.22l0,0h0.878v0.887c0,0,0,58.954,0,64.509l0,0c0.122,3.578,1.631,3.53,2.69,3.668l0,0
	c0.416,0,0.664-0.065,0.664-0.065l0,0l0.104-0.024h50.713v0.887V71.67h0.887v5.664H322.752L322.752,77.334z M265.246,68.092
	c0.02,0,0,1.943,0.771,3.849l0,0c0.806,1.912,2.103,3.595,5.021,3.62l0,0c4.59,0,44.359,0,50.826,0l0,0v-2.117h-49.621
	c-0.174,0.031-0.52,0.084-0.973,0.084l0,0c-0.767,0-1.894-0.163-2.854-1l0,0c-0.969-0.84-1.609-2.287-1.602-4.435l0,0
	c0-5.188,0-56.935,0-63.767l0,0c-0.448-0.131-1.01-0.374-1.571-0.815l0,0L265.246,68.092L265.246,68.092z"/>
<rect x="267.145" y="3.044" fill="#FFFFFF" width="56.179" height="68.938"/>
<path fill="#231F20" d="M267.145,72.871h-0.888V2.158h57.949v70.713H267.145L267.145,72.871z M322.434,71.096V3.925h-54.408v67.171
	H322.434L322.434,71.096z"/>
<path fill="#231F20" d="M340.552-7.531h-57.838c0,0-12.231,0-16.679,5.562c-2.227,3.326-1.674,5.554,6.115,5.554
	c5.56,0,51.713,0,51.713,0v70.629l16.688-10.561"/>
<path fill="#231F20" d="M322.979,4.471c-6.428,0-45.728,0-50.83,0l0,0c-5.27-0.006-7.991-0.959-8.144-3.634l0,0
	c0.013-1.124,0.542-2.172,1.334-3.363l0,0c5.004-6.054,17.295-5.831,17.372-5.892l0,0h57.838v0.888v-0.888h0.884v72.557
	L322.979,75.82V4.471L322.979,4.471z M323.865,2.696h0.881v69.906l14.917-9.441V-6.648h-56.951c-0.006,0.013-2.981,0-6.506,0.683
	l0,0c-3.526,0.663-7.526,2.064-9.438,4.491l0,0c-0.676,0.991-1.007,1.834-0.994,2.312l0,0c0.037,0.478,0.127,0.754,1.092,1.195l0,0
	c0.949,0.399,2.681,0.671,5.283,0.664l0,0C277.708,2.696,323.859,2.696,323.865,2.696L323.865,2.696z"/>
<polyline fill="#FFFFFF" points="333.875,64.762 333.875,-5.312 275.493,-5.312 272.15,-1.426 329.989,-1.426 330.539,66.987 "/>
<path fill="#231F20" d="M329.105-0.541h-58.891l4.863-5.661h59.68v70.966v0.47l-5.098,3.404L329.105-0.541L329.105-0.541z
	 M274.079-2.316h56.782l0.545,67.653l1.579-1.054V-4.429h-57.091L274.079-2.316L274.079-2.316z"/>
<path fill="#EDB111" d="M321.646,20.269h2.779l16.126-10.563v9.457l-16.688,10.569h-2.22c0,2.209-2.229,4.995-4.455,4.995
	c-2.774,0-4.998-2.786-4.998-4.995c-2.228,0-5.004-2.231-5.004-4.453c0-2.779,2.776-5.01,5.004-5.01
	c0-2.225,2.224-5.009,4.998-5.009C319.417,15.26,321.646,18.044,321.646,20.269"/>
<path fill="#231F20" d="M321.646,19.163h2.779v2.772h-2.779 M324.979,21.387l-0.553,0.549v-1.667L324.979,21.387z M323.323,19.163
	l16.676-10.569l1.112,2.237l-16.133,10.556L323.323,19.163z M339.999,8.594c0.554-0.554,1.668,0,1.668,1.112h-1.114L339.999,8.594z
	 M341.667,9.706v9.457h-2.232V9.706H341.667z M341.667,19.163c0,0,0,0.552-0.556,1.106l-0.56-1.106H341.667z M341.111,20.269
	l-16.686,10.572l-1.671-2.229l17.243-10.569L341.111,20.269z M324.426,30.841h-0.562v-1.109L324.426,30.841z M323.865,30.841h-2.219
	v-2.229h2.219V30.841z M320.532,29.732c0-0.559,0.553-1.119,1.114-1.119v1.119H320.532z M322.755,29.732
	c0,1.661-0.55,3.327-1.671,4.452l-1.668-1.679c0.566-1.112,1.115-1.664,1.115-2.773H322.755z M321.084,34.184
	c-1.102,1.104-2.221,1.652-3.895,1.652v-2.22c0.562,0,1.674-0.558,2.227-1.112L321.084,34.184z M317.189,35.836
	c-1.655,0-3.332-0.549-4.446-1.652l2.229-1.679c0.562,0.554,1.116,1.112,2.217,1.112V35.836z M314.973,32.505L314.973,32.505
	l-1.115,0.554L314.973,32.505z M312.743,34.184c-1.104-1.125-1.668-2.792-1.668-4.452h2.782c0,1.109,0.559,1.661,1.115,2.773
	L312.743,34.184z M312.191,28.613c1.115,0,1.666,0.561,1.666,1.119h-1.666V28.613z M312.191,30.841
	c-1.116,0-2.784-0.558-3.892-1.668l1.665-1.672c0.567,0.552,1.674,1.112,2.227,1.112V30.841z M308.3,29.173
	c-1.677-1.121-2.229-2.227-2.229-3.895h2.785c0,0.562,0,1.667,1.109,2.222L308.3,29.173z M306.07,25.279
	c0-1.669,0.554-3.343,2.229-4.449l1.665,2.225c-1.109,0.555-1.109,1.109-1.109,2.224H306.07z M309.965,23.055L309.965,23.055
	l-1.109-1.119L309.965,23.055z M308.3,20.83c1.106-1.115,2.774-1.667,3.892-1.667v2.772c-0.553,0-1.658,0-2.227,1.119L308.3,20.83z
	 M313.857,20.269c0,1.118-0.551,1.667-1.666,1.667v-1.667H313.857z M311.075,20.269c0-1.658,0.563-2.777,1.668-4.449l2.229,1.672
	c-0.558,1.119-1.115,2.223-1.115,2.777H311.075z M314.973,17.492L314.973,17.492l-1.115-0.555L314.973,17.492z M312.743,15.82
	c1.114-1.1,2.791-1.67,4.446-1.67v2.231c-1.101,0-1.655,0.557-2.217,1.112L312.743,15.82z M317.189,14.149
	c1.675,0,2.795,0.57,3.896,1.67l-1.668,1.672c-0.554-0.555-1.665-1.112-2.228-1.112V14.149z M321.084,15.82
	c1.121,1.672,1.671,2.792,1.671,4.449h-2.224c0-0.554-0.549-1.658-1.115-2.777L321.084,15.82z M321.646,21.936
	c-0.562,0-1.114-0.549-1.114-1.667h1.114V21.936z"/>
<path fill="#EDB111" d="M321.646,48.629h2.219l16.688-10.563v8.905l-16.688,11.124h-2.219c0,2.218-2.783,4.995-5.004,4.995
	c-2.785,0-4.451-2.777-4.451-4.995c-2.784,0-5.004-2.234-5.004-5.011c0-2.218,2.22-4.455,5.004-4.455c0-2.776,1.666-5.01,4.451-5.01
	C318.864,43.62,321.646,45.854,321.646,48.629"/>
<path fill="#231F20" d="M310.493,59.8c-3.011-0.76-5.216-3.481-5.222-6.714l0,0c0.071-2.935,2.226-5.4,5.172-6.146l0,0
	c0.234-1.141,0.717-2.203,1.464-3.091l0,0c1.092-1.321,2.825-2.161,4.733-2.148l0,0c2.808,0.105,5.627,2.001,6.582,5.009l0,0h0.08
	l16.224-10.263c0.584-0.374,1.34-0.397,1.949-0.06l0,0c0.61,0.337,0.989,0.978,0.989,1.678l0,0v8.905
	c0,0.639-0.325,1.237-0.857,1.594l0,0l-16.686,11.12c-0.318,0.211-0.676,0.326-1.058,0.326l0,0h-0.726
	c-0.986,2.726-3.513,4.746-6.5,4.992l0,0C313.182,64.895,311.131,62.364,310.493,59.8L310.493,59.8z M316.641,45.534
	c-1.605,0.049-2.422,1.026-2.535,3.097l0,0c0,0.507-0.199,0.991-0.562,1.353l0,0c-0.361,0.362-0.841,0.562-1.354,0.562l0,0
	c-1.763,0-3.086,1.587-3.092,2.541l0,0c0.012,1.728,1.36,3.085,3.092,3.092l0,0c0.514,0,0.992,0.198,1.354,0.562l0,0
	c0.361,0.362,0.562,0.844,0.562,1.357l0,0c-0.015,0.634,0.281,1.54,0.771,2.144l0,0c0.505,0.616,1.032,0.924,1.764,0.936l0,0
	c0.308,0.037,1.273-0.368,1.983-1.111l0,0c0.737-0.7,1.144-1.667,1.104-1.969l0,0c0-0.506,0.201-1.002,0.563-1.357l0,0
	c0.356-0.356,0.851-0.562,1.351-0.562l0,0h1.638l15.354-10.233v-4.402l-13.748,8.706c-0.308,0.194-0.657,0.296-1.021,0.296l0,0
	h-2.223c-0.5,0-0.994-0.205-1.351-0.562l0,0c-0.356-0.356-0.563-0.851-0.563-1.353l0,0c0.006-0.73-0.388-1.521-1.058-2.148l0,0
	c-0.642-0.613-1.517-0.95-1.995-0.95l0,0C316.663,45.533,316.65,45.533,316.641,45.534L316.641,45.534z"/>
<path fill="#231F20" d="M324.979,75.886c-2.224,1.668-4.994,3.334-5.562,1.668c-1.105-1.668,1.115-3.34,3.339-4.449 M322.755,73.104
	l16.138-11.118l1.659,3.332l-15.573,10.567L322.755,73.104z M338.893,61.987c2.219-1.674,4.437-2.789,5.549-1.112
	c1.119,1.112-1.112,2.779-3.89,4.444L338.893,61.987z"/>
</svg>
