<?xml version="1.0" encoding="utf-8"?>
<!-- Generator: Adobe Illustrator 16.0.0, SVG Export Plug-In . SVG Version: 6.00 Build 0)  -->
<!DOCTYPE svg PUBLIC "-//W3C//DTD SVG 1.1//EN" "http://www.w3.org/Graphics/SVG/1.1/DTD/svg11.dtd">
<svg version="1.1" id="svg3194" xmlns:svg="http://www.w3.org/2000/svg"
	 xmlns="http://www.w3.org/2000/svg" xmlns:xlink="http://www.w3.org/1999/xlink" x="0px" y="0px" width="360.143px"
	 height="434.979px" viewBox="274.099 -13.394 360.143 434.979" enable-background="new 274.099 -13.394 360.143 434.979"
	 xml:space="preserve">
<g id="layer1">
	<g id="g3333" transform="matrix(8.1465827,0,0,8.1465827,-3064.6686,-1138.2146)">
		<path id="path63" fill="#231F20" d="M450.425,170.462c-0.408-0.186-0.958-0.387-1.535-0.474c-0.767-0.115-1.52-0.137-2.25-0.07
			c1.195-3.005,1.659-6.169,1.659-9.62c0-9.008,0-6.3,0-18.425h-32.401c0,12.125,0,9.418,0,18.425c0,3.451,0.465,6.615,1.659,9.62
			c-0.729-0.068-1.482-0.045-2.252,0.07c-0.576,0.086-1.126,0.288-1.534,0.474c0.251,0.45,0.404,0.93,0.555,1.537
			c0.261,1.038,0.336,2.078,0.144,2.754c0,0,1.632-0.611,3.231-0.156c0,0-1.406,1.64-1.853,2.195
			c-0.446,0.557-0.38,1.158-0.132,1.616c0.049,0.09,0.103,0.174,0.158,0.259c1.351,2.104,2.806,3.699,4.744,5.221
			c1.714,1.347,3.59,2.357,5.58,3.002c3.727,1.214,8.072,1.214,11.801,0c1.989-0.645,3.866-1.655,5.58-3.002
			c1.824-1.432,3.218-2.929,4.502-4.852c0.061-0.093,0.121-0.185,0.183-0.279c0.362-0.705,0.575-1.408-0.061-2.134
			c-0.198-0.226-0.193-0.229-0.193-0.229l-1.515-1.798c1.598-0.456,3.233,0.156,3.233,0.156c-0.191-0.676-0.116-1.716,0.143-2.754
			C450.021,171.392,450.174,170.912,450.425,170.462z M423.154,180.478c-1.171-0.935-2.569-2.354-3.589-3.955l1.145-1.131
			c0.448,0.579,0.931,1.155,1.454,1.729c3.743,4.101,7.804,5.947,9.319,6.534c-1.311-0.068-2.644-0.353-4.125-0.855
			C425.867,182.294,424.454,181.513,423.154,180.478z M441.039,180.478c-1.297,1.035-2.714,1.816-4.204,2.321
			c-1.48,0.501-2.81,0.785-4.12,0.855c1.516-0.589,5.575-2.432,9.319-6.534c0.523-0.574,1.006-1.149,1.453-1.728l1.144,1.129
			C443.607,178.123,442.21,179.543,441.039,180.478"/>
		<path id="path65" fill="#BE2F37" d="M432.099,183.273c0,0-5.072-1.541-9.651-6.56c-4.579-5.02-6.087-10.216-6.087-16.341
			c0-8.751,0-6.12,0-18.049h31.475c0,11.929,0,9.298,0,18.049c0,6.125-1.505,11.321-6.085,16.341
			C437.17,181.732,432.099,183.273,432.099,183.273"/>
		<path id="path67" fill="#231F20" d="M421.396,147.374c0,5.265,0,5.258,0,13.931c0,3.9,1.264,7.6,3.455,10.416
			c4.136,5.317,7.246,5.951,7.246,5.951s3.109-0.634,7.245-5.951c2.191-2.816,3.455-6.516,3.455-10.416c0-8.674,0-8.666,0-13.931
			H421.396"/>
		<path id="path69" fill="#004B85" d="M442.342,150.397l-7.789,10.15l6.17,8.041c-0.47,0.981-1.039,1.902-1.69,2.74
			c-0.18,0.232-0.356,0.451-0.531,0.664l-6.405-8.351l-6.414,8.35c-0.175-0.211-0.353-0.43-0.531-0.663
			c-0.653-0.837-1.219-1.759-1.69-2.741l6.179-8.04l-7.798-10.161c0-0.723,0-1.544,0-2.564h2.862l7.391,9.631l7.391-9.631h2.854
			C442.342,148.847,442.342,149.672,442.342,150.397"/>
		<path id="path105" fill="#231F20" d="M435.384,162.383c-0.191-0.081-0.222-0.23-0.26-0.402l-0.003-0.018
			c-0.04-0.185-0.089-0.415-0.363-0.524c-0.106-0.043-0.337-0.058-0.506-0.059v-1.832c0.171,0,0.405-0.016,0.512-0.059
			c0.276-0.11,0.325-0.341,0.365-0.528l0.004-0.019c0.038-0.174,0.069-0.324,0.261-0.405c0.071-0.031,0.111-0.105,0.091-0.173
			c-0.019-0.065-0.082-0.104-0.164-0.099c-0.394,0.025-0.53,0.218-0.719,0.485l-0.04,0.057c-0.096,0.134-0.245,0.229-0.311,0.276
			v-0.491l-0.71-0.339c-0.111,0-0.423-0.022-0.573-0.095c-0.337-0.164-0.71-0.127-0.87-0.003c-0.16-0.125-0.534-0.161-0.871,0.003
			c-0.149,0.073-0.46,0.095-0.571,0.095l-0.711,0.339v0.447h-0.116c-0.047-0.239-0.18-0.41-0.335-0.41
			c-0.196,0-0.355,0.272-0.355,0.609c0,0.337,0.159,0.609,0.355,0.609c0.155,0,0.288-0.171,0.335-0.41h0.116v2.066h-0.116
			c-0.047-0.239-0.18-0.41-0.335-0.41c-0.196,0-0.355,0.274-0.355,0.61s0.159,0.609,0.355,0.609c0.155,0,0.288-0.173,0.335-0.41
			h0.116v0.539h1.744c0.032,0.145,0.119,0.292,0.409,0.295h0.003c0.29-0.003,0.376-0.15,0.409-0.295h1.742v-0.601
			c0.066,0.046,0.211,0.141,0.305,0.273l0.041,0.056c0.188,0.265,0.323,0.456,0.713,0.48c0.08,0.005,0.144-0.033,0.163-0.097
			C435.492,162.487,435.454,162.413,435.384,162.383"/>
		<path id="path107" fill="#231F20" d="M419.796,146.316c0.357-0.04,0.665-0.104,0.697-0.255c0.12-0.565,0.431-1.814,0.811-2.444
			c-0.253-0.066-0.804,0.055-0.821,0.35c-0.194-0.074-0.603,0.036-0.639,0.58c0.622-0.137,0.418,0.553-0.126,0.446
			c-0.544-0.104-0.494-0.789,0.035-0.463c0.151-0.524-0.146-0.76-0.355-0.756c0.069-0.24-0.136-0.496-0.316-0.555
			c-0.18,0.059-0.386,0.315-0.317,0.555c-0.207-0.004-0.506,0.232-0.354,0.756c0.527-0.326,0.577,0.359,0.034,0.463
			c-0.542,0.106-0.749-0.584-0.125-0.446c-0.036-0.544-0.446-0.654-0.64-0.58c-0.016-0.295-0.567-0.416-0.821-0.35
			c0.38,0.63,0.693,1.879,0.811,2.444c0.033,0.151,0.34,0.215,0.698,0.255c0.21,0.024,0.641,0.036,0.712,0.035
			C419.149,146.348,419.586,146.339,419.796,146.316"/>
		<path id="path109" fill="#231F20" d="M422.487,173.731c0.359-0.041,0.665-0.104,0.697-0.255c0.12-0.565,0.433-1.812,0.811-2.442
			c-0.252-0.068-0.804,0.054-0.821,0.35c-0.194-0.075-0.602,0.035-0.639,0.579c0.624-0.139,0.418,0.551-0.126,0.447
			c-0.544-0.105-0.493-0.789,0.035-0.462c0.152-0.525-0.146-0.76-0.354-0.758c0.069-0.24-0.137-0.496-0.317-0.555
			c-0.18,0.059-0.385,0.315-0.318,0.555c-0.207-0.002-0.505,0.233-0.354,0.758c0.528-0.326,0.578,0.358,0.035,0.462
			c-0.544,0.104-0.749-0.586-0.125-0.447c-0.038-0.544-0.446-0.654-0.641-0.579c-0.016-0.296-0.568-0.417-0.82-0.35
			c0.379,0.63,0.691,1.877,0.811,2.442c0.032,0.151,0.339,0.214,0.698,0.255c0.21,0.024,0.641,0.036,0.711,0.035
			C421.841,173.763,422.277,173.754,422.487,173.731"/>
		<path id="path111" fill="#231F20" d="M432.793,181.449c0.357-0.04,0.664-0.104,0.696-0.255c0.12-0.564,0.432-1.815,0.811-2.444
			c-0.252-0.066-0.804,0.055-0.82,0.35c-0.194-0.073-0.604,0.035-0.64,0.58c0.622-0.137,0.417,0.551-0.126,0.447
			c-0.544-0.106-0.492-0.79,0.035-0.465c0.151-0.522-0.146-0.759-0.354-0.755c0.069-0.241-0.138-0.496-0.318-0.554
			c-0.18,0.058-0.385,0.313-0.316,0.554c-0.209-0.004-0.506,0.233-0.355,0.755c0.528-0.325,0.579,0.359,0.035,0.465
			c-0.544,0.104-0.749-0.585-0.125-0.447c-0.037-0.545-0.446-0.652-0.641-0.58c-0.015-0.295-0.567-0.416-0.82-0.35
			c0.379,0.629,0.691,1.88,0.811,2.444c0.033,0.151,0.34,0.215,0.698,0.255c0.21,0.025,0.641,0.036,0.711,0.034
			C432.145,181.482,432.583,181.474,432.793,181.449"/>
		<path id="path113" fill="#231F20" d="M443.145,173.731c0.359-0.041,0.665-0.104,0.698-0.255c0.12-0.565,0.434-1.812,0.811-2.442
			c-0.252-0.068-0.802,0.054-0.82,0.35c-0.194-0.075-0.604,0.035-0.639,0.579c0.621-0.139,0.416,0.551-0.126,0.447
			c-0.545-0.105-0.494-0.789,0.034-0.462c0.151-0.525-0.145-0.76-0.352-0.758c0.066-0.24-0.139-0.496-0.319-0.555
			c-0.18,0.059-0.385,0.315-0.318,0.555c-0.207-0.002-0.504,0.233-0.352,0.758c0.526-0.326,0.577,0.358,0.033,0.462
			c-0.541,0.104-0.746-0.586-0.125-0.447c-0.035-0.544-0.446-0.654-0.639-0.579c-0.018-0.296-0.569-0.417-0.82-0.35
			c0.378,0.63,0.691,1.877,0.811,2.442c0.033,0.151,0.339,0.214,0.698,0.255c0.209,0.024,0.641,0.036,0.71,0.035
			C442.499,173.763,442.935,173.754,443.145,173.731"/>
		<path id="path115" fill="#231F20" d="M419.574,160.686c0.358-0.041,0.664-0.104,0.696-0.255c0.12-0.565,0.433-1.814,0.811-2.443
			c-0.252-0.067-0.804,0.053-0.82,0.349c-0.194-0.074-0.604,0.036-0.64,0.58c0.622-0.139,0.417,0.551-0.126,0.446
			c-0.544-0.104-0.492-0.789,0.035-0.463c0.151-0.524-0.146-0.76-0.354-0.756c0.069-0.24-0.138-0.496-0.318-0.555
			c-0.18,0.059-0.385,0.315-0.316,0.555c-0.209-0.004-0.506,0.232-0.355,0.756c0.528-0.326,0.579,0.359,0.035,0.463
			c-0.544,0.105-0.749-0.585-0.125-0.446c-0.038-0.544-0.446-0.654-0.641-0.58c-0.015-0.296-0.568-0.416-0.82-0.349
			c0.379,0.629,0.691,1.878,0.811,2.443c0.033,0.151,0.34,0.214,0.697,0.255c0.21,0.024,0.641,0.036,0.711,0.034
			C418.926,160.717,419.364,160.709,419.574,160.686"/>
		<path id="path117" fill="#231F20" d="M446.01,160.686c0.358-0.041,0.665-0.104,0.698-0.255c0.12-0.565,0.433-1.815,0.811-2.444
			c-0.252-0.066-0.805,0.054-0.82,0.35c-0.195-0.074-0.604,0.036-0.641,0.58c0.624-0.139,0.419,0.551-0.126,0.446
			c-0.542-0.104-0.492-0.789,0.035-0.463c0.152-0.524-0.146-0.76-0.355-0.757c0.071-0.239-0.136-0.495-0.316-0.554
			c-0.179,0.059-0.385,0.315-0.316,0.554c-0.207-0.003-0.506,0.234-0.354,0.757c0.526-0.326,0.578,0.359,0.035,0.463
			c-0.545,0.105-0.75-0.585-0.126-0.446c-0.036-0.544-0.445-0.654-0.64-0.58c-0.016-0.296-0.568-0.416-0.821-0.35
			c0.38,0.629,0.693,1.879,0.812,2.444c0.031,0.151,0.338,0.214,0.695,0.255c0.211,0.024,0.643,0.036,0.713,0.034
			C445.363,160.717,445.799,160.709,446.01,160.686"/>
		<path id="path119" fill="#231F20" d="M445.814,146.316c0.357-0.04,0.665-0.104,0.698-0.255c0.12-0.565,0.432-1.814,0.811-2.444
			c-0.251-0.066-0.804,0.055-0.82,0.35c-0.195-0.074-0.604,0.036-0.64,0.58c0.622-0.137,0.418,0.553-0.126,0.446
			c-0.544-0.104-0.494-0.789,0.035-0.463c0.151-0.524-0.146-0.76-0.355-0.756c0.07-0.24-0.135-0.496-0.317-0.555
			c-0.179,0.059-0.384,0.315-0.316,0.555c-0.207-0.004-0.505,0.232-0.354,0.756c0.526-0.326,0.578,0.359,0.035,0.463
			c-0.544,0.106-0.749-0.584-0.126-0.446c-0.035-0.544-0.445-0.654-0.639-0.58c-0.018-0.295-0.569-0.416-0.821-0.35
			c0.379,0.63,0.692,1.879,0.811,2.444c0.032,0.151,0.337,0.215,0.696,0.255c0.21,0.024,0.643,0.036,0.713,0.035
			C445.166,146.348,445.603,146.339,445.814,146.316"/>
		<path id="path121" fill="#231F20" d="M432.793,146.316c0.357-0.04,0.664-0.104,0.696-0.255c0.12-0.565,0.432-1.814,0.811-2.444
			c-0.252-0.066-0.804,0.055-0.82,0.35c-0.194-0.074-0.604,0.036-0.64,0.58c0.622-0.137,0.417,0.553-0.126,0.446
			c-0.544-0.104-0.492-0.789,0.035-0.463c0.151-0.524-0.146-0.76-0.354-0.756c0.069-0.24-0.138-0.496-0.318-0.555
			c-0.18,0.059-0.385,0.315-0.316,0.555c-0.209-0.004-0.506,0.232-0.355,0.756c0.528-0.326,0.579,0.359,0.035,0.463
			c-0.544,0.106-0.749-0.584-0.125-0.446c-0.037-0.544-0.446-0.654-0.641-0.58c-0.015-0.295-0.567-0.416-0.82-0.35
			c0.379,0.63,0.691,1.879,0.811,2.444c0.033,0.151,0.34,0.215,0.698,0.255c0.21,0.024,0.641,0.036,0.711,0.035
			C432.145,146.348,432.583,146.339,432.793,146.316"/>
		<path id="path123" fill="#EEB210" d="M429.946,159.163h-0.284c-0.016-0.197-0.09-0.348-0.176-0.348
			c-0.097,0-0.175,0.191-0.173,0.425c0.003,0.235,0.083,0.426,0.18,0.426c0.09,0,0.162-0.162,0.171-0.37h0.281V159.163"/>
		<path id="path125" fill="#EEB210" d="M429.946,161.619h-0.284c-0.016-0.198-0.09-0.348-0.176-0.348
			c-0.097,0-0.175,0.19-0.173,0.425c0.003,0.235,0.083,0.425,0.18,0.425c0.09,0,0.162-0.161,0.171-0.37h0.281V161.619"/>
		<path id="path127" fill="#EEB210" d="M434.658,159.381c0.201-0.079,0.24-0.255,0.275-0.426l0.004-0.018
			c0.039-0.184,0.084-0.394,0.348-0.506c0.001-0.001,0.001-0.001,0.002-0.003c-0.315,0.019-0.415,0.161-0.599,0.42l-0.041,0.058
			c-0.093,0.13-0.263,0.316-0.395,0.363v0.159C434.409,159.427,434.575,159.414,434.658,159.381"/>
		<path id="path129" fill="#EEB210" d="M434.641,162.029l0.04,0.057c0.181,0.256,0.281,0.398,0.592,0.416c0,0,0-0.001-0.001-0.002
			c-0.263-0.113-0.306-0.319-0.345-0.503l-0.004-0.017c-0.035-0.169-0.072-0.342-0.272-0.423c-0.081-0.032-0.245-0.045-0.4-0.045
			v0.159C434.382,161.719,434.55,161.902,434.641,162.029"/>
		<path id="path131" fill="#EEB210" d="M432.227,158.352c0.161-0.102,0.421-0.13,0.757,0.04c0.15,0.076,0.461,0.1,0.573,0.1
			c0,0.425,0,2.529,0,3.094c-0.151-0.013-0.449-0.121-0.577-0.186c-0.324-0.164-0.573-0.145-0.753-0.054
			C432.227,160.548,432.227,158.558,432.227,158.352"/>
		<path id="path133" fill="#EEB210" d="M430.642,158.492c0.111,0,0.422-0.024,0.571-0.1c0.338-0.17,0.598-0.142,0.759-0.04
			c0,0.206,0,2.196,0,2.994c-0.181-0.091-0.429-0.11-0.752,0.054c-0.129,0.065-0.426,0.174-0.578,0.186
			C430.642,161.021,430.642,158.917,430.642,158.492"/>
		<path id="path135" fill="#EEB210" d="M433.797,158.573l0.243,0.141v3.324l-0.243-0.257V158.573"/>
		<path id="path137" fill="#EEB210" d="M433.887,162.228h-1.376c-0.01-0.232-0.114-0.514-0.244-0.66
			c0.167-0.069,0.426-0.07,0.717,0.077c0.12,0.06,0.37,0.157,0.511,0.166L433.887,162.228"/>
		<path id="path139" fill="#EEB210" d="M431.932,161.568c-0.13,0.146-0.234,0.427-0.244,0.66h-1.376l0.391-0.416
			c0.141-0.009,0.391-0.106,0.51-0.166C431.506,161.498,431.765,161.499,431.932,161.568"/>
		<path id="path141" fill="#EEB210" d="M430.16,158.714l0.243-0.141v3.208l-0.243,0.257V158.714"/>
		<path id="path143" fill="#EEB210" d="M432.099,162.484c-0.15-0.002-0.181-0.086-0.194-0.16c-0.004-0.022-0.005-0.046-0.005-0.071
			c0-0.219,0.135-0.457,0.2-0.529c0.064,0.071,0.2,0.31,0.2,0.529c0,0.025-0.003,0.049-0.005,0.071
			c-0.011,0.074-0.045,0.158-0.194,0.16"/>
		<path id="path145" fill="#EEB210" d="M436.995,183.273c1.546-0.524,3.013-1.334,4.355-2.405c1.489-1.187,3.264-3.074,4.303-5.13
			c0.169-0.344,0.285-0.745,0.342-0.989l0.361,0.461l1.229,1.456c0,0,0.11,0.116,0.228,0.269c0.376,0.475,0.339,0.988,0.049,1.514
			c-0.184,0.339-0.64,0.95-0.755,1.109c-1.135,1.551-2.353,2.771-3.839,3.937c-1.666,1.31-3.491,2.293-5.425,2.921
			c-3.712,1.206-7.779,1.206-11.492,0c-1.933-0.629-3.758-1.611-5.425-2.921c-1.779-1.397-3.175-2.873-4.506-4.904
			c-0.043-0.066-0.041-0.075-0.084-0.143c-0.259-0.375-0.418-0.934,0.004-1.464c0.385-0.484,1.296-1.542,1.654-1.962
			c0.094-0.11,0.209-0.274,0.209-0.274s0.115,0.5,0.182,0.666c0.201,0.484,0.429,0.859,0.758,1.374
			c1.045,1.637,2.471,3.099,3.701,4.079c1.345,1.071,2.809,1.881,4.355,2.405C430.585,184.422,433.607,184.422,436.995,183.273"/>
		<path id="path147" fill="#EEB210" d="M444.363,174.299c0.3-0.384,0.762-0.434,0.932-0.3c0.15,0.115,0.17,0.274,0.185,0.449
			c0.05,0.682-0.615,1.602-0.615,1.602l-1.074-1.06C444.032,174.664,444.147,174.566,444.363,174.299"/>
		<path id="path149" fill="#EEB210" d="M446.441,170.406c0.77-0.095,1.57-0.082,2.383,0.04c0.354,0.054,0.69,0.154,0.976,0.256
			c-0.154,0.365-0.269,0.749-0.376,1.185c-0.176,0.699-0.267,1.367-0.267,1.947c0,0.098,0.004,0.193,0.009,0.284
			c-0.717-0.156-1.866-0.281-2.992,0.096c-0.11-0.199-0.369-0.466-0.561-0.582c-0.299-0.183-0.815-0.083-0.815-0.083
			s0.06-0.087,0.08-0.124C445.396,172.558,446.06,171.297,446.441,170.406"/>
		<path id="path151" fill="#EEB210" d="M419.834,174.299c-0.299-0.384-0.761-0.434-0.932-0.3c-0.15,0.115-0.171,0.274-0.184,0.449
			c-0.05,0.682,0.614,1.602,0.614,1.602l1.074-1.06C420.164,174.664,420.051,174.566,419.834,174.299"/>
		<path id="path153" fill="#EEB210" d="M417.757,170.406c-0.771-0.095-1.571-0.082-2.385,0.04c-0.354,0.054-0.69,0.154-0.975,0.256
			c0.153,0.365,0.268,0.749,0.378,1.185c0.175,0.699,0.264,1.367,0.264,1.947c0,0.098-0.003,0.193-0.008,0.284
			c0.719-0.156,1.867-0.281,2.993,0.096c0.11-0.199,0.37-0.466,0.561-0.582c0.299-0.183,0.816-0.083,0.816-0.083
			s-0.06-0.087-0.081-0.124C418.801,172.558,418.137,171.297,417.757,170.406"/>
		<path id="path155" fill="#EEB210" d="M438.926,147.822h-13.651l6.829,8.85L438.926,147.822"/>
		<path id="path157" fill="#EEB210" d="M421.844,151.107c0,2.515,0,4.121,0,10.245c0,2.399,0.5,4.715,1.411,6.782l5.833-7.589
			L421.844,151.107"/>
		<path id="path159" fill="#EEB210" d="M425.97,172.389c3.534,4.142,6.124,4.827,6.124,4.827s2.59-0.669,6.124-4.81l-6.12-7.986
			L425.97,172.389"/>
		<path id="path161" fill="#EEB210" d="M435.108,160.546l5.823,7.59c0.914-2.066,1.412-4.385,1.412-6.784c0-6.115,0-7.725,0-10.235
			L435.108,160.546"/>
		<path id="path163" fill="#EEB210" d="M420.264,145.964c0,0.09-0.53,0.161-1.181,0.161c-0.654,0-1.183-0.071-1.183-0.161
			c0-0.089,0.529-0.16,1.183-0.16C419.734,145.804,420.264,145.876,420.264,145.964"/>
		<path id="path165" fill="#EEB210" d="M419.082,145.521c-0.194,0-0.385,0.007-0.554,0.019c-0.169,0.011-0.499,0.057-0.72,0.128
			c-0.175-0.788-0.42-1.529-0.62-1.825c0.163,0.021,0.416,0.13,0.396,0.421c0.158-0.25,0.466-0.125,0.496,0.121
			c-0.353-0.062-0.415,0.273-0.31,0.48c0.094,0.184,0.367,0.387,0.697,0.332c0.329-0.055,0.516-0.346,0.54-0.55
			c0.029-0.231-0.144-0.526-0.454-0.346c-0.038-0.224,0.159-0.471,0.424-0.284c-0.154-0.302,0.104-0.545,0.104-0.545
			s0.256,0.243,0.103,0.545c0.266-0.187,0.461,0.06,0.425,0.284c-0.31-0.18-0.484,0.115-0.455,0.346
			c0.025,0.204,0.211,0.495,0.541,0.55c0.329,0.055,0.603-0.149,0.696-0.332c0.105-0.208,0.044-0.542-0.309-0.48
			c0.03-0.246,0.337-0.371,0.495-0.121c-0.02-0.291,0.235-0.4,0.397-0.421c-0.2,0.296-0.446,1.038-0.621,1.825
			c-0.221-0.07-0.551-0.116-0.72-0.128C419.467,145.528,419.275,145.521,419.082,145.521"/>
		<path id="path167" fill="#EEB210" d="M422.954,173.379c0,0.089-0.529,0.161-1.18,0.161c-0.653,0-1.181-0.072-1.181-0.161
			c0-0.088,0.529-0.16,1.181-0.16C422.425,173.219,422.954,173.292,422.954,173.379"/>
		<path id="path169" fill="#EEB210" d="M421.774,172.936c-0.194,0-0.385,0.007-0.553,0.019c-0.169,0.012-0.499,0.058-0.72,0.129
			c-0.176-0.788-0.421-1.529-0.621-1.825c0.163,0.021,0.418,0.129,0.397,0.42c0.156-0.25,0.465-0.124,0.495,0.123
			c-0.353-0.065-0.415,0.272-0.309,0.48c0.094,0.181,0.368,0.386,0.696,0.331c0.329-0.054,0.516-0.346,0.541-0.551
			c0.027-0.23-0.145-0.524-0.454-0.345c-0.038-0.225,0.158-0.47,0.422-0.284c-0.152-0.302,0.104-0.546,0.104-0.546
			s0.256,0.244,0.104,0.546c0.265-0.186,0.461,0.059,0.424,0.284c-0.31-0.179-0.482,0.115-0.454,0.345
			c0.024,0.205,0.211,0.498,0.54,0.551c0.329,0.055,0.604-0.15,0.696-0.331c0.106-0.208,0.044-0.545-0.309-0.48
			c0.03-0.246,0.339-0.373,0.496-0.123c-0.02-0.291,0.234-0.399,0.396-0.42c-0.2,0.296-0.446,1.037-0.621,1.825
			c-0.22-0.071-0.55-0.116-0.719-0.129C422.159,172.943,421.967,172.936,421.774,172.936"/>
		<path id="path171" fill="#EEB210" d="M433.259,181.099c0,0.088-0.529,0.161-1.181,0.161s-1.181-0.074-1.181-0.161
			c0-0.09,0.529-0.161,1.181-0.161S433.259,181.009,433.259,181.099"/>
		<path id="path173" fill="#EEB210" d="M432.077,180.654c-0.193,0-0.385,0.006-0.554,0.019c-0.168,0.011-0.499,0.056-0.719,0.127
			c-0.175-0.787-0.421-1.53-0.621-1.825c0.162,0.021,0.418,0.13,0.398,0.421c0.158-0.249,0.466-0.126,0.495,0.12
			c-0.352-0.061-0.414,0.274-0.309,0.481c0.094,0.184,0.367,0.388,0.696,0.334c0.33-0.056,0.516-0.348,0.541-0.551
			c0.029-0.231-0.145-0.527-0.454-0.345c-0.038-0.226,0.158-0.472,0.422-0.285c-0.152-0.301,0.104-0.545,0.104-0.545
			s0.257,0.244,0.104,0.545c0.265-0.187,0.461,0.059,0.424,0.285c-0.31-0.182-0.482,0.114-0.455,0.345
			c0.025,0.204,0.212,0.495,0.541,0.551c0.329,0.054,0.604-0.15,0.696-0.334c0.105-0.207,0.044-0.542-0.309-0.481
			c0.03-0.246,0.339-0.369,0.495-0.12c-0.019-0.291,0.235-0.4,0.397-0.421c-0.2,0.295-0.446,1.038-0.621,1.825
			c-0.22-0.071-0.55-0.116-0.719-0.127C432.462,180.661,432.271,180.654,432.077,180.654"/>
		<path id="path175" fill="#EEB210" d="M443.612,173.379c0,0.089-0.529,0.161-1.183,0.161c-0.65,0-1.18-0.072-1.18-0.161
			c0-0.088,0.53-0.16,1.18-0.16C443.084,173.219,443.612,173.292,443.612,173.379"/>
		<path id="path177" fill="#EEB210" d="M442.431,172.936c-0.193,0-0.385,0.007-0.553,0.019c-0.169,0.012-0.499,0.058-0.72,0.129
			c-0.176-0.788-0.42-1.529-0.621-1.825c0.162,0.021,0.416,0.129,0.399,0.42c0.155-0.25,0.464-0.124,0.494,0.123
			c-0.354-0.065-0.415,0.272-0.31,0.48c0.094,0.181,0.37,0.386,0.698,0.331c0.329-0.054,0.516-0.346,0.542-0.551
			c0.026-0.23-0.146-0.524-0.454-0.345c-0.039-0.225,0.158-0.47,0.421-0.284c-0.153-0.302,0.104-0.546,0.104-0.546
			s0.256,0.244,0.104,0.546c0.264-0.186,0.46,0.059,0.424,0.284c-0.309-0.179-0.481,0.115-0.455,0.345
			c0.026,0.205,0.214,0.498,0.541,0.551c0.329,0.055,0.604-0.15,0.698-0.331c0.105-0.208,0.044-0.545-0.309-0.48
			c0.029-0.246,0.339-0.373,0.494-0.123c-0.017-0.291,0.235-0.399,0.398-0.42c-0.2,0.296-0.445,1.037-0.62,1.825
			c-0.221-0.071-0.551-0.116-0.72-0.129C442.816,172.943,442.625,172.936,442.431,172.936"/>
		<path id="path179" fill="#EEB210" d="M420.04,160.334c0,0.089-0.529,0.161-1.181,0.161c-0.652,0-1.181-0.073-1.181-0.161
			c0-0.087,0.529-0.161,1.181-0.161C419.511,160.173,420.04,160.247,420.04,160.334"/>
		<path id="path181" fill="#EEB210" d="M418.859,159.891c-0.193,0-0.385,0.006-0.554,0.017c-0.167,0.012-0.499,0.059-0.719,0.129
			c-0.175-0.788-0.421-1.529-0.621-1.825c0.162,0.021,0.418,0.13,0.397,0.421c0.158-0.25,0.466-0.125,0.495,0.121
			c-0.352-0.064-0.414,0.274-0.309,0.48c0.094,0.182,0.368,0.387,0.696,0.332c0.329-0.055,0.516-0.346,0.541-0.55
			c0.029-0.231-0.145-0.526-0.454-0.346c-0.038-0.225,0.158-0.471,0.422-0.284c-0.152-0.303,0.104-0.546,0.104-0.546v0.001
			c0,0,0.257,0.242,0.104,0.545c0.265-0.187,0.461,0.059,0.424,0.284c-0.31-0.18-0.482,0.115-0.455,0.346
			c0.025,0.204,0.213,0.495,0.541,0.55c0.329,0.055,0.604-0.15,0.696-0.332c0.105-0.206,0.044-0.544-0.309-0.48
			c0.03-0.246,0.339-0.371,0.495-0.121c-0.019-0.291,0.235-0.4,0.398-0.421c-0.2,0.296-0.446,1.038-0.621,1.825
			c-0.22-0.07-0.55-0.116-0.719-0.129C419.244,159.897,419.052,159.891,418.859,159.891"/>
		<path id="path183" fill="#EEB210" d="M446.476,160.334c0,0.089-0.528,0.161-1.181,0.161c-0.652,0-1.18-0.073-1.18-0.161
			c0-0.089,0.528-0.161,1.18-0.161C445.949,160.173,446.476,160.246,446.476,160.334"/>
		<path id="path185" fill="#EEB210" d="M445.295,159.891c-0.192,0-0.384,0.006-0.554,0.017c-0.166,0.012-0.497,0.059-0.717,0.129
			c-0.176-0.788-0.421-1.529-0.621-1.825c0.161,0.021,0.416,0.13,0.396,0.421c0.158-0.25,0.465-0.125,0.495,0.121
			c-0.352-0.064-0.414,0.274-0.307,0.48c0.094,0.182,0.367,0.387,0.696,0.332c0.329-0.055,0.516-0.346,0.54-0.55
			c0.029-0.231-0.144-0.527-0.455-0.346c-0.036-0.225,0.159-0.471,0.425-0.284c-0.153-0.303,0.102-0.546,0.102-0.546v0.001
			c0,0,0.259,0.242,0.104,0.545c0.266-0.187,0.462,0.059,0.424,0.284c-0.309-0.181-0.484,0.115-0.454,0.346
			c0.025,0.204,0.211,0.495,0.54,0.55c0.33,0.055,0.604-0.15,0.696-0.332c0.105-0.206,0.044-0.544-0.307-0.48
			c0.029-0.246,0.336-0.371,0.495-0.121c-0.02-0.291,0.234-0.4,0.398-0.421c-0.201,0.296-0.448,1.038-0.621,1.825
			c-0.221-0.07-0.551-0.116-0.72-0.129C445.68,159.897,445.489,159.891,445.295,159.891"/>
		<path id="path187" fill="#EEB210" d="M446.28,145.964c0,0.09-0.528,0.161-1.181,0.161c-0.651,0-1.18-0.071-1.18-0.161
			c0-0.089,0.529-0.16,1.18-0.16C445.752,145.804,446.28,145.876,446.28,145.964"/>
		<path id="path189" fill="#EEB210" d="M445.099,145.521c-0.193,0-0.384,0.007-0.551,0.019c-0.169,0.011-0.5,0.057-0.72,0.128
			c-0.176-0.788-0.421-1.529-0.621-1.825c0.163,0.021,0.416,0.129,0.397,0.421c0.156-0.25,0.464-0.125,0.495,0.121
			c-0.354-0.062-0.415,0.273-0.309,0.48c0.094,0.184,0.367,0.387,0.696,0.332c0.329-0.055,0.516-0.347,0.541-0.55
			c0.027-0.231-0.145-0.526-0.454-0.346c-0.038-0.224,0.158-0.471,0.422-0.284c-0.152-0.302,0.103-0.545,0.103-0.545
			s0.257,0.243,0.104,0.545c0.266-0.187,0.462,0.06,0.424,0.284c-0.309-0.18-0.481,0.115-0.454,0.346
			c0.026,0.203,0.212,0.495,0.541,0.55c0.329,0.055,0.604-0.149,0.696-0.332c0.106-0.208,0.044-0.542-0.309-0.48
			c0.029-0.246,0.339-0.371,0.495-0.121c-0.019-0.293,0.234-0.4,0.399-0.421c-0.201,0.296-0.448,1.038-0.621,1.825
			c-0.221-0.07-0.551-0.116-0.721-0.128C445.486,145.528,445.293,145.521,445.099,145.521"/>
		<path id="path191" fill="#EEB210" d="M433.259,145.964c0,0.09-0.529,0.161-1.181,0.161s-1.181-0.071-1.181-0.161
			c0-0.089,0.529-0.16,1.181-0.16S433.259,145.876,433.259,145.964"/>
		<path id="path193" fill="#EEB210" d="M432.077,145.521c-0.193,0-0.385,0.007-0.554,0.019c-0.168,0.011-0.499,0.057-0.719,0.128
			c-0.175-0.788-0.421-1.529-0.621-1.825c0.162,0.021,0.418,0.129,0.398,0.421c0.158-0.25,0.466-0.125,0.495,0.121
			c-0.352-0.062-0.414,0.273-0.309,0.48c0.094,0.184,0.367,0.387,0.696,0.332c0.33-0.055,0.516-0.347,0.541-0.55
			c0.029-0.231-0.145-0.526-0.454-0.346c-0.038-0.224,0.158-0.471,0.422-0.284c-0.152-0.302,0.104-0.545,0.104-0.545
			s0.257,0.243,0.104,0.545c0.265-0.187,0.461,0.06,0.424,0.284c-0.31-0.18-0.482,0.115-0.455,0.346
			c0.025,0.203,0.212,0.495,0.541,0.55c0.329,0.055,0.604-0.149,0.696-0.332c0.105-0.208,0.044-0.542-0.309-0.48
			c0.03-0.246,0.339-0.371,0.495-0.121c-0.019-0.293,0.235-0.4,0.397-0.421c-0.2,0.296-0.446,1.038-0.621,1.825
			c-0.22-0.07-0.55-0.116-0.719-0.128C432.462,145.528,432.271,145.521,432.077,145.521"/>
		<path id="path195" fill="#231F20" d="M434.693,152.927c-0.041,0-1.051-1.044-1.051-1.044s0.311-0.012,0.562-0.012
			c-0.704-0.584-1.165-1.349-1.165-1.349s0.315,0.036,0.585,0.046l-0.82-0.955c0,0,0.146,0.01,0.405-0.024
			c-0.17-0.101-0.61-0.569-0.61-0.569s0.134-0.024,0.231-0.03c-0.131-0.1-0.716-0.956-0.716-0.956s-0.494,0.854-0.756,0.991
			c0.168-0.026,0.27-0.005,0.27-0.005s-0.704,0.854-0.874,0.955c0.205,0.016,0.34,0.02,0.34,0.02s-0.342,0.485-0.491,0.573
			c0.274-0.018,0.451,0,0.451,0s-0.864,1.106-0.964,1.136c0.251,0,0.491,0.03,0.491,0.03s-0.694,0.824-0.854,0.885
			c0.05,0.049,0.181,0.079,0.181,0.079s-0.361,0.303-0.403,0.303c0.161,0,0.775,0.01,0.775,0.01l-0.142,0.161
			c0.62,0.092,1.298-0.158,1.704-0.18c0,0.332,0,0.904,0,0.957c0,0.076-0.052,0.171-0.21,0.241
			c-0.076,0.034-0.841,0.165-0.702,0.381c0.05,0.076,0.255-0.042,0.271,0.018c0.02,0.076-0.19,0.222-0.149,0.307
			c0.036,0.075,0.418-0.251,0.465-0.176c0.061,0.098-0.377,0.334-0.306,0.43c0.07,0.096,0.21-0.184,0.263-0.07
			c0.052,0.114,0.114,0.316,0.168,0.246c0.053-0.07,0.105-0.421,0.184-0.325c0.079,0.096,0.026,0.264-0.035,0.386
			c-0.061,0.123-0.049,0.336,0.07,0.184c0.166-0.211,0.141,0.176,0.234,0.192c0.093,0.015,0.068-0.404,0.233-0.192
			c0.12,0.152,0.132-0.061,0.07-0.184c-0.061-0.123-0.114-0.29-0.035-0.386c0.08-0.096,0.131,0.255,0.184,0.325
			c0.053,0.07,0.115-0.132,0.167-0.246c0.052-0.114,0.193,0.166,0.263,0.07c0.071-0.096-0.369-0.333-0.306-0.43
			c0.047-0.075,0.429,0.251,0.465,0.176c0.041-0.085-0.169-0.231-0.149-0.307c0.016-0.06,0.221,0.059,0.271-0.018
			c0.137-0.216-0.626-0.348-0.702-0.381c-0.158-0.07-0.21-0.165-0.21-0.241c0-0.048,0-0.51,0-0.844
			c0.475,0.067,1.43,0.009,1.488-0.058l-0.19-0.196C434.237,152.948,434.569,152.927,434.693,152.927"/>
		<path id="path197" fill="#965C0E" d="M432.181,153.949c0,0,0-0.556,0-0.879c-0.027-0.009-0.051-0.019-0.068-0.03
			c-0.03-0.02-0.067-0.032-0.109-0.04c0,0.301,0,0.949,0,0.949c0,0.412-0.501,0.481-0.575,0.504
			c0.561,0.237,0.664,0.562,0.664,0.562s0.175-0.341,0.67-0.562C432.696,154.431,432.181,154.329,432.181,153.949"/>
		<path id="path199" fill="#009A66" d="M432.125,148.431c0.095,0.136,0.21,0.291,0.304,0.415c-0.059,0.011-0.102,0.015-0.199,0.026
			c0,0,0.204,0.305,0.425,0.518c-0.151-0.009-0.347-0.021-0.347-0.021s0.46,0.628,0.811,0.945c-0.034-0.004-0.491-0.056-0.491-0.056
			c0,0.001,0.486,0.875,1.039,1.409c-0.017,0.001-0.514,0.023-0.514,0.023s0.823,0.849,0.979,1.006
			c-0.129-0.01-1.094-0.156-1.094-0.156s0.233,0.24,0.351,0.364c-0.409,0.026-1.029,0.025-1.159-0.043
			c-0.216-0.144-0.531-0.079-0.932,0.001c-0.219,0.045-0.456,0.091-0.693,0.108c0.073-0.084,0.146-0.168,0.146-0.168
			s-0.571-0.007-0.617-0.009c0.175-0.119,0.246-0.205,0.246-0.205s-0.112-0.026-0.225-0.053c0.305-0.239,0.849-0.965,0.849-0.965
			s-0.308-0.029-0.436-0.054c0.246-0.263,0.899-1.124,0.899-1.124s-0.331-0.033-0.37-0.038c0.071-0.09,0.4-0.551,0.4-0.551
			s-0.129-0.007-0.244-0.015c0.406-0.381,0.72-0.895,0.72-0.895s-0.093,0.011-0.185-0.006
			C431.893,148.752,432.042,148.561,432.125,148.431"/>
		<path id="path201" fill="#231F20" d="M427.786,160.746c0,0-0.713,2.244-2.214,1.747c-0.266-0.087-0.601,0.32-0.474,0.704
			c0.025,0.075,0.27,0.195,0.429,0.203c-0.136,0.135-0.193,0.504,0.082,1.029l-0.466,0.556c-0.071-0.19-0.481-1.33-0.864-1.375
			c0.119-0.047,0.336-0.257,0.336-0.338c0-0.68-0.312-0.586-0.591-0.576c-0.322,0.013-0.861,0.164-1.384-0.311
			c-0.629-0.573-0.616-1.949-0.616-1.949s2.464,0.23,2.29,1.885c-0.015,0.13,0.28,0.314,0.263-0.077
			c-0.011-0.249-0.109-0.453-0.209-0.633c0,0,0.109-0.116,0.15-0.216c0.041-0.1-0.084-0.384-0.141-0.5
			c0.178,0.025,0.21-0.145,0.215-0.229c-0.301-0.024-0.517-0.12-0.631-0.265c-0.152,0.164-0.444,0.239-0.549,0.161
			c-0.106-0.076-0.125-0.376-0.016-0.572c-0.199-0.071-0.379-0.291-0.494-0.648c-0.115-0.355-0.1-0.639,0.019-0.815
			c-0.204-0.095-0.364-0.349-0.324-0.472c0.04-0.124,0.319-0.234,0.54-0.191c0.006-0.211,0.16-0.45,0.463-0.67
			c0.302-0.22,0.577-0.292,0.781-0.235c0.027-0.223,0.219-0.453,0.349-0.453c0.131,0,0.323,0.231,0.35,0.454
			c0.202-0.059,0.477,0.014,0.78,0.234c0.302,0.219,0.456,0.459,0.464,0.67c0.221-0.042,0.499,0.067,0.54,0.191
			c0.04,0.124-0.121,0.379-0.325,0.472c0.12,0.175,0.135,0.459,0.02,0.815c-0.115,0.354-0.295,0.575-0.495,0.648
			c0.11,0.196,0.09,0.496-0.015,0.572c-0.105,0.077-0.397,0.003-0.55-0.163c-0.085,0.11-0.229,0.193-0.422,0.236
			c0.032,0.045,0.075,0.081,0.122,0.081c-0.059,0.116-0.184,0.4-0.141,0.499c0.041,0.1,0.268-0.017,0.268-0.017
			c-0.101,0.18-0.253,0.621-0.264,0.871c-0.019,0.39,0.193,0.213,0.2,0.083c0.017-0.306,0.045-0.837,0.591-1.226
			C426.511,160.457,427.786,160.746,427.786,160.746z M424.73,159.017c0.149,0,0.268-0.12,0.268-0.267
			c0-0.149-0.119-0.268-0.268-0.268c-0.146,0-0.267,0.119-0.267,0.268C424.462,158.897,424.584,159.017,424.73,159.017"/>
		<path id="path203" fill="#009A66" d="M423.169,158.362c-0.085,0.044-0.236,0.005-0.34-0.095c-0.114-0.109-0.075-0.224,0.08-0.246
			c0.143-0.019,0.287,0.039,0.331,0.124C423.281,158.224,423.25,158.322,423.169,158.362"/>
		<path id="path205" fill="#009A66" d="M423.879,160.114c0.016,0.095-0.069,0.226-0.195,0.295c-0.139,0.072-0.236,0.001-0.21-0.153
			c0.026-0.141,0.126-0.262,0.22-0.277C423.784,159.966,423.865,160.026,423.879,160.114"/>
		<path id="path207" fill="#009A66" d="M425.765,159.981c0.095,0.015,0.195,0.135,0.219,0.276c0.029,0.155-0.07,0.226-0.209,0.153
			c-0.127-0.068-0.21-0.2-0.196-0.294C425.594,160.026,425.676,159.966,425.765,159.981"/>
		<path id="path209" fill="#009A66" d="M426.22,158.144c0.044-0.085,0.189-0.142,0.333-0.122c0.154,0.022,0.192,0.137,0.079,0.246
			c-0.104,0.1-0.255,0.139-0.34,0.095C426.21,158.322,426.179,158.226,426.22,158.144"/>
		<path id="path211" fill="#009A66" d="M424.615,157.146c-0.068-0.068-0.078-0.224-0.014-0.354c0.069-0.141,0.19-0.141,0.259,0
			c0.062,0.13,0.052,0.286-0.015,0.354C424.781,157.209,424.68,157.209,424.615,157.146"/>
		<path id="path213" fill="#009A66" d="M424.884,160.706c0.018,0.03,0.039,0.057,0.062,0.084c-0.076,0.181-0.097,0.301-0.097,0.379
			c0,0.067,0.016,0.105,0.024,0.125c0.026,0.062,0.075,0.107,0.136,0.135c-0.074,0.209-0.139,0.453-0.147,0.631
			c0,0.018-0.001,0.034-0.001,0.049c0,0.284,0.122,0.366,0.212,0.39c-0.129,0.146-0.201,0.334-0.201,0.524
			c0,0.079,0.012,0.16,0.037,0.238c0.04,0.121,0.188,0.214,0.334,0.271c-0.016,0.068-0.028,0.14-0.028,0.223
			c0,0.179,0.048,0.396,0.16,0.644c-0.049,0.057-0.085,0.101-0.167,0.2c-0.225-0.546-0.415-0.844-0.573-1.003
			c0.079-0.077,0.145-0.167,0.169-0.255c0.009-0.023,0.033-0.095,0.033-0.199c0-0.111-0.028-0.259-0.133-0.412
			c-0.025-0.038-0.047-0.071-0.069-0.103c0.006-0.004,0.012-0.008,0.019-0.013c0.105-0.084,0.124-0.219,0.124-0.329
			c0-0.018,0-0.034-0.001-0.05c-0.01-0.234-0.082-0.426-0.17-0.6c0.035-0.048,0.073-0.105,0.097-0.164
			c0.009-0.02,0.024-0.057,0.024-0.125c0-0.071-0.019-0.179-0.08-0.335c0.003-0.003,0.006-0.004,0.009-0.006
			c0.079-0.074,0.111-0.17,0.125-0.251C424.821,160.734,424.832,160.729,424.884,160.706"/>
		<path id="path215" fill="#009A66" d="M422.862,161.506c0.126,0.136,0.248,0.261,0.362,0.375c-0.196,0.039-0.504,0.041-0.626,0.037
			c-0.062-0.113-0.117-0.245-0.163-0.392C422.557,161.533,422.739,161.537,422.862,161.506"/>
		<path id="path217" fill="#009A66" d="M422.482,160.772c0.453,0.106,1.026,0.313,1.351,0.71c0.16,0.198,0.24,0.418,0.24,0.673
			c0,0-0.009,0.148-0.009,0.156C423.57,162.028,422.829,161.184,422.482,160.772"/>
		<path id="path219" fill="#009A66" d="M423.395,162.042c0.197,0.183,0.372,0.319,0.524,0.412c-0.043,0.003-0.085,0.006-0.085,0.006
			c-0.298,0.029-0.666,0.064-1.024-0.261c-0.025-0.024-0.05-0.05-0.075-0.08C422.931,162.118,423.229,162.104,423.395,162.042"/>
		<path id="path221" fill="#009A66" d="M422.305,160.871c0.1,0.12,0.235,0.28,0.394,0.456c-0.11,0.008-0.24,0.001-0.317-0.005
			C422.347,161.179,422.323,161.026,422.305,160.871"/>
		<path id="path223" fill="#009A66" d="M426.741,160.909c-0.026,0.11-0.073,0.319-0.073,0.479c0,0.02,0.001,0.039,0.004,0.058
			c-0.159,0.124-0.306,0.234-0.444,0.329c-0.005-0.048-0.009-0.096-0.009-0.146c0-0.251,0.054-0.519,0.082-0.646
			C426.43,160.944,426.579,160.921,426.741,160.909"/>
		<path id="path225" fill="#009A66" d="M427.304,160.921c-0.149,0.129-0.296,0.254-0.44,0.371c0.014-0.138,0.05-0.3,0.074-0.39
			C427.055,160.902,427.179,160.908,427.304,160.921"/>
		<path id="path227" fill="#009A66" d="M427.371,161.111c-0.191,0.398-0.498,0.881-0.926,1.099
			c-0.224,0.115-0.454,0.137-0.704,0.076C426.263,162.037,426.956,161.471,427.371,161.111"/>
		<path id="path229" fill="#009A66" d="M425.505,162.166c0.016-0.289,0.041-0.722,0.489-1.042c0.029-0.019,0.065-0.037,0.1-0.056
			c-0.028,0.144-0.061,0.352-0.061,0.561c0,0.091,0.008,0.18,0.023,0.264c-0.221,0.145-0.408,0.241-0.552,0.291
			C425.504,162.174,425.505,162.166,425.505,162.166"/>
		<path id="path231" fill="#BE2F37" d="M423.555,158.342c0.094-0.275,0.255-0.445,0.459-0.48c0.021-0.004,0.046-0.005,0.074-0.005
			c0.009-0.025,0.018-0.05,0.028-0.068c0.095-0.182,0.307-0.284,0.597-0.286c-0.094-0.416-0.501-0.487-0.985-0.136
			C423.245,157.718,423.188,158.126,423.555,158.342"/>
		<path id="path233" fill="#BE2F37" d="M423.665,159.218c0-0.02,0.001-0.042,0.005-0.064c0.003-0.02,0.009-0.045,0.016-0.07
			c-0.021-0.016-0.04-0.033-0.055-0.049c-0.09-0.092-0.136-0.219-0.136-0.37c0-0.087,0.016-0.184,0.047-0.285
			c-0.424-0.039-0.619,0.325-0.434,0.894c0.185,0.567,0.555,0.748,0.875,0.464C423.776,159.583,423.665,159.401,423.665,159.218"/>
		<path id="path235" fill="#BE2F37" d="M425.347,157.789c0.01,0.019,0.019,0.043,0.028,0.069c0.027-0.001,0.054,0.003,0.075,0.005
			c0.201,0.036,0.364,0.206,0.457,0.481c0.366-0.217,0.309-0.626-0.175-0.978c-0.481-0.35-0.886-0.279-0.979,0.136
			C425.041,157.508,425.252,157.609,425.347,157.789"/>
		<path id="path237" fill="#BE2F37" d="M425.92,158.384c0.03,0.1,0.046,0.195,0.046,0.281c0,0.151-0.046,0.279-0.136,0.371
			c-0.015,0.015-0.034,0.031-0.056,0.049c0.009,0.025,0.014,0.05,0.017,0.071c0.003,0.021,0.004,0.043,0.004,0.064
			c0,0.182-0.111,0.364-0.32,0.52c0.32,0.282,0.694,0.102,0.877-0.467C426.538,158.706,426.344,158.343,425.92,158.384"/>
		<path id="path239" fill="#BE2F37" d="M424.793,159.881c-0.019-0.009-0.041-0.022-0.063-0.039c-0.022,0.016-0.044,0.03-0.064,0.039
			c-0.184,0.09-0.414,0.049-0.65-0.118c-0.17,0.391,0.116,0.69,0.715,0.69c0.597,0,0.883-0.298,0.711-0.689
			C425.206,159.929,424.976,159.971,424.793,159.881"/>
		<path id="path241" fill="#BE2F37" d="M424.729,157.738c-0.394,0-0.558,0.219-0.372,0.49h-0.001
			c-0.201-0.26-0.461-0.17-0.584,0.205c-0.121,0.376,0.036,0.6,0.351,0.507h0.001c-0.31,0.111-0.306,0.386,0.014,0.619
			c0.319,0.231,0.58,0.151,0.59-0.176c0,0,0,0,0.001,0c0.01,0.327,0.272,0.409,0.593,0.176c0.319-0.231,0.322-0.505,0.014-0.616
			h0.001c0.315,0.091,0.472-0.134,0.351-0.51c-0.123-0.375-0.381-0.463-0.582-0.204l0,0
			C425.289,157.957,425.124,157.738,424.729,157.738z M424.247,158.749c0-0.266,0.217-0.482,0.483-0.482
			c0.268,0,0.482,0.216,0.482,0.482s-0.215,0.482-0.482,0.482C424.465,159.232,424.247,159.016,424.247,158.749"/>
		<path id="path243" fill="#231F20" d="M437.299,172.154c-1.815,0.195-1.285-0.669-0.745-0.864
			c-0.702-0.119-1.697-1.696-1.697-1.696s0.13,1.849-1.49,2.301c1.372,0.4,0.55,1.674-0.314,1.405
			c0.28,0.562-0.174,1.221-0.444,1.459c0,0-0.161,0.064-0.161-0.356c0-0.655-0.031-1.536,0.14-1.706
			c0.234-0.235,0.237-0.466,0.226-0.909c-0.183,0.279-0.366,0.423-0.366,0.023c0-0.369,0-0.755,0-0.81
			c0.559-0.109,1.005-0.466,1.162-0.929c0.055-0.055,0.289-0.274,0.64-0.354c-0.181-0.055-0.624-0.301-0.649-0.395
			c-0.021-0.079,0.169-0.519,0.294-0.674c-0.305,0.121-0.581,0.115-0.691,0.106c-0.082-0.069-0.173-0.13-0.27-0.181
			c0.001,0,0.002,0,0.002,0l0.554-1.841c-0.011-0.008-0.021-0.015-0.034-0.021c-0.357-0.224-0.835-0.361-1.359-0.361
			c-0.524,0-1.001,0.137-1.36,0.361c-0.011,0.006-0.023,0.015-0.034,0.022l0.555,1.844c-0.096,0.051-0.185,0.111-0.265,0.177
			c-0.111,0.009-0.386,0.014-0.689-0.106c0.109,0.134,0.323,0.6,0.284,0.666c-0.071,0.121-0.446,0.345-0.639,0.403
			c0.342,0.076,0.575,0.289,0.636,0.349c0.156,0.465,0.603,0.825,1.161,0.934c0,0.091,0,1.086,0,1.467c0,0.4-0.185,0.258-0.366-0.02
			c-0.011,0.442-0.007,0.674,0.226,0.906c0.171,0.171,0.14,0.394,0.14,1.049c0,0.42-0.161,0.356-0.161,0.356
			c-0.27-0.238-0.725-0.896-0.444-1.459c-0.864,0.269-1.686-1.005-0.314-1.405c-1.62-0.453-1.491-2.301-1.491-2.301
			s-0.994,1.577-1.696,1.696c0.54,0.195,1.07,1.059-0.745,0.864c0.41,0.25,1.08,1.19,1.026,1.72
			c0.519-0.314,1.675-0.044,1.589,1.047c0.821-0.454,2.106-0.117,2.171,1.546l0.775,0.173c0.065-1.665,1.405-2.172,2.226-1.719
			c-0.086-1.091,1.07-1.361,1.589-1.047C436.219,173.344,436.889,172.404,437.299,172.154"/>
		<path id="path245" fill="#5C3896" d="M431.464,168.481c-0.074-0.245-0.416-1.385-0.494-1.641c0.319-0.17,0.714-0.264,1.128-0.264
			c0.413,0,0.806,0.094,1.126,0.263c-0.078,0.257-0.42,1.397-0.495,1.642c-0.001,0-0.003,0-0.005,0c0.001,0,0.003,0.001,0.003,0.001
			c-0.191-0.071-0.405-0.111-0.628-0.111c-0.222,0-0.432,0.039-0.625,0.11C431.471,168.481,431.467,168.481,431.464,168.481"/>
		<path id="path247" fill="#009A66" d="M435.828,171.942c-0.008-0.034-0.011-0.067-0.011-0.1c0-0.185,0.11-0.371,0.268-0.519
			c-0.389-0.255-0.774-0.711-1.048-1.076c-0.109,0.587-0.42,1.275-1.116,1.661c0.255,0.179,0.35,0.387,0.381,0.523
			c0.015,0.06,0.021,0.12,0.021,0.181c0,0.24-0.108,0.477-0.307,0.664c-0.183,0.171-0.418,0.265-0.656,0.28
			c0.004,0.041,0.006,0.085,0.006,0.127c0,0.507-0.33,1.001-0.608,1.246l-0.029,0.025l-0.036,0.014
			c-0.07,0.029-0.18,0.034-0.279-0.034c-0.172-0.116-0.193-0.36-0.193-0.531v-0.263c-0.001-0.082-0.001-0.164-0.001-0.24
			c0-0.784,0.031-1.186,0.209-1.364c0.078-0.077,0.12-0.151,0.143-0.256c-0.036,0.003-0.074,0.001-0.114-0.01
			c-0.236-0.07-0.236-0.364-0.236-0.46c0,0,0-0.559,0-1.008c0.602-0.046,1.09-0.417,1.199-0.9c0.093-0.064,0.207-0.135,0.342-0.196
			c-0.136-0.067-0.317-0.129-0.369-0.299c-0.051-0.17,0.044-0.329,0.113-0.464c-0.14,0.03-0.266,0.045-0.376,0.051
			c-0.248-0.244-0.62-0.4-1.036-0.4c-0.415,0-0.787,0.155-1.035,0.4c-0.106-0.008-0.229-0.023-0.364-0.051
			c0.065,0.129,0.145,0.274,0.106,0.446c-0.04,0.174-0.234,0.251-0.363,0.316c0.129,0.059,0.238,0.125,0.327,0.187
			c0.105,0.486,0.598,0.864,1.208,0.91c0,0.662,0,1.664,0,1.664c0,0.096,0,0.39-0.236,0.46c-0.04,0.011-0.077,0.015-0.114,0.01
			c0.023,0.107,0.065,0.18,0.142,0.256c0.188,0.188,0.209,0.401,0.209,0.783c0,0.053,0,0.11-0.001,0.17v0.256
			c0,0.171-0.021,0.415-0.192,0.531c-0.1,0.067-0.209,0.063-0.279,0.034l-0.036-0.014l-0.029-0.025
			c-0.277-0.245-0.609-0.739-0.609-1.246c0-0.042,0.004-0.086,0.007-0.127c-0.24-0.015-0.474-0.109-0.657-0.28
			c-0.199-0.186-0.306-0.424-0.306-0.664c0-0.061,0.006-0.121,0.021-0.181c0.031-0.135,0.126-0.344,0.381-0.523
			c-0.696-0.386-1.007-1.074-1.116-1.661c-0.274,0.365-0.659,0.821-1.047,1.076c0.158,0.148,0.268,0.334,0.268,0.519
			c0,0.032-0.004,0.066-0.013,0.1c-0.065,0.286-0.361,0.44-0.876,0.463c0.279,0.331,0.539,0.772,0.627,1.155
			c0.338-0.076,0.736-0.016,1.046,0.176c0.315,0.195,0.505,0.491,0.56,0.856c0.43-0.135,0.897-0.095,1.284,0.121
			c0.507,0.287,0.816,0.842,0.885,1.572c0.12,0.026,0.205,0.044,0.364,0.079c0.093-0.726,0.439-1.304,0.979-1.607
			c0.385-0.218,0.835-0.271,1.236-0.161c0.052-0.366,0.244-0.665,0.559-0.86c0.311-0.192,0.71-0.252,1.047-0.176
			c0.087-0.383,0.349-0.824,0.628-1.155C436.19,172.382,435.894,172.228,435.828,171.942"/>
		<path id="path249" fill="#231F20" d="M435.152,170.783l-0.184,0.08c0,0,0.175,0.421,0.175,0.955c0,0.099-0.009,0.201-0.019,0.309
			c-0.038,0.391-0.324,0.919-0.324,0.912c0-0.734-0.298-1.147-0.298-1.147l-0.14,0.107c0,0,0.264,0.305,0.264,1.03
			c0,0.093-0.004,0.193-0.012,0.301c-0.315,0.365-0.752,0.666-1.248,0.936l0.085,0.18c0.523-0.235,1.205-0.851,1.205-0.851
			c0.871-0.829,1.422-0.856,1.422-0.856l-0.012-0.2c0,0-0.415,0.049-1.015,0.474c0.142-0.272,0.235-0.562,0.271-0.869
			c0.014-0.115,0.02-0.225,0.02-0.333C435.344,171.241,435.152,170.783,435.152,170.783"/>
		<path id="path251" fill="#231F20" d="M428.759,171.812c0,0.108,0.006,0.218,0.02,0.333c0.036,0.306,0.13,0.596,0.271,0.869
			c-0.6-0.425-1.015-0.474-1.015-0.474l-0.012,0.2c0,0,0.551,0.028,1.421,0.856c0,0,0.684,0.616,1.205,0.851l0.086-0.18
			c-0.495-0.27-0.932-0.571-1.249-0.936c-0.007-0.109-0.01-0.209-0.01-0.301c0-0.725,0.264-1.03,0.264-1.03l-0.141-0.107
			c0,0.001-0.298,0.414-0.298,1.147c0,0.006-0.286-0.521-0.324-0.912c-0.01-0.108-0.019-0.21-0.019-0.309
			c0-0.534,0.175-0.955,0.175-0.955l-0.184-0.08C428.95,170.783,428.759,171.241,428.759,171.812"/>
		<path id="path253" fill="#231F20" d="M433.124,170.186c0.021-0.026,0.04-0.054,0.057-0.081l-0.47-0.371l0.5-0.379
			c-0.016-0.029-0.034-0.057-0.054-0.085l-0.527,0.4l-0.453-0.357l0.525-0.399c-0.036-0.015-0.073-0.03-0.11-0.041l-0.496,0.375
			l-0.479-0.379c-0.038,0.013-0.074,0.026-0.109,0.041l0.505,0.399l-0.455,0.346l-0.505-0.399c-0.019,0.026-0.039,0.056-0.055,0.084
			l0.477,0.376l-0.474,0.359c0.016,0.03,0.035,0.056,0.055,0.084l0.5-0.378l0.453,0.358l-0.488,0.368
			c0.038,0.014,0.075,0.029,0.113,0.041l0.456-0.346l0.447,0.355c0.039-0.013,0.076-0.024,0.113-0.039l-0.477-0.377l0.455-0.345
			L433.124,170.186z M432.092,170.074l-0.453-0.356l0.455-0.345l0.453,0.357L432.092,170.074"/>
		<path id="path255" fill="#231F20" d="M438.745,156.951c-0.035,0.051-0.065,0.095-0.116,0.129
			c-0.313,0.201-0.531,0.545-0.658,1.021c-0.024,0.085-0.032,0.166-0.032,0.246c0,0.416,0.275,0.75,0.469,0.982
			c0.056,0.066,0.129,0.155,0.145,0.191v0.002c0,0.026-0.01,0.05-0.021,0.055c-0.027,0.013-0.185-0.001-0.464-0.301
			c-0.138-0.15-0.333-0.232-0.546-0.234c-0.285-0.001-0.582,0.143-0.819,0.391l-0.038,0.041c-0.07,0.074-0.176,0.186-0.236,0.231
			c-0.134,0.098-0.269,0.221-0.261,0.39c0.009,0.174,0.151,0.259,0.255,0.32c0.05,0.029,0.101,0.06,0.144,0.097
			c0.043,0.039,0.086,0.1,0.134,0.166c0.145,0.201,0.364,0.504,0.839,0.504c0.449,0,0.725-0.243,0.91-0.402
			c0.055-0.05,0.143-0.125,0.176-0.133c0.004,0,0.014,0.005,0.034,0.021l0.005,0.005c0,0.001,0.001,0.003,0.005,0.004
			c0.007,0.006,0.029,0.03,0.029,0.085c0,0.032-0.008,0.076-0.033,0.132c-0.1,0.234-0.155,0.525-0.155,0.789
			c0,0.176,0.025,0.339,0.074,0.464c0.044,0.11,0.061,0.197,0.061,0.295c0,0.086-0.015,0.18-0.039,0.303l-0.029,0.139
			c-0.035,0.158-0.07,0.32-0.07,0.475c0,0.104,0.015,0.205,0.059,0.3c0.044,0.099,0.18,0.398,0.515,0.398h0.009
			c0.334,0,0.47-0.299,0.516-0.398c0.105-0.236,0.046-0.51-0.012-0.776l-0.029-0.137c-0.053-0.263-0.059-0.394,0.021-0.597
			c0.124-0.313,0.087-0.864-0.081-1.253c-0.066-0.152-0.014-0.209-0.001-0.219l-0.004,0.002l0.012-0.01
			c0.02-0.016,0.029-0.021,0.034-0.021c0.034,0.008,0.119,0.082,0.176,0.133c0.184,0.16,0.46,0.402,0.909,0.402
			c0.475,0,0.694-0.303,0.84-0.504c0.048-0.066,0.091-0.127,0.134-0.166c0.041-0.037,0.093-0.069,0.143-0.097
			c0.105-0.061,0.246-0.146,0.255-0.32c0.009-0.169-0.126-0.292-0.261-0.39c-0.06-0.045-0.166-0.158-0.237-0.234l-0.035-0.039
			c-0.238-0.249-0.536-0.393-0.82-0.391c-0.214,0.001-0.407,0.084-0.546,0.234c-0.279,0.3-0.435,0.314-0.462,0.301
			c-0.011-0.005-0.023-0.029-0.023-0.055v-0.002c0.018-0.036,0.091-0.125,0.145-0.191c0.194-0.233,0.47-0.566,0.47-0.982
			c0-0.08-0.01-0.161-0.033-0.246c-0.125-0.476-0.346-0.82-0.659-1.021c-0.051-0.034-0.081-0.077-0.115-0.129
			c-0.056-0.081-0.149-0.219-0.341-0.219C438.894,156.732,438.8,156.869,438.745,156.951"/>
		<path id="path257" fill="#009A66" d="M439.081,163.836c-0.126,0-0.222-0.069-0.314-0.267c-0.09-0.202,0-0.495,0.057-0.779
			c0.058-0.281,0.068-0.461-0.034-0.721c-0.103-0.26-0.068-0.745,0.079-1.083c0.148-0.339-0.07-0.485-0.07-0.485
			c-0.375-0.316-0.53,0.463-1.261,0.463c-0.499,0-0.61-0.42-0.824-0.614c-0.215-0.194-0.52-0.195-0.155-0.464
			c0.089-0.065,0.22-0.209,0.305-0.297c0.341-0.362,0.795-0.424,1.04-0.16c0.603,0.647,0.903,0.316,0.868,0.053
			c-0.031-0.224-0.751-0.701-0.588-1.324c0.125-0.47,0.338-0.744,0.565-0.891c0.191-0.124,0.194-0.311,0.335-0.311
			c0.143,0,0.144,0.187,0.336,0.311c0.229,0.147,0.44,0.421,0.564,0.891c0.164,0.622-0.555,1.1-0.588,1.324
			c-0.035,0.264,0.267,0.595,0.868-0.053c0.246-0.264,0.7-0.203,1.041,0.16c0.084,0.089,0.216,0.233,0.304,0.297
			c0.366,0.269,0.061,0.27-0.154,0.464c-0.215,0.194-0.324,0.614-0.825,0.614c-0.73,0-0.885-0.779-1.263-0.463
			c0,0-0.214,0.146-0.068,0.485c0.146,0.338,0.18,0.823,0.079,1.083c-0.103,0.26-0.09,0.44-0.035,0.721
			c0.057,0.284,0.15,0.576,0.057,0.779c-0.09,0.199-0.187,0.267-0.312,0.267H439.081"/>
		<path id="path259" fill="#231F20" d="M441.25,160.192c-0.226-0.089-0.179,0.302-0.783,0.302c-0.162,0-0.311-0.038-0.418-0.1
			c0.078,0.16,0.32,0.276,0.61,0.276C441.129,160.671,441.446,160.271,441.25,160.192"/>
		<path id="path261" fill="#231F20" d="M438.205,160.161c-0.225-0.09-0.179,0.301-0.781,0.301c-0.165,0-0.311-0.038-0.419-0.099
			c0.079,0.159,0.321,0.276,0.611,0.276C438.085,160.639,438.401,160.238,438.205,160.161"/>
		<path id="path263" fill="#231F20" d="M439.305,158.907c-0.089-0.224,0.304-0.179,0.304-0.783c0-0.161-0.038-0.309-0.1-0.416
			c0.159,0.078,0.276,0.321,0.276,0.61C439.785,158.787,439.384,159.103,439.305,158.907"/>
		<path id="path265" fill="#231F20" d="M420.285,179.787c0.069-0.074,0.124-0.119,0.196-0.129c0.055-0.006,0.121-0.012,0.144-0.036
			c0.019-0.02,0.03-0.055-0.03-0.114l-0.266-0.284c-0.063-0.056-0.096-0.044-0.116-0.024c-0.021,0.021-0.024,0.091-0.029,0.144
			c-0.006,0.073-0.05,0.16-0.119,0.231l-0.926,0.973c-0.069,0.073-0.124,0.117-0.196,0.126c-0.055,0.009-0.131,0.006-0.149,0.03
			c-0.024,0.033-0.019,0.07,0.035,0.121l0.256,0.282c0.063,0.056,0.096,0.046,0.117,0.025c0.021-0.023,0.023-0.09,0.029-0.145
			c0.005-0.074,0.049-0.129,0.117-0.203L420.285,179.787"/>
		<path id="path267" fill="#231F20" d="M442.802,181.714c0.07-0.152,0.122-0.381-0.035-0.583c-0.185-0.237-0.451-0.335-0.889,0
			l-0.32,0.256c-0.066,0.053-0.06,0.088-0.041,0.111c0.019,0.025,0.071,0.036,0.128,0.036c0.055,0,0.137,0.02,0.205,0.106
			l0.844,1.08c0.062,0.081,0.101,0.143,0.1,0.218c0,0.055-0.005,0.123,0.014,0.146c0.02,0.024,0.054,0.039,0.121-0.01l0.299-0.245
			c0.385-0.296,0.389-0.645,0.166-0.93C443.174,181.618,442.917,181.671,442.802,181.714z M442.031,181.266
			c0.081-0.099,0.274-0.172,0.492,0.109c0.218,0.275,0.044,0.425-0.024,0.484c-0.02,0.018-0.044,0.03-0.062,0.041l-0.324-0.416
			C442.053,181.404,441.985,181.323,442.031,181.266z M443.141,182.634c-0.066,0.044-0.117,0.015-0.181-0.065l-0.418-0.536
			c0.021-0.015,0.044-0.035,0.069-0.058c0.076-0.062,0.304-0.144,0.523,0.135C443.341,182.379,443.245,182.564,443.141,182.634"/>
		<path id="path269" fill="#231F20" d="M419.087,179.696c0.151,0.087,0.439,0.17,0.751-0.111c0.287-0.261,0.319-0.641-0.003-0.961
			c-0.183-0.181-0.245-0.237-0.291-0.336c-0.04-0.085-0.044-0.129-0.07-0.194c-0.021-0.055-0.055-0.053-0.078-0.035
			c-0.024,0.018-0.02,0.084-0.01,0.152c0.007,0.051,0.026,0.164,0.014,0.239c-0.02,0.117-0.05,0.2-0.239,0.405
			c-0.237,0.259-0.77,0.835-0.77,0.835c-0.069,0.074-0.124,0.121-0.195,0.129c-0.053,0.01-0.12,0.014-0.141,0.036
			c-0.02,0.022-0.03,0.056,0.028,0.119l0.247,0.3c0.06,0.059,0.093,0.046,0.114,0.026c0.021-0.024,0.025-0.093,0.03-0.146
			c0.007-0.076,0.01-0.119,0.105-0.222l0.337-0.365C418.954,179.602,419.009,179.651,419.087,179.696z M419.527,178.906
			c0.07-0.074,0.149-0.139,0.18-0.113c0.071,0.058,0.199,0.243-0.084,0.554c-0.245,0.272-0.424,0.235-0.51,0.167
			c-0.031-0.026-0.054-0.057-0.07-0.085L419.527,178.906"/>
		<path id="path271" fill="#231F20" d="M436.014,186.167c-0.058-0.044-0.081-0.109-0.101-0.206l-0.279-1.304
			c-0.021-0.095-0.028-0.165,0.006-0.231c0.025-0.049,0.059-0.106,0.051-0.138c-0.006-0.027-0.029-0.054-0.112-0.036l-0.365,0.082
			c-0.082,0.021-0.093,0.055-0.086,0.084c0.005,0.03,0.061,0.067,0.104,0.101c0.058,0.044,0.081,0.11,0.102,0.206l0.278,1.304
			c0.021,0.098,0.027,0.168-0.006,0.231c-0.025,0.05-0.058,0.109-0.051,0.139c0.006,0.029,0.029,0.054,0.114,0.038l0.364-0.085
			c0.084-0.02,0.093-0.054,0.086-0.082C436.112,186.241,436.056,186.201,436.014,186.167"/>
		<path id="path273" fill="#231F20" d="M423.216,183.917l0.721-1.12c0.054-0.084,0.099-0.137,0.168-0.16
			c0.052-0.016,0.117-0.033,0.134-0.059c0.015-0.026,0.019-0.06-0.051-0.108l-0.31-0.205c-0.071-0.047-0.103-0.03-0.119-0.006
			c-0.016,0.026-0.005,0.094,0,0.148c0.009,0.074-0.024,0.136-0.078,0.221l-0.732,1.138c-0.054,0.081-0.099,0.137-0.168,0.159
			c-0.052,0.016-0.117,0.034-0.135,0.06c-0.015,0.024-0.018,0.059,0.051,0.109l0.322,0.187c0.071,0.045,0.103,0.029,0.117,0.004
			c0.017-0.024,0.008-0.091,0.001-0.148C423.131,184.064,423.162,184.001,423.216,183.917"/>
		<path id="path275" fill="#231F20" d="M444.126,181.812c-0.07-0.011-0.122-0.06-0.188-0.136l-0.876-1.034
			c-0.065-0.078-0.105-0.137-0.108-0.214c-0.004-0.055,0-0.126-0.023-0.149c-0.019-0.021-0.051-0.036-0.116,0.022l-0.276,0.254
			c-0.062,0.06-0.054,0.095-0.035,0.117c0.019,0.025,0.086,0.031,0.14,0.041c0.073,0.011,0.125,0.06,0.19,0.136l0.873,1.03
			c0.065,0.079,0.105,0.139,0.109,0.215c0.001,0.055,0,0.125,0.02,0.149c0.02,0.023,0.053,0.035,0.117-0.021l0.275-0.255
			c0.061-0.06,0.058-0.092,0.039-0.115C444.246,181.828,444.18,181.822,444.126,181.812"/>
		<path id="path277" fill="#231F20" d="M445.454,180.452c-0.076-0.006-0.132-0.05-0.202-0.124l-0.949-0.958
			c-0.071-0.074-0.116-0.132-0.124-0.208c-0.005-0.059-0.009-0.131-0.03-0.152c-0.022-0.021-0.055-0.032-0.119,0.031l-0.268,0.287
			c-0.059,0.067-0.049,0.102-0.029,0.126c0.024,0.023,0.091,0.024,0.146,0.027c0.074,0.006,0.13,0.051,0.203,0.125l0.947,0.958
			c0.073,0.073,0.116,0.13,0.124,0.209c0.004,0.056,0.009,0.129,0.03,0.151c0.021,0.021,0.056,0.03,0.118-0.034l0.267-0.286
			c0.06-0.067,0.05-0.104,0.03-0.125C445.576,180.457,445.507,180.456,445.454,180.452"/>
		<path id="path279" fill="#231F20" d="M437.056,184.271c-0.024-0.099-0.033-0.184-0.001-0.254c0.023-0.05,0.058-0.094,0.046-0.144
			c-0.008-0.027-0.031-0.053-0.113-0.03l-0.244,0.073c-0.08,0.026-0.091,0.064-0.081,0.09c0.009,0.026,0.062,0.067,0.105,0.099
			c0.059,0.041,0.081,0.124,0.106,0.22l0.204,0.833c0,0-0.245-0.343-0.583-0.713c-0.364-0.395-0.654-0.491-0.794-0.499
			c-0.105-0.008-0.23,0.021-0.23,0.078c0.001,0.055,0.012,0.024,0.13,0.069c0.115,0.045,0.22,0.106,0.367,0.25
			c0.081,0.1,0.143,0.264,0.143,0.264l0.255,1.236c0.02,0.097,0.029,0.17-0.006,0.237c-0.041,0.083-0.055,0.119-0.052,0.145
			c0.005,0.029,0.029,0.055,0.111,0.032l0.248-0.066c0.081-0.026,0.091-0.05,0.085-0.091c-0.005-0.026-0.06-0.065-0.102-0.096
			c-0.055-0.044-0.08-0.119-0.1-0.216l-0.213-1.034c0.049,0.057,0.101,0.12,0.156,0.186c0.416,0.497,0.634,0.783,0.713,0.895
			c0.079,0.114,0.136,0.212,0.22,0.164c0.044-0.027,0.024-0.114,0.004-0.202L437.056,184.271"/>
		<path id="path281" fill="#231F20" d="M422.516,181.529c0.052-0.01,0.121-0.022,0.139-0.044c0.026-0.031,0.016-0.059-0.047-0.114
			l-0.196-0.165c-0.059-0.04-0.093-0.039-0.109-0.014c-0.015,0.02-0.017,0.09-0.017,0.146c0,0.072-0.039,0.131-0.101,0.21
			l-0.539,0.659c0,0,0.131-0.409,0.229-0.91c0.099-0.506,0.016-0.843-0.056-0.964c-0.056-0.094-0.149-0.185-0.193-0.151
			c-0.044,0.034-0.01,0.025,0.02,0.151c0.023,0.094,0.027,0.206,0.015,0.347c-0.015,0.148-0.104,0.26-0.104,0.26l-0.912,1.089
			c-0.064,0.076-0.113,0.117-0.185,0.135c-0.07,0.016-0.121,0.024-0.14,0.044c-0.021,0.02-0.026,0.058,0.036,0.113l0.193,0.169
			c0.066,0.053,0.091,0.047,0.117,0.018c0.018-0.02,0.018-0.091,0.019-0.146c0.001-0.074,0.041-0.133,0.105-0.21l0.779-0.929
			c-0.024,0.11-0.051,0.23-0.084,0.363c-0.155,0.641-0.276,1.019-0.321,1.152c-0.045,0.134-0.091,0.239-0.003,0.281
			c0.046,0.023,0.102-0.045,0.163-0.114l1.009-1.235C422.394,181.594,422.445,181.544,422.516,181.529"/>
		<path id="path283" fill="#231F20" d="M435.411,186.396c-0.101-0.05-0.291-0.404-0.379-0.55c-0.049-0.081-0.084-0.167-0.106-0.229
			c0.107-0.106,0.195-0.265,0.18-0.493c-0.026-0.394-0.223-0.701-0.77-0.626l-0.365,0.045c-0.084,0.012-0.096,0.045-0.093,0.075
			c0.004,0.03,0.055,0.075,0.094,0.113c0.053,0.051,0.07,0.121,0.083,0.22l0.165,1.288c0.012,0.099,0.012,0.17-0.026,0.232
			c-0.029,0.046-0.067,0.102-0.062,0.134c0.004,0.029,0.024,0.059,0.109,0.049l0.365-0.046c0.084-0.011,0.099-0.06,0.096-0.09
			c-0.004-0.03-0.059-0.06-0.097-0.097c-0.054-0.051-0.07-0.12-0.082-0.22l-0.049-0.375c0.045-0.003,0.105-0.011,0.17-0.032
			c0.034,0.062,0.103,0.179,0.205,0.335c0.124,0.185,0.286,0.377,0.436,0.41c0.175,0.035,0.235-0.035,0.235-0.091
			C435.516,186.388,435.511,186.446,435.411,186.396z M434.448,185.628l-0.091-0.716c-0.012-0.098-0.021-0.213,0.008-0.224
			c0.085-0.03,0.342-0.03,0.403,0.41c0.054,0.39-0.116,0.506-0.203,0.522C434.53,185.627,434.484,185.628,434.448,185.628"/>
		<path id="path285" fill="#231F20" d="M429.362,184.409l-0.395-0.084c-0.084-0.014-0.105,0.014-0.111,0.043
			c-0.005,0.03,0.033,0.089,0.059,0.135c0.038,0.066,0.061,0.152,0.035,0.278l-0.2,1.271c-0.024,0.129-0.086,0.179-0.132,0.205
			c-0.046,0.027-0.094,0.076-0.099,0.106c-0.004,0.03,0.007,0.063,0.091,0.08l0.385,0.074c0.193,0.038,0.82,0.054,0.982-0.939
			C430.059,185.089,430.01,184.533,429.362,184.409z M429.622,185.453c-0.102,0.639-0.299,0.89-0.503,0.852
			c-0.073-0.012-0.093-0.034-0.081-0.111l0.225-1.386c0.026-0.156,0.068-0.195,0.126-0.187
			C429.674,184.653,429.696,184.991,429.622,185.453"/>
		<path id="path287" fill="#231F20" d="M430.821,184.581c-0.267-0.019-0.644,0.261-0.679,1.069
			c-0.031,0.721,0.196,1.108,0.546,1.119c0.331,0.011,0.629-0.307,0.662-1.095C431.384,184.908,431.131,184.603,430.821,184.581z
			 M431.001,185.722c-0.021,0.504-0.124,0.886-0.304,0.87c-0.164-0.014-0.231-0.31-0.201-0.999c0.025-0.579,0.154-0.82,0.298-0.811
			C431.031,184.797,431.022,185.218,431.001,185.722"/>
		<path id="path289" fill="#231F20" d="M432.416,186.094c-0.016,0.069-0.024,0.144-0.053,0.234
			c-0.066,0.211-0.152,0.296-0.265,0.276c-0.139-0.024-0.245-0.25-0.251-0.935c-0.006-0.574,0.103-0.82,0.229-0.82
			c0.125,0,0.168,0.251,0.21,0.43c0.017,0.071,0.03,0.141,0.102,0.126c0.024-0.004,0.063-0.026,0.056-0.114
			c-0.007-0.124,0-0.366-0.001-0.501c0-0.105-0.054-0.107-0.085-0.107c-0.038,0-0.039,0.03-0.101,0.025
			c-0.035-0.003-0.086-0.061-0.194-0.059c-0.285,0.004-0.576,0.32-0.569,1.096c0.007,0.719,0.242,1.066,0.576,1.075
			c0.377,0.009,0.46-0.491,0.469-0.665C432.548,185.983,432.44,185.992,432.416,186.094"/>
		<path id="path291" fill="#231F20" d="M433.647,184.589c-0.081,0.006-0.291,0.034-0.495,0.05c-0.169,0.014-0.332,0.015-0.416,0.021
			c-0.101,0.006-0.16,0.037-0.171,0.121c-0.012,0.085-0.019,0.34-0.019,0.401c-0.001,0.053,0.016,0.089,0.052,0.088
			c0.056-0.002,0.075-0.059,0.088-0.129c0.016-0.085,0.061-0.249,0.186-0.259c0.025-0.001,0.077-0.008,0.143-0.012l0.088,1.47
			c0.006,0.099,0.001,0.17-0.041,0.23c-0.031,0.045-0.104,0.085-0.101,0.131c0.006,0.059,0.021,0.059,0.106,0.055l0.426-0.029
			c0.084-0.009,0.099-0.041,0.097-0.069c-0.001-0.033-0.077-0.076-0.115-0.115c-0.049-0.055-0.061-0.124-0.067-0.224l-0.088-1.474
			c0.038,0.002,0.086-0.006,0.109-0.008c0.13-0.003,0.178,0.101,0.194,0.221c0.011,0.096,0.035,0.108,0.073,0.105
			c0.043-0.001,0.063-0.057,0.065-0.132c0.001-0.055,0.013-0.272,0.017-0.335C433.781,184.632,433.795,184.578,433.647,184.589"/>
		<path id="path293" fill="#231F20" d="M423.205,182.089c0.027,0.024,0.071,0.046,0.089,0.061c0.102,0.082,0.073,0.193,0.009,0.294
			c-0.053,0.079-0.043,0.105-0.013,0.125c0.035,0.026,0.088-0.002,0.136-0.06c0.038-0.041,0.184-0.198,0.229-0.244
			c0.044-0.047,0.06-0.1-0.033-0.167c-0.065-0.047-0.246-0.159-0.415-0.275c-0.139-0.099-0.32-0.241-0.39-0.29
			c-0.084-0.059-0.094-0.032-0.156,0.023c-0.063,0.056-0.231,0.25-0.271,0.294c-0.035,0.041-0.044,0.08-0.015,0.102
			c0.045,0.034,0.096,0.003,0.151-0.043c0.065-0.055,0.206-0.152,0.309-0.081c0.02,0.015,0.064,0.046,0.119,0.084l-0.893,1.252
			c-0.059,0.081-0.107,0.132-0.179,0.151c-0.054,0.012-0.144,0.011-0.162,0.036c-0.016,0.024-0.021,0.059,0.047,0.109l0.351,0.246
			c0.071,0.046,0.103,0.031,0.12,0.009c0.033-0.04,0.001-0.091-0.015-0.161c-0.016-0.07,0.03-0.133,0.09-0.213L423.205,182.089"/>
		<path id="path295" fill="#231F20" d="M441.314,183.976c-0.069-0.023-0.112-0.08-0.166-0.166l-0.798-1.286
			c0.034-0.017,0.07-0.047,0.091-0.059c0.111-0.061,0.204,0.009,0.275,0.11c0.056,0.079,0.082,0.08,0.114,0.06
			c0.036-0.021,0.026-0.081-0.009-0.15c-0.026-0.05-0.12-0.249-0.147-0.307c-0.028-0.06-0.043-0.115-0.165-0.038
			c-0.067,0.044-0.235,0.165-0.405,0.274c-0.139,0.089-0.31,0.176-0.392,0.222c-0.086,0.05-0.077,0.095-0.046,0.176
			c0.029,0.08,0.149,0.311,0.179,0.368c0.024,0.049,0.057,0.073,0.088,0.054c0.046-0.028,0.037-0.086,0.015-0.156
			c-0.029-0.082-0.071-0.251,0.035-0.316c0.019-0.014,0.064-0.041,0.116-0.076l0.798,1.286c0.052,0.088,0.085,0.152,0.076,0.225
			c-0.006,0.056-0.04,0.137-0.024,0.164c0.017,0.026,0.048,0.045,0.118,0l0.354-0.225c0.07-0.047,0.066-0.082,0.05-0.109
			C441.455,183.999,441.365,183.996,441.314,183.976"/>
		<path id="path297" fill="#231F20" d="M428.1,184.119c-0.077-0.024-0.29-0.089-0.485-0.145c-0.161-0.045-0.35-0.114-0.431-0.136
			c-0.097-0.027-0.126-0.006-0.167,0.07c-0.04,0.074-0.135,0.314-0.158,0.371c-0.02,0.051-0.015,0.089,0.019,0.101
			c0.053,0.018,0.091-0.03,0.128-0.091c0.059-0.102,0.146-0.215,0.264-0.181c0.023,0.008,0.074,0.02,0.138,0.038l-0.46,1.464
			c-0.029,0.095-0.058,0.156-0.118,0.198c-0.046,0.032-0.132,0.06-0.14,0.091c-0.01,0.026-0.003,0.061,0.078,0.086l0.41,0.12
			c0.081,0.023,0.106-0.005,0.115-0.033c0.022-0.06-0.046-0.097-0.066-0.147c-0.027-0.067-0.015-0.137,0.015-0.234l0.459-1.461
			c0.034,0.014,0.082,0.023,0.104,0.028c0.122,0.044,0.136,0.179,0.11,0.298c-0.023,0.094-0.005,0.115,0.03,0.125
			c0.04,0.011,0.08-0.032,0.108-0.104c0.021-0.051,0.108-0.251,0.134-0.31C428.211,184.206,428.242,184.158,428.1,184.119"/>
		<path id="path299" fill="#231F20" d="M446.071,179.711c-0.07-0.005-0.125-0.05-0.198-0.126l-1.069-1.11
			c0.026-0.029,0.054-0.07,0.069-0.089c0.09-0.096,0.205-0.064,0.299,0.02c0.072,0.065,0.096,0.06,0.121,0.03
			c0.028-0.035,0.005-0.094-0.045-0.155c-0.038-0.044-0.167-0.202-0.228-0.264c-0.049-0.05-0.095-0.079-0.165,0.009
			c-0.05,0.067-0.179,0.244-0.311,0.408c-0.108,0.134-0.223,0.256-0.275,0.324c-0.068,0.08-0.109,0.128-0.039,0.222
			c0.054,0.071,0.22,0.283,0.26,0.333c0.036,0.042,0.06,0.061,0.096,0.03c0.046-0.036,0.014-0.101-0.025-0.167
			c-0.046-0.078-0.129-0.243-0.046-0.342c0.015-0.02,0.05-0.063,0.09-0.115l1.07,1.113c0.074,0.075,0.117,0.132,0.129,0.214
			c0.009,0.06-0.003,0.156,0.02,0.179c0.021,0.021,0.054,0.03,0.109-0.034l0.276-0.343c0.052-0.069,0.04-0.106,0.02-0.127
			C446.21,179.694,446.125,179.717,446.071,179.711"/>
		<path id="path301" fill="#231F20" d="M420.495,181.784c-0.01-0.041-0.051-0.046-0.1-0.036c-0.061,0.012-0.13,0.027-0.229,0.019
			c-0.144-0.016-0.287-0.164-0.401-0.273c-0.048-0.044-0.023-0.096,0.009-0.131l0.538-0.593c0.046,0.047,0.107,0.104,0.154,0.149
			c0.039,0.036,0.09,0.1,0.086,0.147c-0.006,0.07-0.07,0.143-0.019,0.187c0.054,0.05,0.1-0.011,0.251-0.185
			c0.136-0.156,0.156-0.19,0.11-0.227c-0.051-0.044-0.116,0.022-0.174,0.026c-0.039,0-0.069-0.018-0.134-0.076
			c-0.035-0.032-0.113-0.107-0.158-0.15l0.366-0.404c0.026-0.029,0.078-0.097,0.166-0.03c0.044,0.044,0.097,0.089,0.143,0.138
			c0.061,0.067,0.106,0.14,0.085,0.224c-0.029,0.079-0.05,0.137-0.045,0.193c0.028,0.056,0.082,0.067,0.114,0.03
			c0.069-0.085,0.193-0.211,0.237-0.261c0.044-0.05,0.052-0.08-0.007-0.14c-0.158-0.139-0.159-0.137-0.338-0.309
			c-0.152-0.146-0.349-0.348-0.349-0.348c-0.062-0.057-0.095-0.046-0.115-0.024c-0.021,0.024-0.023,0.09-0.028,0.146
			c-0.005,0.075-0.047,0.134-0.115,0.208l-0.916,1.01c-0.093,0.09-0.155,0.119-0.226,0.129c-0.054,0.008-0.112-0.006-0.132,0.019
			c-0.02,0.021-0.029,0.056,0.03,0.115l0.315,0.301l0.313,0.299c0.139,0.134,0.25,0.094,0.431-0.014
			C420.469,181.858,420.501,181.816,420.495,181.784"/>
		<path id="path303" fill="#231F20" d="M426.809,184.193c0.043-0.098,0.095-0.273,0.123-0.333c0.024-0.055,0.019-0.093-0.059-0.126
			c-0.2-0.069-0.2-0.066-0.431-0.159c-0.199-0.077-0.459-0.192-0.459-0.192c-0.08-0.029-0.106-0.006-0.116,0.021
			c-0.011,0.03,0.014,0.093,0.03,0.145c0.024,0.07,0.006,0.14-0.029,0.234l-0.468,1.266c-0.052,0.119-0.167,0.145-0.23,0.18
			c-0.047,0.029-0.081,0.038-0.093,0.066c-0.01,0.027-0.005,0.064,0.073,0.095l0.45,0.184l0.405,0.16
			c0.18,0.07,0.277-0.009,0.425-0.196c0.089-0.095,0.066-0.13,0.049-0.155c-0.025-0.036-0.066-0.024-0.108,0.003
			c-0.051,0.036-0.111,0.076-0.206,0.102c-0.14,0.039-0.314-0.026-0.477-0.101c-0.06-0.027-0.058-0.082-0.041-0.125l0.261-0.703
			c0.061,0.023,0.14,0.055,0.2,0.079c0.05,0.018,0.118,0.04,0.136,0.084c0.026,0.059-0.015,0.139,0.05,0.162
			c0.069,0.026,0.1-0.061,0.168-0.226c0.079-0.19,0.074-0.231,0.016-0.25c-0.064-0.02-0.099,0.062-0.152,0.086
			c-0.035,0.016-0.07,0.011-0.152-0.019c-0.046-0.016-0.146-0.057-0.204-0.081l0.199-0.544c0.013-0.036,0.035-0.119,0.144-0.09
			c0.11,0.04,0.345,0.104,0.357,0.228c0.005,0.085-0.012,0.205,0.014,0.255C426.729,184.283,426.776,184.269,426.809,184.193"/>
		<path id="path305" fill="#231F20" d="M418.156,179.379c0,0,0.656-0.943,0.812-1.196c0.149-0.243,0.224-0.459,0.199-0.643
			c-0.021-0.148-0.089-0.23-0.132-0.215c-0.068,0.024-0.015,0.079-0.034,0.18c-0.008,0.047-0.031,0.126-0.075,0.221
			c-0.038,0.102-0.152,0.144-0.152,0.144l-1.288,0.599c-0.115,0.042-0.2,0.061-0.226,0.064c-0.055,0.002-0.124,0.005-0.149,0.026
			c-0.023,0.02-0.038,0.051,0.012,0.114l0.135,0.181c0.053,0.059,0.089,0.05,0.111,0.032c0.025-0.02,0.034-0.085,0.05-0.137
			c0.013-0.038,0.085-0.095,0.183-0.144l0.199-0.093l0.33,0.418c-0.084,0.124-0.141,0.205-0.141,0.205
			c-0.069,0.085-0.106,0.147-0.18,0.15c-0.055,0.003-0.131,0.011-0.155,0.032c-0.024,0.019-0.038,0.05,0.011,0.111l0.215,0.28
			c0.052,0.058,0.089,0.051,0.111,0.03c0.025-0.019,0.026-0.044,0.04-0.096C418.039,179.617,418.051,179.524,418.156,179.379z
			 M417.96,178.441l0.741-0.345c-0.119,0.176-0.314,0.46-0.47,0.689L417.96,178.441"/>
		<path id="path307" fill="#231F20" d="M438.885,185.254c-0.024-0.014-0.103-0.08-0.18-0.176c0,0-0.699-0.946-0.853-1.125
			c-0.169-0.199-0.359-0.321-0.549-0.357c-0.148-0.029-0.25,0.005-0.25,0.053c-0.001,0.069,0.085,0.052,0.161,0.09
			c0.05,0.024,0.133,0.067,0.222,0.149c0.1,0.086,0.129,0.292,0.129,0.292l0.083,1.291c0.003,0.148-0.046,0.251-0.054,0.278
			c-0.016,0.053-0.029,0.094-0.017,0.124c0.01,0.029,0.036,0.053,0.111,0.026l0.251-0.088c0.075-0.03,0.078-0.065,0.069-0.092
			c-0.011-0.031-0.07-0.06-0.114-0.093c-0.032-0.025-0.061-0.111-0.076-0.219l-0.015-0.248l0.484-0.179
			c0.087,0.118,0.146,0.198,0.146,0.198c0.059,0.091,0.102,0.147,0.083,0.216c-0.016,0.053-0.039,0.115-0.028,0.145
			c0.01,0.028,0.036,0.051,0.112,0.026l0.328-0.123c0.074-0.03,0.076-0.065,0.067-0.093
			C438.986,185.321,438.929,185.283,438.885,185.254z M437.794,184.984l-0.041-0.715c0.126,0.166,0.291,0.389,0.43,0.571
			L437.794,184.984"/>
		<path id="path309" fill="#231F20" d="M424.465,182.471c-0.054,0.043,0.017,0.098,0.039,0.18c0.016,0.056,0.053,0.186,0.039,0.291
			c-0.011,0.114-0.09,0.185-0.09,0.185l-0.959,0.966c-0.09,0.08-0.18,0.135-0.205,0.145c-0.05,0.023-0.111,0.049-0.126,0.076
			c-0.014,0.025-0.015,0.06,0.055,0.101l0.214,0.119c0.073,0.036,0.101,0.018,0.116-0.007c0.015-0.028-0.003-0.093-0.006-0.146
			c-0.004-0.041,0.041-0.117,0.111-0.198l0.173-0.172l0.461,0.254c-0.03,0.143-0.05,0.239-0.05,0.239
			c-0.03,0.104-0.042,0.173-0.109,0.202c-0.049,0.02-0.101,0.03-0.126,0.071c-0.015,0.025-0.015,0.06,0.055,0.101l0.321,0.154
			c0.071,0.038,0.101,0.018,0.115-0.008c0.016-0.027,0.015-0.05-0.003-0.146c-0.005-0.027-0.018-0.111,0.003-0.233
			c0,0,0.244-1.14,0.276-1.372c0.035-0.255,0.003-0.477-0.097-0.646C424.594,182.497,424.5,182.441,424.465,182.471z
			 M424.321,184.093l-0.374-0.205l0.525-0.525C424.43,183.568,424.37,183.859,424.321,184.093"/>
		<path id="path311" fill="#231F20" d="M442.654,183.046c-0.025-0.007-0.115-0.051-0.213-0.122c0,0-0.875-0.728-1.062-0.86
			c-0.205-0.144-0.416-0.213-0.609-0.196c-0.15,0.012-0.241,0.074-0.233,0.119c0.014,0.069,0.094,0.028,0.176,0.044
			c0.055,0.01,0.149,0.031,0.26,0.089c0.12,0.067,0.161,0.226,0.161,0.226l0.364,1.246c0.026,0.119,0.032,0.224,0.029,0.25
			c-0.004,0.056-0.02,0.109,0.007,0.15c0.016,0.024,0.045,0.04,0.114-0.006l0.21-0.137c0.065-0.05,0.061-0.085,0.047-0.109
			c-0.019-0.026-0.089-0.045-0.136-0.064c-0.038-0.015-0.075-0.056-0.121-0.19l-0.065-0.235l0.431-0.306
			c0.11,0.09,0.186,0.151,0.186,0.151c0.075,0.073,0.144,0.124,0.137,0.198c-0.005,0.054-0.014,0.121,0.004,0.147
			c0.016,0.024,0.045,0.041,0.114-0.005l0.28-0.217c0.066-0.05,0.063-0.085,0.048-0.108
			C442.767,183.082,442.705,183.062,442.654,183.046z M441.535,183.082l-0.198-0.693c0.158,0.129,0.373,0.304,0.546,0.447
			L441.535,183.082"/>
		<path id="path313" fill="#231F20" d="M444.852,180.539c-0.043,0.007-0.064,0.041-0.059,0.094c0.01,0.065,0.039,0.174,0.027,0.292
			c-0.014,0.141-0.061,0.233-0.16,0.331c-0.034,0.046-0.086,0.055-0.145-0.014l-0.937-1.085c-0.068-0.076-0.109-0.134-0.115-0.21
			c-0.004-0.058-0.005-0.128-0.026-0.151c-0.02-0.023-0.053-0.035-0.114,0.021l-0.257,0.255c-0.059,0.059-0.05,0.094-0.03,0.117
			c0.021,0.024,0.085,0.033,0.137,0.041c0.071,0.011,0.124,0.061,0.191,0.138l0.873,1.007c0.066,0.078,0.109,0.139,0.112,0.215
			c0.005,0.055,0.006,0.125,0.029,0.149c0.019,0.022,0.051,0.035,0.111-0.023l0.089-0.086l0.171-0.166l0.281-0.279
			c0.144-0.155-0.011-0.383-0.081-0.536C444.902,180.542,444.86,180.539,444.852,180.539"/>
		<path id="path315" fill="#231F20" d="M417.584,178.228c0.213-0.222,0.225-0.414,0.234-0.789c0.006-0.284-0.007-0.541,0.141-0.685
			c0.097-0.095,0.25-0.117,0.329-0.005c0.093,0.135-0.005,0.336-0.02,0.418c-0.015,0.081-0.081,0.144-0.011,0.179
			c0.052,0.029,0.08-0.009,0.136-0.071c0.056-0.063,0.184-0.201,0.25-0.286c0.032-0.039,0.069-0.1,0.032-0.131
			c-0.036-0.029-0.073,0.009-0.122-0.05c-0.05-0.059-0.1-0.155-0.151-0.214c-0.124-0.144-0.474-0.231-0.71,0.018
			c-0.231,0.244-0.195,0.481-0.193,0.846c0.004,0.357-0.062,0.464-0.156,0.56c-0.117,0.124-0.29,0.167-0.412,0.026
			c-0.123-0.141-0.066-0.317-0.028-0.403c0.05-0.109,0.199-0.266,0.109-0.309c-0.066-0.03-0.21,0.101-0.309,0.21
			c-0.099,0.115-0.256,0.237-0.211,0.31c0.036,0.06,0.1-0.004,0.155,0.06c0.059,0.069-0.008,0.12,0.17,0.325
			C416.992,178.442,417.368,178.453,417.584,178.228"/>
		<path id="path317" fill="#231F20" d="M439.729,183.703c-0.257-0.059-0.492-0.115-0.589-0.294c-0.065-0.117-0.05-0.271,0.07-0.322
			c0.144-0.061,0.302,0.08,0.372,0.112c0.07,0.034,0.096,0.091,0.161,0.053c0.048-0.03,0.009-0.081-0.035-0.15
			c-0.048-0.069-0.17-0.264-0.203-0.31c-0.029-0.04-0.076-0.09-0.111-0.061s-0.009,0.072-0.074,0.109
			c-0.064,0.036-0.164,0.062-0.228,0.1c-0.156,0.089-0.335,0.379-0.144,0.7c0.17,0.284,0.392,0.3,0.724,0.38
			c0.324,0.079,0.404,0.168,0.471,0.281c0.085,0.141,0.085,0.323-0.07,0.411c-0.156,0.087-0.316-0.019-0.395-0.063
			c-0.076-0.044-0.13-0.181-0.2-0.129c-0.082,0.061,0.05,0.22,0.094,0.299c0.041,0.08,0.158,0.313,0.23,0.279
			c0.073-0.035,0.02-0.1,0.089-0.138c0.076-0.044,0.108,0.034,0.331-0.094c0.226-0.127,0.307-0.486,0.164-0.756
			C440.245,183.843,440.008,183.766,439.729,183.703"/>
		<path id="path319" fill="#231F20" d="M447.065,178.407c-0.011,0.003-0.025-0.001-0.039-0.002
			c-0.023-0.004-0.116-0.026-0.222-0.076c0,0-0.983-0.543-1.186-0.634c-0.251-0.107-0.434-0.12-0.606-0.059
			c-0.135,0.05-0.203,0.135-0.185,0.177c0.03,0.066,0.094,0.008,0.174,0.005c0.065-0.004,0.165-0.015,0.335,0.055
			c0.07,0.026,0.154,0.162,0.154,0.162l0.645,1.221c0.064,0.129,0.082,0.222,0.087,0.251c0.009,0.056,0.021,0.128,0.044,0.15
			c0.02,0.02,0.053,0.031,0.103-0.032l0.151-0.195c0.048-0.066,0.036-0.101,0.016-0.122c-0.021-0.023-0.084-0.021-0.134-0.03
			c-0.038-0.007-0.095-0.069-0.143-0.151l-0.152-0.275l0.311-0.402c0.122,0.066,0.206,0.113,0.206,0.113
			c0.086,0.056,0.149,0.085,0.16,0.162c0.01,0.057,0.017,0.127,0.041,0.151c0.02,0.02,0.051,0.03,0.102-0.032l0.216-0.283
			C447.246,178.422,447.115,178.404,447.065,178.407z M447.15,178.503c0,0,0.026,0,0.036-0.01c0.057-0.063-0.013-0.11,0.04-0.178
			c0.055-0.073,0.117-0.05,0.241-0.216c0.151-0.2,0.127-0.597-0.101-0.811c-0.225-0.211-0.465-0.217-0.744-0.176
			c-0.257,0.035-0.495,0.064-0.641-0.085c-0.097-0.1-0.132-0.264-0.038-0.361c0.114-0.118,0.309-0.031,0.383-0.023
			c0.076,0.009,0.119,0.059,0.167-0.006c0.035-0.05-0.017-0.087-0.082-0.144c-0.062-0.054-0.24-0.21-0.284-0.245
			c-0.041-0.031-0.1-0.065-0.124-0.021c-0.024,0.041,0.014,0.077-0.035,0.141c-0.047,0.061-0.131,0.125-0.18,0.187
			c-0.119,0.15-0.191,0.518,0.086,0.78c0.25,0.231,0.461,0.166,0.794,0.125c0.329-0.041,0.431,0.02,0.531,0.114
			c0.122,0.118,0.17,0.317,0.064,0.453c-0.081,0.102-0.249,0.064-0.334,0.046c-0.085-0.016-0.179-0.137-0.228-0.057
			c-0.056,0.095,0.093,0.189,0.181,0.275c0.044,0.043,0.134,0.143,0.207,0.189C447.122,178.491,447.129,178.507,447.15,178.503z
			 M446.023,178.692l-0.349-0.645c0.175,0.094,0.406,0.219,0.597,0.321L446.023,178.692"/>
	</g>
</g>
</svg>
