<?xml version="1.0" encoding="utf-8"?>
<!-- Generator: Adobe Illustrator 16.0.0, SVG Export Plug-In . SVG Version: 6.00 Build 0)  -->
<!DOCTYPE svg PUBLIC "-//W3C//DTD SVG 1.1//EN" "http://www.w3.org/Graphics/SVG/1.1/DTD/svg11.dtd">
<svg version="1.1" id="Layer_1" xmlns="http://www.w3.org/2000/svg" xmlns:xlink="http://www.w3.org/1999/xlink" x="0px" y="0px"
	 width="32.833px" height="36.167px" viewBox="18.354 -2.375 32.833 36.167" enable-background="new 18.354 -2.375 32.833 36.167"
	 xml:space="preserve">
<g>
	
		<rect x="-389.424" y="-287.3" transform="matrix(-6.063421e-04 -1 1 -6.063421e-04 -84.1741 -82.7237)" fill="none" width="612" height="576"/>
	<g>
		
			<rect x="-389.484" y="-287.301" transform="matrix(-6.080110e-04 -1 1 -6.080110e-04 -84.2339 -82.7842)" fill="none" width="612" height="576"/>
		<polygon fill="#4F3600" points="25.927,22.667 21.059,22.67 22.551,24.013 21.061,25.476 27.392,25.472 		"/>
		<polygon fill="none" stroke="#4F3600" stroke-width="0.4" points="25.927,22.667 21.059,22.67 22.551,24.013 21.061,25.476 
			27.392,25.472 		"/>
		<polygon fill="#4F3600" points="43.616,22.654 48.482,22.651 46.994,23.996 48.484,25.458 42.154,25.462 		"/>
		<polygon fill="none" stroke="#4F3600" stroke-width="0.4" points="43.616,22.654 48.482,22.651 46.994,23.996 48.484,25.458 
			42.154,25.462 		"/>
		<polyline fill="#4F3600" points="28.198,26.616 24.974,26.618 24.975,26.218 26.397,24.348 28.188,24.347 28.198,26.616 		"/>
		<polygon fill="#FFFFFF" points="27.854,26.235 25.354,26.243 26.578,24.714 27.869,24.713 		"/>
		<polygon fill="none" stroke="#4F3600" stroke-width="0.1" points="27.854,26.235 25.354,26.243 26.578,24.714 27.869,24.713 		"/>
		<polyline fill="#4F3600" points="41.443,26.586 44.67,26.584 44.668,26.183 43.242,24.315 41.45,24.317 41.443,26.586 		"/>
		<polygon fill="#FFFFFF" points="41.788,26.204 44.289,26.209 43.062,24.682 41.771,24.682 		"/>
		<polygon fill="none" stroke="#4F3600" stroke-width="0.1" points="41.788,26.204 44.289,26.209 43.062,24.682 41.771,24.682 		"/>
		<path fill="#F5CE00" d="M23.512,10.162l22.568-0.014l0.001,2.412c0.006,8.754-4.567,16.514-11.274,19.12
			c-6.711-2.599-11.287-10.351-11.293-19.104L23.512,10.162z"/>
		<path fill="none" stroke="#4F3600" stroke-width="0.6" d="M23.512,10.162l22.568-0.014l0.001,2.412
			c0.006,8.754-4.567,16.514-11.274,19.12c-6.711-2.599-11.287-10.351-11.293-19.104L23.512,10.162z"/>
		<path fill="#FFFFFF" d="M31.769,15.009l-0.855,2.227c-0.546-0.082-1.157-0.132-1.796-0.132c-0.644,0.001-1.251,0.054-1.799,0.138
			l-0.856-2.23c-0.018-0.062-0.028-0.128-0.028-0.196c-0.001-0.396,0.322-0.719,0.72-0.72c0.175,0,0.334,0.063,0.459,0.165v-0.005
			c0.234,0.204,0.542,0.328,0.878,0.328c0.225,0,0.437-0.058,0.624-0.155c-0.001,0-0.002-0.001-0.003-0.001l0.007-0.001
			c-0.002,0.001-0.003,0.001-0.004,0.002c0.186,0.1,0.398,0.155,0.625,0.155c0.336,0,0.643-0.125,0.878-0.329v0.004
			c0.124-0.103,0.284-0.165,0.459-0.165c0.396,0,0.719,0.323,0.72,0.721C31.796,14.881,31.787,14.946,31.769,15.009z"/>
		<path fill="none" stroke="#FFFFFF" stroke-width="0.169" d="M31.769,15.009l-0.855,2.227c-0.546-0.082-1.157-0.132-1.796-0.132
			c-0.644,0.001-1.251,0.054-1.799,0.138l-0.856-2.23c-0.018-0.062-0.028-0.128-0.028-0.196c-0.001-0.396,0.322-0.719,0.72-0.72
			c0.175,0,0.334,0.063,0.459,0.165v-0.005c0.234,0.204,0.542,0.328,0.878,0.328c0.225,0,0.437-0.058,0.624-0.155
			c-0.001,0-0.002-0.001-0.003-0.001l0.007-0.001c-0.002,0.001-0.003,0.001-0.004,0.002c0.186,0.1,0.398,0.155,0.625,0.155
			c0.336,0,0.643-0.125,0.878-0.329v0.004c0.124-0.103,0.284-0.165,0.459-0.165c0.396,0,0.719,0.323,0.72,0.721
			C31.796,14.881,31.787,14.946,31.769,15.009z"/>
		<path fill="#4F3600" d="M29.231,12.277c0.245,0,0.481,0.154,0.575,0.364v-0.968c-0.094,0.21-0.325,0.359-0.57,0.359l0.001-0.002
			c0-0.244,0.152-0.476,0.362-0.57l-0.968,0.001c0.211,0.094,0.361,0.325,0.361,0.569l-0.002,0.002
			c-0.245,0-0.477-0.153-0.571-0.364v0.969c0.095-0.21,0.326-0.36,0.571-0.36c0,0.19-0.099,0.364-0.236,0.475
			c-0.145,0.11-0.248,0.287-0.247,0.483c0,0.332,0.271,0.603,0.604,0.603s0.603-0.271,0.603-0.604
			c-0.001-0.196-0.096-0.371-0.242-0.481C29.333,12.643,29.231,12.468,29.231,12.277"/>
		<path fill="none" stroke="#4F3600" stroke-width="0.048" d="M29.231,12.277c0.245,0,0.481,0.154,0.575,0.364v-0.968
			c-0.094,0.21-0.325,0.359-0.57,0.359l0.001-0.002c0-0.244,0.152-0.476,0.362-0.57l-0.968,0.001
			c0.211,0.094,0.361,0.325,0.361,0.569l-0.002,0.002c-0.245,0-0.477-0.153-0.571-0.364v0.969c0.095-0.21,0.326-0.36,0.571-0.36
			c0,0.19-0.099,0.364-0.236,0.475c-0.145,0.11-0.248,0.287-0.247,0.483c0,0.332,0.271,0.603,0.604,0.603s0.603-0.271,0.603-0.604
			c-0.001-0.196-0.096-0.371-0.242-0.481C29.333,12.643,29.231,12.468,29.231,12.277"/>
		<path fill="#4F3600" d="M31.765,15.011l-0.854,2.225c-0.547-0.082-1.158-0.13-1.797-0.13c-0.644,0.001-1.251,0.054-1.8,0.138
			l-0.855-2.23c-0.018-0.062-0.027-0.128-0.027-0.196c-0.001-0.397,0.321-0.72,0.719-0.721c0.175,0,0.335,0.062,0.459,0.165v-0.004
			c0.234,0.204,0.542,0.327,0.878,0.327c0.225-0.001,0.438-0.057,0.624-0.154c-0.001-0.001-0.002-0.001-0.003-0.002h0.007
			c-0.001,0-0.003,0.001-0.004,0.002c0.186,0.098,0.398,0.154,0.625,0.154c0.336,0,0.643-0.124,0.878-0.328v0.004
			c0.125-0.103,0.284-0.165,0.459-0.165c0.396,0,0.719,0.322,0.72,0.721C31.792,14.883,31.783,14.948,31.765,15.011z M31.067,13.752
			c-0.371-0.011-0.625,0.196-0.709,0.272c-0.345,0.318-0.888,0.318-1.246,0.019l-0.003-0.005c-0.359,0.3-0.902,0.301-1.246-0.016
			c-0.084-0.078-0.338-0.285-0.71-0.273c-0.938,0.026-1.219,1.002-1.029,1.401c0.43,0.914,0.872,2.147,0.872,2.147l0.006,0.007
			c-0.175,0.074-0.298,0.247-0.298,0.449c0,0.27,0.219,0.488,0.488,0.487c0.58-0.096,1.234-0.157,1.929-0.158
			c0.697,0,1.358,0.058,1.942,0.154c0.27,0,0.492-0.215,0.491-0.483c0-0.209-0.136-0.392-0.321-0.463c0,0,0.436-1.226,0.865-2.139
			C32.286,14.752,32.006,13.777,31.067,13.752z"/>
		<path fill="none" stroke="#4F3600" stroke-width="0.169" d="M31.765,15.011l-0.854,2.225c-0.547-0.082-1.158-0.13-1.797-0.13
			c-0.644,0.001-1.251,0.054-1.8,0.138l-0.855-2.23c-0.018-0.062-0.027-0.128-0.027-0.196c-0.001-0.397,0.321-0.72,0.719-0.721
			c0.175,0,0.335,0.062,0.459,0.165v-0.004c0.234,0.204,0.542,0.327,0.878,0.327c0.225-0.001,0.438-0.057,0.624-0.154
			c-0.001-0.001-0.002-0.001-0.003-0.002h0.007c-0.001,0-0.003,0.001-0.004,0.002c0.186,0.098,0.398,0.154,0.625,0.154
			c0.336,0,0.643-0.124,0.878-0.328v0.004c0.125-0.103,0.284-0.165,0.459-0.165c0.396,0,0.719,0.322,0.72,0.721
			C31.792,14.883,31.783,14.948,31.765,15.011z M31.067,13.752c-0.371-0.011-0.625,0.196-0.709,0.272
			c-0.345,0.318-0.888,0.318-1.246,0.019l-0.003-0.005c-0.359,0.3-0.902,0.301-1.246-0.016c-0.084-0.078-0.338-0.285-0.71-0.273
			c-0.938,0.026-1.219,1.002-1.029,1.401c0.43,0.914,0.872,2.147,0.872,2.147l0.006,0.007c-0.175,0.074-0.298,0.247-0.298,0.449
			c0,0.27,0.219,0.488,0.488,0.487c0.58-0.096,1.234-0.157,1.929-0.158c0.697,0,1.358,0.058,1.942,0.154
			c0.27,0,0.492-0.215,0.491-0.483c0-0.209-0.136-0.392-0.321-0.463c0,0,0.436-1.226,0.865-2.139
			C32.286,14.752,32.006,13.777,31.067,13.752z"/>
		<path fill="#4F3600" d="M30.372,16.014c-0.07,0.237-0.288,0.411-0.548,0.411c-0.315,0-0.572-0.256-0.572-0.571l0.002-0.22
			c0.262,0,0.49,0.164,0.591,0.388v-1.035c-0.101,0.225-0.329,0.383-0.591,0.383c0-0.264,0.146-0.51,0.37-0.61l-1.036,0.001
			c0.226,0.1,0.374,0.346,0.374,0.609l-0.003,0.001c-0.263,0-0.496-0.163-0.597-0.389v1.036c0.101-0.225,0.312-0.386,0.6-0.387
			l0.005,0.221c0,0.315-0.254,0.571-0.57,0.572c-0.259,0-0.479-0.173-0.549-0.41l-0.262,0.095c0.011,0.043,0.017,0.088,0.017,0.137
			c0.001,0.314-0.255,0.57-0.569,0.571c-0.054,0-0.105-0.007-0.154-0.021l0.124,0.304c0.011,0,0.022,0.001,0.033,0.001
			c0.381-0.001,0.703-0.251,0.812-0.596l0.01,0.004c0.147,0.123,0.336,0.199,0.544,0.199c0.296,0,0.557-0.153,0.709-0.384v0.002
			c0.152,0.23,0.414,0.383,0.711,0.383c0.207,0,0.396-0.074,0.545-0.199l0.008-0.005c0.109,0.346,0.431,0.596,0.812,0.596
			c0.012,0,0.022-0.002,0.033-0.002l0.124-0.304c-0.049,0.015-0.101,0.021-0.154,0.021c-0.315,0-0.57-0.256-0.571-0.57
			c0-0.049,0.005-0.094,0.016-0.139L30.372,16.014z"/>
		<path fill="none" stroke="#4F3600" stroke-width="0.048" d="M30.372,16.014c-0.07,0.237-0.288,0.411-0.548,0.411
			c-0.315,0-0.572-0.256-0.572-0.571l0.002-0.22c0.262,0,0.49,0.164,0.591,0.388v-1.035c-0.101,0.225-0.329,0.383-0.591,0.383
			c0-0.264,0.146-0.51,0.37-0.61l-1.036,0.001c0.226,0.1,0.374,0.346,0.374,0.609l-0.003,0.001c-0.263,0-0.496-0.163-0.597-0.389
			v1.036c0.101-0.225,0.312-0.386,0.6-0.387l0.005,0.221c0,0.315-0.254,0.571-0.57,0.572c-0.259,0-0.479-0.173-0.549-0.41
			l-0.262,0.095c0.011,0.043,0.017,0.088,0.017,0.137c0.001,0.314-0.255,0.57-0.569,0.571c-0.054,0-0.105-0.007-0.154-0.021
			l0.124,0.304c0.011,0,0.022,0.001,0.033,0.001c0.381-0.001,0.703-0.251,0.812-0.596l0.01,0.004
			c0.147,0.123,0.336,0.199,0.544,0.199c0.296,0,0.557-0.153,0.709-0.384v0.002c0.152,0.23,0.414,0.383,0.711,0.383
			c0.207,0,0.396-0.074,0.545-0.199l0.008-0.005c0.109,0.346,0.431,0.596,0.812,0.596c0.012,0,0.022-0.002,0.033-0.002l0.124-0.304
			c-0.049,0.015-0.101,0.021-0.154,0.021c-0.315,0-0.57-0.256-0.571-0.57c0-0.049,0.005-0.094,0.016-0.139L30.372,16.014z"/>
		<path fill="#FFFFFF" d="M29.55,17.627c-0.307,0.014-0.75,0.266-0.75,0.266c0.066-0.068,0.106-0.16,0.106-0.264
			c0-0.105-0.042-0.199-0.111-0.268C28.795,17.361,29.243,17.611,29.55,17.627"/>
		<path fill="#4F3600" d="M27.848,16.022c0,0-0.182-0.24,0.061-0.387c0.207-0.126,0.343,0.126,0.343,0.107
			c0.001-0.049,0.029-0.293-0.21-0.381c-0.104-0.039-0.217-0.076-0.381,0.071c-0.014,0.011-0.093-0.291-0.313-0.415l-0.005-0.002
			c-0.094,0.233,0.032,0.52,0.016,0.518c-0.221-0.012-0.286,0.09-0.344,0.184c-0.131,0.218,0.043,0.392,0.075,0.43
			c0.011,0.014-0.04-0.268,0.2-0.3c0.282-0.036,0.289,0.265,0.289,0.265L27.848,16.022z"/>
		<path fill="none" stroke="#4F3600" stroke-width="0.048" d="M27.848,16.022c0,0-0.182-0.24,0.061-0.387
			c0.207-0.126,0.343,0.126,0.343,0.107c0.001-0.049,0.029-0.293-0.21-0.381c-0.104-0.039-0.217-0.076-0.381,0.071
			c-0.014,0.011-0.093-0.291-0.313-0.415l-0.005-0.002c-0.094,0.233,0.032,0.52,0.016,0.518c-0.221-0.012-0.286,0.09-0.344,0.184
			c-0.131,0.218,0.043,0.392,0.075,0.43c0.011,0.014-0.04-0.268,0.2-0.3c0.282-0.036,0.289,0.265,0.289,0.265L27.848,16.022z"/>
		<path fill="#4F3600" d="M27.865,15.924L27.865,15.924l-0.002-0.003l-0.346,0.121c-0.049,0.017-0.074,0.07-0.057,0.119
			c0.017,0.049,0.066,0.072,0.115,0.055c0.009-0.003,0.335-0.117,0.347-0.121c0.049-0.018,0.079-0.063,0.063-0.113
			C27.968,15.933,27.914,15.907,27.865,15.924z"/>
		<path fill="none" stroke="#4F3600" stroke-width="0.048" d="M27.865,15.924L27.865,15.924l-0.002-0.003l-0.346,0.121
			c-0.049,0.017-0.074,0.07-0.057,0.119c0.017,0.049,0.066,0.072,0.115,0.055c0.009-0.003,0.335-0.117,0.347-0.121
			c0.049-0.018,0.079-0.063,0.063-0.113C27.968,15.933,27.914,15.907,27.865,15.924z"/>
		<path fill="#4F3600" d="M30.364,16.012c0,0,0.183-0.239-0.061-0.386c-0.207-0.126-0.343,0.126-0.343,0.108
			c0-0.051-0.028-0.295,0.21-0.383c0.104-0.037,0.217-0.075,0.382,0.071c0.013,0.012,0.093-0.292,0.313-0.415l0.005-0.002
			c0.094,0.233-0.032,0.519-0.016,0.519c0.221-0.013,0.287,0.088,0.344,0.182c0.132,0.218-0.043,0.391-0.074,0.43
			c-0.011,0.014,0.039-0.268-0.201-0.299c-0.281-0.036-0.289,0.266-0.289,0.266L30.364,16.012z"/>
		<path fill="none" stroke="#4F3600" stroke-width="0.048" d="M30.364,16.012c0,0,0.183-0.239-0.061-0.386
			c-0.207-0.126-0.343,0.126-0.343,0.108c0-0.051-0.028-0.295,0.21-0.383c0.104-0.037,0.217-0.075,0.382,0.071
			c0.013,0.012,0.093-0.292,0.313-0.415l0.005-0.002c0.094,0.233-0.032,0.519-0.016,0.519c0.221-0.013,0.287,0.088,0.344,0.182
			c0.132,0.218-0.043,0.391-0.074,0.43c-0.011,0.014,0.039-0.268-0.201-0.299c-0.281-0.036-0.289,0.266-0.289,0.266L30.364,16.012z"
			/>
		<path fill="#4F3600" d="M30.347,15.913L30.347,15.913l0.003-0.004l0.345,0.121c0.049,0.018,0.074,0.07,0.058,0.119
			c-0.016,0.049-0.067,0.072-0.116,0.056c-0.008-0.003-0.335-0.116-0.347-0.12c-0.049-0.017-0.079-0.063-0.063-0.113
			C30.244,15.923,30.298,15.896,30.347,15.913z"/>
		<path fill="none" stroke="#4F3600" stroke-width="0.048" d="M30.347,15.913L30.347,15.913l0.003-0.004l0.345,0.121
			c0.049,0.018,0.074,0.07,0.058,0.119c-0.016,0.049-0.067,0.072-0.116,0.056c-0.008-0.003-0.335-0.116-0.347-0.12
			c-0.049-0.017-0.079-0.063-0.063-0.113C30.244,15.923,30.298,15.896,30.347,15.913z"/>
		<path fill="#FFFFFF" d="M31.071,17.791c-0.306-0.039-0.786,0.133-0.786,0.133c0.077-0.058,0.134-0.142,0.15-0.242
			c0.02-0.103-0.007-0.204-0.062-0.282C30.374,17.399,30.771,17.724,31.071,17.791"/>
		<path fill="#FFFFFF" d="M27.978,17.64c-0.3,0.068-0.691,0.393-0.691,0.393c0.052-0.078,0.076-0.178,0.058-0.278
			c-0.018-0.103-0.076-0.188-0.156-0.244C27.188,17.51,27.673,17.679,27.978,17.64"/>
		<path fill="#4F3600" d="M40.729,18.216h-0.701c0,0,0.06-1.523,0.06-1.58c0-0.027-0.729,0.291-0.739,0.28
			c-0.347-0.406-1.091-0.562-1.07-0.577c0.129-0.104,0.332-0.399,0.326-0.425c-0.026-0.18-0.267-0.392-1.131-0.886
			c-0.041-0.023,0.639-0.286-0.078-1.172c-0.016-0.018,0.258-0.032,0.385-0.586c0.009-0.037,0.43,0.18,0.687-0.063
			c0.011-0.009,0.742,0.934,0.825,0.771c0.109-0.213-0.361-1.192-0.288-1.25c0.033-0.025,0.574,0.139,0.738-0.656
			c0.007-0.03,0.306-0.023,0.63-0.726c0.009-0.02,0.268,0.615,0.628,0.721c0.063,0.019,0.03,0.701,0.765,0.655
			c0.021,0-0.429,1.261-0.297,1.263c0.258,0.004,0.784-0.798,0.811-0.78c0.295,0.213,0.521,0.089,0.683,0.052
			c0.034-0.008,0.063,0.478,0.407,0.596c0.02,0.008-0.709,0.7-0.085,1.172c0.012,0.01-1.099,0.562-1.132,0.885
			c-0.012,0.099,0.338,0.421,0.313,0.431c-0.536,0.221-0.706,0.219-1.06,0.572c0.008-0.007-0.742-0.292-0.742-0.276
			C40.66,16.771,40.729,18.216,40.729,18.216z"/>
		<path fill="none" stroke="#4F3600" stroke-width="0.013" d="M40.729,18.216h-0.701c0,0,0.06-1.523,0.06-1.58
			c0-0.027-0.729,0.291-0.739,0.28c-0.347-0.406-1.091-0.562-1.07-0.577c0.129-0.104,0.332-0.399,0.326-0.425
			c-0.026-0.18-0.267-0.392-1.131-0.886c-0.041-0.023,0.639-0.286-0.078-1.172c-0.016-0.018,0.258-0.032,0.385-0.586
			c0.009-0.037,0.43,0.18,0.687-0.063c0.011-0.009,0.742,0.934,0.825,0.771c0.109-0.213-0.361-1.192-0.288-1.25
			c0.033-0.025,0.574,0.139,0.738-0.656c0.007-0.03,0.306-0.023,0.63-0.726c0.009-0.02,0.268,0.615,0.628,0.721
			c0.063,0.019,0.03,0.701,0.765,0.655c0.021,0-0.429,1.261-0.297,1.263c0.258,0.004,0.784-0.798,0.811-0.78
			c0.295,0.213,0.521,0.089,0.683,0.052c0.034-0.008,0.063,0.478,0.407,0.596c0.02,0.008-0.709,0.7-0.085,1.172
			c0.012,0.01-1.099,0.562-1.132,0.885c-0.012,0.099,0.338,0.421,0.313,0.431c-0.536,0.221-0.706,0.219-1.06,0.572
			c0.008-0.007-0.742-0.292-0.742-0.276C40.66,16.771,40.729,18.216,40.729,18.216z"/>
		<path fill="#FFFFFF" d="M40.479,17.953l-0.211,0.003c0,0,0.03-1.577,0.029-1.634c0-0.054-0.828,0.263-0.82,0.268
			c-0.41-0.314-0.752-0.318-0.734-0.336c0.094-0.105,0.189-0.229,0.207-0.343c0.018-0.129-0.592-0.762-1.071-0.942
			c-0.026-0.009,0.498-0.214-0.128-1.021c-0.01-0.014,0.163-0.078,0.213-0.413c0,0,0.227,0.155,0.461-0.014
			c0.029-0.02,0.732,0.979,1.057,0.773c0.264-0.166-0.062-0.881-0.174-1.346c-0.011-0.041,0.367,0.078,0.609-0.649
			c0.005-0.017,0.241-0.098,0.459-0.46c0.005-0.009,0.059,0.228,0.461,0.459c0,0,0.132,0.584,0.604,0.64
			c0.056,0.008-0.496,1.207-0.16,1.362c0.355,0.166,1.02-0.793,1.047-0.779c0.246,0.136,0.375,0.049,0.462,0.01
			c0.03-0.016-0.039,0.187,0.212,0.41c0.016,0.014-0.609,0.649-0.125,1.027c-0.027-0.021-0.923,0.502-1.066,0.924
			c-0.035,0.108,0.221,0.36,0.199,0.364c-0.168,0.031-0.482,0.13-0.727,0.331c0.007-0.006-0.824-0.302-0.824-0.269
			C40.457,16.453,40.479,17.953,40.479,17.953z"/>
		<path fill="none" stroke="#4F3600" stroke-width="0.013" d="M40.479,17.953l-0.211,0.003c0,0,0.03-1.577,0.029-1.634
			c0-0.054-0.828,0.263-0.82,0.268c-0.41-0.314-0.752-0.318-0.734-0.336c0.094-0.105,0.189-0.229,0.207-0.343
			c0.018-0.129-0.592-0.762-1.071-0.942c-0.026-0.009,0.498-0.214-0.128-1.021c-0.01-0.014,0.163-0.078,0.213-0.413
			c0,0,0.227,0.155,0.461-0.014c0.029-0.02,0.732,0.979,1.057,0.773c0.264-0.166-0.062-0.881-0.174-1.346
			c-0.011-0.041,0.367,0.078,0.609-0.649c0.005-0.017,0.241-0.098,0.459-0.46c0.005-0.009,0.059,0.228,0.461,0.459
			c0,0,0.132,0.584,0.604,0.64c0.056,0.008-0.496,1.207-0.16,1.362c0.355,0.166,1.02-0.793,1.047-0.779
			c0.246,0.136,0.375,0.049,0.462,0.01c0.03-0.016-0.039,0.187,0.212,0.41c0.016,0.014-0.609,0.649-0.125,1.027
			c-0.027-0.021-0.923,0.502-1.066,0.924c-0.035,0.108,0.221,0.36,0.199,0.364c-0.168,0.031-0.482,0.13-0.727,0.331
			c0.007-0.006-0.824-0.302-0.824-0.269C40.457,16.453,40.479,17.953,40.479,17.953z"/>
		<polygon fill="#4F3600" points="40.499,15.679 40.255,15.679 40.371,13.485 		"/>
		<polygon fill="none" stroke="#4F3600" stroke-width="0.025" points="40.499,15.679 40.255,15.679 40.371,13.485 		"/>
		<polygon fill="#4F3600" points="40.863,15.942 40.691,15.771 41.863,14.739 		"/>
		<polygon fill="none" stroke="#4F3600" stroke-width="0.025" points="40.863,15.942 40.691,15.771 41.863,14.739 		"/>
		<polygon fill="#4F3600" points="39.896,15.943 40.07,15.771 38.895,14.74 		"/>
		<polygon fill="none" stroke="#4F3600" stroke-width="0.025" points="39.896,15.943 40.07,15.771 38.895,14.74 		"/>
		<polygon fill="#4F3600" points="46.096,10.148 46.09,0.889 23.518,0.893 23.523,10.158 		"/>
		<polygon fill="none" stroke="#4F3600" stroke-width="0.6" points="46.096,10.148 46.09,0.889 23.518,0.893 23.523,10.158 		"/>
		<rect x="25.141" y="26.362" fill="#4F3600" width="19.349" height="2.812"/>
		<rect x="25.141" y="26.362" fill="none" stroke="#4F3600" stroke-width="0.4" width="19.349" height="2.812"/>
		<path fill="#FFFFFF" d="M33.124,19.811c0.207-0.005,0.402-0.065,0.533-0.159l0.002-0.004c0.135-0.088,0.322-0.144,0.53-0.144
			c0.229,0,0.435,0.243,0.572,0.349c0.138-0.105,0.347-0.346,0.575-0.347c0.208,0,0.396,0.055,0.533,0.145l0.002,0.004
			c0.131,0.094,0.316,0.152,0.523,0.158l1.812-0.005l0.002,4.596l-1.824,0.001c-0.207-0.006-0.383-0.06-0.514-0.152l-0.002-0.005
			c-0.137-0.088-0.324-0.144-0.532-0.144c-0.229,0.001-0.437,0.186-0.574,0.292c-0.138-0.106-0.343-0.295-0.573-0.295
			c-0.207,0-0.395,0.055-0.53,0.145l-0.002,0.005c-0.133,0.093-0.318,0.154-0.524,0.158l-1.816-0.001l-0.002-4.596L33.124,19.811z"
			/>
		<path fill="none" stroke="#4F3600" stroke-width="0.38" d="M33.124,19.811c0.207-0.005,0.402-0.065,0.533-0.159l0.002-0.004
			c0.135-0.088,0.322-0.144,0.53-0.144c0.229,0,0.435,0.243,0.572,0.349c0.138-0.105,0.347-0.346,0.575-0.347
			c0.208,0,0.396,0.055,0.533,0.145l0.002,0.004c0.131,0.094,0.316,0.152,0.523,0.158l1.812-0.005l0.002,4.596l-1.824,0.001
			c-0.207-0.006-0.383-0.06-0.514-0.152l-0.002-0.005c-0.137-0.088-0.324-0.144-0.532-0.144c-0.229,0.001-0.437,0.186-0.574,0.292
			c-0.138-0.106-0.343-0.295-0.573-0.295c-0.207,0-0.395,0.055-0.53,0.145l-0.002,0.005c-0.133,0.093-0.318,0.154-0.524,0.158
			l-1.816-0.001l-0.002-4.596L33.124,19.811z"/>
		<path fill="#4F3600" d="M36.387,24.779c-0.199-0.008-0.375-0.053-0.503-0.144l-0.002-0.005c-0.137-0.089-0.325-0.145-0.532-0.145
			c-0.229,0.001-0.436,0.196-0.574,0.302c-0.138-0.105-0.344-0.303-0.572-0.303c-0.208,0-0.396,0.054-0.532,0.143l-0.002,0.005
			c-0.131,0.093-0.33,0.145-0.537,0.148l-2.196,0.001l-0.003-4.553H30.55l0.003,4.938l2.579-0.001
			c0.207-0.005,0.39-0.057,0.521-0.15l0.003-0.005c0.136-0.089,0.323-0.144,0.531-0.144c0.229,0,0.436,0.197,0.573,0.304
			c0.138-0.106,0.345-0.3,0.574-0.301c0.208,0,0.396,0.055,0.532,0.143l0.002,0.006c0.131,0.092,0.312,0.141,0.519,0.146l2.59-0.002
			l-0.002-4.938h-0.384l0.003,4.553L36.387,24.779z"/>
		<path fill="none" stroke="#4F3600" stroke-width="0.048" d="M36.387,24.779c-0.199-0.008-0.375-0.053-0.503-0.144l-0.002-0.005
			c-0.137-0.089-0.325-0.145-0.532-0.145c-0.229,0.001-0.436,0.196-0.574,0.302c-0.138-0.105-0.344-0.303-0.572-0.303
			c-0.208,0-0.396,0.054-0.532,0.143l-0.002,0.005c-0.131,0.093-0.33,0.145-0.537,0.148l-2.196,0.001l-0.003-4.553H30.55
			l0.003,4.938l2.579-0.001c0.207-0.005,0.39-0.057,0.521-0.15l0.003-0.005c0.136-0.089,0.323-0.144,0.531-0.144
			c0.229,0,0.436,0.197,0.573,0.304c0.138-0.106,0.345-0.3,0.574-0.301c0.208,0,0.396,0.055,0.532,0.143l0.002,0.006
			c0.131,0.092,0.312,0.141,0.519,0.146l2.59-0.002l-0.002-4.938h-0.384l0.003,4.553L36.387,24.779z"/>
		<rect x="34.604" y="20.377" fill="#4F3600" width="0.291" height="3.388"/>
		<rect x="34.604" y="20.377" fill="none" stroke="#4F3600" stroke-width="0.048" width="0.291" height="3.388"/>
		<path fill="#F5CE00" d="M34.538,7.61c0.595,0.066,1.371,0.081,1.841,0.177c1.335,0.274,0.895,0.425,2.938,0.796
			c0.636,0.115,0.754,0.568,0.754,0.568L29.406,9.166c0.289-0.715,1.415-0.798,1.683-1.011c0.125-0.101,1.166-0.923,1.594-0.915
			C33.047,7.247,33.933,7.541,34.538,7.61z"/>
		<path fill="none" stroke="#4F3600" stroke-width="0.097" d="M34.538,7.61c0.595,0.066,1.371,0.081,1.841,0.177
			c1.335,0.274,0.895,0.425,2.938,0.796c0.636,0.115,0.754,0.568,0.754,0.568L29.406,9.166c0.289-0.715,1.415-0.798,1.683-1.011
			c0.125-0.101,1.166-0.923,1.594-0.915C33.047,7.247,33.933,7.541,34.538,7.61z"/>
		<path fill="#F5CE00" d="M33.661,7.808l-0.639,0.001c0.068-0.162,0.191-0.32,0.295-0.539c0.063-0.137,0.111-1.088,0.115-1.086
			c0.468,0.239,0.507,0.265,0.558,0.349C34.183,6.854,33.661,7.808,33.661,7.808z"/>
		<path fill="none" stroke="#4F3600" stroke-width="0.097" d="M33.661,7.808l-0.639,0.001c0.068-0.162,0.191-0.32,0.295-0.539
			c0.063-0.137,0.111-1.088,0.115-1.086c0.468,0.239,0.507,0.265,0.558,0.349C34.183,6.854,33.661,7.808,33.661,7.808z"/>
		<path fill="#F5CE00" d="M37.833,8.371c-0.007,0.024,0.192,0.024-0.681,0.024c-0.027,0,0.355-0.472,0.438-0.821
			c0.104-0.443-0.219-0.599-0.22-0.962c0-0.389-0.156-0.84-0.199-0.791C37,6.015,36.711,6.229,36.697,6.304
			c-0.033,0.187,0.021,0.615-0.061,0.694c-0.535,0.501-0.773,1.169-0.783,1.044c0.002,0.015-0.738-0.006-0.743,0
			c0.179-0.386,0.569-0.628,0.536-0.584c0.457-0.592,0.444-1.052,0.137-1.271c-0.19-0.136-0.193-0.365-0.193-0.365
			c-0.48,0.407-0.804,0.331-0.81,0.358c-0.32,1.284-0.653,1.396-0.653,1.396c-0.034,0.218-0.178,0.433-0.178,0.433
			c-0.193,0-0.591,0.009-0.591,0.009c-0.116,0.002,0.209-0.26,0.322-0.579c0.14-0.388,0.087-0.848,0.089-0.858
			c0.024-0.13-1.152-0.657-1.216-0.616c-0.577,0.382-0.637,0.309-0.74,0.335c-0.021,0.005,0.171-0.57-0.262-0.619
			c-0.186-0.021-0.125-0.687-0.193-0.728c-0.206-0.124-0.283-0.219-0.29-0.254c-0.097-0.482-0.047-0.43-0.068-0.45
			c0.019,0.017-0.183-0.232-0.172-0.374c0.021-0.273,0.338-0.682,0.542-0.887c0.156-0.155,0.586-0.284,0.831-0.386
			c0.117-0.048,0.575-0.646,0.713-0.699c0.399-0.152,0.54-0.234,1.925,0.102c0.179,0.043,0.843,0.449,0.955,0.734
			c0.016,0.033,1.348,0.438,2.357,1.235c0.65,0.513,0.375,1.357,0.806,1.249C38.986,5.216,38.943,5,39.053,4.977
			c0.143-0.033,0.28-0.002,0.612-0.201c0.092-0.055-0.104,0.695-0.253,0.709c-0.234,0.021-0.201,0-0.241,0.022
			c-0.721,0.417-0.915-0.756-0.915-0.771c0-0.047-0.177,0.263-0.156,1.004c0.021,0.777,0.209,1.463,0.199,1.484
			C38.217,7.437,37.833,8.371,37.833,8.371z"/>
		<path fill="none" stroke="#4F3600" stroke-width="0.097" d="M37.833,8.371c-0.007,0.024,0.192,0.024-0.681,0.024
			c-0.027,0,0.355-0.472,0.438-0.821c0.104-0.443-0.219-0.599-0.22-0.962c0-0.389-0.156-0.84-0.199-0.791
			C37,6.015,36.711,6.229,36.697,6.304c-0.033,0.187,0.021,0.615-0.061,0.694c-0.535,0.501-0.773,1.169-0.783,1.044
			c0.002,0.015-0.738-0.006-0.743,0c0.179-0.386,0.569-0.628,0.536-0.584c0.457-0.592,0.444-1.052,0.137-1.271
			c-0.19-0.136-0.193-0.365-0.193-0.365c-0.48,0.407-0.804,0.331-0.81,0.358c-0.32,1.284-0.653,1.396-0.653,1.396
			c-0.034,0.218-0.178,0.433-0.178,0.433c-0.193,0-0.591,0.009-0.591,0.009c-0.116,0.002,0.209-0.26,0.322-0.579
			c0.14-0.388,0.087-0.848,0.089-0.858c0.024-0.13-1.152-0.657-1.216-0.616c-0.577,0.382-0.637,0.309-0.74,0.335
			c-0.021,0.005,0.171-0.57-0.262-0.619c-0.186-0.021-0.125-0.687-0.193-0.728c-0.206-0.124-0.283-0.219-0.29-0.254
			c-0.097-0.482-0.047-0.43-0.068-0.45c0.019,0.017-0.183-0.232-0.172-0.374c0.021-0.273,0.338-0.682,0.542-0.887
			c0.156-0.155,0.586-0.284,0.831-0.386c0.117-0.048,0.575-0.646,0.713-0.699c0.399-0.152,0.54-0.234,1.925,0.102
			c0.179,0.043,0.843,0.449,0.955,0.734c0.016,0.033,1.348,0.438,2.357,1.235c0.65,0.513,0.375,1.357,0.806,1.249
			C38.986,5.216,38.943,5,39.053,4.977c0.143-0.033,0.28-0.002,0.612-0.201c0.092-0.055-0.104,0.695-0.253,0.709
			c-0.234,0.021-0.201,0-0.241,0.022c-0.721,0.417-0.915-0.756-0.915-0.771c0-0.047-0.177,0.263-0.156,1.004
			c0.021,0.777,0.209,1.463,0.199,1.484C38.217,7.437,37.833,8.371,37.833,8.371z"/>
		<path fill="#4F3600" d="M32.444,4.025c-0.101,0.112-0.363-0.032-0.372-0.186c-0.007-0.105,0.134-0.213,0.204-0.445
			c0.07-0.232-0.04-0.434-0.024-0.44C32.315,2.925,33.009,3.39,32.444,4.025z"/>
		<path fill="none" stroke="#4F3600" stroke-width="0.097" d="M32.444,4.025c-0.101,0.112-0.363-0.032-0.372-0.186
			c-0.007-0.105,0.134-0.213,0.204-0.445c0.07-0.232-0.04-0.434-0.024-0.44C32.315,2.925,33.009,3.39,32.444,4.025z"/>
		<path fill="#4F3600" d="M31.807,4.522c0.213,0.074,0.172,0.059,0.213-0.153c0.016-0.083,0.023-0.131-0.009-0.127
			c-0.026,0.003-0.346,0.073-0.446,0.376C31.551,4.657,31.774,4.51,31.807,4.522z"/>
		<path fill="none" stroke="#4F3600" stroke-width="0.097" d="M31.807,4.522c0.213,0.074,0.172,0.059,0.213-0.153
			c0.016-0.083,0.023-0.131-0.009-0.127c-0.026,0.003-0.346,0.073-0.446,0.376C31.551,4.657,31.774,4.51,31.807,4.522z"/>
		
			<path fill="none" stroke="#000000" stroke-width="0.05" stroke-linecap="round" stroke-linejoin="round" stroke-miterlimit="230" d="
			M34.752,19.335"/>
		<path fill="#FFFFFF" d="M28.802,27.421c0-0.209-0.015-0.224-0.155-0.232v-0.063l0.889-0.001c0.002,0.031,0.012,0.174,0.021,0.301
			l-0.069,0.006c-0.02-0.091-0.041-0.145-0.071-0.176c-0.031-0.033-0.096-0.044-0.209-0.044h-0.075c-0.074,0-0.077,0-0.077,0.067
			l0.001,0.396h0.141c0.166,0,0.173-0.01,0.19-0.163h0.07l0.001,0.425h-0.07c-0.019-0.154-0.025-0.162-0.191-0.162h-0.141v0.303
			c0,0.142,0.007,0.182,0.048,0.201c0.033,0.016,0.085,0.016,0.164,0.016c0.089,0,0.178-0.012,0.221-0.059
			c0.033-0.035,0.064-0.101,0.096-0.193l0.068,0.014c-0.011,0.075-0.05,0.273-0.066,0.325l-0.956,0.001v-0.062
			c0.159-0.013,0.174-0.026,0.174-0.235L28.802,27.421z"/>
		<path fill="none" stroke="#FFFFFF" stroke-width="0.025" d="M28.802,27.421c0-0.209-0.015-0.224-0.155-0.232v-0.063l0.889-0.001
			c0.002,0.031,0.012,0.174,0.021,0.301l-0.069,0.006c-0.02-0.091-0.041-0.145-0.071-0.176c-0.031-0.033-0.096-0.044-0.209-0.044
			h-0.075c-0.074,0-0.077,0-0.077,0.067l0.001,0.396h0.141c0.166,0,0.173-0.01,0.19-0.163h0.07l0.001,0.425h-0.07
			c-0.019-0.154-0.025-0.162-0.191-0.162h-0.141v0.303c0,0.142,0.007,0.182,0.048,0.201c0.033,0.016,0.085,0.016,0.164,0.016
			c0.089,0,0.178-0.012,0.221-0.059c0.033-0.035,0.064-0.101,0.096-0.193l0.068,0.014c-0.011,0.075-0.05,0.273-0.066,0.325
			l-0.956,0.001v-0.062c0.159-0.013,0.174-0.026,0.174-0.235L28.802,27.421z"/>
		<path fill="#FFFFFF" d="M30.538,28.01c0.032,0.106,0.143,0.313,0.335,0.313c0.128,0,0.198-0.096,0.198-0.205
			c0-0.133-0.07-0.195-0.218-0.26l-0.039-0.018c-0.163-0.07-0.3-0.184-0.301-0.367c0-0.207,0.161-0.379,0.43-0.379
			c0.059,0,0.12,0.008,0.179,0.027c0.03,0.009,0.06,0.017,0.083,0.025c0.007,0.068,0.021,0.156,0.04,0.272l-0.069,0.013
			c-0.039-0.113-0.097-0.251-0.261-0.251c-0.118,0-0.188,0.085-0.188,0.193c0,0.099,0.071,0.168,0.211,0.228l0.063,0.027
			c0.153,0.066,0.298,0.169,0.298,0.378c0,0.228-0.18,0.401-0.459,0.401c-0.071,0-0.144-0.012-0.195-0.03
			c-0.054-0.017-0.091-0.033-0.116-0.044c-0.016-0.051-0.038-0.184-0.06-0.301L30.538,28.01z"/>
		<path fill="none" stroke="#FFFFFF" stroke-width="0.025" d="M30.538,28.01c0.032,0.106,0.143,0.313,0.335,0.313
			c0.128,0,0.198-0.096,0.198-0.205c0-0.133-0.07-0.195-0.218-0.26l-0.039-0.018c-0.163-0.07-0.3-0.184-0.301-0.367
			c0-0.207,0.161-0.379,0.43-0.379c0.059,0,0.12,0.008,0.179,0.027c0.03,0.009,0.06,0.017,0.083,0.025
			c0.007,0.068,0.021,0.156,0.04,0.272l-0.069,0.013c-0.039-0.113-0.097-0.251-0.261-0.251c-0.118,0-0.188,0.085-0.188,0.193
			c0,0.099,0.071,0.168,0.211,0.228l0.063,0.027c0.153,0.066,0.298,0.169,0.298,0.378c0,0.228-0.18,0.401-0.459,0.401
			c-0.071,0-0.144-0.012-0.195-0.03c-0.054-0.017-0.091-0.033-0.116-0.044c-0.016-0.051-0.038-0.184-0.06-0.301L30.538,28.01z"/>
		<path fill="#FFFFFF" d="M32.813,28.084c0,0.209,0.017,0.223,0.19,0.234v0.062H32.38v-0.062c0.166-0.012,0.182-0.025,0.182-0.234
			l-0.001-0.874h-0.049c-0.156,0-0.208,0.022-0.237,0.056c-0.025,0.027-0.049,0.081-0.071,0.178h-0.07
			c0.008-0.138,0.02-0.271,0.023-0.369h0.036c0.035,0.045,0.055,0.049,0.107,0.049h0.777c0.051,0,0.071-0.012,0.106-0.049h0.037
			c0.001,0.08,0.011,0.231,0.021,0.363l-0.07,0.006c-0.02-0.104-0.04-0.158-0.071-0.189c-0.031-0.033-0.095-0.044-0.209-0.044h-0.08
			L32.813,28.084z"/>
		<path fill="none" stroke="#FFFFFF" stroke-width="0.025" d="M32.813,28.084c0,0.209,0.017,0.223,0.19,0.234v0.062H32.38v-0.062
			c0.166-0.012,0.182-0.025,0.182-0.234l-0.001-0.874h-0.049c-0.156,0-0.208,0.022-0.237,0.056
			c-0.025,0.027-0.049,0.081-0.071,0.178h-0.07c0.008-0.138,0.02-0.271,0.023-0.369h0.036c0.035,0.045,0.055,0.049,0.107,0.049
			h0.777c0.051,0,0.071-0.012,0.106-0.049h0.037c0.001,0.08,0.011,0.231,0.021,0.363l-0.07,0.006
			c-0.02-0.104-0.04-0.158-0.071-0.189c-0.031-0.033-0.095-0.044-0.209-0.044h-0.08L32.813,28.084z"/>
		<path fill="#FFFFFF" d="M33.928,28.249c0-0.087,0.064-0.15,0.147-0.15c0.085,0,0.148,0.063,0.148,0.15
			c0,0.091-0.063,0.152-0.148,0.152C33.992,28.401,33.928,28.34,33.928,28.249z"/>
		<path fill="none" stroke="#FFFFFF" stroke-width="0.025" d="M33.928,28.249c0-0.087,0.064-0.15,0.147-0.15
			c0.085,0,0.148,0.063,0.148,0.15c0,0.091-0.063,0.152-0.148,0.152C33.992,28.401,33.928,28.34,33.928,28.249z"/>
		<path fill="#FFFFFF" d="M35.221,27.248c0.138-0.023,0.273-0.059,0.428-0.1l0.001,1.037c0,0.115,0.002,0.121,0.167,0.131v0.062
			h-0.568v-0.062c0.165-0.01,0.167-0.016,0.167-0.131l-0.001-0.781c0-0.082-0.008-0.094-0.07-0.096l-0.122-0.007L35.221,27.248
			L35.221,27.248z"/>
		<path fill="none" stroke="#FFFFFF" stroke-width="0.025" d="M35.221,27.248c0.138-0.023,0.273-0.059,0.428-0.1l0.001,1.037
			c0,0.115,0.002,0.121,0.167,0.131v0.062h-0.568v-0.062c0.165-0.01,0.167-0.016,0.167-0.131l-0.001-0.781
			c0-0.082-0.008-0.094-0.07-0.096l-0.122-0.007L35.221,27.248L35.221,27.248z"/>
		<path fill="#FFFFFF" d="M37.221,27.147c-0.229,0-0.386,0.155-0.386,0.34c0,0.128,0.099,0.225,0.217,0.281
			c-0.048,0.022-0.145,0.074-0.178,0.107c-0.035,0.035-0.081,0.098-0.081,0.197c0,0.211,0.184,0.326,0.412,0.326
			c0.176,0,0.416-0.123,0.416-0.375c0-0.178-0.126-0.281-0.253-0.344c0.077-0.047,0.128-0.086,0.144-0.101
			c0.036-0.046,0.057-0.104,0.057-0.155C37.566,27.271,37.427,27.147,37.221,27.147z M37.223,28.317
			c-0.093,0-0.201-0.094-0.201-0.258c0-0.111,0.045-0.207,0.111-0.25c0.145,0.068,0.256,0.137,0.266,0.291
			C37.398,28.233,37.34,28.317,37.223,28.317z M37.195,27.229c0.072,0,0.164,0.068,0.164,0.203c0,0.118-0.045,0.178-0.069,0.205
			c-0.146-0.06-0.239-0.126-0.239-0.238C37.051,27.315,37.102,27.229,37.195,27.229z"/>
		<path fill="none" stroke="#FFFFFF" stroke-width="0.025" d="M37.221,27.147c-0.229,0-0.386,0.155-0.386,0.34
			c0,0.128,0.099,0.225,0.217,0.281c-0.048,0.022-0.145,0.074-0.178,0.107c-0.035,0.035-0.081,0.098-0.081,0.197
			c0,0.211,0.184,0.326,0.412,0.326c0.176,0,0.416-0.123,0.416-0.375c0-0.178-0.126-0.281-0.253-0.344
			c0.077-0.047,0.128-0.086,0.144-0.101c0.036-0.046,0.057-0.104,0.057-0.155C37.566,27.271,37.427,27.147,37.221,27.147z
			 M37.223,28.317c-0.093,0-0.201-0.094-0.201-0.258c0-0.111,0.045-0.207,0.111-0.25c0.145,0.068,0.256,0.137,0.266,0.291
			C37.398,28.233,37.34,28.317,37.223,28.317z M37.195,27.229c0.072,0,0.164,0.068,0.164,0.203c0,0.118-0.045,0.178-0.069,0.205
			c-0.146-0.06-0.239-0.126-0.239-0.238C37.051,27.315,37.102,27.229,37.195,27.229z"/>
		<path fill="#FFFFFF" d="M39.314,27.169l0.014,0.021c-0.188,0.396-0.363,0.789-0.521,1.187l-0.221,0.022l-0.011-0.026
			c0.204-0.336,0.392-0.677,0.55-1.011h-0.391c-0.127,0-0.135,0.011-0.178,0.121h-0.068c0.025-0.135,0.035-0.23,0.049-0.313
			L39.314,27.169L39.314,27.169z"/>
		<path fill="none" stroke="#FFFFFF" stroke-width="0.025" d="M39.314,27.169l0.014,0.021c-0.188,0.396-0.363,0.789-0.521,1.187
			l-0.221,0.022l-0.011-0.026c0.204-0.336,0.392-0.677,0.55-1.011h-0.391c-0.127,0-0.135,0.011-0.178,0.121h-0.068
			c0.025-0.135,0.035-0.23,0.049-0.313L39.314,27.169L39.314,27.169z"/>
		<path fill="#FFFFFF" d="M40.998,27.168l0.014,0.021c-0.186,0.396-0.363,0.789-0.521,1.187l-0.223,0.022l-0.011-0.026
			c0.205-0.336,0.392-0.677,0.55-1.011h-0.389c-0.127,0-0.135,0.011-0.178,0.121h-0.069c0.024-0.135,0.036-0.23,0.048-0.313
			L40.998,27.168L40.998,27.168z"/>
		<path fill="none" stroke="#FFFFFF" stroke-width="0.025" d="M40.998,27.168l0.014,0.021c-0.186,0.396-0.363,0.789-0.521,1.187
			l-0.223,0.022l-0.011-0.026c0.205-0.336,0.392-0.677,0.55-1.011h-0.389c-0.127,0-0.135,0.011-0.178,0.121h-0.069
			c0.024-0.135,0.036-0.23,0.048-0.313L40.998,27.168L40.998,27.168z"/>
	</g>
</g>
</svg>
