<?xml version="1.0" encoding="utf-8"?>
<!-- Generator: Adobe Illustrator 16.0.0, SVG Export Plug-In . SVG Version: 6.00 Build 0)  -->
<!DOCTYPE svg PUBLIC "-//W3C//DTD SVG 1.1//EN" "http://www.w3.org/Graphics/SVG/1.1/DTD/svg11.dtd">
<svg version="1.1"
	 id="svg2" xmlns:dc="http://purl.org/dc/elements/1.1/" xmlns:cc="http://creativecommons.org/ns#" xmlns:rdf="http://www.w3.org/1999/02/22-rdf-syntax-ns#" xmlns:svg="http://www.w3.org/2000/svg"
	 xmlns="http://www.w3.org/2000/svg" xmlns:xlink="http://www.w3.org/1999/xlink" x="0px" y="0px" width="139.333px"
	 height="159.333px" viewBox="11.278 -8.611 139.333 159.333" enable-background="new 11.278 -8.611 139.333 159.333"
	 xml:space="preserve">
<g id="g10" transform="matrix(1.3333333,0,0,-1.3333333,0,145.77733)">
	<g id="g12">
		<g>
			<defs>
				<rect id="SVGID_1_" x="-21.528" y="-20.472" width="166.223" height="145.777"/>
			</defs>
			<clipPath id="SVGID_2_">
				<use xlink:href="#SVGID_1_"  overflow="visible"/>
			</clipPath>
			<g id="g14" clip-path="url(#SVGID_2_)">
				<g id="g20" transform="translate(15.0744,2.8532)">
					<path id="path22" fill="#821529" d="M8.807-1.35C8.735-0.765,8.686-0.035,8.686,1.16C7.736-0.498,6.153-1.472,4.35-1.472
						c-1.559,0-2.753,0.754-3.241,2.047C0.867,1.232,0.768,2.231,0.768,4.349v4.02c0,1.266-0.097,1.778-0.365,1.998
						c-0.146,0.144-0.365,0.194-0.828,0.218h-0.439v0.537l3.776,0.243C2.791,9.101,2.766,8.515,2.766,6.835v-2.12
						c0-2.46,0.049-3.119,0.341-3.97C3.4-0.156,4.082-0.619,5.08-0.619c1.341,0,2.534,0.875,3.167,2.362
						c0.366,0.828,0.439,1.365,0.439,2.875V8.37c0,1.291-0.073,1.753-0.365,1.974c-0.147,0.146-0.39,0.218-0.828,0.242H7.054v0.537
						l3.776,0.243c-0.073-1.828-0.122-3.435-0.122-4.531V2.231c0-2.437,0.219-2.875,1.485-2.875h0.171V-1.18L8.807-1.35z"/>
				</g>
				<g id="g24" transform="translate(29.453,6.8301)">
					<path id="path26" fill="#821529" d="M5.878-2.16c0.975-1.73,2.509-2.656,4.458-2.656c1.949,0,3.484,0.926,4.458,2.656
						c0.877,1.583,1.316,3.483,1.316,5.847c0,2.363-0.439,4.263-1.316,5.846c-0.974,1.753-2.509,2.655-4.458,2.655
						c-1.949,0-3.483-0.926-4.458-2.655C5.001,7.925,4.562,6,4.562,3.687S5.001-0.528,5.878-2.16 M4.124,10.07
						c1.462,1.826,3.581,2.776,6.212,2.776c2.655,0,4.726-0.925,6.212-2.776c1.34-1.706,2.023-3.826,2.023-6.383
						c0-2.558-0.683-4.702-2.023-6.359c-1.511-1.876-3.557-2.802-6.212-2.802c-2.631,0-4.774,0.975-6.212,2.802
						c-1.34,1.705-2.022,3.825-2.022,6.359C2.102,6.244,2.761,8.339,4.124,10.07"/>
				</g>
				<g id="g28" transform="translate(52.3369,7.4116)">
					<path id="path30" fill="#821529" d="M1.216-2.278c0-1.438,0.073-2.072,0.317-2.412c0.244-0.341,0.633-0.512,1.193-0.512
						c0.537,0,0.999,0.121,1.536,0.438L4.48-5.397C3.676-5.811,2.896-6.006,2.019-6.006c-1.193,0-2.095,0.413-2.509,1.193
						C-0.758-4.325-0.831-3.79-0.831-1.987v7.893h-1.534v0.56c1.437,0.122,2.167,1.072,2.533,3.362l1.121,0.316
						C1.24,9.097,1.216,8.172,1.216,6.564h2.923V5.906H1.216V-2.278z"/>
				</g>
				<g id="g32" transform="translate(62.4224,7.4116)">
					<path id="path34" fill="#821529" d="M-0.839-2.278c0-1.438,0.073-2.072,0.317-2.412c0.244-0.341,0.634-0.512,1.193-0.512
						c0.537,0,1,0.121,1.535,0.438l0.22-0.634C1.622-5.811,0.842-6.006-0.035-6.006c-1.193,0-2.095,0.413-2.509,1.193
						C-2.812-4.325-2.886-3.79-2.886-1.987v7.893H-4.42v0.56c1.438,0.122,2.168,1.072,2.534,3.362l1.12,0.316
						c-0.049-1.047-0.073-1.972-0.073-3.58h2.923V5.906h-2.923V-2.278z"/>
				</g>
				<g id="g36" transform="translate(78.4232,11.6029)">
					<path id="path38" fill="#821529" d="M-4.099-3.132c-2.169-0.195-3.119-0.39-4.092-0.878c-1.074-0.511-1.633-1.485-1.633-2.777
						c0-1.535,0.829-2.582,2.045-2.582c1.243,0,2.511,0.731,3.12,1.779c0.389,0.68,0.56,1.705,0.56,3.312V-3.132z M-0.567-9.881
						c-0.95-0.146-2.021-0.243-2.51-0.243c-0.73,0-0.924,0.39-1.022,2.021c-0.39-0.439-0.707-0.707-1.193-1.046
						c-1.072-0.781-1.926-1.049-3.168-1.049c-1.072,0-1.876,0.244-2.484,0.755c-0.659,0.585-1.073,1.559-1.073,2.582
						c0,1.924,1.217,3.168,3.582,3.704c1.266,0.292,2.557,0.463,4.335,0.584v1.535c0,1.121-0.097,1.704-0.341,2.216
						c-0.319,0.633-1,0.951-1.998,0.951c-1.608,0-2.436-0.731-2.533-2.242C-8.995-0.624-9.045-0.794-9.238-0.94
						c-0.173-0.122-0.489-0.196-0.854-0.196c-0.829,0-1.195,0.22-1.195,0.732c0,0.876,0.634,1.753,1.657,2.338
						c0.925,0.513,2.118,0.78,3.557,0.78c1.558,0,2.679-0.365,3.264-1.072c0.487-0.609,0.708-1.413,0.708-2.753
						c0-0.072,0-0.072-0.05-2.459l-0.023-2.314l-0.025-1.121c0-1.025,0.122-1.901,0.269-2.095c0.146-0.195,0.437-0.268,1.364-0.268
						V-9.881z"/>
				</g>
				<g id="g40" transform="translate(90.5077,2.9452)">
					<path id="path42" fill="#821529" d="M-6.562-1.369h-1.266L-10.849,8.74c-0.414,1.389-0.706,1.68-1.901,1.754v0.537h5.409
						v-0.537c-1.167-0.048-1.631-0.292-1.631-0.9c0-0.196,0.073-0.562,0.218-1.072l2.193-7.65l3.215,9.842h0.999l3.094-9.842
						l2.12,7.162c0.196,0.609,0.292,1.073,0.292,1.413c0,0.416-0.244,0.732-0.682,0.878c-0.293,0.096-0.463,0.122-1.096,0.17v0.537
						h4.774v-0.537C4.816,10.42,4.353,9.958,3.767,8.083L0.82-1.369h-1.244l-3.044,9.354L-6.562-1.369z"/>
				</g>
				<g id="g44" transform="translate(116.6032,11.6029)">
					<path id="path46" fill="#821529" d="M-11.879-3.132c-2.167-0.195-3.116-0.39-4.091-0.878c-1.073-0.511-1.633-1.485-1.633-2.777
						c0-1.535,0.828-2.582,2.046-2.582c1.243,0,2.509,0.731,3.118,1.779c0.39,0.68,0.56,1.705,0.56,3.312V-3.132z M-8.345-9.881
						c-0.949-0.146-2.022-0.243-2.511-0.243c-0.729,0-0.924,0.39-1.022,2.021c-0.39-0.439-0.706-0.707-1.192-1.046
						c-1.072-0.781-1.924-1.049-3.168-1.049c-1.072,0-1.876,0.244-2.483,0.755c-0.659,0.585-1.074,1.559-1.074,2.582
						c0,1.924,1.218,3.168,3.58,3.704c1.268,0.292,2.56,0.463,4.337,0.584v1.535c0,1.121-0.095,1.704-0.341,2.216
						c-0.317,0.633-0.998,0.951-1.997,0.951c-1.608,0-2.437-0.731-2.533-2.242c-0.025-0.511-0.074-0.681-0.269-0.828
						c-0.171-0.122-0.488-0.196-0.853-0.196c-0.827,0-1.193,0.22-1.193,0.732c0,0.876,0.634,1.753,1.657,2.338
						c0.925,0.513,2.118,0.78,3.556,0.78c1.558,0,2.681-0.365,3.264-1.072C-10.1,1.033-9.88,0.229-9.88-1.112
						c0-0.072,0-0.072-0.051-2.459l-0.023-2.314l-0.024-1.121c0-1.025,0.122-1.901,0.267-2.095c0.148-0.195,0.439-0.268,1.365-0.268
						V-9.881z"/>
				</g>
				<g id="g48" transform="translate(39.1873,80.0715)">
					<path id="path50" fill="#821529" d="M-3.954-5.858l1.17-3.253c0,0,23.723,8.529,24.839,8.931
						c1.117-0.402,24.838-8.931,24.838-8.931l1.17,3.253L22.056,3.494L-3.954-5.858z M-4.858-43.672h53.834v1.902H-4.858V-43.672z
						 M-3.369-40.343h50.847v1.901H-3.369V-40.343z M4.562-13.855c0.593,0,1.074,0.482,1.074,1.079c0,0.291-0.116,0.556-0.304,0.749
						h3.862c-0.188-0.194-0.306-0.458-0.306-0.749c0-0.597,0.484-1.079,1.078-1.079c0.177,0,0.341,0.048,0.489,0.123L9.989-33.091
						H4.542l-0.47,19.359C4.22-13.807,4.386-13.855,4.562-13.855 M14.415-13.855c0.594,0,1.078,0.482,1.078,1.079
						c0,0.291-0.118,0.556-0.306,0.749h3.881c-0.188-0.194-0.304-0.458-0.304-0.749c0-0.597,0.481-1.079,1.074-1.079
						c0.175,0,0.338,0.046,0.484,0.12l-0.47-19.356h-5.449L13.93-13.734C14.076-13.808,14.239-13.855,14.415-13.855 M24.248-13.855
						c0.594,0,1.077,0.482,1.077,1.079c0,0.291-0.117,0.556-0.305,0.749h3.884c-0.188-0.194-0.307-0.458-0.307-0.749
						c0-0.597,0.482-1.079,1.077-1.079c0.179,0,0.344,0.048,0.491,0.125l-0.469-19.36h-5.432l-0.47,19.341
						C23.934-13.815,24.084-13.855,24.248-13.855 M34.12-13.855c0.595,0,1.081,0.482,1.081,1.079c0,0.291-0.117,0.556-0.308,0.749
						h3.881c-0.189-0.194-0.306-0.458-0.306-0.749c0-0.597,0.483-1.079,1.076-1.079c0.171,0,0.331,0.044,0.472,0.114l-0.471-19.35
						h-5.432l-0.472,19.355C33.788-13.809,33.948-13.855,34.12-13.855 M-1.651-33.091v-3.17h47.407v3.17H43.96l-0.475,19.369
						c0.15-0.081,0.319-0.133,0.503-0.133c0.596,0,1.08,0.482,1.08,1.079c0,0.291-0.119,0.556-0.308,0.749h0.869v1.902H-1.519
						v-1.902h0.864c-0.189-0.194-0.306-0.458-0.306-0.749c0-0.597,0.484-1.079,1.079-1.079c0.175,0,0.337,0.047,0.483,0.121
						l-0.47-19.357H-1.651z M51.081-47.7H-6.971V7.165H0.9v4.226h6.557l0.491,0.902c3.452,6.35,9.576,7.683,14.108,7.683
						c4.53,0,10.653-1.333,14.107-7.683l0.49-0.902h6.559V7.165h7.87V-47.7z M46.668,10.623v4.225h-8.042
						c-3.423,5.527-9.245,8.587-16.57,8.587c-7.326,0-13.148-3.06-16.571-8.587h-8.042v-4.225h-7.871v-61.781H54.54v61.781H46.668z"
						/>
				</g>
			</g>
		</g>
	</g>
</g>
</svg>
