<?xml version="1.0" encoding="utf-8"?>
<!-- Generator: Adobe Illustrator 16.0.0, SVG Export Plug-In . SVG Version: 6.00 Build 0)  -->
<!DOCTYPE svg PUBLIC "-//W3C//DTD SVG 1.1//EN" "http://www.w3.org/Graphics/SVG/1.1/DTD/svg11.dtd">
<svg version="1.1" id="Layer_1" xmlns="http://www.w3.org/2000/svg" xmlns:xlink="http://www.w3.org/1999/xlink" x="0px" y="0px"
	 width="104px" height="116.834px" viewBox="0 -1.167 104 116.834" enable-background="new 0 -1.167 104 116.834"
	 xml:space="preserve">
<g>
	<path fill="#008457" stroke="#000000" stroke-width="1.0678" stroke-miterlimit="2.6131" d="M12.306,12.214v48.678
		c0,0-2.038,29.59,39.793,47.293C93.93,90.482,91.891,60.892,91.891,60.892V12.214H12.306L12.306,12.214z"/>
	<path fill="none" stroke="#000000" stroke-width="0.9342" stroke-miterlimit="2.6131" d="M52.105,63.072
		c-0.222,1.729,2.677,2.139,2.677,2.139 M54.781,65.208l19.031,4.973l-0.026-17.32h1.881l0.006,19.744l-21.61-5.66 M54.062,66.945
		c-0.726,0.908-1.957,0.818-1.957,0.818s-1.233,0.09-1.959-0.818 M50.146,66.945l-21.611,5.66l0.006-19.744h1.881l-0.027,17.32
		l19.032-4.973 M49.427,65.208c0,0,2.897-0.41,2.677-2.137"/>
	<polygon points="73.842,52.847 75.673,52.855 75.673,72.605 54.045,66.941 	"/>
	<polygon points="30.367,52.847 28.535,52.855 28.535,72.605 50.163,66.941 	"/>
	<path fill="#FFD520" d="M33.92,47.427l-3.509,5.383l-0.03,17.348l19.068-4.957c0,0,2.846-0.369,2.652-2.184
		c0,0-1.373-2.008-4.479-2.188c-2.384-0.143-4.537,0.438-8.263,2.748c-5.033,3.119-5.439,1.115-5.439,1.115V47.427L33.92,47.427z"/>
	<path fill="#FFD520" d="M70.288,47.427l3.51,5.383l0.029,17.348l-19.068-4.957c0,0-2.846-0.369-2.651-2.184
		c0,0,1.372-2.008,4.479-2.188c2.385-0.143,4.537,0.438,8.263,2.748c5.033,3.119,5.439,1.115,5.439,1.115V47.427L70.288,47.427z"/>
	<path fill="none" stroke="#000000" stroke-width="0.9342" stroke-miterlimit="2.6131" d="M70.275,47.478l3.923,6.014
		 M33.932,47.478l-3.922,6.014"/>
	<path fill="#FFFFFF" stroke="#000000" stroke-width="0.9342" stroke-miterlimit="2.6131" d="M52.105,63.013
		c0,0-3.625-5.258-12.492,0.441c-5.243,3.369-5.674,1.246-5.674,1.246l-0.004-0.014V47.476c0,0,1.332,1.391,5.678-1.242
		c9.017-5.459,12.492-0.363,12.492-0.363V63.013L52.105,63.013z"/>
	<path fill="#FFFFFF" stroke="#000000" stroke-width="0.9342" stroke-miterlimit="2.6131" d="M52.104,63.013
		c0,0,3.623-5.258,12.49,0.441c5.244,3.369,5.674,1.246,5.674,1.246l0.005-0.014V47.476c0,0-1.329,1.391-5.679-1.242
		c-9.016-5.459-12.49-0.363-12.49-0.363V63.013L52.104,63.013z"/>
	<path fill="none" stroke="#000000" stroke-width="0.9342" stroke-miterlimit="2.6131" d="M70.29,64.695l3.521,5.477 M33.919,64.695
		l-3.522,5.477 M30.426,52.904l-0.031,17.271l19.032-4.975 M49.427,65.199c0,0,2.802-0.314,2.679-1.975 M73.782,52.904l0.03,17.271
		l-19.031-4.975 M54.781,65.199c0,0-2.471-0.107-2.676-1.975"/>
	<path d="M56.363,53.427c1.654-0.127,1.711,0.889,1.729,1.252c0.039,0.691-0.291,1.094-0.584,1.314
		c-0.24,0.182-0.312,0.229-0.218,0.416c0.545,1.072,0.813,1.41,1.39,1.979c0.101,0.1,0.197,0.123,0.254,0.123
		c0.069,0,0.142-0.049,0.21-0.049c0.063,0,0.105,0.045,0.105,0.105c0.002,0.242-0.459,0.418-0.74,0.422
		c-0.553,0.006-1.154-0.52-1.375-0.969l-0.6-1.082c-0.164-0.342-0.291-0.412-0.644-0.406c-0.372,0.004-0.329,0.057-0.325,0.328
		l0.012,1.111c-0.013,0.914,0.707,0.473,0.709,0.754c0.001,0.07-0.056,0.117-0.216,0.119c-0.119,0-0.388,0.055-0.696,0.117
		c-0.361,0.074-0.554,0.127-0.995,0.303c-0.071,0.029-0.224,0.025-0.225-0.131c-0.004-0.248,0.58-0.053,0.56-1.258l-0.021-2.834
		c-0.052-1.18-0.669-0.543-0.684-0.875c-0.004-0.078,0.124-0.117,0.204-0.146C54.217,54.025,55.355,53.503,56.363,53.427
		L56.363,53.427z"/>
	<path d="M60.812,58.181c-0.011,1.428,0.69,1.15,0.687,1.4c-0.002,0.084-0.069,0.133-0.225,0.082
		c-0.318-0.109-0.604-0.236-1.028-0.383c-0.285-0.1-0.573-0.178-0.819-0.232c-0.062-0.014-0.076-0.057-0.075-0.096
		c0.006-0.271,0.604,0.174,0.602-0.73l0.087-3.738c-0.01-0.656-0.543-0.377-0.537-0.648c0.004-0.133,0.172-0.104,0.23-0.086
		c0.282,0.062,0.395,0.105,0.699,0.195c0.242,0.072,0.479,0.16,0.767,0.258c0.197,0.066,0.286,0.09,0.283,0.184
		c-0.006,0.264-0.646-0.213-0.598,0.707L60.812,58.181L60.812,58.181z"/>
	<path d="M65.764,61.703c0.537,0.303,1.303,0.859,1.854,0.084c0.085-0.119,0.275-0.082,0.212,0.078
		c-0.433,1.062-0.456,1.139-1.062,0.791c-0.514-0.295-1.095-0.604-1.691-0.973c-0.209-0.129-0.473-0.26-0.914-0.539
		c-0.077-0.049-0.293-0.162-0.309-0.213c-0.112-0.436,0.665,0.453,0.668-0.771l-0.001-1.369l-1.154-0.641
		c-0.057-0.027-0.162-0.041-0.208,0.066c0,0-0.604,1.033-0.625,1.066c-0.301,0.459-0.012,0.564,0.076,0.646
		c0.148,0.133,0.187,0.229,0.141,0.279c-0.08,0.09-0.089,0.09-0.199,0.029c-0.059-0.031-0.142-0.064-0.142-0.064
		c-0.247-0.129-0.544-0.262-0.729-0.344c-0.134-0.062-0.351-0.109-0.358-0.236c-0.021-0.252,0.336,0.158,0.609-0.301l1.833-3.014
		c0.15-0.25,0.157-0.34,0.08-0.498c-0.088-0.184-0.15-0.127-0.188-0.23c-0.06-0.16,0.103-0.156,0.155-0.133
		c0.271,0.119,1.109,0.678,1.653,0.992c0.382,0.221,1.146,0.664,1.84,1.045c0.08,0.045,0.142,0.078,0.142,0.146l0.017,0.535
		c0.007,0.102,0.04,0.357-0.121,0.357c-0.329-0.002-0.001-0.779-1.539-1.441c-0.428-0.184-0.351,0.021-0.378,1.041l-0.008,0.414
		c-0.002,0.334,0.153,0.277,0.452,0.475l0.316,0.178c0.522,0.271,0.378-0.24,0.53-0.439c0.029-0.037,0.126-0.049,0.132,0.162
		l0.016,1.455c0.008,0.102,0.045,0.293-0.131,0.225c-0.158-0.062,0.204-0.443-0.644-0.922l-0.206-0.105
		c-0.171-0.096-0.471-0.264-0.49,0.053c0,0-0.041,1.363-0.029,1.449C65.373,61.158,65.466,61.535,65.764,61.703L65.764,61.703z"/>
	<path d="M54.229,46.591c-0.147,0.076-0.194,0.062-0.193,0.148c0.006,0.303,0.755-0.256,0.754,0.738l0.02,3.348
		c-0.012,0.973-0.574,0.807-0.57,1.032c0.001,0.132,0.126,0.116,0.146,0.114c0.042,0,0.571-0.23,0.871-0.287
		c0.148-0.027,0.471-0.131,0.949-0.17c0.098-0.008,0.174,0.007,0.167-0.117c-0.017-0.271-0.7,0.09-0.714-0.945l-0.025-3.395
		c-0.003-0.351,0.075-0.493,0.382-0.568c0.953-0.234,1.334,0.471,1.363,1.264c0.013,0.348-0.231,1.211-1.08,1.217
		c-0.154,0.002-0.273-0.045-0.33-0.045c-0.084,0-0.098,0.094-0.097,0.148c0,0.032,0.036,0.227,0.724,0.223
		c0.834-0.007,1.659-0.586,1.679-1.561c0.023-1.191-0.61-1.938-1.935-1.73C56.336,46.005,55.148,46.116,54.229,46.591L54.229,46.591
		z"/>
	<path d="M59.217,49.431c-0.139-0.021-0.384-0.135-0.549,0.344c-0.054,0.154-0.336,0.789-0.342,0.977
		c-0.018,0.561,0.72,0.57,0.714,0.78c-0.004,0.163-0.182,0.084-0.353,0.062c-0.26-0.037-0.46-0.055-0.684-0.084
		c-0.156-0.02-0.393-0.039-0.596-0.043c-0.101-0.002-0.21,0.01-0.208-0.093c0.005-0.179,0.374-0.104,0.561-0.536l2.002-4.466
		c0.053-0.124,0.092-0.271,0.185-0.269c0.062,0.002,0.075,0.019,0.181,0.254l2.424,5.984c0.18,0.484,0.568,0.35,0.493,0.629
		c-0.03,0.113-0.104,0.092-0.285-0.004c-0.234-0.125-0.366-0.17-0.78-0.361c-0.271-0.125-0.771-0.303-1.018-0.402
		c-0.116-0.049-0.302-0.066-0.3-0.175c0.007-0.226,0.621,0.038,0.563-0.603c-0.015-0.17-0.338-0.944-0.425-1.151
		c-0.155-0.367-0.197-0.427-0.498-0.537C60.305,49.736,59.708,49.509,59.217,49.431L59.217,49.431z"/>
	<path d="M63.851,48.845c0-0.375-0.105-0.463-0.49-0.633l-0.457-0.229c-0.704-0.292-0.511,0.596-0.824,0.596
		c-0.147,0-0.104-0.172-0.091-0.272l0.11-1.025c0.001-0.016,0-0.213,0.111-0.162c0.618,0.285,1.122,0.51,2.07,1.021
		c0.974,0.527,1.584,0.918,2.266,1.224c0.096,0.042,0.012,0.261,0.037,0.339l-0.028,0.381c-0.052,0.352-0.038,0.486-0.221,0.486
		c-0.28,0,0.085-0.795-0.827-1.214l-0.484-0.263c-0.274-0.084-0.392,0.004-0.392,0.379l-0.005,3.514
		c0,0.957,0.408,0.738,0.532,1.012c0.073,0.166,0.024,0.346-0.148,0.242c-0.209-0.121-0.337-0.205-0.738-0.445
		c-0.271-0.162-0.566-0.338-0.888-0.521c-0.183-0.104-0.414-0.191-0.414-0.291c0-0.441,0.88,0.514,0.88-0.799L63.851,48.845
		L63.851,48.845z"/>
	<path d="M66.4,52.775c0.622,0.396,1.044,0.545,1.044,0.545c0.173,0.066,0.354,0.154,0.411,0.018
		c0.024-0.225,0.024-0.225,0.036-0.402c0.015-0.189-0.104-0.238-0.104-0.238c-0.028-0.027-0.093-0.055-0.188-0.1
		c0,0-0.617-0.238-1.022-0.525c-0.174-0.135-0.326-0.264-0.369-0.037l-0.015,0.443C66.191,52.476,66.136,52.658,66.4,52.775
		L66.4,52.775z"/>
	<path fill="#FFFFFF" d="M55.552,55.787c0.002,0.193,0.152,0.312,0.362,0.293c1.008-0.086,1.245-0.611,1.275-1.117
		c0.059-0.904-0.354-1.221-1.13-1.109c-0.563,0.08-0.519,0.25-0.515,0.717L55.552,55.787L55.552,55.787z"/>
	<path fill="#FFFFFF" d="M64.552,56.382c0-0.07,0.005-0.135-0.049-0.156c-0.176-0.062-0.396,0.373-0.459,0.488l-0.524,0.885
		c-0.042,0.078,0.103,0.15,0.261,0.24l0.756,0.424L64.552,56.382L64.552,56.382z"/>
	<path fill="#FFFFFF" d="M60.034,49.253c0.147,0.049,0.355,0.129,0.329-0.021c-0.021-0.106-0.041-0.115-0.074-0.209l-0.535-1.425
		c-0.041-0.063-0.02-0.063-0.055-0.064c-0.017,0-0.042,0.008-0.08,0.092l-0.45,1.066c-0.037,0.092-0.082,0.177-0.085,0.285
		c-0.002,0.078,0.104,0.06,0.278,0.094C59.362,49.072,59.695,49.142,60.034,49.253L60.034,49.253z"/>
	<path d="M36.051,50.972c0-0.795-0.75-0.539-0.75-0.826c0-0.078,0.077-0.125,0.126-0.125c0.134,0,0.353,0.037,1.019-0.108
		c0.471-0.103,1.041-0.434,1.367-0.589c1.375-0.656,2.812,0.268,2.668,2.702c-0.093,1.552-1.881,2.528-2.608,2.978
		c-0.414,0.256-1.029,0.619-1.44,0.807c-0.279,0.127-0.404,0.217-0.628,0.309c-0.147,0.059-0.28,0.029-0.28-0.109
		c0-0.297,0.551-0.158,0.527-0.943V50.972L36.051,50.972z"/>
	<path d="M42.229,49.105c-0.015,0.258,0.045,0.283,0.271,0.229l0.492-0.156c0.783-0.207,0.647-0.812,0.787-0.812
		c0.05,0,0.127-0.016,0.133,0.195l0.004,1.488c0.007,0.102,0.048,0.381-0.12,0.381c-0.226,0-0.026-0.825-0.755-0.828l-0.498,0.152
		c-0.362,0.1-0.314,0.278-0.316,0.729l-0.003,1.099c-0.001,0.483,0.333,0.451,0.78,0.324c1.354-0.385,1.473-1.305,1.74-1.303
		c0.027,0,0.076,0.023,0.076,0.171c-0.002,0.608-0.192,1.043-0.805,1.192c-1.02,0.25-1.785,0.682-2.095,0.814
		c-0.304,0.133-0.597,0.307-0.961,0.475c-0.083,0.037-0.167-0.1-0.167-0.146c0-0.357,0.568,0.02,0.568-1.207l0.009-3.662
		c-0.003-0.572-0.792,0.003-0.791-0.309c0-0.069,0.125-0.125,0.214-0.166c0.35-0.161,0.871-0.428,1.855-0.799
		c0.467-0.174,1.076-0.451,1.553-0.547c0.089-0.02,0.16,0.104,0.16,0.172l0.026,0.771c0.007,0.102,0.042,0.357-0.12,0.357
		c-0.33,0,0.139-1.01-1.082-0.608c-1.082,0.354-0.921,0.394-0.955,1.603L42.229,49.105L42.229,49.105z"/>
	<path d="M47.956,45.886c1.353,0.195,2.396,1.187,2.341,2.836c-0.036,1.09-0.51,2.969-2.796,2.894
		c-1.409-0.046-2.276-1.229-2.251-2.812C45.288,46.528,46.541,45.679,47.956,45.886L47.956,45.886z"/>
	<path d="M40.369,57.085c0.001,0.336-0.002,0.686,0.307,0.576l0.62-0.328c0.745-0.359,0.53-0.773,0.651-0.842
		c0.123-0.068,0.147-0.023,0.156,0.186l-0.002,1.287c0.006,0.1,0.049,0.381-0.119,0.381c-0.225,0.002,0.045-0.854-0.606-0.604
		l-0.511,0.271c-0.361,0.256-0.488,0.109-0.487,0.564l0.002,1.43c0.001,0.475,0.489,0.146,0.919-0.062
		c1.33-0.643,1.205-1.287,1.43-1.287c0.028,0,0.11,0.023,0.112,0.172c0.009,0.734-0.126,0.922-0.735,1.15
		c-0.715,0.27-1.566,0.812-2.064,1.082c-0.191,0.105-0.426,0.266-0.784,0.486c-0.041,0.025-0.271-0.053-0.116-0.279
		c0.077-0.113,0.467-0.088,0.379-1.076l-0.011-2.934c-0.003-1.178-0.688-0.451-0.776-0.688c-0.049-0.125,0.051-0.158,0.137-0.209
		c0.326-0.188,1-0.637,1.826-1.068c0.537-0.281,1.164-0.586,1.621-0.77c0.084-0.033,0.156,0.111,0.157,0.184l0.03,0.83
		c0.007,0.102,0.043,0.357-0.118,0.357c-0.33,0,0.068-1.156-1.288-0.471c-0.728,0.369-0.686,0.402-0.729,0.918V57.085L40.369,57.085
		z"/>
	<path fill="#FFFFFF" d="M36.912,53.927c0,0.514-0.178,1.219,0.792,0.736c0.969-0.48,1.655-1.264,1.771-2.49
		c0.069-0.736-0.232-2.646-1.943-2.252c-0.627,0.146-0.651,0.534-0.618,0.823L36.912,53.927L36.912,53.927z"/>
	<path fill="#FFFFFF" d="M47.697,51.304c1.207,0.017,1.668-0.979,1.711-2.272c0.057-1.72-0.77-2.804-1.674-2.817
		c-1.185-0.016-1.57,1.047-1.607,2.176C46.089,49.526,46.443,51.286,47.697,51.304L47.697,51.304z"/>
	<path d="M43.32,54.125c-0.098,0.041-0.102,0.123-0.107,0.201l-0.086,0.973c-0.014,0.102-0.055,0.271,0.092,0.271
		c0.316,0,0.062-1.064,1.008-1.275l0.5-0.133c0.197-0.01,0.314,0.084,0.316,0.457l0.016,3.395c0.004,0.928-0.857,0.68-0.857,0.982
		c0,0.172,0.123,0.188,0.246,0.164c0.328-0.066,0.572-0.152,1.037-0.215c0.451-0.061,0.719-0.1,1-0.102c0.203,0,0.338,0,0.338-0.188
		c-0.002-0.219-0.897,0.217-0.902-0.742l-0.016-3.232c-0.023-0.484,0.078-0.797,0.406-0.795l0.562-0.033
		c0.878,0.107,0.594,0.98,0.875,0.979c0.182,0,0.104-0.307,0.089-0.398l-0.104-0.768c-0.009-0.076-0.009-0.221-0.113-0.229
		C47.619,53.437,45.588,53.185,43.32,54.125L43.32,54.125z"/>
	<path fill="#FFD520" d="M32.182,18.077c-0.628,0.034-0.406-3.142-0.406-3.142l-0.799,0.051c0,0-0.013,2.76,0.109,3.523
		c0.105,0.658,0.374,0.748,0.374,0.748s0.717,0.125,0.68,0.866c-0.017,0.339-0.653,0.39-1.138-0.026s-0.543-1.026-0.543-1.026
		c-0.264-1.019-0.285-3.97-0.285-3.97c-0.23,0.022-0.712,0.15-0.712,0.15s0.367,4.436,0.599,6.324
		c0.271,2.225,0.524,2.914,1.702,3.161c0,0,0.257,2.86,0.017,4.953h0.809c-0.242-2.093,0.016-4.953,0.016-4.953
		c1.178-0.247,1.432-0.937,1.703-3.161c0.23-1.889,0.6-6.324,0.6-6.324s-0.481-0.128-0.713-0.15c0,0-0.014,2.144-0.276,3.162
		c0,0-0.06,0.612-0.543,1.028c-0.484,0.416-1.122,0.365-1.138,0.026c-0.037-0.742,0.679-0.867,0.679-0.867s0.268-0.089,0.374-0.747
		c0.123-0.765,0.102-2.718,0.102-2.718l-0.798-0.051C32.589,14.935,32.811,18.042,32.182,18.077L32.182,18.077z"/>
	<path fill="#FFD520" d="M25.324,20.462c-0.5,0.381-1.947-2.127-1.947-2.127l-0.605,0.479c0,0,1.359,2.06,1.89,2.623
		c0.458,0.484,0.729,0.408,0.729,0.408s0.662-0.299,1.047,0.336c0.178,0.291-0.322,0.69-0.955,0.617
		c-0.635-0.072-1.026-0.545-1.026-0.545c-0.79-0.695-2.298-2.867-2.298-2.867c-0.178,0.148-0.504,0.475-0.504,0.475
		s2.627,3.257,3.877,4.689c1.476,1.688,2.072,2.116,3.185,1.66c0,0,1.666,1.715,1.636,3.481h0.928
		c-0.512-2.386-1.867-3.953-1.867-3.953c0.835-0.866,0.658-1.579-0.366-3.572c-0.906-1.763-3.082-5.62-3.082-5.62
		s-0.419,0.268-0.623,0.379c0,0,1.167,1.729,1.521,2.721c0,0,0.295,0.539,0.127,1.156c-0.166,0.615-0.723,0.932-0.926,0.66
		c-0.447-0.594,0.075-1.1,0.075-1.1s0.171-0.223-0.11-0.828c-0.285-0.611-1.377-2.189-1.377-2.189l-0.599,0.457
		C24.052,17.8,25.824,20.081,25.324,20.462L25.324,20.462z"/>
	<path fill="#FFD520" d="M21.33,26.485c-0.295,0.555-2.942-0.958-2.942-0.958l-0.286,0.732c0,0,2.651,1.179,3.396,1.388
		c0.642,0.18,1.092-0.013,1.092-0.013s0.415-0.598,1.072-0.252c0.301,0.158,0.08,0.758-0.501,1.022s-1.419,0.048-1.419,0.048
		c-1.006-0.186-3.893-1.434-3.893-1.434c-0.076,0.221-0.207,0.68-0.207,0.68s3.521,1.07,5.33,1.652
		c2.133,0.689,2.865,0.75,3.584-0.215c0,0,0.583-0.358,2.135,0.555h0.957c-0.951-0.982-2.738-1.318-2.738-1.318
		c0.271-1.172-0.248-1.691-2.153-2.873c-1.617-1.003-4.972-2.789-4.972-2.789s-0.242,0.418-0.36,0.619c0,0,2.224,0.98,3.038,1.646
		c0,0,0.529,0.312,0.704,0.926c0.174,0.613-0.14,1.171-0.455,1.043c-0.688-0.277-0.501-0.98-0.501-0.98s0.031-0.279-0.521-0.652
		c-0.642-0.434-2.635-1.268-2.635-1.268l-0.34,0.709C18.715,24.753,21.564,25.901,21.33,26.485L21.33,26.485L21.33,26.485z"/>
	<path fill="#FFD520" d="M39.045,20.462c0.501,0.381,1.947-2.127,1.947-2.127l0.605,0.479c0,0-1.359,2.06-1.89,2.623
		c-0.458,0.484-0.729,0.408-0.729,0.408s-0.662-0.299-1.048,0.336c-0.177,0.291,0.322,0.69,0.956,0.617
		c0.635-0.072,1.026-0.545,1.026-0.545c0.79-0.695,2.298-2.867,2.298-2.867c0.178,0.148,0.505,0.475,0.505,0.475
		s-2.627,3.257-3.878,4.689c-1.475,1.688-2.071,2.116-3.184,1.66c0,0-1.666,1.715-1.637,3.481h-0.926
		c0.512-2.386,1.867-3.953,1.867-3.953c-0.836-0.866-0.659-1.579,0.365-3.572c0.906-1.763,3.082-5.62,3.082-5.62
		s0.418,0.268,0.623,0.379c0,0-1.166,1.729-1.521,2.721c0,0-0.294,0.539-0.126,1.156c0.167,0.615,0.722,0.932,0.927,0.66
		c0.447-0.594-0.076-1.1-0.076-1.1s-0.17-0.223,0.111-0.828c0.285-0.611,1.377-2.189,1.377-2.189l0.6,0.457
		C40.316,17.8,38.544,20.081,39.045,20.462L39.045,20.462z"/>
	<path fill="#FFD520" d="M43.04,26.485c0.295,0.555,2.942-0.958,2.942-0.958l0.285,0.732c0,0-2.65,1.179-3.396,1.388
		c-0.642,0.18-1.093-0.013-1.093-0.013s-0.414-0.598-1.07-0.252c-0.301,0.158-0.08,0.758,0.501,1.022s1.418,0.048,1.418,0.048
		c1.007-0.186,3.894-1.434,3.894-1.434c0.075,0.221,0.207,0.68,0.207,0.68s-3.521,1.07-5.332,1.652
		c-2.133,0.689-2.863,0.75-3.584-0.215c0,0-0.582-0.358-2.134,0.555h-0.958c0.952-0.982,2.739-1.318,2.739-1.318
		c-0.271-1.172,0.248-1.691,2.153-2.873c1.617-1.003,4.972-2.789,4.972-2.789s0.241,0.418,0.36,0.619c0,0-2.225,0.98-3.039,1.646
		c0,0-0.529,0.312-0.703,0.926c-0.174,0.613,0.14,1.171,0.455,1.043c0.688-0.277,0.5-0.98,0.5-0.98s-0.03-0.279,0.521-0.652
		c0.641-0.434,2.635-1.268,2.635-1.268l0.34,0.709C45.654,24.753,42.806,25.901,43.04,26.485L43.04,26.485L43.04,26.485z"/>
	<polygon fill="#FFD520" points="32.186,31.899 36.876,31.591 36.725,30.792 32.186,30.792 32.184,30.792 27.645,30.792 
		27.492,31.591 32.184,31.899 	"/>
	<polygon fill="#FFD520" points="32.186,33.597 37.169,33.134 36.992,32.31 32.186,32.722 32.184,32.722 27.377,32.31 
		27.199,33.134 32.184,33.597 	"/>
	<path fill="#FFD520" d="M30.137,34.19l-1.055-0.119l-3.153,7.517c0,0,1.507,0.889,2.162,1.029L30.137,34.19L30.137,34.19z"/>
	<path fill="#FFD520" d="M27.945,33.942l-1.064-0.119l-4.4,4.677c0,0,0.965,1.158,1.352,1.492L27.945,33.942L27.945,33.942z"/>
	<path fill="#FFD520" d="M34.232,34.19l1.055-0.119l3.152,7.517c0,0-1.506,0.889-2.162,1.029L34.232,34.19L34.232,34.19z"/>
	<path fill="#FFD520" d="M36.422,33.942l1.064-0.119l4.4,4.677c0,0-0.965,1.158-1.351,1.492L36.422,33.942L36.422,33.942z"/>
	<path fill="#FFD520" d="M32.186,43.337c0.258,0.039,1.441-0.064,1.441-0.064l-0.875-8.92l-0.566,0.064h-0.002l-0.566-0.064
		l-0.875,8.92c0,0,1.183,0.104,1.441,0.064H32.186L32.186,43.337z"/>
	<path fill="#008457" d="M33.663,19.755c0,0,0.407,0.789-0.123,1.394c-0.421,0.479-1.125,0.528-1.188,0.161
		c-0.127-0.736,0.611-0.918,0.611-0.918S33.559,20.285,33.663,19.755L33.663,19.755z"/>
	<path fill="#008457" d="M33.64,21.576c0,0,0.408,0.787-0.122,1.393c-0.423,0.479-1.127,0.526-1.189,0.162
		c-0.126-0.738,0.611-0.918,0.611-0.918S33.533,22.103,33.64,21.576L33.64,21.576z"/>
	<path fill="#008457" d="M30.667,20.402c0,0-0.409,0.788,0.123,1.393c0.421,0.479,1.125,0.527,1.188,0.161
		c0.127-0.735-0.611-0.917-0.611-0.917S30.771,20.931,30.667,20.402L30.667,20.402z"/>
	<path fill="#008457" d="M30.895,22.474c0,0-0.408,0.789,0.123,1.394c0.42,0.479,1.125,0.528,1.188,0.162
		c0.127-0.737-0.612-0.917-0.612-0.917S31,23.005,30.895,22.474L30.895,22.474z"/>
	<path fill="#008457" d="M27.492,21.019c0,0,0.779,0.424,0.68,1.223c-0.079,0.633-0.635,1.068-0.893,0.801
		c-0.52-0.537-0.01-1.103-0.01-1.103S27.702,21.517,27.492,21.019L27.492,21.019z"/>
	<path fill="#008457" d="M28.494,22.538c0,0,0.779,0.423,0.68,1.222c-0.079,0.633-0.635,1.069-0.893,0.801
		c-0.631-0.654-0.01-1.102-0.01-1.102S28.704,23.036,28.494,22.538L28.494,22.538z"/>
	<path fill="#008457" d="M25.375,23.237c0,0,0.105,0.882,0.884,1.083c0.618,0.16,1.228-0.195,1.075-0.534
		c-0.309-0.681-1.021-0.416-1.021-0.416S25.645,23.503,25.375,23.237L25.375,23.237z"/>
	<path fill="#008457" d="M26.729,24.825c0,0,0.104,0.881,0.883,1.083c0.619,0.16,1.229-0.195,1.076-0.533
		c-0.31-0.682-1.117-0.55-1.117-0.55S27.111,25.203,26.729,24.825L26.729,24.825z"/>
	<path fill="#008457" d="M24.062,28.923c0,0,0.543,0.701,1.315,0.473c0.612-0.182,0.951-0.799,0.646-1.012
		c-0.615-0.424-1.186,0.037-1.186,0.037S24.586,29.048,24.062,28.923L24.062,28.923z"/>
	<path fill="#008457" d="M24.242,26.058c0,0,0.887-0.045,1.217,0.689c0.115,0.256-0.096,1.215-0.346,1.148
		c-0.724-0.189-0.582-0.938-0.582-0.938S24.68,26.375,24.242,26.058L24.242,26.058z"/>
	<path fill="#008457" d="M36.877,21.019c0,0-0.78,0.424-0.682,1.223c0.08,0.633,0.636,1.068,0.895,0.801
		c0.52-0.537,0.01-1.103,0.01-1.103S36.668,21.517,36.877,21.019L36.877,21.019z"/>
	<path fill="#008457" d="M35.875,22.538c0,0-0.781,0.423-0.682,1.222c0.08,0.633,0.636,1.069,0.895,0.801
		c0.518-0.537,0.009-1.102,0.009-1.102S35.665,23.036,35.875,22.538L35.875,22.538z"/>
	<path fill="#008457" d="M38.994,23.237c0,0-0.104,0.882-0.885,1.083c-0.617,0.16-1.228-0.195-1.073-0.534
		c0.308-0.681,1.021-0.416,1.021-0.416S38.609,23.615,38.994,23.237L38.994,23.237z"/>
	<path fill="#008457" d="M37.641,24.825c0,0-0.104,0.881-0.884,1.083c-0.618,0.16-1.228-0.195-1.075-0.533
		c0.309-0.682,1.021-0.416,1.021-0.416S37.257,25.203,37.641,24.825L37.641,24.825z"/>
	<path fill="#008457" d="M40.307,28.923c0,0-0.544,0.701-1.316,0.473c-0.611-0.182-0.95-0.799-0.646-1.012
		c0.615-0.424,1.089,0.17,1.089,0.17S39.783,29.048,40.307,28.923L40.307,28.923z"/>
	<path fill="#008457" d="M40.127,26.058c0,0-0.887-0.045-1.217,0.689c-0.262,0.582-0.014,1.243,0.346,1.148
		c0.723-0.189,0.582-0.938,0.582-0.938S39.689,26.375,40.127,26.058L40.127,26.058z"/>
	<path fill="#FFD520" d="M71.964,18.095c-0.628,0.035-0.406-3.142-0.406-3.142l-0.799,0.052c0,0-0.013,2.76,0.11,3.523
		c0.104,0.658,0.373,0.748,0.373,0.748s0.717,0.124,0.68,0.865c-0.017,0.34-0.653,0.391-1.138-0.024
		c-0.484-0.417-0.544-1.028-0.544-1.028c-0.265-1.019-0.284-3.97-0.284-3.97c-0.231,0.022-0.713,0.151-0.713,0.151
		s0.365,4.436,0.599,6.324c0.271,2.225,0.524,2.914,1.702,3.16c0,0,0.258,2.86,0.017,4.953h0.81
		c-0.24-2.093,0.017-4.953,0.017-4.953c1.178-0.246,1.431-0.936,1.703-3.16c0.229-1.889,0.598-6.324,0.598-6.324
		s-0.479-0.129-0.713-0.151c0,0-0.013,2.144-0.274,3.164c0,0-0.061,0.61-0.543,1.026c-0.484,0.416-1.121,0.365-1.14,0.027
		c-0.037-0.742,0.68-0.867,0.68-0.867s0.269-0.09,0.373-0.748c0.123-0.764,0.104-2.717,0.104-2.717l-0.798-0.051
		C72.372,14.954,72.593,18.062,71.964,18.095L71.964,18.095z"/>
	<path fill="#FFD520" d="M65.106,20.482c-0.501,0.381-1.945-2.127-1.945-2.127l-0.606,0.478c0,0,1.359,2.06,1.893,2.623
		c0.457,0.485,0.729,0.408,0.729,0.408s0.663-0.3,1.049,0.336c0.179,0.291-0.32,0.69-0.956,0.618
		c-0.634-0.072-1.025-0.545-1.025-0.545c-0.79-0.696-2.297-2.868-2.297-2.868c-0.181,0.149-0.507,0.474-0.507,0.474
		s2.63,3.258,3.88,4.691c1.475,1.688,2.069,2.117,3.185,1.66c0,0,1.666,1.714,1.637,3.482h0.926
		c-0.511-2.386-1.865-3.955-1.865-3.955c0.836-0.865,0.656-1.578-0.366-3.572c-0.906-1.764-3.081-5.621-3.081-5.621
		s-0.419,0.269-0.623,0.379c0,0,1.167,1.73,1.521,2.721c0,0,0.295,0.54,0.128,1.156c-0.167,0.615-0.726,0.931-0.93,0.66
		c-0.445-0.594,0.075-1.098,0.075-1.098s0.172-0.225-0.108-0.828c-0.285-0.612-1.378-2.19-1.378-2.19l-0.6,0.458
		C63.834,17.82,65.607,20.101,65.106,20.482L65.106,20.482z"/>
	<path fill="#FFD520" d="M61.111,26.503c-0.297,0.557-2.942-0.957-2.942-0.957l-0.285,0.733c0,0,2.65,1.179,3.396,1.388
		c0.642,0.18,1.093-0.013,1.093-0.013s0.413-0.599,1.071-0.252c0.301,0.157,0.077,0.757-0.501,1.021
		c-0.581,0.265-1.421,0.049-1.421,0.049c-1.007-0.185-3.893-1.433-3.893-1.433c-0.076,0.22-0.206,0.679-0.206,0.679
		s3.521,1.07,5.33,1.654c2.133,0.688,2.864,0.748,3.584-0.217c0,0,0.582-0.357,2.134,0.555h0.957
		c-0.951-0.982-2.738-1.318-2.738-1.318c0.271-1.172-0.246-1.691-2.151-2.873c-1.616-1.002-4.974-2.788-4.974-2.788
		s-0.24,0.418-0.358,0.618c0,0,2.224,0.979,3.037,1.647c0,0,0.528,0.312,0.705,0.925c0.174,0.614-0.142,1.17-0.455,1.043
		c-0.688-0.277-0.501-0.979-0.501-0.979s0.029-0.28-0.521-0.653c-0.641-0.432-2.636-1.266-2.636-1.266l-0.339,0.709
		c0,0,2.849,1.146,2.615,1.732L61.111,26.503L61.111,26.503z"/>
	<path fill="#FFD520" d="M78.827,20.482c0.501,0.381,1.945-2.127,1.945-2.127l0.606,0.478c0,0-1.359,2.06-1.891,2.623
		c-0.457,0.485-0.729,0.408-0.729,0.408s-0.662-0.3-1.048,0.336c-0.177,0.291,0.321,0.69,0.956,0.618
		c0.634-0.072,1.026-0.545,1.026-0.545c0.789-0.696,2.297-2.868,2.297-2.868c0.178,0.149,0.505,0.474,0.505,0.474
		s-2.627,3.258-3.879,4.691c-1.476,1.688-2.07,2.117-3.186,1.66c0,0-1.666,1.714-1.636,3.482h-0.926
		c0.51-2.386,1.866-3.955,1.866-3.955c-0.837-0.865-0.658-1.578,0.364-3.572c0.905-1.764,3.081-5.621,3.081-5.621
		s0.419,0.269,0.624,0.379c0,0-1.168,1.73-1.521,2.721c0,0-0.294,0.54-0.127,1.156c0.166,0.615,0.723,0.931,0.927,0.66
		c0.447-0.594-0.075-1.098-0.075-1.098s-0.172-0.225,0.109-0.828c0.286-0.612,1.378-2.19,1.378-2.19l0.599,0.458
		C80.1,17.82,78.326,20.101,78.827,20.482L78.827,20.482z"/>
	<path fill="#FFD520" d="M82.822,26.503c0.295,0.557,2.94-0.957,2.94-0.957l0.285,0.733c0,0-2.65,1.179-3.396,1.388
		c-0.644,0.18-1.094-0.013-1.094-0.013s-0.414-0.599-1.07-0.252c-0.303,0.157-0.079,0.757,0.502,1.021
		c0.58,0.265,1.418,0.049,1.418,0.049c1.007-0.185,3.892-1.433,3.892-1.433c0.077,0.22,0.208,0.679,0.208,0.679
		s-3.52,1.07-5.33,1.654c-2.134,0.688-2.865,0.748-3.584-0.217c0,0-0.583-0.357-2.135,0.555h-0.956
		c0.95-0.982,2.737-1.318,2.737-1.318c-0.271-1.172,0.248-1.691,2.151-2.873c1.616-1.002,4.974-2.788,4.974-2.788
		s0.24,0.418,0.358,0.618c0,0-2.224,0.979-3.037,1.647c0,0-0.528,0.312-0.702,0.925c-0.177,0.614,0.139,1.17,0.452,1.043
		c0.688-0.277,0.501-0.979,0.501-0.979s-0.029-0.28,0.521-0.653c0.641-0.432,2.636-1.266,2.636-1.266l0.34,0.709
		c0,0-2.85,1.146-2.614,1.732L82.822,26.503L82.822,26.503z"/>
	<polygon fill="#FFD520" points="71.969,31.917 76.658,31.609 76.507,30.812 71.969,30.812 71.965,30.812 67.427,30.812 
		67.275,31.609 71.965,31.917 	"/>
	<polygon fill="#FFD520" points="71.969,33.616 76.951,33.153 76.775,32.33 71.969,32.741 71.965,32.741 67.159,32.33 
		66.982,33.153 71.965,33.616 	"/>
	<path fill="#FFD520" d="M69.92,34.208l-1.056-0.119l-3.152,7.519c0,0,1.506,0.888,2.162,1.028L69.92,34.208L69.92,34.208z"/>
	<path fill="#FFD520" d="M67.729,33.96l-1.063-0.119l-4.4,4.678c0,0,0.965,1.158,1.354,1.492L67.729,33.96L67.729,33.96z"/>
	<path fill="#FFD520" d="M74.015,34.208l1.057-0.119l3.15,7.519c0,0-1.505,0.888-2.161,1.028L74.015,34.208L74.015,34.208z"/>
	<path fill="#FFD520" d="M76.204,33.96l1.063-0.119l4.4,4.678c0,0-0.965,1.158-1.352,1.492L76.204,33.96L76.204,33.96z"/>
	<path fill="#FFD520" d="M71.969,43.357c0.257,0.039,1.441-0.064,1.441-0.064l-0.875-8.92l-0.566,0.064h-0.004l-0.563-0.064
		l-0.875,8.92c0,0,1.184,0.104,1.438,0.064H71.969L71.969,43.357z"/>
	<path fill="#008457" d="M73.445,19.775c0,0,0.406,0.789-0.123,1.393c-0.421,0.48-1.125,0.529-1.188,0.162
		c-0.127-0.736,0.611-0.917,0.611-0.917S73.34,20.304,73.445,19.775L73.445,19.775z"/>
	<path fill="#008457" d="M73.422,21.593c0,0,0.408,0.789-0.123,1.394c-0.421,0.479-1.126,0.528-1.188,0.162
		c-0.127-0.737,0.609-0.917,0.609-0.917S73.316,22.123,73.422,21.593L73.422,21.593z"/>
	<path fill="#008457" d="M70.449,20.421c0,0-0.408,0.787,0.123,1.392c0.422,0.479,1.126,0.528,1.188,0.161
		c0.127-0.736-0.611-0.916-0.611-0.916S70.555,20.95,70.449,20.421L70.449,20.421z"/>
	<path fill="#008457" d="M70.676,22.494c0,0-0.408,0.789,0.124,1.393c0.421,0.479,1.125,0.529,1.188,0.162
		c0.127-0.736-0.611-0.918-0.611-0.918S70.782,23.024,70.676,22.494L70.676,22.494z"/>
	<path fill="#008457" d="M67.275,21.039c0,0,0.779,0.424,0.681,1.223c-0.079,0.633-0.636,1.067-0.896,0.801
		c-0.519-0.539-0.009-1.102-0.009-1.102S67.484,21.536,67.275,21.039L67.275,21.039z"/>
	<path fill="#008457" d="M68.277,22.556c0,0,0.778,0.424,0.68,1.223c-0.08,0.634-0.636,1.068-0.896,0.801
		c-0.632-0.654-0.009-1.104-0.009-1.104S68.486,23.054,68.277,22.556L68.277,22.556z"/>
	<path fill="#008457" d="M65.157,23.255c0,0,0.104,0.881,0.884,1.084c0.618,0.16,1.229-0.195,1.074-0.535
		c-0.31-0.68-1.021-0.416-1.021-0.416S65.428,23.521,65.157,23.255L65.157,23.255z"/>
	<path fill="#008457" d="M66.51,24.843c0,0,0.104,0.881,0.884,1.084c0.618,0.16,1.229-0.195,1.075-0.535
		c-0.309-0.68-1.117-0.547-1.117-0.547S66.895,25.222,66.51,24.843L66.51,24.843z"/>
	<path fill="#008457" d="M63.844,28.942c0,0,0.544,0.7,1.316,0.473c0.61-0.18,0.952-0.8,0.646-1.011
		c-0.614-0.424-1.185,0.037-1.185,0.037S64.368,29.068,63.844,28.942L63.844,28.942z"/>
	<path fill="#008457" d="M64.025,26.077c0,0,0.887-0.045,1.217,0.688c0.113,0.258-0.098,1.216-0.348,1.149
		c-0.723-0.188-0.581-0.937-0.581-0.937S64.463,26.392,64.025,26.077L64.025,26.077z"/>
	<path fill="#008457" d="M76.659,21.039c0,0-0.781,0.424-0.682,1.223c0.079,0.633,0.637,1.067,0.895,0.801
		c0.519-0.539,0.009-1.102,0.009-1.102S76.449,21.536,76.659,21.039L76.659,21.039z"/>
	<path fill="#008457" d="M75.656,22.556c0,0-0.779,0.424-0.682,1.223c0.08,0.634,0.638,1.068,0.896,0.801
		c0.519-0.537,0.009-1.104,0.009-1.104S75.447,23.054,75.656,22.556L75.656,22.556z"/>
	<path fill="#008457" d="M78.775,23.255c0,0-0.104,0.881-0.885,1.084c-0.618,0.16-1.229-0.195-1.075-0.535
		c0.312-0.68,1.021-0.416,1.021-0.416S78.392,23.634,78.775,23.255L78.775,23.255z"/>
	<path fill="#008457" d="M77.424,24.843c0,0-0.104,0.881-0.884,1.084c-0.618,0.16-1.229-0.195-1.074-0.535
		c0.309-0.68,1.021-0.414,1.021-0.414S77.039,25.222,77.424,24.843L77.424,24.843z"/>
	<path fill="#008457" d="M80.089,28.942c0,0-0.543,0.7-1.312,0.473c-0.612-0.18-0.952-0.8-0.646-1.011
		c0.615-0.424,1.089,0.169,1.089,0.169S79.565,29.068,80.089,28.942L80.089,28.942z"/>
	<path fill="#008457" d="M79.909,26.077c0,0-0.889-0.045-1.218,0.688c-0.263,0.584-0.015,1.244,0.347,1.149
		c0.724-0.188,0.582-0.937,0.582-0.937S79.472,26.392,79.909,26.077L79.909,26.077z"/>
	<path fill="#FFD520" d="M52.098,75.582c-0.629,0.033-0.408-3.145-0.408-3.145l-0.797,0.053c0,0-0.014,2.76,0.109,3.523
		c0.105,0.656,0.373,0.746,0.373,0.746s0.717,0.125,0.68,0.865c-0.017,0.34-0.652,0.391-1.138-0.023
		c-0.484-0.418-0.543-1.027-0.543-1.027c-0.265-1.02-0.285-3.971-0.285-3.971c-0.231,0.023-0.713,0.15-0.713,0.15
		s0.366,4.436,0.598,6.324c0.272,2.225,0.525,2.914,1.703,3.158c0,0,0.259,2.861,0.017,4.955h0.809
		c-0.241-2.094,0.016-4.955,0.016-4.955c1.179-0.244,1.433-0.936,1.703-3.158c0.23-1.891,0.598-6.324,0.598-6.324
		s-0.479-0.127-0.713-0.15c0,0-0.013,2.145-0.273,3.162c0,0-0.062,0.611-0.544,1.029c-0.484,0.414-1.121,0.365-1.138,0.023
		c-0.037-0.74,0.68-0.865,0.68-0.865s0.268-0.092,0.373-0.748c0.123-0.766,0.103-2.719,0.103-2.719l-0.799-0.051
		C52.505,72.439,52.726,75.546,52.098,75.582L52.098,75.582z"/>
	<path fill="#FFD520" d="M45.24,77.966c-0.502,0.381-1.947-2.127-1.947-2.127l-0.605,0.479c0,0,1.358,2.061,1.89,2.621
		c0.457,0.486,0.729,0.408,0.729,0.408s0.662-0.299,1.049,0.336c0.176,0.291-0.322,0.691-0.957,0.617
		c-0.633-0.072-1.026-0.545-1.026-0.545c-0.79-0.695-2.297-2.867-2.297-2.867c-0.179,0.148-0.505,0.475-0.505,0.475
		s2.627,3.26,3.877,4.691c1.475,1.689,2.07,2.115,3.185,1.658c0,0,1.666,1.715,1.636,3.48h0.928
		c-0.512-2.385-1.868-3.951-1.868-3.951c0.836-0.865,0.659-1.578-0.366-3.572c-0.906-1.766-3.081-5.621-3.081-5.621
		s-0.419,0.268-0.624,0.379c0,0,1.167,1.729,1.521,2.721c0,0,0.295,0.539,0.127,1.154c-0.168,0.617-0.723,0.934-0.928,0.66
		c-0.447-0.592,0.076-1.096,0.076-1.096s0.172-0.229-0.109-0.83c-0.287-0.611-1.377-2.189-1.377-2.189l-0.6,0.457
		C43.967,75.304,45.74,77.585,45.24,77.966L45.24,77.966z"/>
	<path fill="#FFD520" d="M41.245,83.988c-0.296,0.559-2.942-0.955-2.942-0.955l-0.285,0.732c0,0,2.65,1.178,3.396,1.387
		c0.642,0.182,1.093-0.014,1.093-0.014s0.413-0.598,1.071-0.252c0.301,0.158,0.079,0.758-0.501,1.021
		c-0.581,0.266-1.418,0.049-1.418,0.049c-1.008-0.186-3.894-1.434-3.894-1.434c-0.075,0.221-0.206,0.68-0.206,0.68
		s3.521,1.068,5.33,1.652c2.133,0.689,2.865,0.748,3.584-0.217c0,0,0.583-0.355,2.135,0.555h0.957
		c-0.951-0.98-2.738-1.316-2.738-1.316c0.271-1.172-0.248-1.691-2.152-2.873c-1.617-1.002-4.972-2.787-4.972-2.787
		s-0.242,0.418-0.361,0.619c0,0,2.224,0.979,3.038,1.646c0,0,0.531,0.312,0.704,0.928c0.175,0.611-0.14,1.17-0.455,1.043
		c-0.688-0.279-0.5-0.98-0.5-0.98s0.031-0.281-0.521-0.654c-0.642-0.432-2.636-1.266-2.636-1.266l-0.34,0.709
		c0,0,2.849,1.148,2.616,1.732v-0.006H41.245z"/>
	<path fill="#FFD520" d="M58.96,77.966c0.501,0.381,1.947-2.127,1.947-2.127l0.604,0.479c0,0-1.357,2.061-1.89,2.621
		c-0.458,0.486-0.729,0.408-0.729,0.408s-0.663-0.299-1.048,0.336c-0.177,0.291,0.321,0.691,0.955,0.617
		c0.635-0.072,1.027-0.545,1.027-0.545c0.79-0.695,2.297-2.867,2.297-2.867c0.179,0.148,0.505,0.475,0.505,0.475
		s-2.627,3.26-3.878,4.691c-1.476,1.689-2.07,2.115-3.185,1.658c0,0-1.668,1.715-1.638,3.48h-0.927
		c0.511-2.385,1.868-3.951,1.868-3.951c-0.836-0.865-0.659-1.578,0.365-3.572c0.904-1.766,3.08-5.621,3.08-5.621
		s0.42,0.268,0.623,0.379c0,0-1.168,1.729-1.521,2.721c0,0-0.294,0.539-0.127,1.154c0.166,0.617,0.723,0.934,0.927,0.66
		c0.448-0.592-0.075-1.096-0.075-1.096s-0.172-0.229,0.11-0.83c0.286-0.611,1.377-2.189,1.377-2.189l0.599,0.457
		C60.232,75.304,58.459,77.585,58.96,77.966L58.96,77.966z"/>
	<path fill="#FFD520" d="M62.955,83.988c0.295,0.559,2.94-0.955,2.94-0.955l0.286,0.732c0,0-2.649,1.178-3.396,1.387
		c-0.645,0.182-1.093-0.014-1.093-0.014s-0.414-0.598-1.071-0.252c-0.302,0.158-0.08,0.758,0.501,1.021
		c0.581,0.266,1.418,0.049,1.418,0.049c1.007-0.186,3.893-1.434,3.893-1.434c0.076,0.221,0.207,0.68,0.207,0.68
		s-3.52,1.068-5.33,1.652c-2.134,0.689-2.863,0.748-3.584-0.217c0,0-0.583-0.355-2.134,0.555h-0.958
		c0.951-0.98,2.738-1.316,2.738-1.316c-0.271-1.172,0.249-1.691,2.153-2.873c1.614-1.002,4.972-2.787,4.972-2.787
		s0.242,0.418,0.359,0.619c0,0-2.225,0.979-3.036,1.646c0,0-0.53,0.312-0.704,0.928c-0.175,0.611,0.14,1.17,0.455,1.043
		c0.688-0.279,0.5-0.98,0.5-0.98s-0.031-0.281,0.521-0.654c0.644-0.432,2.635-1.266,2.635-1.266l0.342,0.709
		c0,0-2.851,1.148-2.615,1.732L62.955,83.988L62.955,83.988z"/>
	<polygon fill="#FFD520" points="52.102,89.402 56.792,89.093 56.641,88.296 52.102,88.296 52.098,88.296 47.561,88.296 
		47.408,89.093 52.098,89.402 	"/>
	<polygon fill="#FFD520" points="52.102,91.101 57.084,90.638 56.907,89.814 52.102,90.226 52.098,90.226 47.293,89.814 
		47.115,90.638 52.098,91.101 	"/>
	<path fill="#FFD520" d="M50.053,91.693l-1.056-0.117l-3.152,7.518c0,0,1.505,0.887,2.162,1.029L50.053,91.693L50.053,91.693z"/>
	<path fill="#FFD520" d="M47.861,91.445l-1.063-0.117l-4.401,4.678c0,0,0.965,1.158,1.352,1.492L47.861,91.445L47.861,91.445z"/>
	<path fill="#FFD520" d="M54.147,91.693l1.057-0.117l3.15,7.518c0,0-1.505,0.887-2.159,1.029L54.147,91.693L54.147,91.693z"/>
	<path fill="#FFD520" d="M56.338,91.445l1.064-0.117l4.398,4.678c0,0-0.965,1.158-1.351,1.492L56.338,91.445L56.338,91.445z"/>
	<path fill="#FFD520" d="M52.102,100.841c0.258,0.039,1.441-0.064,1.441-0.064l-0.875-8.92l-0.566,0.064H52.1l-0.566-0.064
		l-0.875,8.92c0,0,1.184,0.105,1.441,0.064H52.102L52.102,100.841z"/>
	<path fill="#008457" d="M53.578,77.259c0,0,0.409,0.789-0.123,1.393c-0.421,0.48-1.125,0.529-1.188,0.162
		c-0.128-0.734,0.61-0.918,0.61-0.918S53.473,77.789,53.578,77.259L53.578,77.259z"/>
	<path fill="#008457" d="M53.555,79.08c0,0,0.409,0.787-0.122,1.393c-0.422,0.48-1.126,0.527-1.19,0.16
		c-0.125-0.736,0.612-0.916,0.612-0.916S53.449,79.609,53.555,79.08L53.555,79.08z"/>
	<path fill="#008457" d="M50.583,77.906c0,0-0.409,0.785,0.123,1.393c0.421,0.479,1.125,0.527,1.188,0.162
		c0.127-0.736-0.613-0.918-0.613-0.918S50.688,78.435,50.583,77.906L50.583,77.906z"/>
	<path fill="#008457" d="M50.809,79.98c0,0-0.408,0.787,0.125,1.395c0.42,0.479,1.125,0.525,1.188,0.16
		c0.127-0.736-0.611-0.916-0.611-0.916S50.915,80.507,50.809,79.98L50.809,79.98z"/>
	<path fill="#008457" d="M47.408,78.523c0,0,0.779,0.426,0.68,1.225c-0.08,0.633-0.635,1.066-0.893,0.801
		c-0.52-0.537-0.01-1.104-0.01-1.104S47.617,79.021,47.408,78.523L47.408,78.523z"/>
	<path fill="#008457" d="M48.41,80.042c0,0,0.779,0.422,0.68,1.221c-0.08,0.633-0.635,1.068-0.895,0.801
		c-0.631-0.652-0.008-1.102-0.008-1.102S48.619,80.539,48.41,80.042L48.41,80.042z"/>
	<path fill="#008457" d="M45.291,80.74c0,0,0.105,0.881,0.884,1.084c0.618,0.158,1.228-0.195,1.074-0.533
		c-0.308-0.684-1.021-0.416-1.021-0.416S45.561,81.005,45.291,80.74L45.291,80.74z"/>
	<path fill="#008457" d="M46.643,82.33c0,0,0.104,0.881,0.883,1.082c0.619,0.16,1.229-0.195,1.076-0.533
		c-0.309-0.682-1.117-0.549-1.117-0.549S47.027,82.707,46.643,82.33L46.643,82.33z"/>
	<path fill="#008457" d="M43.979,86.425c0,0,0.543,0.701,1.314,0.475c0.611-0.182,0.952-0.801,0.646-1.012
		c-0.615-0.424-1.186,0.037-1.186,0.037S44.502,86.552,43.979,86.425L43.979,86.425z"/>
	<path fill="#008457" d="M44.158,83.562c0,0,0.886-0.045,1.217,0.689c0.115,0.256-0.096,1.215-0.346,1.146
		c-0.724-0.188-0.582-0.936-0.582-0.936S44.595,83.876,44.158,83.562L44.158,83.562z"/>
	<path fill="#008457" d="M56.792,78.523c0,0-0.78,0.426-0.681,1.225c0.078,0.633,0.637,1.066,0.894,0.801
		c0.519-0.537,0.009-1.104,0.009-1.104S56.582,79.021,56.792,78.523L56.792,78.523z"/>
	<path fill="#008457" d="M55.79,80.042c0,0-0.78,0.422-0.681,1.221c0.078,0.633,0.636,1.068,0.894,0.801
		c0.519-0.537,0.009-1.102,0.009-1.102S55.58,80.539,55.79,80.042L55.79,80.042z"/>
	<path fill="#008457" d="M58.909,80.74c0,0-0.104,0.881-0.884,1.084c-0.618,0.158-1.229-0.195-1.074-0.533
		c0.309-0.684,1.021-0.416,1.021-0.416S58.525,81.119,58.909,80.74L58.909,80.74z"/>
	<path fill="#008457" d="M57.557,82.33c0,0-0.104,0.881-0.884,1.082c-0.617,0.16-1.228-0.195-1.074-0.533
		c0.311-0.682,1.021-0.416,1.021-0.416S57.173,82.707,57.557,82.33L57.557,82.33z"/>
	<path fill="#008457" d="M60.223,86.425c0,0-0.544,0.701-1.313,0.475c-0.612-0.182-0.952-0.801-0.646-1.012
		c0.615-0.424,1.09,0.17,1.09,0.17S59.697,86.552,60.223,86.425L60.223,86.425z"/>
	<path fill="#008457" d="M60.042,83.562c0,0-0.887-0.045-1.216,0.689c-0.265,0.582-0.017,1.242,0.346,1.146
		c0.723-0.188,0.581-0.936,0.581-0.936S59.604,83.876,60.042,83.562L60.042,83.562z"/>
</g>
</svg>
