<?xml version="1.0" encoding="utf-8"?>
<!-- Generator: Adobe Illustrator 16.0.0, SVG Export Plug-In . SVG Version: 6.00 Build 0)  -->
<!DOCTYPE svg PUBLIC "-//W3C//DTD SVG 1.1//EN" "http://www.w3.org/Graphics/SVG/1.1/DTD/svg11.dtd">
<svg version="1.1" id="Layer_1" xmlns="http://www.w3.org/2000/svg" xmlns:xlink="http://www.w3.org/1999/xlink" x="0px" y="0px"
	 width="257px" height="310px" viewBox="268.5 77.5 257 310" enable-background="new 268.5 77.5 257 310" xml:space="preserve">
<g>
	<g>
		<g>
			<path fill="#FFFFFF" d="M504.149,213.388l-0.014-94.624c-24.485-8.655-62.919-14.255-106.262-14.255
				c-42.509,0-80.352,5.572-104.826,14.255l-0.011,95.996c0,14.15-0.641,39.197,12.224,69.188
				c15.976,37.234,46.9,65.236,91.034,82.787l2.293,0.936l2.271-0.927c44.167-17.56,75.093-45.562,91.066-82.796
				C504.8,253.961,504.149,226.957,504.149,213.388z"/>
			<path fill="#4F2683" d="M504.149,213.388l-0.014-94.624c-24.485-8.654-62.919-14.254-106.262-14.254
				c-42.509,0-80.352,5.571-104.826,14.254l-0.011,95.996c0,14.15-0.641,39.197,12.224,69.188
				c15.976,37.234,46.9,65.236,91.034,82.787l2.293,0.936l2.271-0.927c44.167-17.56,75.093-45.562,91.066-82.796
				C504.8,253.961,504.149,226.957,504.149,213.388z M421.678,316.904c-0.479,0.144-1.051,0.355-1.501,0.578
				c-0.3,0.142-0.478,0.234-0.513,0.479c-0.026,0.169,0.16,0.413,0.262,0.528c-0.271,1.007-2.67,0.883-3.46,1.157
				c-0.674,0.23-1.461,0.979-1.909,1.459c-0.451,0.496-0.297,0.373-1.023,0.52c-1.291,0.268-1.007,1.446-0.607,2.382
				c0.384,0.94,1.059,1.694,1.916,2.253c0.302,0.204,1.677,0.732,2.415,0.732c-0.71,0.771-1.71,0.581-2.609,0.958
				c-0.505,0.204-0.956,0.487-1.514,0.61c-0.743,0.16-1.12,0.111-1.743,0.01c-0.972-0.187-1.735-0.143-2.544-0.059
				c-0.606,0.062-1.126-0.009-1.65-0.306c-0.235-0.124-0.696-0.466-0.925-0.506c-0.741-0.115-0.146,0.972,0.006,1.354
				c-1.004,0.957-3.291-0.365-4.2-0.924c-0.798-0.482-1.217-1.605-2.131-1.898c-0.066,0.968-0.021,1.931,0.02,2.893
				c0.115,2.945,0.184,5.886,0.273,8.822c0.051,1.729,0.095,3.455,0.149,5.172h-3.236l0.381-17.016
				c-1.029,0.066-1.438,1.021-2.277,1.39c-0.528,0.228-1.066,0.118-1.559,0.426c-0.52,0.328-0.726,0.763-1.324,1.047
				c-0.503,0.218-1.131,0.306-1.685,0.293c-0.694-0.005-1.463-0.134-1.844-0.522c0.345-0.621,0-1.26-0.432-1.495
				c-0.503-0.263-1.198,0.133-1.63,0.239c-2.255,0.567-4.899-0.82-6.948-1.592c0,0,4.957-0.84,4.957-3.73
				c0-0.803-0.375-1.459-0.985-1.975c-0.576-0.475-1.67-1.037-2.424-1.147c-1.236-0.179-2.08,0.142-2.836-0.16
				c0.109-0.396-0.559-0.94-1.078-1.312c-0.495-0.348-1.108-0.523-1.644-0.809c-0.991-0.51-2.476-1.434-2.062-2.729
				c0.794,0.408,1.563,0.498,2.284,0.119c0.57-0.31,0.772-0.758,0.772-1.433c-0.017-0.909-1.017-1.521-1.373-2.204
				c-0.281-0.555-0.534-1.078-1.052-1.477c-0.464-0.364-1.239-0.483-1.262-1.176c0.952,0.373,1.213-0.467,0.652-1.092
				c-0.632-0.705-1.459-1.038-1.938-1.916c-0.417-0.781-0.725-1.703-0.737-2.604c-0.008-0.262,0.04-1.025,0.417-1.096
				c0.356-0.075,0.477,0.395,0.624,0.621c0.592,0.869,1.461,1.29,2.344,1.734c1.096,0.545,1.525,0.842,2.752,1.064
				c2.395,0.426,3.914,0.075,5.302-1.198c0.237-0.222,0.827-0.643,1.113-0.67c0.48,0.684,1.746,2.001,2.983,2.36
				c0.918,0.257,1.967,1.565,2.441,1.982c1.652,1.441,2.67,0.621,2.664-0.763c-0.011-1.153-0.437-2.666-0.688-3.766
				c-0.399-1.797-0.748-2.675-0.996-4.538c-0.146-1.14-0.776-2.102-1.202-2.896c-0.419-0.794-1.019-2.848,0.48-2.125
				c0.619,0.293,1.55,0.852,2.298,0.75c1.757-0.244,1.975-2.16,2.312-3.593c0.187-0.745,0.188-1.354,0.461-2.094
				c0.155-0.435,0.361-0.679,0.583-0.688c0.076,0.222,0.315,0.621,0.694,0.621c0.679,0,1.255-1.167,1.426-1.854
				c0.138-0.581,0.26-1.277,0.426-1.801c0.312-0.896,0.382-1.951,0.86-2.944c0.18,0.665,0.478,1.849,0.639,2.257
				c0.404,1.056,0.768,2.116,1.396,2.994c0.529,0.75,1.203,0.98,2.045,0.541c0.414,0.994,0.414,4.263,1.269,5.788
				c0.508,0.905,1.135,1.229,1.902,1.229c0.688,0,1.178-0.213,1.675-0.505c0.601-0.359,1.271-0.816,1.719-0.816
				c0.197,0,0.323,0.102,0.323,0.293c0,0.691-1.062,2.532-1.202,2.927c-0.328,0.896-0.84,1.895-1.109,2.795
				c-0.217,0.749-0.444,1.694-0.604,2.483c-0.178,0.883-0.333,1.903-0.391,3.291c-0.044,0.825,0.018,2.307,0.641,2.746
				c0.903,0.615,2.041-0.604,2.777-1.171c0.88-0.684,1.634-1.345,2.297-2.254c0.497-0.67,1.469-2.422,2.399-2.333
				c-0.012,0.701,0.986,1.69,2.478,1.921c0.914,0.138,1.653-0.049,2.188-0.443c0.693-0.506,0.74-0.479,1.527-0.191
				c1.694,0.648,4.498-1.565,5.5-2.363c0.342,0.363,0.029,1.024-0.41,1.686c-0.812,1.21-1.715,1.597-1.731,2.501
				c-0.019,0.794-0.982,2.28-0.916,3.167c-0.292,0.51-1.227,1.069-1.651,1.42c-1.24,1.051-1.994,2.258-1.544,3.912
				c0.386,1.432,1.565,2.125,2.67,2.125c1.111,0,1.83-0.746,2.198-0.568c0.217,0.138-0.324,0.82-0.541,1.003
				C423.332,316.307,422.361,316.697,421.678,316.904z M484.703,182.971H312.589l-11.002-11.546l21.964,7.31
				c-1.805-5.47-6.826-7.364-10.065-12.044c-1.933-2.775-2.579-5.511-2.366-8.357c0.59,1.014,1.647,2.405,3.309,3.552
				c1.586,1.096,3.722,1.948,6.625,2.576c5.186,1.119,7.857,2.757,10.143,4.867l-11.242-20.108l19.365,12.484
				c-0.806-5.757-4.779-8.741-6.754-14.062c-1.173-3.168-1.142-6.011-0.227-8.711c0.315,1.125,0.992,2.74,2.318,4.261
				c1.264,1.449,3.11,2.81,5.771,4.142c4.908,2.452,7.09,4.777,8.798,7.499l-5.968-22.542l15.57,16.805
				c0.623-5.654-2.438-9.553-3.023-15.164c-0.35-3.363,0.362-6.133,1.914-8.526c0.029,1.173,0.291,2.904,1.193,4.704
				c0.861,1.72,2.32,3.5,4.568,5.444c4.287,3.737,5.772,6.594,6.746,9.781l-0.164-23.655l10.836,20.049
				c2.119-5.084-0.115-9.758,0.71-15.305c0.489-3.342,1.953-5.882,4.061-7.804c-0.264,1.134-0.45,2.878-0.02,4.844
				c0.403,1.882,1.375,3.966,3.068,6.412c3.308,4.788,3.985,7.959,4.112,11.369l0.042-0.006l5.769-23.176l5.537,22.235
				c3.342-4.582,2.484-9.782,4.688-14.982c1.318-3.111,3.342-4.962,5.86-6.297c-0.548,1.034-1.159,2.673-1.236,4.688
				c-0.075,1.922,0.342,4.18,1.362,6.973c1.952,5.314,1.842,8.514,1.158,11.756l11.219-20.758l-0.16,22.822
				c4.351-3.425,4.658-8.851,8.062-13.31c2.056-2.681,4.523-3.962,7.303-4.631c-0.792,0.87-1.784,2.305-2.368,4.233
				c-0.548,1.85-0.707,4.14-0.41,7.098c0.581,5.767-0.349,8.879-1.876,11.91l0.016,0.006l16.225-17.518l-5.815,21.997
				c4.879-2.327,6.644-6.997,11.02-10.449c2.647-2.092,5.338-3.117,8.185-3.076c-0.975,0.649-2.296,1.792-3.341,3.522
				c-0.988,1.645-1.713,3.824-2.157,6.767c-0.867,5.707-2.519,8.495-4.739,11.044l0.096,0.07l20.076-12.948l-11.091,19.825
				c5.405-0.771,8.018-5.089,13.074-7.323c3.087-1.365,6.028-1.719,8.784-0.975c-1.109,0.389-2.678,1.166-4.114,2.579
				c-1.368,1.353-2.61,3.286-3.772,6.02c-2.258,5.286-4.529,7.563-7.303,9.476l0.117,0.146l22.665-7.542L484.703,182.971z
				 M395.471,231.682c-0.299-0.519-1.489-3.201-8.079-3.201h-19.273v-31.146h1.417v29.728h17.62c1.337,0,2.501,0.076,3.493,0.235
				c3.562,0.562,5.041,1.977,5.729,2.972l4.514,0.004c0.673-1.006,2.097-2.414,5.621-2.976c0.987-0.16,2.14-0.235,3.479-0.235
				h17.667v-29.627h1.417v31.046H409.76c-6.584,0-7.687,2.707-7.919,3.201L395.471,231.682L395.471,231.682z M397.819,226.39v1.518
				c-2.688-5.055-14.937-4.228-25.354-3.179v-28.882c5.611-0.051,11.145-0.819,15.462-0.819c5.479,0,9.239,0.834,9.892,4.013v25.957
				c-3.333-3.964-13.3-3.593-23.726-2.591v0.831C384.418,222.243,395.309,221.907,397.819,226.39z M376.015,215.018
				c1.238-0.023,2.537-0.059,3.558-0.059c1.337,0,2.449,0.036,3.546,0.059v-0.591h-0.565c-1.748,0-1.878-0.175-1.878-1.334v-5.007
				c0-1.374,0.21-1.467,1.37-1.467h1.074v-0.59c-1.133,0.02-2.333,0.062-3.546,0.062c-1.118,0-2.357-0.042-3.558-0.062v0.59h1.084
				c1.155,0,1.375,0.093,1.375,1.467v5.007c0,1.159-0.14,1.334-1.89,1.334h-0.57V215.018z M388.426,208.894
				c-1.349-0.808-2.293-1.981-2.293-3.492c0-1.296,0.945-3.612,4.001-3.612c2.436,0,3.493,1.534,3.493,2.904
				c0,1.432-0.506,2.274-2.548,3.216c1.974,1.004,2.86,2.079,2.86,3.629c0,2.143-1.686,3.713-4.254,3.713
				c-2.319,0-3.789-1.591-3.789-3.252C385.895,210.171,387.33,209.267,388.426,208.894z M391.863,212.482
				c0-1.136-0.532-1.865-2.893-3.295c-1.042,0.549-1.586,1.631-1.586,2.634c0,1.84,1.293,2.725,2.342,2.725
				C391.193,214.545,391.863,213.466,391.863,212.482z M390.625,207.636c0.903-0.705,1.51-1.449,1.51-2.726
				c0-1.47-0.979-2.411-2.118-2.411c-1.295,0-2.002,1.038-2.002,2.135C388.015,205.791,388.818,206.577,390.625,207.636z
				 M409.226,195.027c4.326,0,9.775,0.811,15.512,0.819v28.882c-10.419-1.049-22.663-1.876-25.357,3.179v-1.518
				c2.436-4.56,13.396-4.159,23.765-3.153v-0.831c-10.463-1.004-20.481-1.427-23.765,2.591v-25.957
				C400.028,195.87,403.778,195.032,409.226,195.027z M402.403,209.291h0.575l0.463-1.221h5.425l-5.282,10.827l0.976,0.27
				l6.603-12.965l-0.159-0.173h-8.1L402.403,209.291z M415.457,208.894c-1.354-0.808-2.295-1.981-2.295-3.492
				c0-1.296,0.939-3.612,3.996-3.612c2.44,0,3.495,1.534,3.495,2.904c0,1.432-0.509,2.274-2.554,3.216
				c1.982,1.004,2.87,2.079,2.87,3.629c0,2.143-1.691,3.713-4.261,3.713c-2.315,0-3.783-1.591-3.783-3.252
				C412.927,210.171,414.363,209.267,415.457,208.894z M418.895,212.482c0-1.136-0.533-1.865-2.89-3.295
				c-1.038,0.549-1.59,1.631-1.59,2.634c0,1.84,1.295,2.725,2.335,2.725C418.221,214.545,418.895,213.466,418.895,212.482z
				 M417.652,207.636c0.902-0.705,1.513-1.449,1.513-2.726c0-1.47-0.984-2.411-2.118-2.411c-1.295,0-2.002,1.038-2.002,2.135
				C415.045,205.791,415.85,206.577,417.652,207.636z M462.996,314.71l-64.407-52.504l-64.402,52.5
				c-33.238-38.588-33-83.118-32.903-101.491l0.011-30.229h0.12l97.175,79.221l97.171-79.221h0.131l0.003,30.229
				C496,231.588,496.239,276.122,462.996,314.71z M342.339,286.483c13.708,0.018,24.851-11.159,24.87-24.969
				c0.024-13.808-11.075-25.025-24.79-25.052c-13.701-0.018-24.845,11.155-24.87,24.963
				C317.528,275.239,328.627,286.452,342.339,286.483z M358.427,251.157c0.054,0.75-0.324,2.014-0.611,2.351
				c-0.269,0.083-0.972,0.149-1.497,0.183c-0.328,0.009-0.419,0.058-0.623,0.395c-0.614,1.051-1.164,2.022-1.814,3.273
				c-0.14,1.468-0.138,2.896-0.25,4.631c-0.044,0.616,0.035,1.428-0.373,2.126c-0.543,0.694-1.136,1.191-1.615,1.526
				c-0.098,0.06-0.232,0.234,0.181,0.108c0.242-0.068,1.393-0.647,1.639-0.728c0.812-0.264,1.746-1.264,3.036-0.009
				c0.625,0.604,1.57,1.169,2.697,1.934c0.417,0.275,0.639,0.227,1.19,0.717c0.453,0.399,0.663,1.277,0.93,1.726
				c0.688,1.184,0.765,1.911,0.754,2.187c-0.446,0.243-2.069,0.257-2.722,0.066c-0.22-0.408-0.201-1.021-0.333-1.335
				c-0.228-0.581-0.438-0.86-0.74-1.073c-0.492-0.352-0.867-0.755-1.38-1.043c-1.248-0.696-1.405-0.874-2.335-0.417
				c-0.838,0.408-2.155,1.597-3.527,2.32c-1.084,0.523-4.052-0.018-4.87-0.754c0.275,0.812,1.941,1.721,3.187,2.312
				c-0.173,0.435-0.62,2.724-1.529,4.054c-0.059-0.319-0.255-0.563-0.546-0.563c-0.841,0-0.68,1.788-1.481,2.706
				c-0.055-0.284-0.242-0.577-0.577-0.577c-0.783,0-0.693,1.682-1.579,2.564c-0.098-0.368-0.311-0.635-0.67-0.635
				c-0.348,0-0.672,0.342-0.981,0.665c-1.062,1.141-1.563,1.797-2.573,2.861c-3.404-0.204-8.432-2.56-10.219-4.706
				c3.227-3.446,6.123-6.906,7.542-7.904c0.683-2.035,2.708-6.336,3.456-8.327c-0.097-0.197-0.195-0.372-0.305-0.567
				c-0.501,0.288-1.095,0.354-1.351,0.215c0.213-0.557,0.229-1.435-0.011-2.118c-0.357,0.209-0.874,0.326-1.24,0.178
				c0.224-0.67,0.268-1.45,0.053-2.085c0,0-0.004-0.009-0.013-0.016c-0.464,0.207-0.896,0.277-1.229,0.155
				c0.193-0.751,0.375-1.461,0.146-2.401c-0.022-0.071-0.053-0.133-0.073-0.206c-0.614,0.314-2.781,0.705-3.275,0.508
				c-0.306-0.249,1.551-2.134,3.107-3.699c-1.47,0.652-3.391,1.346-6.325,1.93c-1.677,0.337-5.176,0.958-7.663,0.505
				c-0.419-0.07-0.32-0.616,0.078-0.621c1.305-0.004,3.074-0.075,4.365-0.396c0.346-0.08,0.894-0.381-0.104-0.55
				c-1.056-0.188-2.995-0.506-3.96-0.829c-0.344-0.113-0.159-0.523,0.131-0.499c1.188,0.091,2.6,0.335,3.612,0.377
				c0.595,0.016,0.856-0.058,0.408-0.441c-0.271-0.23-1.106-0.763-1.956-1.269c-0.19-0.111-0.16-0.368,0.071-0.406
				c0.672-0.112,3.314,1.537,5.087,2.023c0.398,0.112,0.734,0.179,1.067,0.121c0.356-0.066,0.415-0.272,0.386-0.426
				c-0.073-0.417-1.818-1.248-2.668-1.812c-0.351-0.232,0.016-0.499,0.384-0.388c0.947,0.271,3.103,1.408,4.083,1.53
				c0.783,0.093,1.062-0.12,1.024-0.342c-0.096-0.525-3.083-1.925-3.798-2.453c-0.17-0.129,0.069-0.368,0.271-0.337
				c1.528,0.19,4.502,2.242,5.814,2.009c0.143-0.021,0.329-0.133,0.296-0.321c-0.104-0.588-2.585-1.876-3.198-2.297
				c-0.304-0.207,0.051-0.42,0.48-0.317c0.907,0.204,2.317,0.922,3.169,1.348c0.399,0.2,0.732,0.284,1.148,0.209
				c0.543-0.098,1.014-0.663,0.792-1.841c-0.226-1.197-1.339-1.67-2.116-1.881c-0.867-0.239-0.222-0.643,0.52-0.501
				c1.426,0.271,2.468,0.944,2.712,2.207c0.038,0.206,0.047,0.49,0.058,0.761c0.024,0.696,0.52,0.447,0.935-0.134
				c0.786-1.1,0.95-2.204,0.817-2.949c-0.232-1.295-2.056-1.814-2.056-2.122c0-0.1,0.108-0.191,0.207-0.207
				c0.703-0.128,2.63,0.699,2.905,2.249c0.144,0.816-0.01,1.26-0.146,2.054c-0.031,0.169,0.084,0.311,0.348,0.045
				c0.918-0.923,1.68-2.584,1.415-4.079c-0.283-1.604-1.925-2.157-1.976-2.428c-0.011-0.069,0.122-0.173,0.249-0.195
				c0.669-0.118,2.486,0.949,2.836,2.717c0.308,1.567-0.426,4.814-5.29,7.409c2.042-0.45,2.606-0.386,2.826-0.138
				c2.348-0.63,3.843-1.106,4.455-0.972c0.651,1.012-0.736,1.415-0.754,2.165c0.018,0.728,1.637-0.483,1.354,0.663
				c-0.492,0.902-1.122,0.965-1.85,1.242c-0.373,0.255-1.816,1.283-2.6,1.927c2.34,1.632,4.746,4.118,4.901,4.235
				c0.145,0.364,0.721,1.389,1.373,2.933c0.02,0.026,0.04,0.063,0.053,0.088c0.337-0.997,0.872-2.681,1.106-3.517
				c0.207-0.732,0.135-0.976,0.371-1.411c0.199-0.368,0.857-0.976,1.443-1.849c0.525-0.772,1.371-1.979,1.663-2.436
				c0.495-0.754,0.985-0.604,1.891-0.848C356.99,251.197,358.023,251.136,358.427,251.157z M339.986,251.269
				c0.117-0.108,0.299-0.288,0.482-0.382c0.382-0.217,0.905-0.326,1.251-0.386c0.167,0.253,0.101,0.689-0.19,1.012
				c-0.305,0.35-0.637,0.186-0.949,0.044c-0.219-0.104-0.393-0.096-0.481-0.098C339.982,251.461,339.913,251.344,339.986,251.269z
				 M429.87,261.479c0.026-13.805,11.161-24.98,24.867-24.962c13.712,0.03,24.81,11.243,24.781,25.053
				c-0.023,13.804-11.158,24.98-24.863,24.958C440.945,286.506,429.848,275.005,429.87,261.479z M466.123,244.446
				c0.15,0.187,0.248,0.417,0.25,0.675c0.016,0.616-0.472,1.131-1.089,1.145c-0.612,0.018-1.122-0.471-1.141-1.087
				c-0.018-0.568,0.396-1.043,0.942-1.127l-1.275-1.974l-2.182,0.944c0.227,0.195,0.372,0.481,0.379,0.808
				c0.021,0.616-0.468,1.131-1.084,1.146c-0.621,0.012-1.132-0.472-1.148-1.089c-0.01-0.479,0.278-0.889,0.691-1.06
				c-0.652-0.696-2.059-1.743-3.404-2.196c1.036,1.886,1.612,4.231,1.567,6.175c1.402-0.091,5.245,1.093,6.709,2.19
				c1.186-1.754,2.965-3.424,4.947-4.12C469.336,244.553,467.482,244.256,466.123,244.446z M459.15,249.43
				c-0.172-0.011-0.335-0.031-0.497-0.06c-0.159-0.035-0.223-0.115-0.265-0.153c-0.044-0.056-0.188-0.229-0.562-0.253
				c-0.665-0.037-0.991,0.459-1.033,0.766c-0.026,0.226,0.033,0.461,0.171,0.634c0.131,0.147,0.297,0.235,0.49,0.253
				c0.133,0.012,0.276-0.007,0.421-0.062l0.016-0.014c0.271-0.15,0.41-0.379,0.501-0.621c0.04-0.098,0.355-0.23,0.705-0.239
				c0.067,0,0.12-0.045,0.134-0.111C459.248,249.499,459.215,249.435,459.15,249.43z M452.426,249.789
				c-0.128,0.235-0.124,0.473-0.075,0.672c0.003,0.021,0.092,0.131,0.104,0.148c-0.089,0.371-0.066,0.854,0.077,1.526
				c0.087,0.388,0.438,0.529,1.098,0.543c0.009,0.164,0.029,0.324,0.062,0.471c0.004,0.02,0.004,0.044,0.011,0.062
				c-0.391,0.108-0.766,0.171-1.106,0.151c-1.033-0.067-1.675-0.639-1.544-1.682c0.027-0.19,0.076-0.351,0.181-0.523
				c0.043-0.089,0-0.157-0.087-0.19c-0.367-0.129-1.433,0.747-1.593,1.954c-0.146,1.159,0.495,1.801,1.453,1.855
				c0.521,0.031,1.235-0.042,1.991-0.339c1.277-0.517,2.731-0.681,3.628,0.215c-0.674-0.124-2.415,0.009-2.911,0.103
				c-0.75,0.135-1.106,1.688-0.284,1.734c0.635,0.037,2.98-0.104,3.111-0.067c-0.239,1.019-1.757,2.303-3.227,2.613
				c-0.905-0.377-3.514-0.284-4.699,0.07c-1.497-1.689-2.582-4.816-2.706-5.85c-0.059-0.475-0.073-1.017,0.171-1.455
				c0.473-0.85,1.424-0.774,1.878-1.508c0.244-0.399,0.136-0.87,0.204-1.309c0.029-0.182,0.42-0.843-0.068-1.056
				c-0.208,0.257-0.546,0.452-0.978,0.319c-0.284-0.094-0.593-0.188-0.898-0.058c-0.515,0.23-0.621,0.871-1.023,1.297
				c-0.211,0.229-0.492,0.127-0.432-0.241c0.104-0.595,0.396-1.149,0.305-1.757c-0.094-0.612-0.549-1.082-1.172-1.428
				c-0.269-0.146-0.573-0.41-0.874-0.488c-0.291-0.073-0.54,0.033-0.552,0.164c0.141,0.104,0.261,0.267,0.27,0.508
				c0.007,0.548-0.581,0.848-0.596,1.364c-0.018,0.794,0.541,1.513,0.596,1.936c0.044,0.313-0.233,0.317-0.419,0.216
				c-0.415-0.22-1.057-0.577-1.65-0.588c-0.49-0.005-0.818,0.384-1.237,0.561c-0.182,0.071-0.963,0.064-0.808,0.435
				c0.428,0.087,0.743,0.359,0.888,0.759c0.108,0.302,0.173,0.546,0.456,0.752c0.479,0.335,1.469,0.251,1.954,0.333
				c0.312,0.06,0.67,0.246,0.763,0.889c0.066,0.443-0.095,0.947-0.306,1.313c-0.377,0.665-0.57,1.351-0.386,1.991
				c0.175-0.244,0.361-0.346,0.562-0.346c0.419,0,0.543,0.479,0.239,1.138c-0.277,0.587-0.448,1.262-0.176,2.024
				c0.122-0.253,0.338-0.415,0.577-0.415c0.375,0,0.585,0.397,0.313,1.134c-0.248,0.674-0.315,1.312-0.042,1.947
				c0.104-0.28,0.328-0.468,0.598-0.468c0.402,0,0.569,0.405,0.719,0.76c0.468,1.145,1.215,1.739,3.078,1.739
				c-0.647,1.224-6.032,0.435-8.22,0.184c-0.473-0.056-0.74-0.184-0.874-0.574c-0.346-0.86,0.457-1.565-0.014-2.475
				c-0.222-0.446-0.583-0.555-0.967-0.808c-0.171-0.11-0.67-0.745-0.993-0.47c0.133,0.337,0.103,0.625-0.275,0.967
				c-0.25,0.22-0.493,0.408-0.543,0.773c-0.067,0.608,0.434,1.187,0.593,1.719c0.14,0.386-0.101,0.546-0.429,0.302
				c-0.515-0.391-1.271-1.317-2.068-1.317c-0.543,0-0.689,0.328-1.122,0.523c-0.192,0.085-1.035,0.173-0.956,0.586
				c0.371,0.064,0.686,0.274,0.783,0.77c0.072,0.326,0.146,0.658,0.438,0.878c0.728,0.553,1.867,0.309,2.541,0.445
				c0.268,0.056,0.31,0.284,0.056,0.439c-0.566,0.337-1.369,0.559-1.651,1.122c-0.23,0.466-0.089,0.996-0.099,1.453
				c-0.007,0.199-0.273,0.838,0.174,0.971c0.225-0.297,0.529-0.523,1.047-0.452c0.34,0.045,0.614,0.195,0.949,0.031
				c0.557-0.288,0.606-0.803,0.904-1.282c0.155-0.25,0.398-0.494,0.796-0.494c0.244,0,0.478,0.058,0.678,0.23
				c0.432,0.384,0.381,1.298,1.702,1.492c-0.072-0.142-0.103-0.319-0.103-0.466c0-0.266,0.153-0.479,0.424-0.479
				c0.299,0,0.512,0.146,0.789,0.612c0.352,0.599,0.727,0.776,1.317,0.847c-0.077-0.146-0.122-0.337-0.122-0.51
				c0-0.275,0.158-0.452,0.408-0.452c0.159,0,0.442,0.058,0.684,0.47c0.381,0.647,0.66,0.954,1.326,1.029
				c-0.195-0.377-0.038-0.883,0.459-0.883c0.506,0,1.773,0.439,2.717,0.829c-0.031,2.427,1.55,5.03,3.892,6.609
				c-0.086-0.457,0.153-0.719,0.497-0.719c0.947,0,1.429,2.239,3.558,3.256c-0.108-0.426,0.12-0.701,0.424-0.701
				c0.253,0,0.588,0.159,0.774,0.257c1.901,1.029,3.928,2.333,4.902,3.186c1.979-0.604,5.207-2.537,7.316-4.711
				c-1.3-0.399-4.894-3.092-6.143-4.382c-2.251-2.32-2.855-4.746-2.855-6.547c0-0.602,0.092-1.167,0.234-1.612
				c0.661,0.391,1.591,0.333,2.155-0.195c-1.031-0.808-0.873-2.391-0.526-2.963c0.566,0.468,1.604,0.324,2.134-0.145
				c-0.783-0.489-1.209-1.763-0.805-2.854c0.437,0.452,1.465,0.483,2.081-0.026c-0.822-0.694-1.243-1.792-1.016-3.088
				c0.379,0.521,1.1,0.593,1.641,0.382c-0.333-0.701-0.354-1.854-0.451-2.621c-0.127-1.052-0.436-2.242-0.783-2.879
				c-1.136-0.976-4.572-2.361-6.725-2.361c-0.293,0-0.578,0.042-0.817,0.1c-0.593,0.138-1.02,0.344-1.043,0.452
				c-0.321,0.501-1.115,0.612-1.825,0.803C454.322,249.112,452.952,249.485,452.426,249.789z M455.722,266.588h-0.182
				c-0.14,1.466-0.949,3.692-1.459,4.5l0.942-0.736l0.604,0.736l0.618-0.736l0.874,0.736
				C456.648,270.241,455.863,268.045,455.722,266.588z M472.295,273.683c0.199-0.293,0.445-0.71,0.445-0.71
				c-0.92-1.401-1.614-2.932-1.49-4.701c0.14-1.918,1.218-2.495,2.052-2.459c0.758,0.026,1.271,0.607,1.312,1.45
				c0.648-0.546,0.925-1.176,0.97-1.818c0.039-0.497-0.209-1.265-1.057-1.481c1.527-1.415,1.375-4.24-0.187-5.323
				c0.217,2.029-1.295,3.425-2.651,4.742c-1.828,1.763-2.062,3.766-1.748,5.854c-1.08-2.096-1.581-4.07-1.441-6.021
				c0.151-2.187,1.256-4.444,2.854-4.329c0.512,0.035,1.046,0.293,1.259,0.757c0.766-1.28,0.223-2.695-1.002-2.802
				c1.255-3.009-0.776-6.034-2.459-6.69c0.437,0.907,0.645,1.82,0.568,2.872c-0.206,2.898-2.731,5.202-2.991,9.51
				c-0.276,4.661,2.317,8.709,5.093,11.8C471.82,274.33,472.058,274.033,472.295,273.683z M461.346,272.981h-0.182
				c-0.136,1.469-0.96,3.695-1.466,4.502l0.939-0.74l0.611,0.74l0.617-0.736l0.878,0.736
				C462.262,276.632,461.485,274.441,461.346,272.981z M457.025,254.103c0.146-0.286,0.229-0.683,0.229-0.911
				c0-0.167-0.018-0.393-0.188-0.57c-0.178-0.175-0.625-0.262-1.08-0.262c-0.467,0-0.958,0.071-1.23,0.246
				c-0.038,0.129-0.096,0.295-0.171,0.468C455.442,253.082,456.356,253.289,457.025,254.103z"/>
		</g>
	</g>
</g>
</svg>
