<?xml version="1.0" encoding="utf-8"?>
<!-- Generator: Adobe Illustrator 16.0.0, SVG Export Plug-In . SVG Version: 6.00 Build 0)  -->
<!DOCTYPE svg PUBLIC "-//W3C//DTD SVG 1.1//EN" "http://www.w3.org/Graphics/SVG/1.1/DTD/svg11.dtd">
<svg version="1.1" id="Layer_1" xmlns="http://www.w3.org/2000/svg" xmlns:xlink="http://www.w3.org/1999/xlink" x="0px" y="0px"
	 width="312px" height="381px" viewBox="-18.622 -19.802 312 381" enable-background="new -18.622 -19.802 312 381"
	 xml:space="preserve">
<path fill="#EE3E33" d="M16.104,144.751c-11.332-40.355-4.706-77.693-4.706-122.854C51.79,1.819,91.786,0,135.128,0
	c37.475,0,90.625,4.836,122.637,21.833c3.282,42.573,5.17,80.044-5.765,128.417c-10.937,48.372-42.745,115.197-115.28,164.563
	C57.559,262.931,31.676,200.21,16.104,144.751"/>
<path fill="#FFFFFF" d="M53.925,85.622l-39.003,42.409c8.746,40.652,33.037,125.864,121.508,183.347
	c87.678-60.332,111.174-143.029,116.475-184.277l-37.909-41.579l-41.979,42.539l-38.672-42.175l-38.535,41.646L53.925,85.622"/>
<path fill="#FFFFFF" d="M52.598,47.968l4.8,8.111h-9.104L52.598,47.968 M41.674,52.771l-2.98,4.303l6.787-0.499L41.674,52.771z
	 M63.686,52.771l3.311,4.303l-6.619-0.994L63.686,52.771z M71.797,42.505c-0.495,0-1.491-0.328,0-0.826c1.161,0,2.813,0,4.8,2.98
	c0.994-0.499,3.309-3.975,5.794-2.98c-0.332,3.644-7.78,17.377-8.771,18.701c-3.314-1.987-22.845-2.98-21.022-2.98
	c1.489,0-18.373,0.498-21.186,2.98c-0.826-1.987-8.606-15.06-8.606-19.196c2.318-0.996,4.964,2.318,5.79,2.978
	c1.99-2.978,3.81-2.978,4.472-2.978c1.82,0.495,0.826,0.994,0.328,1.321c-9.6,7.947,4.308,16.551,7.118,7.947
	c12.58,1.156,9.271-8.773,6.292-10.266c-2.318-0.66-0.83-0.824,0-0.824c0.993-0.497,2.318-0.497,2.318,0.164
	c0-5.128,0.662-8.937,3.475-10.426c2.813,1.82,3.476,5.298,2.813,10.426c0.662-0.661,1.986-0.164,2.98-0.164
	c0.495,0.164,2.482,0.164,0.495,1.322c-3.475,0.993-6.289,11.419,5.793,9.768C67.493,59.056,82.059,49.295,71.797,42.505z"/>
<path fill="#FFFFFF" d="M38.593,63.221c0.969,0,1.938,0.647,1.938,2.267c0,1.298-0.969,2.267-1.938,2.267
	c-1.3,0-2.269-0.969-2.269-2.267C36.324,63.868,37.293,63.221,38.593,63.221 M46.036,61.604c1.294,0,2.591,0.97,2.591,2.264
	c0,1.619-1.297,2.267-2.591,2.267c-0.972,0-2.266-0.647-2.266-2.267C43.77,62.574,45.064,61.604,46.036,61.604z M53.807,60.958
	c0.969,0,2.263,1.294,2.263,2.588c0,0.969-1.294,2.263-2.263,2.263c-1.297,0-2.27-1.294-2.27-2.263
	C51.538,62.252,52.51,60.958,53.807,60.958z M60.603,61.604c1.294,0,2.27,0.97,2.27,2.264s-0.975,2.267-2.27,2.267
	c-1.294,0-2.263-0.972-2.263-2.267C58.339,62.574,59.309,61.604,60.603,61.604z M68.051,63.221c1.294,0,2.263,0.972,2.263,2.267
	c0,1.298-0.969,2.267-2.263,2.267c-1.297,0-2.269-0.969-2.269-2.267C65.782,64.193,66.754,63.221,68.051,63.221z M36.649,70.02
	c-1.294-2.266-2.913-6.151-3.888-7.768c3.563-2.271,16.188-2.591,20.399-2.917c7.121,0,16.508,1.297,19.747,2.917
	c0-0.647-1.944,6.147-2.914,8.09c-5.179-1.941-12.628-2.263-17.157-2.263C47.33,67.753,40.856,68.4,36.649,70.02z"/>
<path fill="#FFFFFF" d="M53.348,69.971c9.065,0,16.189,0.972,16.189,2.266c0,0.97-7.124,1.616-16.189,1.616
	c-8.737,0-16.186-0.646-16.186-1.616C37.163,70.943,44.611,69.971,53.348,69.971"/>
<path fill="#FFFFFF" d="M203.396,52.771l-2.979,4.303l7.445-0.499L203.396,52.771 M214.653,47.968l4.636,8.111h-8.608
	L214.653,47.968z M226.071,52.771l3.31,4.303l-6.62-0.994L226.071,52.771z M234.185,42.505c-0.994,0-1.988-0.328,0-0.826
	c0.989,0,2.977,0,4.305,2.98c0.99-0.499,3.807-3.975,6.287-2.98c-0.498,3.644-7.615,17.377-8.771,18.701
	c-3.313-1.987-23.009-2.98-21.353-2.98c1.818,0-17.879,0.498-20.855,2.98c-0.828-1.987-8.605-15.06-9.104-19.196
	c2.979-0.996,5.298,2.318,6.287,2.978c1.987-2.978,3.811-2.978,4.303-2.978c1.492,0.495,0.996,0.994,0.498,1.321
	c-10.098,7.947,4.302,16.551,6.789,7.947c12.744,1.156,9.431-8.773,6.285-10.266c-2.146-0.66-0.494-0.824,0.168-0.824
	c0.662-0.497,2.648-0.497,2.648,0.164c0-5.131,0-8.937,2.98-10.426c2.812,1.82,3.639,5.295,3.308,10.426
	c0.331-0.661,1.82-0.164,2.813-0.164c0.334,0.164,1.985,0.164,0,1.322c-3.31,0.993-5.795,11.419,6.291,9.768
	C229.381,59.056,244.278,49.295,234.185,42.505z"/>
<path fill="#FFFFFF" d="M200.815,63.221c0.976,0,1.943,0.647,1.943,2.267c0,1.298-0.969,2.267-1.943,2.267
	c-1.295,0-2.265-0.969-2.265-2.267C198.552,63.868,199.521,63.221,200.815,63.221 M208.265,61.604c1.295,0,2.588,0.97,2.588,2.264
	c0,1.619-1.293,2.267-2.588,2.267c-0.973,0-2.27-0.647-2.27-2.267C205.995,62.574,207.292,61.604,208.265,61.604z M216.028,60.958
	c0.976,0,2.27,1.294,2.27,2.588c0,0.969-1.294,2.263-2.27,2.263c-1.293,0-2.264-1.294-2.264-2.263
	C213.767,62.252,214.735,60.958,216.028,60.958z M222.831,61.604c1.294,0,2.263,0.97,2.263,2.264s-0.969,2.267-2.263,2.267
	s-2.27-0.972-2.27-2.267C220.562,62.574,221.537,61.604,222.831,61.604z M230.276,63.221c1.293,0,2.267,0.972,2.267,2.267
	c0,1.298-0.974,2.267-2.267,2.267c-1.297,0-2.267-0.969-2.267-2.267C228.011,64.193,228.979,63.221,230.276,63.221z M198.874,70.02
	c-1.294-2.266-2.913-6.151-3.887-7.768c3.563-2.271,16.188-2.591,20.395-2.917c7.124,0,16.514,1.297,19.752,2.917
	c0-0.647-1.943,6.147-2.916,8.09c-5.18-1.941-12.625-2.263-17.158-2.263C209.56,67.753,203.085,68.4,198.874,70.02z"/>
<path fill="#FFFFFF" d="M215.573,69.959c9.062,0,16.186,0.972,16.186,2.266c0,0.973-7.123,1.619-16.186,1.619
	c-8.743,0-16.188-0.646-16.188-1.619C199.385,70.931,206.83,69.959,215.573,69.959"/>
<path fill="#FFFFFF" d="M115.196,30.46h1.324v-6.62h-1.324V30.46z M122.645,28.31L122.645,28.31l-2.646-4.633h-1.491v6.62h1.321
	v-4.636l2.651,4.636h1.486v-6.62h-1.322L122.645,28.31L122.645,28.31z M109.734,44.693h2.977c2.318,0,2.816-2.147,2.816-3.475
	c0-1.322-0.498-3.309-2.646-3.309h-3.146L109.734,44.693L109.734,44.693z M111.223,39.07h1.324c0.662,0,1.656,0.164,1.656,2.148
	c0,1.16-0.495,2.318-1.656,2.318h-1.324V39.07z M116.354,40.555c0,3.312,2.318,3.644,3.312,3.644c0.826,0,3.308-0.331,3.308-3.644
	c0-3.141-2.481-3.475-3.308-3.475C118.672,37.08,116.354,37.414,116.354,40.555z M117.845,40.555c0-1.819,0.994-2.314,1.82-2.314
	c0.662,0,1.819,0.495,1.819,2.314c0,1.99-1.157,2.482-1.819,2.482C118.839,43.037,117.845,42.545,117.845,40.555z M130.589,36.588
	h-2.15l-1.157,5.295l-1.161-5.295h-2.153v6.784h1.324v-5.626l1.327,5.626h1.322l1.324-5.626v5.626h1.324V36.588L130.589,36.588z
	 M113.045,59.092h1.325v-6.784h-1.325V59.092z M120.163,56.446L120.163,56.446l-2.652-4.8h-1.652v6.948h1.488V53.63l2.652,4.964
	h1.485v-6.948h-1.321V56.446z M122.973,54.791c0,3.312,2.318,3.64,3.312,3.64c0.829,0,3.145-0.328,3.145-3.64
	c0-3.145-2.315-3.479-3.145-3.479C125.291,51.313,122.973,51.646,122.973,54.791z M124.301,54.791c0-1.819,1.157-2.318,1.983-2.318
	c0.662,0,1.823,0.499,1.823,2.318c0,1.983-1.161,2.481-1.823,2.481C125.458,57.273,124.301,56.774,124.301,54.791z M107.583,17.222
	c0,0,5.79,2.318,10.925,0.498c5.957-2.816,11.091-3.974,15.393-1.987v50.809c-3.643-1.324-7.616-0.829-13.409,0.496
	c-5.128,1.487-8.606,1.487-12.908,0.662L107.583,17.222L107.583,17.222z"/>
<polyline fill="#FFFFFF" points="105.484,17.68 101.177,21.483 101.177,72.456 105.484,67.99 105.484,17.68 "/>
<path fill="#FFFFFF" d="M102.668,73.285l4.8-3.811c3.476,0.997,10.924-0.492,14.399-0.99c5.793-0.828,8.278-1.986,12.416,0
	c-2.318,0.99-3.81,2.98-3.81,4.801H102.668"/>
<path fill="#FFFFFF" d="M167.384,73.285l-4.636-3.811c-3.972,0.997-10.757-0.492-14.399-0.99c-6.289-0.828-8.274-1.986-11.915,0
	c1.82,0.99,3.145,2.98,2.813,4.801H167.384"/>
<polyline fill="#FFFFFF" points="164.075,17.182 168.544,21.483 168.544,71.961 164.075,67.656 164.075,17.182 "/>
<path fill="#FFFFFF" d="M157.328,29.47L157.328,29.47l-2.647-4.8h-1.49v6.783h1.326v-4.796l2.812,4.796h1.488V24.67h-1.488
	L157.328,29.47 M147.065,27.979c0-1.819,0.994-2.317,1.819-2.317c0.666,0,1.82,0.498,1.82,2.317c0,1.99-1.154,2.482-1.82,2.482
	C148.06,30.46,147.065,29.968,147.065,27.979z M145.578,27.979c0,3.312,2.317,3.644,3.308,3.644c0.83,0,3.312-0.331,3.312-3.644
	c0-3.144-2.481-3.475-3.312-3.475C147.896,24.503,145.578,24.834,145.578,27.979z M144.417,25.995
	c-0.164-0.993-0.993-2.318-2.977-2.318c-1.823,0-3.146,1.158-3.146,3.476c0,2.482,1.321,3.643,3.146,3.643
	c1.654,0,2.646-0.996,2.977-2.485h-1.491c-0.163,0.83-0.661,1.325-1.485,1.325c-1.323,0-1.658-1.158-1.658-2.482
	c0-1.819,0.996-2.317,1.658-2.317c1.158,0,1.322,0.826,1.485,1.16H144.417z M150.706,45.027h1.49V38.24h-1.49V45.027z
	 M145.578,42.047h2.978v-1.321h-2.978v-1.492h3.476v-1.16h-4.968v6.786h1.492V42.047L145.578,42.047z M150.873,55.784
	c0-1.82,0.993-2.318,1.821-2.318c0.662,0,1.82,0.498,1.82,2.318c0,1.983-1.158,2.481-1.82,2.481
	C151.866,58.266,150.873,57.768,150.873,55.784z M149.385,55.784c0,3.308,2.317,3.639,3.312,3.639c0.826,0,3.309-0.331,3.309-3.639
	c0-3.147-2.482-3.477-3.309-3.477C151.702,52.309,149.385,52.637,149.385,55.784z M143.26,52.637h1.324
	c0.66,0,1.489,0.167,1.489,2.154c0,1.158-0.331,2.314-1.489,2.314h-1.324V52.637z M141.771,58.266h2.98
	c2.314,0,2.811-2.154,2.811-3.643c0-1.321-0.496-3.142-2.811-3.142h-2.98V58.266z M162.295,17.222c0,0-5.796,2.318-10.924,0.498
	c-6.291-2.816-11.255-3.974-14.897-1.987v50.809c3.144-1.324,6.95-0.829,12.743,0.496c5.464,1.487,8.606,1.487,13.078,0.662V17.222z
	"/>
<path fill="#FFFFFF" d="M135.273,69.476c-1.819,1.99-2.811,1.99-2.314,3.811h4.134C137.591,71.466,137.093,70.472,135.273,69.476"/>
<path fill="#EE3E33" d="M58.124,145.07c0.647,0,1.294,0.647,1.294,1.295c0,0.646-0.647,1.294-1.294,1.294s-1.294-0.647-1.294-1.294
	C56.83,145.717,57.477,145.07,58.124,145.07 M48.737,163.841c0.647-1.294,1.941-5.18,2.588-6.471
	c-0.647-1.294-1.941-2.596-3.235-2.596c0.647-1.291,2.91-3.231,2.588-4.203c-0.647-1.295-1.619-0.97-3.885-2.268
	c0.65-1.619,2.591-2.588,3.561-2.588c1.297-0.325,1.297-2.267,3.563-3.238c2.264-1.294,4.533-1.294,7.121-1.294
	c3.885,0.322,13.598,2.914,11.009,14.893c5.827,11.976,26.542-4.21,33.666-4.21c-1.297,2.909-2.913,5.505-4.532,8.09
	c1.941,1.294,4.532,0,6.799,0c-2.267,6.474-6.152,9.39-9.391,11.979c3.238,10.682,15.539,6.475,26.548,5.181
	c-1.297,3.557-5.829,4.207-7.771,6.796c3.563,3.885,7.771,9.063,10.359,14.568c-4.854-3.237-14.892-6.802-18.452-8.096
	c-6.474-2.589-20.071-2.589-26.545,0c1.294,2.591,3.886,3.885,5.826,5.504c-3.235,6.473-10.034,2.592-13.919,1.295
	c-3.563,2.59-9.712,2.59-11.332,1.297c0,0,0-1.622,1.941-3.237c1.297-1.619-3.886-2.268-5.502-4.857c0-2.264,2.914,0,4.208-2.589
	C60.712,181.321,46.792,179.702,48.737,163.841z"/>
<path fill="#EE3E33" d="M151.954,146.975c0.973,0,1.294,0.325,1.294,1.294c0,0.65-0.321,1.297-1.294,1.297
	c-0.646,0-1.294-0.646-1.294-1.297C150.66,147.3,151.308,146.975,151.954,146.975 M142.89,165.749
	c0.325-1.294,1.623-5.181,2.592-6.475c-0.969-1.294-2.267-2.909-3.238-2.909c0.646-1.295,2.916-2.916,2.27-3.886
	c-0.328-1.294-1.297-0.972-3.562-2.266c0.646-1.616,2.267-2.591,3.562-2.914c1.295,0,1.295-1.941,3.235-3.235
	c2.267-0.972,4.854-0.972,7.444-1.294c3.562,0.647,13.596,3.235,11.008,15.21c5.826,11.653,26.548-4.208,33.668-4.208
	c-1.294,2.592-3.238,5.501-4.532,8.094c1.94,1.294,4.532,0,6.799,0c-2.267,6.474-6.151,9.387-9.387,11.979
	c3.235,10.355,15.538,6.474,26.545,5.176c-1.294,3.562-5.827,3.887-8.097,6.796c3.886,3.887,8.097,9.065,10.685,14.567
	c-4.854-3.239-15.217-6.796-18.452-8.09c-6.799-2.591-20.07-2.591-26.869,0c1.295,2.589,4.207,3.883,6.151,5.18
	c-3.562,6.795-10.034,2.911-13.923,1.616c-3.559,2.587-9.709,2.587-11.328,1.294c0,0,0-1.942,1.943-3.239
	c1.295-1.94-3.885-2.263-5.508-4.852c0-2.591,2.592,0,4.211-2.591C154.546,182.907,140.948,181.614,142.89,165.749z"/>
<path fill="#EE3E33" d="M107.273,213.769c0.325,0,0.972,0.322,0.972,1.295c0,0.32-0.646,0.97-0.972,0.97
	c-0.969,0-1.616-0.648-1.616-0.97C105.657,214.091,106.305,213.769,107.273,213.769 M97.562,232.54
	c0.646-1.295,1.941-5.179,2.916-6.472c-0.975-1.301-2.27-2.916-3.238-2.916c0.322-1.295,2.588-2.911,2.264-3.883
	c-0.647-1.297-1.295-0.973-3.883-2.268c0.972-1.619,2.588-2.588,3.883-2.912c1.297,0,1.297-1.945,3.238-3.238
	c2.266-0.969,4.857-0.969,7.448-1.295c3.558,0.326,13.27,3.238,10.682,15.211c5.826,11.652,26.87-4.205,33.993-4.205
	c-1.294,2.59-3.238,5.506-4.532,8.09c1.941,1.296,4.532,0,6.475,0c-1.941,6.476-5.826,9.063-9.064,11.979
	c3.238,10.359,15.537,6.475,26.545,5.18c-1.298,3.56-5.827,3.883-8.094,6.476c3.886,4.203,8.094,9.387,10.682,14.889
	c-4.854-3.236-15.214-6.799-18.449-8.094c-6.799-2.592-20.074-2.592-26.87,0c1.295,2.592,3.886,3.885,6.149,5.18
	c-3.558,6.799-10.034,2.914-14.245,1.295c-3.235,2.916-9.387,2.916-11.328,1.619c0,0,0-1.941,2.264-3.236
	c1.297-1.94-3.883-2.266-5.502-4.856c0-2.592,2.591,0,4.207-2.592C109.54,249.694,95.62,248.399,97.562,232.54z"/>
<g>
	<path fill="#EE3E33" d="M0.322,213.528c0.735-2.938,3.044-5.141,5.559-5.557c5.034-1.26,9.017-6.922,13.841-7.549
		c7.762-1.047,13.421,6.289,12.164,10.484c-1.887,3.67-11.532,8.178-8.807,12.159c5.347,7.865,9.438,12.269,10.064,19.293
		c0.422,4.195-7.13,5.031-7.13,9.224c5.456,8.914,49.18,60.604,85.146,74.653c0.734-3.563,0.212-6.606,8.81-7.338
		c7.968-0.631,21.705-0.631,29.888-0.946c9.854-0.421,8.597,8.702,12.162,7.34c36.488-13.734,77.071-61.021,85.039-74.963
		c0-2.519-3.771-4.615-5.449-6.291c-2.1-2.097-0.633-7.656,0.312-9.646c2.831-5.871,5.977-8.912,9.332-15.936
		c-2.936-5.138-6.082-4.615-8.811-8.39c-2.201-5.871,8.078-14.678,14.367-10.798c4.717,1.992,7.447,4.718,12.375,7.335
		c6.08,3.357,4.928,9.23,3.146,14.26c-2.412,6.712-7.236,13.109-10.067,20.865c-1.99,5.56,2.416,5.246,3.045,7.236
		c2.935,1.992,3.355,5.555-0.316,11.428c-19.084,30.826-57.674,69.303-94.899,85.027c-3.354,1.367-5.557,2.834-12.37,1.367
		c-5.246-1.154-3.88-7.865-6.295-10.068c-0.941-2.309-32.296-0.941-34.186,1.574c-1.154,4.508-3.669,10.276-9.226,8.807
		c-37.436-9.645-96.264-76.537-101.923-87.86c-2.203-4.404,1.048-10.589,5.347-13.839c0.419-1.676-2.203-5.975-2.622-7.651
		C6.091,230.825-1.667,221.706,0.322,213.528"/>
	<path fill="#FFFFFF" d="M21.818,202.616c-2.306,0.104-5.14,2.096-3.773,5.868c2.306-1.362,4.192-4.508,6.289-3.879
		c0.945,1.261-0.419,2.517,3.357,6.396c0.841,0,1.677-0.42,2.099-0.836C29.261,205.968,23.708,202.929,21.818,202.616
		 M22.553,207.964c-0.838,0.834-3.25,3.037-4.092,4.297c0.632,2.201,1.154,3.564,2.518,5.869l5.766-4.611
		C25.385,211.948,24.021,210.581,22.553,207.964z M13.85,206.39c-2.099,0.838-4.195,3.775-6.71,4.191
		c-11.012,2.1,0.522,16.672,6.607,32.293c4.192-4.402,6.814-3.879,10.064-3.354c1.677,0.734,5.034,4.195,6.71,3.566
		c0.842-1.471-3.669-9.332-5.034-11.326C21.818,226.415,16.578,217.712,13.85,206.39z M27.271,245.706
		c-1.257-1.258-3.669-4.822-5.766-4.402c0,2.516,0.838,5.662,2.935,7.758C25.278,248.222,26.433,246.966,27.271,245.706z
		 M18.045,242.874c-4.092,3.461-12.795,8.807-8.497,18.033c9.232,15.307,68.161,77.377,96.683,83.25
		c3.985,1.36,7.549-1.472,8.388-7.027c0.841-5.553,2.728-4.086,2.831-7.443C92.284,330.944,23.079,260.072,18.045,242.874z
		 M118.395,325.702c-0.838,0-2.515-1.05-3.356-1.05c-0.419,0.421-0.839,0.945-0.839,1.783
		C115.038,327.274,118.814,327.798,118.395,325.702z M149.33,326.333c-0.42-2.938,3.772-2.938,5.032-4.195
		c2.097-3.566-32.507-1.676-36.912-0.313c-0.416,1.26,4.617,2.518,3.776,6.604c-0.42,2.098-2.097,3.773-1.677,6.293
		c13.317-2.309,21.495-2.203,31.563-0.94C151.845,332.202,148.487,328.853,149.33,326.333z M156.144,324.55
		c-0.838-0.418-1.779,0.84-2.621,1.258c0.42,0.42,1.996,1.154,3.775,0.629C157.401,325.179,156.144,324.97,156.144,324.55z
		 M264.252,255.247c0.632-4.402-2.303-5.351-4.397-7.445c-2.104-2.096-4.303-3.354-6.082-5.348c-0.948,3.67,0,3.67-3.252,7.344
		c-18.877,29.143-54.947,63.217-82.633,75.904c-6.188,3.354-9.961,3.983-15.201,3.565c0,1.258,1.256,3.355,1.678,4.611
		c1.255,3.774-0.842,13.526,12.267,10.381c0,0,25.795-9.646,54.739-36.486C256.392,275.376,264.252,255.247,264.252,255.247z
		 M249.992,241.198c-0.839,0-2.935,1.676-3.354,2.096c0,1.258,1.258,2.1,2.1,2.938C250.415,245.394,250.834,242.874,249.992,241.198
		z M270.547,213.519c1.048-2.518-7.235-8.178-10.487-7.967c-0.105,2.934-1.258,4.926-3.354,9.646
		c-3.46,7.762-9.648,13.838-12.167,21.389c-0.419,1.258-1.254,2.936,0,4.192c4.931-3.25,9.755-3.772,14.054,1.468
		c1.262-0.836,1.573-3.67,2.309-5.24C263.836,230.714,270.547,222.325,270.547,213.519z M255.448,210.165l-2.625-2.83
		c-1.154,0.94-3.25,2.934-4.086,3.981c0.941,1.992,2.408,3.67,4.299,4.611C254.294,215.929,255.026,211.423,255.448,210.165z
		 M250.834,201.358c-2.202,0.416-7.549,5.031-5.034,7.548c5.977,0.842,2.727-5.662,5.348-6.289c4.092,0,2.938,4.192,6.291,2.62
		C259.013,202.511,252.617,201.042,250.834,201.358z"/>
</g>
<path fill="#EE3E33" d="M102.652,337.606c-0.662,1.492-0.829,1.66-1.655,1.492l-0.662-0.332c-0.164,0-0.331,0.332-0.331,0.5
	c1.157,0.658,1.986,0.826,2.813,1.156c0.499,0.328,1.325,0.826,2.318,1.324c0.164-0.166,0.164-0.498,0.164-0.662l-0.495-0.334
	c-0.662-0.494-0.662-0.494,0-1.984l3.145-6.783c0.167-0.334,0.167-0.334,0.495-0.166l0.993,0.33c1.16,0.662,1.16,1.324,0.826,2.646
	c0,0,0.498,0.168,0.498,0c0.498-0.826,1.157-1.984,1.491-2.318c0-0.164,0-0.328-0.167-0.328h-0.167
	c-0.328,0.164-0.495,0-1.485-0.498l-5.629-2.646c-1.16-0.494-1.16-0.494-1.16-0.828c-0.164,0,0,0-0.164-0.164
	c-0.164,0-0.331,0-0.331,0c-0.332,0.498-0.827,1.492-1.656,2.318c0,0.164,0.167,0.494,0.498,0.494
	c0.99-0.828,1.489-1.32,2.646-0.828l0.996,0.498c0.328,0.164,0.328,0.164,0.164,0.498L102.652,337.606 M98.017,330.823
	c0.827-1.156,1.325-2.314,1.987-2.648c0.167-0.164,0.495-0.164,0.829,0l0.328,0.166c0.164-0.166,0.331-0.33,0.331-0.662
	c-0.659-0.166-1.157-0.494-1.655-0.826c-0.495-0.33-1.157-0.662-1.984-0.996c-0.167,0-0.167,0.334-0.167,0.498l0.167,0.168
	c0.499,0.33,0.663,0.494,0.663,0.99c0,0.498-0.663,1.654-1.161,2.816l-1.157,1.981c-0.334,0.334-0.334,0.498-0.498,0.662
	c0-0.498-0.328-1.324-0.498-2.479l-0.495-2.152c-0.331-2.15-0.663-3.807-0.495-4.633c-0.331,0-0.666-0.334-1.158-0.662
	c-0.662-0.33-1.491-0.662-1.989-1.156c-0.328,0-0.492,0.328-0.492,0.658l0.492,0.168c0.334,0.33,0.498,0.658,0.498,0.992
	c0,0.164-0.164,0.496-0.498,1.321l-2.147,3.808c-0.663,1.158-1.328,2.153-1.823,2.483c-0.167,0.164-0.495,0-0.829,0h-0.328
	c-0.167,0-0.331,0.328-0.331,0.496c0.495,0.33,1.157,0.494,1.655,0.828c0.495,0.328,1.157,0.66,1.82,1.158
	c0.163-0.168,0.331-0.498,0.331-0.662l-0.331-0.168c-0.335-0.328-0.663-0.662-0.663-0.99c0.164-0.498,0.663-1.653,1.325-2.815
	l1.655-2.813c0.164-0.498,0.328-0.826,0.495-0.826c0.167,0.328,0.331,1.158,0.662,2.646l0.99,6.127
	c0.335,1.154,0.335,2.312,0.335,2.312c0.331,0.171,0.826,0.171,0.993,0.171c0.164-0.662,0.826-1.492,1.324-2.482L98.017,330.823z
	 M77.326,320.397c-1.157,1.492-1.488,2.813-1.157,3.808c0.331,1.323,1.157,2.149,2.15,2.812c1.16,0.83,2.482,0.994,3.643,0.83
	c1.157-0.498,2.153-1.492,3.145-2.816l0.993-1.485c0.662-1.16,1.488-2.152,1.819-2.484c0.498-0.166,0.826-0.166,1.161,0l0.331,0.168
	c0.164-0.168,0.331-0.334,0.164-0.498c-0.495-0.332-0.994-0.662-1.489-1.157c-0.498-0.164-0.993-0.662-1.822-1.16
	c-0.164,0-0.328,0.334-0.328,0.334l0.328,0.492c0.334,0.334,0.498,0.661,0.498,0.995c0,0.496-0.826,1.486-1.655,2.646l-0.991,1.654
	c-1.327,1.987-2.979,3.145-4.636,1.987c-2.153-1.491-1.16-3.477,0-5.131l2.154-3.145c0.823-1.158,0.99-1.328,1.652-0.994
	l0.495,0.164c0.164,0,0.334-0.328,0.164-0.498c-0.492-0.492-1.157-0.822-1.983-1.32c-0.662-0.5-1.324-0.992-1.987-1.326
	c-0.164,0-0.331,0.164-0.331,0.334l0.331,0.328c0.499,0.5,0.499,0.664-0.331,1.984L77.326,320.397z M76.5,311.132
	c-1.492-0.996-2.98-1.658-4.636-1.492c-1.489,0-2.978,0.496-4.302,2.152c-1.161,1.653-1.325,3.479-0.827,4.799
	c0.328,1.488,1.489,2.979,2.646,3.975c0.993,0.826,2.482,1.154,3.145,1.324c0.498-0.17,1.327-0.83,2.153-1.656
	c0-0.334-0.164-0.498-0.334-0.661c-0.99,0.825-2.81,1.487-4.302,0.163c-1.655-1.157-2.15-3.807-0.164-6.454
	c1.984-2.646,4.636-2.812,6.122-1.652c1.324,0.99,1.658,2.313,0.996,3.807c0,0.164,0.328,0.494,0.662,0.33
	c0.495-0.83,1.157-1.985,1.321-2.149C78.653,313.28,77.824,312.122,76.5,311.132z M65.081,311.956
	c1.157-1.486,0.826-2.979,0.328-3.97l-0.328-1.159c-0.499-0.992-0.499-1.986,0-2.484c0.495-0.66,1.321-0.99,2.147-0.164
	c0.997,0.828,0.666,2.154,0.499,2.98c0,0.329,0.498,0.493,0.498,0.493c0.662-0.825,1.157-1.817,1.321-1.981
	c0-0.332-0.164-0.332-0.328-0.664c-0.331-0.494-0.993-0.992-1.324-1.324c-1.82-1.488-3.807-1.488-4.967,0
	c-0.991,1.158-0.827,2.814-0.164,4.139c0.328,0.992,0.826,2.314,0,3.476c-0.663,0.66-1.492,0.826-2.482,0
	c-0.997-0.826-0.997-2.816-0.499-3.807c0-0.166-0.331-0.494-0.498-0.33c-0.826,0.827-1.485,1.817-1.485,2.479
	c0.164,0.332,0.659,1.492,1.819,2.316C61.438,313.615,63.756,313.615,65.081,311.956z M58.291,296.897
	c0.498-0.496,0.498-0.496,0.829-0.164l0.997,0.99c0.659,0.498,0.826,0.996,0.826,1.49c0,0.332-0.167,0.826-0.334,1.324
	c0.167,0.332,0.334,0.496,0.498,0.496c0.659-0.994,1.492-1.984,1.656-2.15c-0.164-0.164-0.827-0.662-1.82-1.488l-2.652-2.317
	c-0.492-0.662-1.155-1.158-1.82-1.82c0,0-0.328,0.328-0.328,0.662l0.328,0.164c0.331,0.662,0.331,0.83-0.662,1.819l-4.138,4.8
	c-0.99,1.157-1.325,1.157-1.82,0.664l-0.495-0.332c-0.334,0-0.666,0.332-0.498,0.498c0.826,0.825,1.488,1.157,2.15,1.819
	l1.656,1.488c0.994,0.83,1.987,1.986,2.816,2.647c0.495-0.329,1.655-0.991,2.318-1.653c0-0.164-0.17-0.496-0.334-0.496
	c-1.983,0.826-2.482,0.496-3.639-0.498c-0.826-0.662-0.997-1.158-0.826-1.488c0-0.332,0.164-0.83,0.826-1.492l1.157-1.321
	c0.499-0.334,0.499-0.334,0.827,0l0.829,0.664c0.662,0.657,0.662,0.825,0.331,1.487l-0.167,0.33
	c-0.164,0.332,0.167,0.662,0.334,0.496c0.492-0.496,0.827-0.826,1.322-1.322c0.331-0.497,0.826-0.991,1.16-1.323
	c0-0.168-0.334-0.332-0.662-0.332l-0.167,0.164c-0.662,0.5-0.99,0.5-1.489-0.164l-0.829-0.662c-0.495-0.33-0.328-0.498-0.164-0.826
	L58.291,296.897z M48.858,288.126c0.331-0.33,0.498-0.498,0.826-0.662c0.167,0,0.498,0.164,0.662,0.498
	c2.318,2.149,2.154,4.467,0,6.783c-1.488,1.655-4.138,2.813-6.121,0.83c-0.334-0.498-0.662-0.994-0.662-1.324
	c0-0.666,0.328-0.994,1.157-1.656L48.858,288.126z M42.403,291.271c-0.994,1.158-1.158,1.158-1.82,0.83l-0.498-0.334l-0.331,0.334
	c0.665,0.658,1.327,1.156,1.99,1.818c0.328,0.496,0.823,1.158,1.321,1.656c1.325,1.321,2.482,1.983,3.807,2.317
	c1.987,0.658,3.973,0.164,5.629-1.492c1.325-1.487,1.987-3.643,0.827-5.957c-0.499-0.993-1.325-1.985-2.318-2.979
	c-1.324-1.324-2.318-2.15-3.308-2.98c-0.164-0.164-0.498,0.164-0.498,0.334l0.334,0.164c0.328,0.662,0.164,0.826-0.829,1.984
	L42.403,291.271z M42.239,285.313c0.99-0.994,1.987-1.655,2.482-1.985c0.331-0.164,0.498,0,0.993,0.33l0.167,0.163
	c0.328,0,0.496-0.327,0.496-0.493c-0.496-0.498-0.83-0.826-1.325-1.324c-0.498-0.328-0.993-0.994-1.488-1.486
	c-0.334,0-0.499,0.164-0.499,0.328l0.164,0.33c0.334,0.5,0.662,0.664,0.334,0.994c-0.167,0.496-0.997,1.488-1.987,2.479
	l-1.492,1.656c-0.331,0.17-0.495,0.334-0.659,0.498c0.164-0.662,0.164-1.322,0.164-2.482l0.164-2.315
	c0.331-2.152,0.331-3.805,0.829-4.467c-0.331-0.166-0.662-0.666-0.993-1.16c-0.663-0.496-1.161-0.994-1.656-1.488
	c-0.164-0.164-0.331,0.164-0.495,0.33l0.331,0.332c0.331,0.494,0.331,0.826,0.164,1.156c0,0.332-0.164,0.332-0.826,0.994
	l-2.98,2.979c-0.993,1.158-1.987,1.82-2.482,1.984c-0.164,0.164-0.498,0-0.996-0.164l-0.328-0.164c0,0-0.331,0.328-0.331,0.492
	c0.331,0.498,0.993,0.827,1.491,1.325c0.328,0.328,0.827,0.826,1.486,1.488l0.334-0.33l-0.167-0.496
	c-0.167-0.334-0.495-0.662-0.495-0.996c0.328-0.493,1.16-1.319,1.983-2.313l2.318-2.318c0.663-0.494,0.83-0.662,0.83-0.662
	c0.164,0.334,0,1.324-0.167,2.816L36.94,287.3c0,1.322-0.331,2.318-0.331,2.318c0.331,0.327,0.83,0.493,0.994,0.493
	c0.331-0.493,1.16-1.155,1.987-1.985L42.239,285.313z M28.666,273.231c-0.164-0.164-0.331-0.164,0.164-0.33l1.325-0.495
	c0.662-0.498,1.491-0.662,1.655-0.826c0,0.328-0.328,0.989-0.826,1.651l-0.829,1.158c0,0.498-0.164,0.334-0.496,0L28.666,273.231z
	 M28.994,275.218c0.498,0.332,0.498,0.498,0.334,0.826l-0.662,1.162c-0.331,0.657-0.498,0.992-0.662,0.992s-0.164,0-0.495,0
	L27.01,277.7c-0.164,0-0.498,0.164-0.498,0.498c0.498,0.495,0.997,0.989,1.656,1.651c0.498,0.666,0.996,1.324,1.491,1.988
	c0.167,0,0.496-0.164,0.496-0.496l-0.328-0.498c-0.334-0.498,0-0.994,0.328-1.82l3.645-5.957c0.66-1.159,0.823-1.657,1.155-2.149
	c0.167-0.168,0.167-0.334,0-0.498c0,0-1.155,0-1.653-0.496c-0.334,0.328-1.161,0.496-1.99,0.994l-4.138,1.488
	c-1.157,0.495-1.983,0.825-2.81,0.825c-0.498,0.332-0.996,0.168-1.16-0.164l-0.496-0.329c-0.167,0-0.498,0.329-0.334,0.493
	c0.498,0.66,0.83,0.994,1.161,1.324c0.331,0.662,0.829,0.994,1.157,1.652c0.334,0,0.499-0.328,0.499-0.492l-0.164-0.498
	c-0.334-0.33-0.334-0.494-0.167-0.494c0.167-0.168,0.167-0.334,0.496-0.334l1.819-0.826c0.334-0.164,0.334-0.164,0.666,0.164
	L28.994,275.218z M25.85,262.31c0.498-0.498,0.662-0.498,1.16,0c0.83,0.994,0.499,2.482-0.662,3.31
	c-0.662,0.662-1.321,0.83-1.656,0.662c-0.498,0-0.826-0.166-1.157-0.662c-0.663-0.658-0.663-0.826-0.331-1.156L25.85,262.31z
	 M18.902,265.124c-1.161,0.99-1.328,0.99-1.99,0.494l-0.328-0.33c-0.167,0-0.498,0.33-0.498,0.498
	c0.498,0.662,1.16,1.155,1.655,1.819c0.663,0.494,0.994,1.156,1.489,1.982c0.334,0,0.662-0.328,0.662-0.494l-0.328-0.332
	c-0.334-0.662-0.334-0.826,0.827-1.82l1.655-1.323c0.164-0.33,0.164-0.33,0.662,0.168c0.164,0.328,0.332,0.662,0.164,1.155
	c-0.498,0.828-0.993,1.656-1.324,2.646c-0.331,1.328-0.331,2.481,0.662,3.643c0.498,0.332,0.83,0.83,0.994,0.994
	c0.331,0,0.498-0.334,0.498-0.498c-0.167-0.164-0.498-0.496-0.498-1.158c0-0.989,0.662-2.481,1.655-4.633
	c0.167-0.166,0.167-0.33,0.332-0.33c0.659,0.494,1.819,0.826,2.977-0.164c0.826-0.664,1.16-1.655,0.996-2.649
	c-0.17-0.826-0.829-1.822-1.655-2.98c-0.997-1.16-1.987-2.149-2.816-3.143c-0.164,0-0.498,0.334-0.498,0.498l0.17,0.328
	c0.495,0.664,0.328,0.664-0.829,1.817L18.902,265.124z M17.246,261.483c0.659-0.498,0.826-0.498,1.322-0.17l0.334,0.17l0.328-0.17
	c-0.328-0.662-0.826-1.153-1.325-1.817c-0.331-0.662-0.993-1.326-1.488-2.316c-0.331-0.166-0.663,0.168-0.495,0.332l0.328,0.658
	c0.334,0.664,0.334,0.834-0.496,1.326l-0.826,0.664c-0.826,0.491-1.161,0.491-1.656-0.33c-0.331-0.498-0.826-1.16-0.826-2.154
	c0-1.324,0.662-2.811,2.482-4.137c2.318-1.654,4.8-1.984,6.289,0.33c0.993,1.159,0.829,2.481,0,3.975c0,0,0.167,0.494,0.331,0.326
	c0.662-0.658,1.656-1.484,1.987-1.652c-0.331-0.33-0.495-1.488-1.489-2.979c-0.993-1.156-1.99-2.152-3.144-2.482
	c-1.99-1.16-4.138-0.826-5.793,0.498c-1.986,1.32-2.652,3.475-2.154,5.625c0.332,1.158,0.663,2.152,1.322,2.98
	c0.665,0.825,1.655,1.819,2.154,2.313c0.498,0.168,0.826,0.496,0.993,0.664c0.167,0.166,0.331-0.168,0.331-0.332
	c-0.164-0.164,0-0.332,0.663-0.826L17.246,261.483z"/>
<path fill="#EE3E33" d="M251.414,253.96c-0.495-0.332-0.662-0.332-0.331-0.83l0.826-1.32c0.334-0.664,0.828-0.998,1.326-1.162
	c0.328,0,0.992,0,1.654,0.164c0,0,0.33-0.492,0.166-0.658c-0.992-0.497-2.15-0.989-2.484-1.159c0,0.334-0.662,0.991-1.157,2.151
	l-1.822,3.146c-0.491,0.83-0.991,1.487-1.489,2.149c0,0.168,0.332,0.5,0.498,0.5l0.332-0.5c0.496-0.494,0.659-0.662,2.15,0.168
	l5.626,3.476c1.328,0.826,1.328,0.994,1.16,1.656l-0.331,0.825c-0.167,0.332,0.331,0.496,0.663,0.332
	c0.661-0.994,0.989-1.819,1.323-2.649l1.158-1.818c0.825-1.324,1.818-2.815,2.316-3.643c-0.331-0.496-1.491-1.488-1.982-1.984
	c-0.334,0-0.666,0.164-0.498,0.328c1.16,1.99,0.826,2.481,0.164,3.811c-0.826,1.156-0.994,1.32-1.492,1.32
	c-0.327,0.168-0.825-0.164-1.485-0.494l-1.822-1.158c-0.495-0.332-0.495-0.332-0.331-0.661l0.662-1.16
	c0.495-0.826,0.662-0.826,1.491-0.496l0.496,0.168c0.164,0,0.498-0.498,0.327-0.498c-0.491-0.332-1.157-0.662-1.652-0.994
	c-0.662-0.498-1.156-0.826-1.654-0.994c0-0.162-0.332,0.332-0.332,0.496l0.332,0.334c0.661,0.496,0.661,0.826,0.166,1.488
	l-0.498,1.158c-0.328,0.33-0.328,0.33-0.826,0.164L251.414,253.96 M244.962,264.054c-0.662-0.494-0.662-0.494-0.17-1.156
	c0.662-1.157,2.152-1.323,3.479-0.332c0.83,0.66,0.994,1.158,1.158,1.488c0.163,0.662-0.164,0.994-0.496,1.488
	c-0.498,0.826-0.498,0.826-1.16,0.498L244.962,264.054z M249.763,270.343c1.32,0.994,1.32,1.158,0.989,1.82l-0.164,0.498
	c0,0.164,0.331,0.33,0.662,0.493c0.495-0.991,0.826-1.487,1.321-2.313c0.498-0.662,0.992-1.324,1.656-1.986
	c-0.164-0.168-0.496-0.496-0.664-0.496l-0.328,0.496c-0.664,0.33-0.664,0.33-2.152-0.496l-1.818-1.159
	c-0.164-0.33-0.164-0.33,0.164-0.83c0.334-0.328,0.497-0.49,0.992-0.49c0.993,0.326,2.15,0.326,2.979,0.49
	c1.49,0.168,2.813-0.328,3.644-1.652c0.495-0.494,0.662-0.828,0.662-1.49h-0.334c-0.328,0.166-0.662,0.498-1.157,0.662
	c-0.992,0.166-2.648,0-5.131-0.328c-0.331,0-0.331,0-0.331-0.334c0-0.824,0.167-2.147-1.16-2.979
	c-0.991-0.662-1.983-0.662-2.978-0.328c-0.829,0.328-1.822,1.322-2.649,2.481c-0.993,1.486-1.655,2.646-2.317,3.804
	c0,0.164,0.334,0.332,0.498,0.332l0.332-0.332c0.494-0.662,0.662-0.498,2.15,0.664L249.763,270.343z M243.634,272.661
	c2.318,1.653,3.477,3.639,2.151,5.459c-1.656,2.483-4.964,0.996-6.784-0.164c-2.316-1.82-3.311-3.972-1.986-5.793
	C238.339,270.343,240.987,270.841,243.634,272.661z M236.353,271.667c-2.15,2.977-1.488,6.619,1.321,8.77
	c3.147,2.154,6.455,1.49,8.609-1.319c2.317-3.146,1.819-6.619-1.321-8.938C242.146,268.024,238.503,268.687,236.353,271.667z
	 M232.874,285.735c-0.492-0.661-0.492-0.661,0.17-1.323c0.99-1.324,2.482-1.324,3.641-0.168c1.159,0.829,1.487,1.987,0.662,2.979
	c-0.994,1.158-1.82,0.66-2.813-0.166L232.874,285.735z M229.233,282.425c-0.662-0.662-0.662-0.662-0.164-1.16
	c0.826-0.992,1.984-1.322,3.146-0.328c0.829,0.826,1.157,1.818,0.331,2.978c-0.662,0.828-0.662,0.828-1.16,0.33L229.233,282.425z
	 M233.208,289.21c1.324,0.99,1.324,1.158,0.993,1.819l-0.331,0.498c-0.167,0.164,0.164,0.492,0.495,0.492
	c0.661-0.826,1.161-1.483,1.655-2.146c0.332-0.336,0.994-0.83,1.488-1.326c0.662-0.828,1.324-1.818,1.819-3.146
	c0.499-0.989,0.335-2.313-0.826-3.475c-1.487-0.99-2.813-0.662-3.971,0.166c-0.167,0-0.167,0-0.331,0c0,0,0-0.166,0.164-0.33
	c0.167-0.498,0.498-1.82-0.495-2.815c-0.826-0.826-1.655-0.826-2.483-0.66c-0.994,0.332-1.82,1.157-3.143,2.317
	c-0.996,1.322-1.655,2.314-2.652,3.476c-0.164,0.332,0.336,0.496,0.499,0.496l0.331-0.332c0.495-0.494,0.662-0.33,2.15,0.83
	L233.208,289.21z M224.603,294.505c-0.332,0.332-0.332,0.332-0.666-0.166l-0.662-1.158c-0.328-0.662-0.825-1.488-0.989-1.822
	c0.327,0,1.159,0.498,1.819,0.832l1.487,0.66c0.335,0,0.335,0.166,0,0.498L224.603,294.505z M226.422,293.841
	c0.331-0.328,0.495-0.328,0.662-0.328l1.655,0.662c0.662,0.164,0.99,0.498,0.99,0.498c0.166,0.164,0.166,0.328,0,0.66l-0.328,0.498
	c0,0.164,0.164,0.328,0.662,0.494c0.328-0.826,0.826-1.324,1.488-1.986s1.321-1.322,1.819-1.984c0-0.164-0.328-0.498-0.498-0.334
	l-0.492,0.334c-0.665,0.328-0.996,0.164-1.989-0.164l-6.947-2.979c-1.16-0.498-1.822-0.662-2.317-0.992
	c-0.171-0.164-0.335,0-0.499,0.164c0,0,0.164,0.992-0.164,1.818c0.328,0.336,0.663,0.993,1.158,1.989l2.15,4.136
	c0.662,1.157,1.156,1.985,1.49,2.647c0.164,0.828,0.164,1.158-0.17,1.322l-0.328,0.662c0,0.168,0.328,0.332,0.498,0.498
	c0.663-0.826,0.827-1.16,1.325-1.654c0.495-0.496,0.993-0.994,1.485-1.326c0-0.328-0.328-0.662-0.492-0.662l-0.498,0.334
	c-0.331,0.328-0.495,0.492-0.495,0.328c-0.167-0.164-0.334-0.164-0.498-0.494l-0.997-1.821c-0.328-0.328-0.328-0.328,0-0.66
	L226.422,293.841z M214.173,299.138c-1.16-1.156-1.16-1.488-0.826-1.981l0.328-0.335c0-0.327-0.164-0.661-0.328-0.661
	c-0.662,0.827-1.16,1.489-1.818,1.987c-0.663,0.66-1.328,1.158-2.154,1.82c0,0.164,0.331,0.498,0.498,0.328l0.495-0.164
	c0.498-0.498,0.825-0.498,1.987,0.826l4.633,4.801c0.992,0.992,1.16,1.156,0.662,1.818l-0.496,0.666
	c0,0.164,0.164,0.327,0.662,0.493c0.66-0.825,1.158-1.487,1.819-2.149l1.656-1.654c0.993-0.994,2.317-2.154,3.144-2.646
	c-0.33-0.666-0.99-1.99-1.651-2.816c-0.171,0-0.498,0.332-0.498,0.332c0.661,2.314,0.327,2.648-0.829,3.805
	c-0.991,0.99-1.158,0.99-1.489,0.99c-0.495,0-0.993-0.328-1.491-0.99L214.173,299.138z M205.235,312.214
	c-0.332,0.164-0.498,0.33-0.662-0.168l-0.498-1.156c-0.328-0.994-0.495-1.82-0.662-2.152c0.334,0.168,0.996,0.66,1.658,1.158
	l1.32,0.83c0.334,0.164,0.334,0.328,0,0.494L205.235,312.214z M207.056,312.046c0.498-0.494,0.662-0.494,0.829-0.33l1.324,0.992
	c0.662,0.164,0.99,0.498,1.157,0.662c0,0.164,0,0.164-0.331,0.5l-0.331,0.493c-0.167,0.164,0,0.498,0.495,0.662
	c0.495-0.662,0.993-1.155,1.655-1.819c0.83-0.498,1.655-0.992,2.317-1.49c0-0.328-0.164-0.662-0.327-0.496l-0.666,0.168
	c-0.662,0.328-0.992,0.164-1.986-0.498l-6.289-3.975c-1.156-0.658-1.654-1.156-1.985-1.484c-0.331,0-0.331,0-0.663,0
	c0,0,0.164,1.156-0.498,1.818c0.498,0.328,0.498,1.157,0.83,2.147l1.488,4.474c0.498,1.319,0.662,2.149,0.828,2.977
	c0.168,0.662,0,0.996-0.33,1.324l-0.331,0.498c0,0.164,0.167,0.328,0.331,0.496c0.826-0.496,0.992-0.994,1.49-1.492
	c0.662-0.164,1.322-0.662,1.82-0.99c0-0.332-0.167-0.662-0.33-0.662l-0.5,0.166c-0.498,0.328-0.662,0.328-0.662,0.328
	c-0.164-0.164-0.328-0.328-0.328-0.662l-0.828-1.981c-0.164-0.336-0.164-0.336,0.164-0.664L207.056,312.046z M199.11,319.991
	c0.994,1.323,0.994,1.489,0.498,2.151l-0.662,0.496c0,0.166,0,0.494,0.492,0.494c0.83-0.662,1.658-1.324,2.153-1.818
	c0.662-0.496,1.492-0.989,2.482-1.651c0-0.334-0.328-0.498-0.495-0.498l-0.662,0.328c-0.663,0.334-0.994,0.334-1.82-0.992
	l-4.803-6.287c-0.328-0.332-0.164-0.498,0.17-0.826l0.826-0.498c0.994-0.994,1.656-0.332,2.812,0.33c0,0.168,0.332-0.166,0.332-0.33
	c-0.662-0.826-1.324-2.151-1.656-2.646c0,0-0.166,0-0.166,0.164c-0.164,0-0.164,0-0.164,0c0,0.498-0.164,0.661-0.994,1.323
	l-5.299,4.14c-1.156,0.658-1.32,0.658-1.484,0.494c-0.167,0-0.167,0-0.167,0.164c-0.167,0-0.167,0-0.167,0.168
	c0.167,0.661,0.829,1.489,1.324,2.812c0.167,0.164,0.494-0.164,0.662-0.332c-0.331-1.324-0.495-2.15,0.33-2.979l0.994-0.664
	c0.328-0.328,0.498-0.164,0.662,0.172L199.11,319.991z M186.036,317.509c-1.488,0.992-2.816,2.482-3.309,4.137
	c-0.498,1.488-0.498,3.31,0.658,4.965c1.161,1.99,2.813,2.648,4.305,2.816c1.656,0.164,3.477-0.334,4.965-1.16
	c1.158-0.828,1.984-1.983,2.648-2.813c0-0.33-0.33-1.488-0.992-2.646c-0.164,0-0.498,0.164-0.662,0.328
	c0.164,1.158,0.164,2.98-1.656,4.139c-1.655,1.328-4.469,0.662-6.455-2.317c-1.819-2.98-0.99-5.461,0.829-6.619
	c1.487-0.826,2.979-0.826,4.138,0.498c0.167,0,0.662-0.332,0.495-0.662c-0.662-0.662-1.488-1.984-1.651-2.318
	C189.015,316.187,187.524,316.515,186.036,317.509z M173.787,333.229c0.825,1.82,1.819,2.816,2.979,2.98
	c1.324,0.33,2.482,0,3.644-0.498c1.157-0.662,2.147-1.82,2.481-2.979c0.328-1.487-0.164-2.812-0.996-4.305l-0.994-1.654
	c-0.491-1.487-1.153-2.811-1.153-3.141c0-0.332,0.328-0.664,0.662-0.994l0.327-0.168c0-0.164-0.163-0.498-0.327-0.498
	c-0.662,0.17-1.16,0.666-1.823,0.832c-0.665,0.328-1.156,0.66-2.15,0.994c0,0.164,0,0.66,0.332,0.66l0.491-0.168
	c0.498-0.164,0.832-0.328,1.16,0c0.331,0.334,0.994,1.492,1.656,2.815l1.159,1.984c0.994,2.152,1.322,4.137-0.825,5.131
	c-2.488,1.324-3.644-0.66-4.472-2.481l-1.987-3.64c-0.829-1.492-0.659-1.655,0-2.153l0.331-0.328
	c0.168-0.168-0.164-0.334-0.164-0.498c-0.826,0.498-1.655,0.992-2.48,1.324c-0.662,0.327-1.492,0.825-2.318,0.991
	c0,0.164,0,0.664,0.332,0.664l0.494-0.168c0.662-0.164,0.83-0.164,1.492,1.324L173.787,333.229z M166.834,336.376
	c-0.495,0.164-0.495,0.164-0.659-0.33l-0.164-1.324c0-0.994,0-1.656-0.17-2.318c0.498,0.33,0.829,0.994,1.324,1.488l1.156,1.158
	c0.335,0.334,0.171,0.498-0.163,0.662L166.834,336.376z M168.656,336.54c0.495-0.164,0.661-0.164,0.825,0l1.158,1.158
	c0.498,0.497,0.83,0.829,0.83,0.993c0,0,0,0.33-0.332,0.494l-0.498,0.334c-0.164,0.164,0,0.328,0.334,0.66
	c0.662-0.496,1.321-0.824,2.147-1.158c0.829-0.33,1.823-0.662,2.485-0.992c0-0.331-0.168-0.663-0.168-0.663l-0.826,0.163
	c-0.662,0.169-0.826-0.163-1.655-0.989l-5.128-5.295c-0.996-0.996-1.327-1.49-1.655-1.986c-0.164-0.166-0.334-0.166-0.498-0.166
	c0,0-0.331,0.992-0.993,1.49c0.166,0.662,0.166,1.324,0.33,2.481l0.332,4.634c0,1.323,0,2.149,0,3.145
	c0,0.498-0.168,0.826-0.496,1.16l-0.664,0.332c0,0.162,0.166,0.494,0.334,0.662c0.826-0.336,1.157-0.662,1.819-0.994
	c0.826-0.334,1.324-0.498,1.983-0.662c0-0.164-0.164-0.662-0.164-0.662l-0.662,0.164c-0.495,0-0.662,0-0.662-0.164
	c0,0-0.164-0.168-0.164-0.498l-0.167-2.149c-0.164-0.5-0.164-0.5,0.331-0.664L168.656,336.54z"/>
</svg>
