<?xml version="1.0" encoding="utf-8"?>
<!-- Generator: Adobe Illustrator 16.0.0, SVG Export Plug-In . SVG Version: 6.00 Build 0)  -->
<!DOCTYPE svg PUBLIC "-//W3C//DTD SVG 1.1//EN" "http://www.w3.org/Graphics/SVG/1.1/DTD/svg11.dtd">
<svg version="1.1" id="Layer_1" xmlns="http://www.w3.org/2000/svg" xmlns:xlink="http://www.w3.org/1999/xlink" x="0px" y="0px"
	 width="51.899px" height="57.167px" viewBox="-0.898 0 51.899 57.167" enable-background="new -0.898 0 51.899 57.167"
	 xml:space="preserve">
<rect x="-25.167" y="-53.916" fill="none" width="378" height="438"/>
<rect x="-25.167" y="-53.916" fill="none" width="378" height="438"/>
<path fill="#008061" d="M38.529,38.482c-0.282-0.465-0.349-1-0.196-1.596c0.068-0.275,0.249-0.545,0.601-0.891
	c0.466-0.467,1.491-1.061,3.139-1.818c0.425-0.195,0.888-0.469,1.365-0.764c0.248-0.143,0.561-0.41,0.667-0.832
	c0,0,0.117-0.492,0.127-0.787c0.009-0.338,0.413-0.768,0.822-0.418l4.674,3.805c0.06,0.053,0.102,0.115,0.134,0.189
	c0.027,0.078,0.293,0.797-0.236,1.76c-0.323,0.6-0.832,1.021-1.223,1.301c0.979,0.947,1.825,1.773,1.825,1.773
	c0.163,0.154,0.269,0.385,0.304,0.621c0.043,0.281-0.098,0.494-0.157,0.574c-5.42,8.168-14.875,13.092-25.274,13.172
	c-7.924,0.064-18.708-3.389-25.216-13.283c-0.107-0.16-0.158-0.328-0.158-0.508c0-0.281,0.313-0.689,0.313-0.689l1.824-1.764
	c-0.402-0.27-0.938-0.709-1.226-1.346c-0.129-0.281-0.539-1.52,0.004-1.977l4.615-3.729c0.187-0.148,0.451-0.131,0.612,0.035
	c0,0,0.217,0.275,0.206,0.398c-0.039,0.514,0.191,1.268,0.783,1.619c0.462,0.277,0.938,0.568,1.366,0.771
	c1.646,0.76,2.669,1.357,3.133,1.82c0.349,0.354,0.525,0.625,0.594,0.902c0.151,0.59,0.086,1.023-0.2,1.49
	c-0.086,0.141-0.256,0.336-0.341,0.451L9.449,40.96c4.723,4.148,10.395,6.602,15.67,6.59c5.268,0.039,10.953-2.385,15.695-6.516
	l-1.942-2.195C38.736,38.742,38.618,38.628,38.529,38.482"/>
<path fill="#FFF1C3" d="M4.587,36.976l-3.946,3.799c0.004,0.004,0.004,0.004,0.008,0.01c6.306,9.586,16.765,12.934,24.45,12.873
	c10.09-0.076,19.256-4.846,24.512-12.756l-3.915-3.832c-3.388,5.062-11.728,11.266-20.582,11.4
	C17.238,48.585,8.636,42.994,4.587,36.976"/>
<path fill="#FFF1C3" d="M45.445,35.562c0,0,1.136,1.092,2.287,2.217c0.333-0.217,0.819-0.582,1.091-1.088
	c0.23-0.424,0.228-0.748,0.206-0.895l-3.976-3.24c-0.009,0.053-0.023,0.104-0.041,0.164c0,0-0.017,0.086-0.017,0.082
	c-0.146,0.566-0.529,1.064-1.081,1.398c-0.499,0.305-0.989,0.596-1.463,0.814c-1.9,0.871-2.609,1.363-2.872,1.629
	c-0.268,0.262-0.344,0.402-0.362,0.471c-0.092,0.354-0.062,0.641,0.094,0.895c0.041,0.072,0.124,0.164,0.356,0.184
	c0.539,0.039,1.871-0.803,2.264-1.369c0.226-0.316,0.758-0.949,1.524-1.312C43.962,35.271,44.965,35.091,45.445,35.562"/>
<path fill="#FFF1C3" d="M40.161,39.06l1.271,1.432c1.157-1.062,2.254-2.229,3.272-3.488c0.221-0.279,0.224-0.658,0.086-0.807
	c-0.117-0.064-0.587-0.027-0.943,0.137c-0.574,0.27-0.875,0.65-1.195,1.055l-0.146,0.182C41.873,38.353,40.972,38.91,40.161,39.06"
	/>
<path fill="#FFF1C3" d="M4.847,35.462c0.454-0.447,1.263-0.424,1.804-0.189c0.775,0.338,1.439,0.943,1.878,1.703
	c0.436,0.76,1.276,1.17,1.884,1.174c0.156,0.004,0.44-0.02,0.554-0.209c0.152-0.248,0.188-0.541,0.102-0.896
	c-0.019-0.068-0.099-0.209-0.362-0.477c-0.263-0.26-0.969-0.756-2.868-1.637c-0.475-0.225-0.98-0.527-1.458-0.82
	c-0.551-0.34-1.108-1.242-1.13-1.648c-1.134,0.914-3.561,2.877-3.963,3.205c-0.029,0.164,0.035,0.613,0.183,0.936
	c0.235,0.51,0.736,0.865,1.071,1.074L4.847,35.462z"/>
<path fill="#FFF1C3" d="M10.062,39.037c-0.793-0.123-1.772-0.639-2.33-1.607c-0.198-0.34-0.643-0.965-1.446-1.312
	c-0.339-0.15-0.691-0.109-0.781-0.018c-0.148,0.141-0.146,0.527,0.078,0.811c1.007,1.268,2.098,2.436,3.251,3.5L10.062,39.037"/>
<path fill="#008061" d="M29.924,49.195v0.008l-0.697,0.145l0.391,1.863c0.313,0.879,0.911,0.98,1.631,0.83
	c0.723-0.148,1.218-0.523,1.16-1.414l-0.392-1.865l-0.662,0.141l0.391,1.855c-0.023,0.396-0.175,0.57-0.597,0.658
	c-0.462,0.098-0.705-0.096-0.836-0.369L29.924,49.195z"/>
<path fill="#008061" d="M28.474,51.867c0.19-0.338,0.256-0.736,0.16-1.16c-0.048-0.223-0.14-0.414-0.254-0.582l-0.003,0.004
	c-0.059-0.084-0.122-0.154-0.192-0.221h0.002c-0.358-0.338-0.877-0.479-1.426-0.35c-0.877,0.199-1.391,0.971-1.19,1.848
	c0.202,0.879,1.016,1.428,1.889,1.229c0.271-0.059,0.48-0.184,0.667-0.342l0.52,0.424l0.803-0.184L28.474,51.867z M27.729,50.398
	c0.063,0.066,0.117,0.146,0.161,0.232c0.045,0.086,0.08,0.178,0.104,0.283c0.049,0.217,0.043,0.426-0.028,0.594l-0.188-0.131
	l-0.643,0.145l0.48,0.371c-0.088,0.051-0.181,0.09-0.298,0.117c-0.534,0.117-0.959-0.162-1.081-0.697
	c-0.121-0.535,0.122-1.053,0.654-1.178C27.224,50.06,27.52,50.171,27.729,50.398"/>
<path fill="#008061" d="M4.888,43.111c0.386-0.043,0.752-0.223,1.04-0.545c0.147-0.168,0.257-0.354,0.324-0.549H6.249
	c0.031-0.094,0.052-0.188,0.066-0.285h0.004c0.061-0.486-0.127-0.986-0.548-1.357c-0.67-0.602-1.599-0.572-2.195,0.102
	C2.978,41.148,3,42.132,3.672,42.73c0.204,0.18,0.425,0.287,0.664,0.342l-0.039,0.674l0.618,0.543L4.888,43.111z M5.65,41.65
	c-0.02,0.088-0.051,0.182-0.096,0.27c-0.049,0.084-0.099,0.166-0.17,0.246c-0.15,0.168-0.319,0.281-0.5,0.322v-0.23l-0.493-0.439
	l-0.025,0.607c-0.094-0.041-0.181-0.096-0.269-0.176c-0.407-0.367-0.425-0.877-0.061-1.285c0.364-0.406,0.926-0.508,1.34-0.146
	C5.63,41.044,5.712,41.349,5.65,41.65"/>
<path fill="#008061" d="M16.307,50.935l0.176-0.521c-0.229,0.051-0.589-0.045-0.862-0.168c-0.512-0.244-0.802-0.676-0.616-1.211
	c0.182-0.543,0.682-0.846,1.222-0.664c0.236,0.078,0.658,0.258,0.834,0.439l0.167-0.475c-0.167-0.186-0.6-0.406-0.908-0.512
	c-0.844-0.285-1.675,0.096-1.96,0.943c-0.285,0.84,0.136,1.676,0.961,2.012C15.648,50.919,16.049,50.998,16.307,50.935"/>
<path fill="#008061" d="M23.111,50.783l-1.265-1.373c-0.031-0.018-0.125-0.043-0.146,0.004l-0.452,2.875l0.744,0.059l0.166-1.83
	l0.003,0.006l0.886,1.059l1.055-0.902v0.002l-0.083,1.824l0.676,0.053l0.068-2.92c0.012,0,0.002,0.002,0,0
	c-0.029-0.018-0.082-0.02-0.113-0.02L23.111,50.783"/>
<polygon fill="#008061" points="35.533,50.595 35.36,50.123 34.25,50.519 34.011,49.855 35.098,49.462 34.93,48.994 33.842,49.382 
	33.604,48.712 34.71,48.318 34.541,47.843 32.743,48.49 33.73,51.244 "/>
<path fill="#008061" d="M18.741,48.722v0.004l-0.693-0.16l-0.429,1.854c-0.079,0.928,0.413,1.275,1.134,1.441
	c0.722,0.166,1.324,0.033,1.646-0.805l0.429-1.854l-0.664-0.15l-0.421,1.85c-0.188,0.354-0.399,0.445-0.82,0.348
	c-0.462-0.109-0.594-0.383-0.607-0.688L18.741,48.722z"/>
<polygon fill="#008061" points="13.115,49.777 13.339,49.33 12.291,48.8 12.606,48.166 13.639,48.687 13.867,48.24 12.833,47.714 
	13.153,47.083 14.204,47.611 14.432,47.162 12.725,46.304 11.409,48.919 "/>
<path fill="#008061" d="M7.903,42.757H7.9l-0.542-0.461l-1.235,1.449c-0.5,0.777-0.224,1.316,0.338,1.801
	c0.564,0.477,1.158,0.643,1.832,0.049l1.235-1.449l-0.515-0.438L7.786,45.15c-0.335,0.23-0.561,0.217-0.891-0.068
	c-0.358-0.307-0.35-0.613-0.218-0.891L7.903,42.757z"/>
<path fill="#008061" d="M38.462,47.816l-0.208-1.834l0.682-0.371l0.204,3.16c0,0.117-0.174,0.193-0.258,0.141l-2.536-1.898
	l0.681-0.369l1.438,1.174L38.462,47.816z"/>
<polygon fill="#008061" points="42.711,46.578 42.417,46.173 41.46,46.867 41.047,46.292 41.979,45.611 41.685,45.203 
	40.744,45.886 40.331,45.31 41.283,44.621 40.986,44.214 39.443,45.341 41.167,47.703 "/>
<path fill="#008061" d="M42.592,42.677c0.46-0.395,0.994-0.324,1.287,0.01c0.208,0.248,0.241,0.539,0.088,0.873
	c0.329-0.078,0.634,0.135,1.515,0.514l-0.615,0.531c-0.649-0.27-1.108-0.619-1.41-0.359l-0.159,0.137l0.781,0.906l-0.554,0.479
	l-1.929-2.229L42.592,42.677z M42.945,43.974l0.293-0.252c0.152-0.131,0.247-0.332,0.083-0.52c-0.142-0.168-0.325-0.156-0.531,0.023
	l-0.286,0.242L42.945,43.974z"/>
<g>
	<g>
		<defs>
			<path id="SVGID_1_" d="M10.931,6.682v16.031c0,3.06,0.668,6.004,1.994,8.764c2.031,4.467,7.007,9.873,12.273,11.191
				c5.258-1.318,10.238-6.725,12.274-11.201c1.316-2.75,2.232-5.016,2.232-8.076L39.459,6.688c-1.391-0.57-7.011-2.67-14.316-2.67
				C17.853,4.018,12.3,6.115,10.931,6.682"/>
		</defs>
		<clipPath id="SVGID_2_">
			<use xlink:href="#SVGID_1_"  overflow="visible"/>
		</clipPath>
		
			<linearGradient id="SVGID_3_" gradientUnits="userSpaceOnUse" x1="-319.1826" y1="-137.1899" x2="-318.1826" y2="-137.1899" gradientTransform="matrix(0 43.6003 -43.6161 0 -5958.3755 13915.6875)">
			<stop  offset="0" style="stop-color:#FFD046"/>
			<stop  offset="0.0114" style="stop-color:#FFD150"/>
			<stop  offset="0.0919" style="stop-color:#FFDC81"/>
			<stop  offset="0.1667" style="stop-color:#FFE5A3"/>
			<stop  offset="0.2337" style="stop-color:#FFECBD"/>
			<stop  offset="0.2904" style="stop-color:#FFF0CC"/>
			<stop  offset="0.33" style="stop-color:#FFF1D1"/>
			<stop  offset="0.4104" style="stop-color:#FFF0CC"/>
			<stop  offset="0.5255" style="stop-color:#FFECBD"/>
			<stop  offset="0.6615" style="stop-color:#FFE5A3"/>
			<stop  offset="0.8135" style="stop-color:#FFDC81"/>
			<stop  offset="0.9769" style="stop-color:#FFD150"/>
			<stop  offset="1" style="stop-color:#FFD046"/>
		</linearGradient>
		<rect x="10.931" y="4.018" clip-path="url(#SVGID_2_)" fill="url(#SVGID_3_)" width="28.772" height="38.65"/>
	</g>
</g>
<g>
	<g>
		<defs>
			<rect id="SVGID_4_" x="-25.5" y="-54.083" width="378" height="438"/>
		</defs>
		<clipPath id="SVGID_5_">
			<use xlink:href="#SVGID_4_"  overflow="visible"/>
		</clipPath>
		<path clip-path="url(#SVGID_5_)" fill="#FFE26D" d="M32.438,23.327c-1.465,0-2.221-1.218-3.614-1.218
			c-1.396,0-2.037,1.218-3.558,1.218c-1.46,0-2.215-1.218-3.613-1.218c-1.393,0-2.032,1.218-3.555,1.218
			c-1.46,0-2.215-1.218-3.608-1.218c-1.385,0-2.142,1.198-3.64,1.213c0.009,0.405,0.029,0.813,0.062,1.21
			c0.02,0.195,0.028,0.396,0.051,0.591c0.02,0.172,0.063,0.337,0.084,0.509c1.358-0.117,2.122-1.2,3.442-1.2
			c1.394,0,2.148,1.213,3.608,1.213c1.522,0,2.162-1.213,3.555-1.213c1.398,0,2.153,1.213,3.613,1.213
			c1.521,0,2.162-1.213,3.558-1.213c1.393,0,2.149,1.213,3.614,1.213c1.514,0,2.158-1.213,3.554-1.213c1.268,0,2.063,1,3.286,1.184
			c0.026-0.168,0.036-0.336,0.056-0.505c0.016-0.161,0.043-0.327,0.055-0.491c0.041-0.433,0.07-0.867,0.082-1.308
			c-1.421-0.091-2.144-1.204-3.479-1.204C34.597,22.108,33.953,23.327,32.438,23.327"/>
	</g>
	<g>
		<defs>
			<rect id="SVGID_6_" x="-25.5" y="-54.083" width="378" height="438"/>
		</defs>
		<clipPath id="SVGID_7_">
			<use xlink:href="#SVGID_6_"  overflow="visible"/>
		</clipPath>
		<path clip-path="url(#SVGID_7_)" fill="#008061" d="M32.438,25.646c-1.465,0-2.221-1.214-3.614-1.214
			c-1.396,0-2.037,1.214-3.558,1.214c-1.46,0-2.215-1.214-3.613-1.214c-1.393,0-2.032,1.214-3.555,1.214
			c-1.46,0-2.215-1.214-3.608-1.214c-1.32,0-2.077,1.083-3.435,1.2c0.209,1.443,0.595,2.938,1.113,4.309l1.746-1.475l1.884,1.58
			l1.894-1.58l1.884,1.58l1.89-1.58l1.885,1.58l1.89-1.58l1.865,1.58l1.866-1.58l1.884,1.58l1.888-1.58l1.888,1.58l1.889-1.58
			l1.667,1.396c0.515-1.362,0.885-2.807,1.091-4.246c-1.223-0.185-2.018-1.185-3.286-1.185
			C34.597,24.433,33.953,25.646,32.438,25.646"/>
	</g>
	<g>
		<defs>
			<rect id="SVGID_8_" x="-25.5" y="-54.083" width="378" height="438"/>
		</defs>
		<clipPath id="SVGID_9_">
			<use xlink:href="#SVGID_8_"  overflow="visible"/>
		</clipPath>
		<path clip-path="url(#SVGID_9_)" fill="#008061" d="M32.501,20.01l-3.626-4.863l-3.622,4.863l-3.625-4.863l-3.626,4.863
			l-3.623-4.863l-3.449,4.63v2.934c0,0.206,0.001,0.41,0.009,0.611c1.498-0.016,2.167-1.213,3.551-1.213
			c1.395,0,2.149,1.218,3.609,1.218c1.521,0,2.162-1.218,3.555-1.218c1.397,0,2.152,1.218,3.612,1.218
			c1.522,0,2.162-1.218,3.559-1.218c1.393,0,2.149,1.218,3.613,1.218c1.514,0,2.159-1.218,3.554-1.218
			c1.335,0,2.059,1.111,3.479,1.204c0.008-0.202-0.013-0.396-0.013-0.602v-3.091l-3.333-4.473L32.501,20.01z"/>
	</g>
	<g>
		<defs>
			<rect id="SVGID_10_" x="-25.5" y="-54.083" width="378" height="438"/>
		</defs>
		<clipPath id="SVGID_11_">
			<use xlink:href="#SVGID_10_"  overflow="visible"/>
		</clipPath>
		<polygon clip-path="url(#SVGID_11_)" fill="#008061" points="36.486,35.044 36.482,35.037 35.294,33.849 35.294,33.037 
			36.482,34.222 		"/>
	</g>
	<g>
		<defs>
			<rect id="SVGID_12_" x="-25.5" y="-54.083" width="378" height="438"/>
		</defs>
		<clipPath id="SVGID_13_">
			<use xlink:href="#SVGID_12_"  overflow="visible"/>
		</clipPath>
		<polygon clip-path="url(#SVGID_13_)" fill="#008061" points="26.485,30.449 26.485,30.453 25.334,31.601 24.147,30.417 
			24.147,31.226 25.334,32.416 25.341,32.421 25.341,32.41 26.485,31.265 26.485,33.791 25.334,34.939 24.147,33.753 24.147,34.566 
			25.334,35.75 25.341,35.759 25.341,35.742 26.485,34.605 26.485,37.128 25.334,38.275 24.147,37.093 24.147,37.904 25.334,39.089 
			25.341,39.093 25.341,39.078 26.485,37.941 26.485,40.466 25.334,41.615 24.147,40.429 24.147,41.242 25.334,42.425 
			25.341,42.433 25.341,42.421 26.485,41.275 26.485,42.687 27.108,42.417 27.108,29.792 		"/>
	</g>
	<g>
		<defs>
			<rect id="SVGID_14_" x="-25.5" y="-54.083" width="378" height="438"/>
		</defs>
		<clipPath id="SVGID_15_">
			<use xlink:href="#SVGID_14_"  overflow="visible"/>
		</clipPath>
		<polygon clip-path="url(#SVGID_15_)" fill="#008061" points="22.72,30.449 22.72,30.453 21.571,31.601 20.386,30.417 
			20.386,31.226 21.571,32.416 21.576,32.421 21.576,32.41 22.72,31.265 22.72,33.683 21.582,34.818 20.396,33.632 20.396,34.441 
			21.582,35.632 21.591,35.638 21.591,35.625 22.72,34.498 22.72,36.898 21.582,38.037 20.396,36.851 20.396,37.667 21.582,38.847 
			21.591,38.857 21.591,38.841 22.72,37.71 22.72,40.103 21.571,41.251 20.386,40.066 20.386,40.878 21.571,42.064 21.576,42.074 
			21.576,42.054 22.72,40.917 22.72,41.789 23.347,42.13 23.347,29.792 		"/>
	</g>
	<g>
		<defs>
			<rect id="SVGID_16_" x="-25.5" y="-54.083" width="378" height="438"/>
		</defs>
		<clipPath id="SVGID_17_">
			<use xlink:href="#SVGID_16_"  overflow="visible"/>
		</clipPath>
		<polygon clip-path="url(#SVGID_17_)" fill="#008061" points="18.952,30.449 18.952,30.453 17.803,31.601 16.62,30.417 
			16.62,31.226 17.803,32.416 17.81,32.421 17.81,32.41 18.952,31.265 18.952,33.492 17.826,34.611 16.645,33.427 16.645,34.244 
			17.826,35.425 17.839,35.433 17.839,35.419 18.952,34.298 18.952,36.398 17.826,37.519 16.645,36.333 16.645,37.148 17.826,38.33 
			17.839,38.339 17.839,38.322 18.952,37.21 18.952,39.361 19.579,39.859 19.579,29.792 		"/>
	</g>
	<g>
		<defs>
			<rect id="SVGID_18_" x="-25.5" y="-54.083" width="378" height="438"/>
		</defs>
		<clipPath id="SVGID_19_">
			<use xlink:href="#SVGID_18_"  overflow="visible"/>
		</clipPath>
		<polygon clip-path="url(#SVGID_19_)" fill="#008061" points="15.172,30.449 15.172,30.453 14.021,31.601 12.838,30.417 
			12.838,31.226 14.021,32.416 14.033,32.421 14.033,32.41 15.172,31.265 15.172,33.113 14.065,34.222 14.065,35.037 14.069,35.044 
			14.069,35.029 15.172,33.925 15.172,36.175 15.804,36.771 15.804,29.792 		"/>
	</g>
	<g>
		<defs>
			<rect id="SVGID_20_" x="-25.5" y="-54.083" width="378" height="438"/>
		</defs>
		<clipPath id="SVGID_21_">
			<use xlink:href="#SVGID_20_"  overflow="visible"/>
		</clipPath>
		<polygon clip-path="url(#SVGID_21_)" fill="#008061" points="30.859,29.792 30.23,30.449 30.23,30.453 29.082,31.601 27.9,30.417 
			27.9,31.226 29.082,32.414 29.086,32.421 29.086,32.41 30.23,31.265 30.23,33.669 29.082,34.818 27.9,33.632 27.9,34.443 
			29.082,35.632 29.086,35.638 29.086,35.625 30.23,34.484 30.23,36.886 29.082,38.037 27.9,36.849 27.9,37.666 29.082,38.847 
			29.086,38.857 29.086,38.841 30.23,37.701 30.23,40.117 29.095,41.251 27.911,40.066 27.911,40.878 29.095,42.064 29.103,42.074 
			29.103,42.054 30.282,40.878 30.282,40.369 30.859,40.083 		"/>
	</g>
	<g>
		<defs>
			<rect id="SVGID_22_" x="-25.5" y="-54.083" width="378" height="438"/>
		</defs>
		<clipPath id="SVGID_23_">
			<use xlink:href="#SVGID_22_"  overflow="visible"/>
		</clipPath>
		<polygon clip-path="url(#SVGID_23_)" fill="#008061" points="34,30.449 34,30.453 32.855,31.601 31.669,30.417 31.669,31.226 
			32.855,32.416 32.859,32.421 32.859,32.41 34,31.265 34,33.464 32.855,34.611 31.669,33.427 31.669,34.244 32.855,35.425 
			32.859,35.433 32.859,35.419 34,34.275 34,36.373 32.855,37.519 31.669,36.333 31.669,37.148 32.855,38.33 32.859,38.339 
			32.859,38.322 34,37.181 34,37.457 34.63,36.921 34.63,29.792 		"/>
	</g>
	<g>
		<defs>
			<rect id="SVGID_24_" x="-25.5" y="-54.083" width="378" height="438"/>
		</defs>
		<clipPath id="SVGID_25_">
			<use xlink:href="#SVGID_24_"  overflow="visible"/>
		</clipPath>
		<polygon clip-path="url(#SVGID_25_)" fill="#008061" points="37.667,30.449 37.667,30.453 36.519,31.601 35.332,30.417 
			35.332,31.226 36.519,32.416 36.525,32.421 36.525,32.41 37.667,31.265 37.667,32.523 38.291,31.804 38.291,29.792 		"/>
	</g>
	<g>
		<defs>
			<rect id="SVGID_26_" x="-25.5" y="-54.083" width="378" height="438"/>
		</defs>
		<clipPath id="SVGID_27_">
			<use xlink:href="#SVGID_26_"  overflow="visible"/>
		</clipPath>
		<path clip-path="url(#SVGID_27_)" fill="#008061" d="M24.058,13.528h-5.448V6.833h1.563l0.509-1.168
			c0.307,0.092,0.849,0.094,1.231,0.041c0.384-0.058,1.61-0.423,2.125-0.385c0.52,0.037,1.029,0.344,1.277,0.773
			c0.25-0.429,0.764-0.736,1.28-0.773c0.514-0.038,1.736,0.327,2.123,0.385c0.386,0.053,0.92,0.051,1.229-0.041l0.509,1.168h1.523
			v6.695h-5.453l-1.23,0.68L24.058,13.528z"/>
	</g>
	<g>
		<defs>
			<rect id="SVGID_28_" x="-25.5" y="-54.083" width="378" height="438"/>
		</defs>
		<clipPath id="SVGID_29_">
			<use xlink:href="#SVGID_28_"  overflow="visible"/>
		</clipPath>
		<path clip-path="url(#SVGID_29_)" fill="#FFFFFF" d="M20.968,11.071c0.144,0.129,0.494,0.072,0.793,0.033
			c0.612-0.072,1.567-0.399,2.091-0.382c0.265,0.008,0.688,0.242,0.933,0.607V6.792c-0.245-0.364-0.668-0.594-0.933-0.602
			c-0.524-0.022-1.479,0.306-2.091,0.382c-0.3,0.041-0.631,0.092-0.793-0.031V11.071z"/>
	</g>
	<g>
		<defs>
			<rect id="SVGID_30_" x="-25.5" y="-54.083" width="378" height="438"/>
		</defs>
		<clipPath id="SVGID_31_">
			<use xlink:href="#SVGID_30_"  overflow="visible"/>
		</clipPath>
		<path clip-path="url(#SVGID_31_)" fill="#FFFFFF" d="M29.571,6.541c-0.163,0.124-0.498,0.072-0.793,0.031
			c-0.613-0.076-1.568-0.403-2.094-0.382c-0.265,0.008-0.686,0.239-0.93,0.604v4.537c0.245-0.366,0.666-0.598,0.93-0.606
			c0.525-0.018,1.481,0.309,2.094,0.382c0.295,0.039,0.647,0.095,0.793-0.034V6.541z"/>
	</g>
	<g>
		<defs>
			<rect id="SVGID_32_" x="-25.5" y="-54.083" width="378" height="438"/>
		</defs>
		<clipPath id="SVGID_33_">
			<use xlink:href="#SVGID_32_"  overflow="visible"/>
		</clipPath>
		<polygon clip-path="url(#SVGID_33_)" fill="#FFFFFF" points="24.6,12.228 20.028,12.228 20.028,7.615 19.458,7.615 19.458,12.739 
			24.616,12.739 25.294,13.215 25.993,12.739 31.169,12.739 31.169,7.615 30.6,7.615 30.6,12.228 25.993,12.228 25.294,12.676 		"/>
	</g>
	<g>
		<defs>
			<rect id="SVGID_34_" x="-25.5" y="-54.083" width="378" height="438"/>
		</defs>
		<clipPath id="SVGID_35_">
			<use xlink:href="#SVGID_34_"  overflow="visible"/>
		</clipPath>
		<path clip-path="url(#SVGID_35_)" fill="#008061" d="M25.18,2.9c-8.662,0-15.363,3.068-15.363,3.068v16.744
			c0,3.235,0.705,6.35,2.096,9.258c2.217,4.863,7.533,10.455,13.267,11.814c5.734-1.359,11.048-6.951,13.263-11.814
			c1.395-2.908,2.1-6.021,2.1-9.258V5.968C40.542,5.968,33.839,2.9,25.18,2.9 M10.931,19.772V6.681
			c1.371-0.567,6.92-2.664,14.213-2.664c7.305,0,12.924,2.101,14.315,2.67v12.93l-0.051,3.685h0.042
			c-0.08,2.848-0.747,5.593-1.979,8.167c-2.037,4.477-7.017,9.881-12.274,11.201c-5.266-1.32-10.242-6.725-12.273-11.191
			c-1.237-2.579-1.901-5.314-1.984-8.157"/>
	</g>
	<g>
		<defs>
			<rect id="SVGID_36_" x="-25.5" y="-54.083" width="378" height="438"/>
		</defs>
		<clipPath id="SVGID_37_">
			<use xlink:href="#SVGID_36_"  overflow="visible"/>
		</clipPath>
		<path clip-path="url(#SVGID_37_)" fill="#008061" d="M47.305,42.085l0.488-0.543l-3.012-1.037l-0.454,0.506l1.363,2.881
			l0.497-0.549l-0.262-0.531l0.811-0.932L47.305,42.085z M45.684,42.328l-0.494-1.002l1.04,0.375L45.684,42.328z"/>
	</g>
	<g>
		<defs>
			<rect id="SVGID_38_" x="-25.5" y="-54.083" width="378" height="438"/>
		</defs>
		<clipPath id="SVGID_39_">
			<use xlink:href="#SVGID_38_"  overflow="visible"/>
		</clipPath>
		<path clip-path="url(#SVGID_39_)" fill="#008061" d="M10.774,44.994l-2.654,1.77l0.615,0.402l0.483-0.328l1.045,0.664l-0.12,0.596
			l0.609,0.404l0.589-3.129L10.774,44.994z M9.669,46.527l0.91-0.617l0.004-0.006l-0.215,1.068L9.669,46.527z"/>
	</g>
</g>
</svg>
