<?xml version="1.0" encoding="utf-8"?>
<!-- Generator: Adobe Illustrator 16.0.0, SVG Export Plug-In . SVG Version: 6.00 Build 0)  -->
<!DOCTYPE svg PUBLIC "-//W3C//DTD SVG 1.1//EN" "http://www.w3.org/Graphics/SVG/1.1/DTD/svg11.dtd">
<svg version="1.1" id="Layer_1" xmlns="http://www.w3.org/2000/svg" xmlns:xlink="http://www.w3.org/1999/xlink" x="0px" y="0px"
	 width="284px" height="270px" viewBox="13.243 20.992 284 270" enable-background="new 13.243 20.992 284 270"
	 xml:space="preserve">
<path d="M111.044,201.576l4.884,14.358h0.06l4.621-14.358h6.464v20.883h-4.299v-14.801h-0.06l-5.119,14.801h-3.539l-5.117-14.652
	h-0.06v14.652h-4.299v-20.883H111.044L111.044,201.576z"/>
<path d="M140.117,201.576c1.346,0,2.599,0.215,3.759,0.643c1.16,0.43,2.164,1.074,3.013,1.932c0.849,0.858,1.512,1.933,1.988,3.218
	c0.478,1.287,0.717,2.799,0.717,4.532c0,1.521-0.194,2.927-0.585,4.214c-0.391,1.286-0.979,2.397-1.77,3.334
	c-0.79,0.938-1.774,1.672-2.954,2.207c-1.18,0.536-2.569,0.807-4.168,0.807h-9.008v-20.885L140.117,201.576L140.117,201.576z
	 M139.795,218.599c0.662,0,1.307-0.106,1.931-0.322c0.623-0.215,1.18-0.569,1.668-1.065c0.485-0.498,0.877-1.146,1.17-1.945
	c0.292-0.799,0.438-1.772,0.438-2.926c0-1.053-0.103-2.002-0.308-2.853c-0.204-0.848-0.541-1.573-1.009-2.18
	c-0.469-0.604-1.088-1.065-1.857-1.389c-0.771-0.322-1.721-0.482-2.852-0.482h-3.275v13.162H139.795z"/>
<path d="M178.594,201.576v3.858h-10.092v4.826h8.746v3.568h-8.746v8.629h-4.592v-20.885h14.684V201.576z"/>
<path d="M179.934,204.998v-3.422h4.152v3.422H179.934z M184.086,207.337v15.121h-4.151v-15.121H184.086z"/>
<path d="M191.312,207.337v2.104h0.087c0.525-0.877,1.209-1.516,2.048-1.916c0.839-0.397,1.696-0.6,2.574-0.6
	c1.11,0,2.021,0.15,2.733,0.453c0.711,0.303,1.271,0.723,1.683,1.258c0.409,0.537,0.696,1.189,0.862,1.959
	c0.164,0.771,0.248,1.623,0.248,2.562v9.301h-4.152v-8.539c0-1.248-0.195-2.183-0.585-2.795c-0.392-0.613-1.082-0.922-2.076-0.922
	c-1.131,0-1.95,0.336-2.457,1.01c-0.508,0.674-0.761,1.779-0.761,3.32v7.926h-4.153v-15.121H191.312L191.312,207.337z"/>
<path d="M204.532,211.989c0.059-0.976,0.303-1.785,0.729-2.429c0.429-0.645,0.977-1.16,1.64-1.551
	c0.662-0.391,1.408-0.668,2.236-0.834c0.828-0.164,1.662-0.248,2.501-0.248c0.761,0,1.53,0.055,2.312,0.16
	c0.779,0.106,1.491,0.315,2.135,0.629c0.646,0.312,1.17,0.746,1.58,1.303c0.41,0.556,0.613,1.291,0.613,2.207v7.869
	c0,0.682,0.039,1.336,0.117,1.959c0.077,0.625,0.214,1.092,0.408,1.404h-4.213c-0.077-0.234-0.141-0.476-0.188-0.719
	c-0.049-0.242-0.083-0.49-0.104-0.746c-0.664,0.686-1.442,1.162-2.34,1.436c-0.896,0.271-1.812,0.408-2.75,0.408
	c-0.722,0-1.395-0.086-2.019-0.264c-0.624-0.177-1.17-0.447-1.64-0.818c-0.467-0.369-0.834-0.838-1.096-1.402
	c-0.265-0.565-0.396-1.237-0.396-2.02c0-0.857,0.15-1.564,0.453-2.119c0.303-0.557,0.691-1,1.171-1.332
	c0.478-0.33,1.022-0.58,1.638-0.746c0.614-0.164,1.23-0.297,1.855-0.395c0.623-0.099,1.238-0.177,1.845-0.234
	c0.604-0.059,1.142-0.146,1.606-0.264c0.47-0.115,0.838-0.287,1.111-0.513c0.271-0.225,0.399-0.551,0.381-0.979
	c0-0.449-0.074-0.805-0.22-1.068c-0.146-0.262-0.342-0.467-0.585-0.612c-0.244-0.146-0.525-0.242-0.85-0.294
	c-0.32-0.049-0.668-0.071-1.039-0.071c-0.817,0-1.463,0.176-1.93,0.524c-0.469,0.353-0.742,0.938-0.817,1.756h-4.147V211.989z
	 M214.125,215.06c-0.176,0.156-0.396,0.277-0.658,0.365c-0.264,0.088-0.547,0.16-0.848,0.219c-0.304,0.06-0.619,0.107-0.951,0.146
	c-0.332,0.041-0.664,0.088-0.994,0.146c-0.312,0.06-0.619,0.138-0.922,0.234c-0.303,0.098-0.564,0.229-0.789,0.395
	c-0.226,0.166-0.405,0.375-0.541,0.629c-0.137,0.255-0.205,0.574-0.205,0.966c0,0.37,0.068,0.684,0.205,0.938
	c0.136,0.252,0.32,0.453,0.557,0.601c0.232,0.146,0.507,0.247,0.818,0.307c0.312,0.059,0.633,0.088,0.965,0.088
	c0.818,0,1.451-0.135,1.9-0.408c0.448-0.272,0.779-0.6,0.994-0.979s0.346-0.767,0.395-1.154c0.051-0.391,0.074-0.701,0.074-0.938
	V215.06L214.125,215.06z"/>
<path d="M224.444,207.337v2.104h0.088c0.526-0.877,1.209-1.516,2.047-1.916c0.838-0.397,1.696-0.6,2.574-0.6
	c1.11,0,2.021,0.15,2.733,0.453c0.713,0.303,1.272,0.723,1.683,1.258c0.41,0.537,0.697,1.189,0.862,1.959
	c0.165,0.771,0.248,1.623,0.248,2.562v9.301h-4.152v-8.539c0-1.248-0.194-2.183-0.585-2.795c-0.391-0.613-1.082-0.922-2.076-0.922
	c-1.131,0-1.949,0.336-2.457,1.01s-0.761,1.779-0.761,3.32v7.926h-4.153v-15.121H224.444L224.444,207.337z"/>
<path d="M244.563,210.058c-0.663,0-1.221,0.15-1.667,0.453c-0.449,0.303-0.813,0.691-1.099,1.17c-0.283,0.479-0.48,1.004-0.6,1.58
	c-0.117,0.574-0.176,1.146-0.176,1.711c0,0.545,0.059,1.103,0.176,1.666c0.117,0.564,0.307,1.078,0.57,1.535
	c0.263,0.459,0.617,0.834,1.066,1.127c0.447,0.293,0.994,0.438,1.638,0.438c0.993,0,1.761-0.277,2.297-0.835
	c0.535-0.555,0.873-1.301,1.01-2.235h4.007c-0.272,2.01-1.054,3.539-2.34,4.592c-1.287,1.053-2.938,1.58-4.943,1.58
	c-1.131,0-2.168-0.189-3.114-0.57c-0.944-0.381-1.75-0.912-2.411-1.594c-0.664-0.684-1.182-1.496-1.553-2.443
	c-0.369-0.944-0.555-1.981-0.555-3.112c0-1.172,0.17-2.259,0.512-3.263c0.341-1.004,0.845-1.873,1.507-2.604
	c0.661-0.731,1.473-1.303,2.429-1.711c0.955-0.41,2.047-0.615,3.273-0.615c0.896,0,1.762,0.117,2.59,0.353
	c0.828,0.234,1.568,0.59,2.224,1.067c0.651,0.479,1.185,1.072,1.595,1.783c0.408,0.713,0.645,1.557,0.701,2.529h-4.064
	C247.361,210.925,246.336,210.058,244.563,210.058z"/>
<path d="M253.745,204.998v-3.422h4.152v3.422H253.745z M257.897,207.337v15.121h-4.152v-15.121H257.897z"/>
<path d="M260.165,212.154c0.06-0.975,0.303-1.782,0.73-2.428c0.428-0.643,0.977-1.16,1.639-1.549
	c0.662-0.393,1.408-0.668,2.237-0.834c0.827-0.166,1.662-0.25,2.501-0.25c0.76,0,1.529,0.055,2.311,0.162
	c0.779,0.104,1.492,0.316,2.136,0.629c0.646,0.311,1.17,0.746,1.579,1.301c0.41,0.558,0.613,1.293,0.613,2.209v7.867
	c0,0.684,0.039,1.336,0.117,1.959c0.078,0.625,0.215,1.094,0.409,1.404h-4.212c-0.078-0.234-0.143-0.474-0.189-0.717
	c-0.049-0.242-0.082-0.492-0.104-0.746c-0.662,0.684-1.441,1.16-2.34,1.434c-0.896,0.271-1.812,0.41-2.749,0.41
	c-0.722,0-1.396-0.088-2.019-0.264c-0.625-0.177-1.17-0.447-1.639-0.818s-0.834-0.838-1.098-1.404
	c-0.264-0.563-0.396-1.237-0.396-2.018c0-0.857,0.15-1.564,0.454-2.121c0.302-0.557,0.69-0.998,1.17-1.33
	c0.478-0.332,1.022-0.58,1.638-0.746s1.232-0.297,1.857-0.396c0.623-0.099,1.236-0.177,1.844-0.232
	c0.604-0.061,1.141-0.146,1.606-0.264c0.469-0.117,0.839-0.287,1.11-0.513c0.272-0.225,0.399-0.551,0.381-0.979
	c0-0.447-0.073-0.805-0.219-1.066c-0.146-0.264-0.343-0.469-0.586-0.614c-0.244-0.146-0.525-0.242-0.849-0.291
	c-0.321-0.05-0.668-0.072-1.038-0.072c-0.818,0-1.463,0.174-1.932,0.524c-0.469,0.353-0.74,0.937-0.817,1.755h-4.147V212.154z
	 M269.756,215.226c-0.176,0.156-0.396,0.277-0.658,0.365c-0.264,0.088-0.546,0.162-0.848,0.221c-0.303,0.06-0.619,0.107-0.951,0.146
	c-0.331,0.039-0.663,0.088-0.994,0.145c-0.312,0.06-0.618,0.138-0.921,0.234c-0.304,0.097-0.565,0.229-0.79,0.395
	s-0.404,0.377-0.541,0.629c-0.137,0.255-0.205,0.576-0.205,0.966c0,0.371,0.068,0.684,0.205,0.938s0.32,0.453,0.557,0.601
	c0.233,0.146,0.508,0.247,0.818,0.309c0.312,0.059,0.634,0.088,0.966,0.088c0.817,0,1.451-0.137,1.899-0.41
	c0.449-0.272,0.779-0.6,0.994-0.979c0.215-0.379,0.347-0.765,0.396-1.154c0.049-0.391,0.072-0.701,0.072-0.936V215.226
	L269.756,215.226z"/>
<path d="M280.231,201.576v20.883h-4.152v-20.883H280.231z"/>
<path d="M111.044,230.673l4.884,14.359h0.06l4.621-14.359h6.464v20.883h-4.299v-14.799h-0.06l-5.119,14.799h-3.539l-5.117-14.652
	h-0.06v14.652h-4.299v-20.883H111.044z"/>
<path d="M129.495,241.085c0.059-0.976,0.302-1.783,0.73-2.428c0.428-0.646,0.976-1.16,1.639-1.552
	c0.662-0.391,1.408-0.668,2.237-0.834c0.827-0.164,1.661-0.248,2.501-0.248c0.76,0,1.529,0.056,2.311,0.16
	c0.779,0.107,1.491,0.318,2.135,0.629c0.645,0.312,1.17,0.746,1.579,1.304c0.41,0.557,0.614,1.291,0.614,2.207v7.868
	c0,0.685,0.039,1.336,0.117,1.959c0.078,0.625,0.214,1.093,0.409,1.404h-4.213c-0.077-0.233-0.142-0.473-0.188-0.717
	c-0.049-0.244-0.083-0.492-0.104-0.746c-0.662,0.684-1.442,1.16-2.34,1.434c-0.896,0.271-1.812,0.408-2.749,0.408
	c-0.722,0-1.395-0.086-2.019-0.262s-1.17-0.449-1.638-0.82c-0.469-0.369-0.834-0.838-1.098-1.401
	c-0.264-0.564-0.396-1.238-0.396-2.021c0-0.856,0.15-1.563,0.454-2.119c0.302-0.557,0.69-1,1.17-1.332
	c0.478-0.33,1.022-0.58,1.638-0.746c0.614-0.164,1.232-0.297,1.857-0.395c0.623-0.098,1.236-0.176,1.843-0.234
	c0.604-0.059,1.141-0.145,1.607-0.262c0.469-0.117,0.838-0.289,1.111-0.512c0.272-0.228,0.399-0.554,0.38-0.98
	c0-0.449-0.073-0.805-0.219-1.067s-0.342-0.468-0.585-0.613c-0.244-0.146-0.526-0.242-0.85-0.291
	c-0.32-0.051-0.668-0.074-1.037-0.074c-0.819,0-1.464,0.176-1.932,0.527c-0.468,0.35-0.741,0.936-0.817,1.754H129.495z
	 M139.087,244.156c-0.175,0.155-0.395,0.276-0.658,0.364c-0.263,0.088-0.546,0.162-0.848,0.222
	c-0.303,0.059-0.619,0.106-0.951,0.146c-0.331,0.039-0.663,0.088-0.994,0.146c-0.312,0.061-0.618,0.139-0.921,0.233
	c-0.303,0.099-0.565,0.229-0.79,0.396c-0.225,0.166-0.404,0.377-0.541,0.631c-0.137,0.254-0.205,0.574-0.205,0.965
	c0,0.371,0.068,0.682,0.205,0.936c0.137,0.255,0.321,0.453,0.557,0.603c0.233,0.145,0.507,0.248,0.818,0.307
	c0.312,0.06,0.634,0.088,0.965,0.088c0.819,0,1.452-0.137,1.901-0.409c0.448-0.271,0.779-0.601,0.994-0.979
	c0.215-0.381,0.346-0.766,0.395-1.156c0.05-0.389,0.073-0.701,0.073-0.936V244.156L139.087,244.156z"/>
<path d="M149.407,236.435v2.105h0.087c0.527-0.877,1.209-1.517,2.048-1.916c0.838-0.398,1.696-0.601,2.574-0.601
	c1.111,0,2.021,0.15,2.734,0.453c0.712,0.303,1.271,0.724,1.682,1.258c0.41,0.537,0.697,1.189,0.863,1.959
	c0.165,0.771,0.248,1.623,0.248,2.562v9.301h-4.152v-8.539c0-1.248-0.195-2.18-0.586-2.795c-0.391-0.613-1.082-0.92-2.076-0.92
	c-1.131,0-1.95,0.336-2.457,1.008c-0.508,0.674-0.761,1.779-0.761,3.32v7.926h-4.153v-15.121H149.407z"/>
<path d="M162.625,241.085c0.061-0.976,0.303-1.783,0.73-2.428c0.428-0.646,0.977-1.16,1.639-1.552
	c0.662-0.391,1.408-0.668,2.237-0.834c0.828-0.164,1.662-0.248,2.501-0.248c0.76,0,1.529,0.056,2.311,0.16
	c0.779,0.107,1.492,0.318,2.136,0.629c0.646,0.312,1.171,0.746,1.579,1.304c0.41,0.557,0.613,1.291,0.613,2.207v7.868
	c0,0.685,0.039,1.336,0.117,1.959c0.078,0.625,0.215,1.093,0.409,1.404h-4.212c-0.078-0.233-0.143-0.473-0.189-0.717
	c-0.049-0.244-0.082-0.492-0.103-0.746c-0.663,0.684-1.442,1.16-2.341,1.434c-0.896,0.271-1.812,0.408-2.749,0.408
	c-0.722,0-1.396-0.086-2.019-0.262c-0.625-0.176-1.17-0.449-1.639-0.82c-0.469-0.369-0.834-0.838-1.098-1.401
	c-0.264-0.564-0.396-1.238-0.396-2.021c0-0.856,0.151-1.563,0.454-2.119c0.302-0.557,0.69-1,1.17-1.332
	c0.478-0.33,1.022-0.58,1.638-0.746c0.614-0.164,1.232-0.297,1.857-0.395c0.623-0.098,1.236-0.176,1.844-0.234
	c0.604-0.059,1.141-0.145,1.607-0.262s0.838-0.289,1.109-0.512c0.272-0.228,0.399-0.554,0.381-0.98c0-0.449-0.072-0.805-0.219-1.067
	s-0.343-0.468-0.586-0.613c-0.244-0.146-0.525-0.242-0.849-0.291c-0.321-0.051-0.668-0.074-1.038-0.074
	c-0.818,0-1.463,0.176-1.932,0.527c-0.469,0.35-0.74,0.936-0.817,1.754H162.625z M172.217,244.156
	c-0.174,0.155-0.395,0.276-0.656,0.364c-0.264,0.088-0.547,0.162-0.85,0.222c-0.303,0.059-0.619,0.106-0.95,0.146
	s-0.663,0.088-0.993,0.146c-0.312,0.061-0.619,0.139-0.922,0.233c-0.303,0.099-0.564,0.229-0.79,0.396s-0.404,0.377-0.541,0.631
	c-0.138,0.254-0.204,0.574-0.204,0.965c0,0.371,0.066,0.682,0.204,0.936c0.137,0.255,0.321,0.453,0.558,0.603
	c0.232,0.145,0.506,0.248,0.817,0.307c0.312,0.06,0.634,0.088,0.966,0.088c0.818,0,1.451-0.137,1.9-0.409
	c0.447-0.271,0.779-0.601,0.994-0.979c0.215-0.381,0.346-0.766,0.396-1.156c0.049-0.389,0.071-0.701,0.071-0.936V244.156
	L172.217,244.156z"/>
<path d="M193.877,252.667c-0.166,0.779-0.521,1.508-1.066,2.18c-0.547,0.672-1.336,1.242-2.369,1.711s-2.418,0.701-4.152,0.701
	c-0.742,0-1.498-0.092-2.268-0.277c-0.771-0.186-1.475-0.473-2.105-0.862c-0.633-0.39-1.16-0.892-1.58-1.507
	c-0.42-0.612-0.657-1.35-0.717-2.206h4.125c0.194,0.778,0.574,1.319,1.141,1.622c0.566,0.304,1.22,0.453,1.96,0.453
	c1.17,0,2.022-0.352,2.562-1.053c0.535-0.703,0.793-1.59,0.772-2.662v-1.988h-0.06c-0.447,0.8-1.086,1.39-1.914,1.771
	c-0.83,0.381-1.703,0.57-2.619,0.57c-1.131,0-2.104-0.199-2.924-0.601c-0.822-0.4-1.492-0.944-2.019-1.639
	c-0.526-0.691-0.912-1.502-1.156-2.428c-0.243-0.927-0.364-1.906-0.364-2.939c0-0.975,0.142-1.916,0.424-2.822
	c0.283-0.905,0.697-1.705,1.242-2.396c0.547-0.693,1.225-1.244,2.033-1.654c0.809-0.408,1.74-0.613,2.793-0.613
	c0.994,0,1.867,0.187,2.618,0.558c0.75,0.369,1.379,0.994,1.886,1.871h0.06v-2.019h3.948v14.156
	C194.125,251.195,194.042,251.888,193.877,252.667z M188.189,247.638c0.447-0.234,0.817-0.547,1.11-0.938
	c0.291-0.392,0.513-0.834,0.658-1.33c0.146-0.498,0.219-1.021,0.219-1.564c0-0.625-0.059-1.215-0.176-1.771
	s-0.312-1.047-0.584-1.478c-0.272-0.428-0.636-0.771-1.084-1.022c-0.447-0.254-1.014-0.382-1.695-0.382
	c-0.586,0-1.088,0.117-1.506,0.354c-0.42,0.232-0.771,0.551-1.053,0.949c-0.283,0.397-0.488,0.856-0.615,1.375
	c-0.127,0.518-0.188,1.059-0.188,1.623c0,0.547,0.054,1.088,0.161,1.623c0.105,0.535,0.292,1.02,0.557,1.446
	c0.262,0.431,0.608,0.779,1.037,1.054c0.43,0.274,0.965,0.41,1.607,0.41C187.222,247.989,187.741,247.871,188.189,247.638z"/>
<path d="M201.907,247.929c0.623,0.604,1.52,0.908,2.688,0.908c0.839,0,1.562-0.211,2.163-0.629c0.604-0.42,0.978-0.863,1.113-1.332
	h3.654c-0.585,1.812-1.48,3.108-2.689,3.891c-1.209,0.779-2.672,1.17-4.389,1.17c-1.189,0-2.262-0.188-3.217-0.569
	c-0.956-0.382-1.766-0.923-2.43-1.623c-0.661-0.701-1.174-1.541-1.533-2.517c-0.361-0.975-0.541-2.047-0.541-3.217
	c0-1.131,0.186-2.186,0.557-3.16c0.369-0.975,0.896-1.815,1.578-2.528c0.684-0.712,1.496-1.271,2.441-1.683s1.992-0.615,3.145-0.615
	c1.287,0,2.408,0.25,3.364,0.746c0.955,0.498,1.739,1.166,2.354,2.004s1.059,1.795,1.33,2.867c0.272,1.072,0.369,2.193,0.293,3.363
	h-10.91C200.94,246.351,201.282,247.326,201.907,247.929z M206.6,239.974c-0.497-0.545-1.254-0.817-2.268-0.817
	c-0.664,0-1.215,0.11-1.653,0.336c-0.438,0.225-0.789,0.502-1.054,0.834c-0.263,0.332-0.447,0.684-0.556,1.053
	c-0.106,0.371-0.171,0.703-0.19,0.996h6.758C207.443,241.32,207.096,240.521,206.6,239.974z"/>
<path d="M217.534,236.435v2.047h0.059c0.547-0.778,1.205-1.383,1.977-1.812c0.771-0.43,1.651-0.646,2.646-0.646
	c0.955,0,1.828,0.188,2.617,0.56c0.791,0.369,1.391,1.021,1.799,1.959c0.449-0.662,1.06-1.248,1.828-1.756
	c0.771-0.509,1.684-0.763,2.734-0.763c0.801,0,1.54,0.101,2.223,0.293c0.684,0.195,1.27,0.509,1.756,0.938s0.867,0.988,1.142,1.682
	c0.272,0.691,0.409,1.525,0.409,2.5v10.121h-4.152v-8.569c0-0.507-0.021-0.982-0.06-1.435c-0.039-0.447-0.146-0.838-0.321-1.17
	c-0.176-0.33-0.436-0.594-0.773-0.789c-0.342-0.195-0.806-0.293-1.391-0.293s-1.059,0.113-1.418,0.336
	c-0.361,0.226-0.645,0.519-0.85,0.879c-0.205,0.361-0.342,0.771-0.409,1.229c-0.067,0.457-0.103,0.922-0.103,1.389v8.424h-4.154
	v-8.481c0-0.447-0.01-0.892-0.027-1.328c-0.021-0.439-0.104-0.846-0.249-1.215s-0.392-0.668-0.729-0.894
	c-0.342-0.225-0.844-0.336-1.508-0.336c-0.195,0-0.453,0.043-0.773,0.131c-0.321,0.088-0.635,0.254-0.938,0.498
	s-0.562,0.594-0.775,1.054c-0.213,0.456-0.319,1.059-0.319,1.799v8.772h-4.153v-15.121h3.918v-0.004H217.534z"/>
<path d="M243.193,247.929c0.624,0.604,1.521,0.908,2.688,0.908c0.839,0,1.562-0.211,2.164-0.629c0.604-0.42,0.978-0.863,1.113-1.332
	h3.654c-0.585,1.812-1.48,3.108-2.689,3.891c-1.209,0.779-2.672,1.17-4.389,1.17c-1.189,0-2.263-0.188-3.217-0.569
	c-0.956-0.382-1.766-0.923-2.43-1.623c-0.662-0.701-1.174-1.541-1.534-2.517c-0.36-0.975-0.541-2.047-0.541-3.217
	c0-1.131,0.187-2.186,0.557-3.16s0.896-1.815,1.579-2.528c0.684-0.712,1.496-1.271,2.441-1.683s1.992-0.615,3.145-0.615
	c1.287,0,2.408,0.25,3.363,0.746c0.955,0.498,1.74,1.166,2.354,2.004c0.614,0.838,1.059,1.795,1.33,2.867
	c0.272,1.072,0.37,2.193,0.293,3.363h-10.91C242.227,246.351,242.568,247.326,243.193,247.929z M247.886,239.974
	c-0.497-0.545-1.253-0.817-2.267-0.817c-0.664,0-1.215,0.11-1.654,0.336c-0.438,0.225-0.789,0.502-1.053,0.834
	c-0.263,0.332-0.447,0.684-0.556,1.053c-0.106,0.371-0.171,0.703-0.19,0.996h6.758C248.73,241.32,248.383,240.521,247.886,239.974z"
	/>
<path d="M259.484,236.435v2.105h0.087c0.526-0.877,1.209-1.517,2.049-1.916c0.838-0.398,1.695-0.601,2.573-0.601
	c1.11,0,2.021,0.15,2.733,0.453c0.712,0.304,1.271,0.724,1.683,1.258c0.41,0.537,0.696,1.189,0.862,1.959
	c0.165,0.771,0.248,1.623,0.248,2.562v9.301h-4.152v-8.539c0-1.248-0.195-2.18-0.585-2.795c-0.392-0.613-1.082-0.92-2.075-0.92
	c-1.132,0-1.951,0.336-2.457,1.008c-0.509,0.674-0.762,1.779-0.762,3.32v7.926h-4.152v-15.121H259.484z"/>
<path d="M281.185,236.435v2.779h-3.042v7.486c0,0.7,0.115,1.17,0.352,1.403c0.233,0.232,0.702,0.353,1.403,0.353
	c0.233,0,0.458-0.013,0.673-0.029c0.215-0.02,0.42-0.049,0.614-0.088v3.217c-0.353,0.06-0.741,0.099-1.171,0.117
	c-0.43,0.02-0.848,0.029-1.258,0.029c-0.645,0-1.254-0.045-1.828-0.134c-0.574-0.088-1.082-0.258-1.521-0.512
	c-0.438-0.252-0.785-0.613-1.037-1.082c-0.254-0.469-0.381-1.082-0.381-1.842v-8.922h-2.517v-2.777h2.517V231.9h4.151v4.535H281.185
	L281.185,236.435z"/>
<g>
	<path fill="#214194" d="M103.329,41.024l-74.801,74.802l74.801,74.801l74.8-74.801L103.329,41.024z M107.549,137.141H96.352
		v-20.629l-7.312,20.629h-8.864l-7.314-20.433v20.433H61.663V95.292h14.892l8.266,23.713l7.821-23.713h14.91v41.849H107.549z
		 M145.638,131.019c-1.646,1.905-3.721,3.42-6.159,4.5c-2.429,1.076-5.307,1.622-8.555,1.622h-18.678V95.292h18.678
		c2.728,0,5.31,0.433,7.676,1.284c2.41,0.873,4.525,2.195,6.287,3.935c1.767,1.744,3.158,3.938,4.143,6.521
		c0.972,2.553,1.465,5.568,1.465,8.968c0,2.972-0.398,5.758-1.183,8.28C148.505,126.867,147.271,129.135,145.638,131.019z"/>
	<path fill="#214194" d="M136.553,108.39c-0.737-0.929-1.696-1.625-2.933-2.129c-1.28-0.521-2.92-0.785-4.873-0.785h-4.746v21.482
		h6.31c1.102,0,2.18-0.176,3.202-0.521c0.98-0.329,1.83-0.86,2.599-1.626c0.773-0.771,1.409-1.808,1.888-3.082
		c0.49-1.312,0.739-2.966,0.739-4.914c0-1.832-0.184-3.496-0.542-4.943C137.861,110.509,137.308,109.338,136.553,108.39z"/>
</g>
<path d="M113.375,264.302c-0.196-0.313-0.439-0.59-0.733-0.828c-0.294-0.235-0.625-0.422-0.995-0.555
	c-0.37-0.135-0.759-0.199-1.163-0.199c-0.741,0-1.37,0.144-1.888,0.43c-0.518,0.287-0.937,0.67-1.258,1.152
	c-0.32,0.48-0.555,1.031-0.702,1.646c-0.146,0.614-0.22,1.25-0.22,1.905c0,0.629,0.073,1.24,0.22,1.834
	c0.147,0.597,0.382,1.129,0.702,1.604c0.321,0.477,0.74,0.856,1.258,1.143c0.518,0.287,1.146,0.431,1.888,0.431
	c1.006,0,1.792-0.308,2.356-0.923c0.566-0.612,0.912-1.424,1.038-2.432h3.187c-0.084,0.938-0.302,1.781-0.649,2.537
	c-0.35,0.756-0.812,1.396-1.384,1.928c-0.573,0.531-1.244,0.938-2.012,1.217c-0.771,0.279-1.614,0.418-2.536,0.418
	c-1.146,0-2.178-0.196-3.092-0.598c-0.916-0.396-1.688-0.945-2.316-1.646c-0.629-0.697-1.111-1.521-1.446-2.463
	c-0.335-0.941-0.503-1.96-0.503-3.05c0-1.116,0.168-2.153,0.503-3.112c0.335-0.957,0.817-1.791,1.446-2.504
	c0.629-0.714,1.4-1.271,2.316-1.677c0.914-0.405,1.944-0.606,3.092-0.606c0.824,0,1.603,0.119,2.337,0.354
	c0.732,0.238,1.39,0.584,1.97,1.037c0.58,0.455,1.06,1.019,1.437,1.688c0.378,0.672,0.614,1.438,0.713,2.307h-3.187
	C113.696,264.962,113.57,264.617,113.375,264.302z"/>
<path d="M122.688,260.56l3.5,10.291h0.042l3.312-10.291h4.632v14.965h-3.081V264.92h-0.042l-3.668,10.604h-2.536l-3.668-10.502
	h-0.042v10.502h-3.081V260.56H122.688z"/>
<path d="M143.778,260.31l5.597,14.965h-3.416l-1.133-3.332h-5.596l-1.175,3.332h-3.312l5.659-14.965H143.778z M143.966,269.49
	L142.08,264h-0.042l-1.949,5.49H143.966z"/>
<path d="M162.1,264.302c-0.195-0.313-0.439-0.59-0.732-0.828c-0.295-0.235-0.627-0.422-0.996-0.555
	c-0.369-0.135-0.759-0.199-1.164-0.199c-0.74,0-1.369,0.144-1.886,0.43c-0.519,0.287-0.938,0.67-1.259,1.152
	c-0.32,0.48-0.557,1.031-0.701,1.646c-0.146,0.614-0.222,1.25-0.222,1.905c0,0.629,0.073,1.24,0.222,1.834
	c0.146,0.597,0.381,1.129,0.701,1.604c0.32,0.477,0.74,0.856,1.259,1.143c0.517,0.287,1.146,0.431,1.886,0.431
	c1.006,0,1.793-0.308,2.358-0.923c0.563-0.612,0.912-1.424,1.037-2.432h3.187c-0.084,0.938-0.301,1.781-0.647,2.537
	c-0.353,0.756-0.812,1.396-1.386,1.928c-0.572,0.533-1.243,0.938-2.012,1.217c-0.77,0.279-1.615,0.418-2.537,0.418
	c-1.146,0-2.176-0.196-3.092-0.598c-0.914-0.396-1.688-0.945-2.315-1.646c-0.629-0.697-1.11-1.521-1.445-2.463
	c-0.336-0.941-0.503-1.96-0.503-3.05c0-1.116,0.167-2.153,0.503-3.112c0.335-0.957,0.816-1.791,1.445-2.504
	c0.629-0.714,1.401-1.271,2.315-1.677c0.916-0.405,1.945-0.606,3.092-0.606c0.826,0,1.604,0.119,2.338,0.354
	c0.732,0.238,1.392,0.584,1.972,1.037c0.579,0.455,1.06,1.019,1.437,1.688c0.377,0.672,0.614,1.438,0.711,2.307h-3.185
	C162.42,264.962,162.295,264.617,162.1,264.302z"/>
<path d="M166.78,267.509c0.266-0.705,0.643-1.309,1.133-1.803c0.488-0.496,1.075-0.881,1.76-1.152
	c0.687-0.272,1.453-0.408,2.308-0.408c0.853,0,1.624,0.136,2.315,0.408c0.69,0.271,1.281,0.656,1.771,1.152
	c0.488,0.494,0.865,1.098,1.132,1.803c0.266,0.707,0.397,1.492,0.397,2.357c0,0.866-0.134,1.647-0.397,2.348
	c-0.267,0.697-0.644,1.297-1.132,1.793c-0.489,0.496-1.079,0.877-1.771,1.143c-0.691,0.267-1.465,0.398-2.315,0.398
	c-0.854,0-1.621-0.135-2.308-0.398c-0.685-0.266-1.271-0.646-1.76-1.143c-0.49-0.498-0.867-1.096-1.133-1.793
	c-0.267-0.697-0.398-1.48-0.398-2.348C166.379,269.001,166.513,268.216,166.78,267.509z M169.484,271.136
	c0.084,0.412,0.228,0.781,0.431,1.111c0.201,0.326,0.471,0.59,0.807,0.782c0.336,0.197,0.756,0.296,1.259,0.296
	s0.925-0.099,1.269-0.296c0.342-0.192,0.613-0.456,0.816-0.782c0.203-0.33,0.346-0.699,0.43-1.111s0.127-0.836,0.127-1.27
	c0-0.435-0.043-0.859-0.127-1.277c-0.084-0.42-0.228-0.791-0.43-1.111c-0.203-0.319-0.477-0.584-0.816-0.785
	c-0.344-0.202-0.766-0.305-1.269-0.305s-0.923,0.103-1.259,0.305c-0.336,0.201-0.604,0.466-0.807,0.785
	c-0.203,0.32-0.347,0.691-0.431,1.111c-0.084,0.418-0.126,0.846-0.126,1.277C169.358,270.297,169.4,270.724,169.484,271.136z"/>
<path d="M181.417,264.439v1.468h0.043c0.392-0.56,0.861-0.99,1.414-1.3c0.551-0.309,1.184-0.461,1.896-0.461
	c0.687,0,1.31,0.133,1.876,0.398c0.564,0.264,0.994,0.731,1.29,1.402c0.319-0.476,0.757-0.896,1.31-1.259
	c0.553-0.362,1.205-0.545,1.959-0.545c0.573,0,1.104,0.07,1.594,0.209c0.488,0.142,0.908,0.363,1.259,0.672
	c0.351,0.31,0.621,0.709,0.815,1.205c0.196,0.496,0.295,1.095,0.295,1.793v7.252h-2.978v-6.143c0-0.363-0.015-0.705-0.041-1.025
	c-0.028-0.321-0.104-0.602-0.231-0.84c-0.125-0.235-0.311-0.426-0.556-0.565c-0.243-0.14-0.575-0.209-0.995-0.209
	c-0.418,0-0.758,0.079-1.018,0.239c-0.258,0.162-0.461,0.371-0.607,0.629c-0.146,0.263-0.244,0.556-0.293,0.882
	c-0.049,0.327-0.072,0.659-0.072,0.995v6.037h-2.977v-6.078c0-0.321-0.008-0.641-0.021-0.954c-0.012-0.312-0.072-0.604-0.178-0.869
	c-0.104-0.267-0.279-0.479-0.523-0.642c-0.244-0.159-0.604-0.239-1.08-0.239c-0.139,0-0.323,0.03-0.557,0.096
	c-0.229,0.062-0.453,0.182-0.67,0.354c-0.217,0.177-0.4,0.427-0.556,0.755c-0.155,0.327-0.229,0.76-0.229,1.288v6.289h-2.978
	v-10.838h2.81V264.439L181.417,264.439z"/>
<path d="M199.34,264.439v1.384h0.041c0.365-0.587,0.826-1.015,1.387-1.277c0.559-0.267,1.173-0.398,1.844-0.398
	c0.852,0,1.586,0.16,2.201,0.482c0.613,0.32,1.125,0.748,1.529,1.277c0.404,0.53,0.703,1.149,0.9,1.854
	c0.195,0.705,0.293,1.441,0.293,2.211c0,0.728-0.098,1.426-0.293,2.096c-0.197,0.673-0.492,1.267-0.892,1.783
	c-0.397,0.517-0.896,0.928-1.487,1.234c-0.595,0.309-1.289,0.463-2.086,0.463c-0.671,0-1.29-0.139-1.855-0.41
	c-0.563-0.271-1.029-0.674-1.394-1.205h-0.042v5.135h-2.979v-14.629H199.34L199.34,264.439z M203.209,273.031
	c0.326-0.193,0.594-0.449,0.795-0.765c0.203-0.313,0.349-0.682,0.432-1.102c0.084-0.42,0.126-0.847,0.126-1.279
	s-0.047-0.856-0.138-1.277c-0.09-0.418-0.239-0.793-0.449-1.12c-0.21-0.328-0.479-0.595-0.809-0.798
	c-0.328-0.202-0.729-0.305-1.205-0.305c-0.489,0-0.896,0.103-1.227,0.305c-0.33,0.203-0.594,0.466-0.797,0.787
	c-0.202,0.32-0.348,0.691-0.432,1.109c-0.084,0.42-0.125,0.854-0.125,1.299c0,0.434,0.046,0.859,0.138,1.279
	c0.091,0.42,0.237,0.785,0.438,1.102c0.203,0.314,0.472,0.568,0.81,0.765c0.335,0.196,0.737,0.295,1.215,0.295
	C202.47,273.326,202.879,273.228,203.209,273.031z"/>
<path d="M209.193,267.771c0.042-0.696,0.218-1.276,0.522-1.737c0.309-0.461,0.699-0.832,1.175-1.111s1.011-0.479,1.604-0.598
	c0.592-0.117,1.189-0.179,1.791-0.179c0.545,0,1.098,0.039,1.655,0.115c0.56,0.076,1.067,0.227,1.529,0.449
	c0.462,0.225,0.839,0.533,1.133,0.934c0.294,0.398,0.438,0.926,0.438,1.582v5.64c0,0.489,0.028,0.957,0.084,1.403
	c0.058,0.447,0.153,0.783,0.293,1.006h-3.018c-0.059-0.168-0.104-0.338-0.137-0.514c-0.035-0.174-0.061-0.354-0.073-0.533
	c-0.478,0.488-1.035,0.83-1.677,1.025c-0.645,0.195-1.301,0.295-1.971,0.295c-0.519,0-1-0.064-1.447-0.189
	c-0.446-0.125-0.838-0.319-1.174-0.586c-0.336-0.266-0.598-0.602-0.787-1.006c-0.188-0.406-0.28-0.889-0.28-1.447
	c0-0.612,0.106-1.12,0.323-1.52c0.219-0.398,0.496-0.717,0.841-0.955c0.342-0.236,0.731-0.414,1.173-0.533
	c0.438-0.119,0.883-0.213,1.331-0.282c0.446-0.068,0.888-0.125,1.319-0.168c0.433-0.041,0.816-0.104,1.152-0.188
	s0.602-0.205,0.797-0.367c0.195-0.16,0.287-0.395,0.272-0.701c0-0.321-0.054-0.575-0.158-0.766
	c-0.104-0.188-0.245-0.334-0.419-0.439c-0.175-0.104-0.377-0.176-0.607-0.209c-0.229-0.034-0.479-0.053-0.744-0.053
	c-0.586,0-1.049,0.125-1.383,0.377c-0.336,0.25-0.531,0.67-0.588,1.258h-2.975v-0.002H209.193z M216.069,269.972
	c-0.127,0.111-0.283,0.199-0.473,0.262c-0.188,0.064-0.393,0.115-0.607,0.158c-0.217,0.041-0.443,0.076-0.683,0.104
	c-0.236,0.026-0.476,0.062-0.712,0.104c-0.225,0.041-0.443,0.099-0.659,0.168c-0.22,0.068-0.405,0.162-0.565,0.281
	c-0.162,0.119-0.291,0.27-0.389,0.451c-0.1,0.182-0.146,0.412-0.146,0.69c0,0.267,0.049,0.488,0.146,0.67
	c0.098,0.185,0.229,0.324,0.396,0.433c0.168,0.104,0.363,0.178,0.588,0.219c0.224,0.043,0.453,0.062,0.691,0.062
	c0.586,0,1.039-0.099,1.361-0.293c0.32-0.195,0.561-0.433,0.712-0.701c0.153-0.273,0.249-0.551,0.283-0.828
	c0.034-0.279,0.054-0.504,0.054-0.672L216.069,269.972L216.069,269.972z"/>
<path d="M224.178,264.439v1.511h0.062c0.377-0.63,0.865-1.089,1.467-1.373c0.603-0.285,1.215-0.431,1.844-0.431
	c0.8,0,1.451,0.107,1.961,0.324c0.511,0.217,0.91,0.519,1.205,0.9c0.293,0.385,0.5,0.854,0.619,1.403
	c0.117,0.554,0.178,1.164,0.178,1.834v6.666h-2.977v-6.121c0-0.895-0.141-1.561-0.42-2.002c-0.279-0.438-0.775-0.659-1.488-0.659
	c-0.81,0-1.396,0.239-1.76,0.725c-0.363,0.48-0.546,1.273-0.546,2.379v5.68h-2.978v-10.836H224.178z"/>
<path d="M233.863,262.761v-2.451h2.978v2.451H233.863z M236.838,264.439v10.836h-2.977v-10.836H236.838z"/>
<path d="M241.374,272.677c0.445,0.432,1.09,0.648,1.928,0.648c0.602,0,1.117-0.15,1.552-0.451s0.698-0.617,0.798-0.953h2.62
	c-0.42,1.301-1.062,2.229-1.931,2.787c-0.866,0.561-1.914,0.84-3.145,0.84c-0.854,0-1.621-0.139-2.307-0.41
	c-0.686-0.271-1.264-0.66-1.739-1.162c-0.476-0.504-0.841-1.104-1.101-1.803c-0.26-0.699-0.389-1.469-0.389-2.307
	c0-0.812,0.133-1.564,0.398-2.265c0.266-0.699,0.643-1.303,1.131-1.812c0.488-0.513,1.07-0.912,1.751-1.205
	c0.679-0.293,1.429-0.439,2.253-0.439c0.924,0,1.727,0.179,2.411,0.535c0.685,0.354,1.246,0.834,1.687,1.437
	c0.44,0.6,0.758,1.284,0.955,2.055c0.194,0.768,0.264,1.57,0.209,2.408h-7.818C240.679,271.544,240.924,272.242,241.374,272.677z
	 M244.736,266.974c-0.354-0.391-0.897-0.586-1.623-0.586c-0.478,0-0.87,0.08-1.187,0.242c-0.312,0.16-0.564,0.356-0.754,0.596
	c-0.188,0.238-0.32,0.49-0.397,0.756c-0.077,0.267-0.123,0.502-0.138,0.714h4.844C245.338,267.939,245.092,267.365,244.736,266.974z
	"/>
<path d="M252.721,272.582c0.134,0.229,0.305,0.42,0.515,0.563c0.209,0.148,0.45,0.256,0.724,0.326
	c0.272,0.07,0.556,0.104,0.851,0.104c0.209,0,0.429-0.023,0.657-0.072c0.232-0.051,0.441-0.127,0.63-0.23s0.347-0.243,0.473-0.42
	c0.126-0.174,0.188-0.395,0.188-0.66c0-0.444-0.297-0.782-0.891-1.006c-0.595-0.223-1.423-0.446-2.484-0.67
	c-0.434-0.1-0.854-0.215-1.268-0.346c-0.412-0.135-0.779-0.31-1.103-0.525c-0.32-0.217-0.58-0.487-0.772-0.815
	c-0.197-0.328-0.295-0.729-0.295-1.205c0-0.699,0.137-1.271,0.408-1.719c0.271-0.448,0.632-0.802,1.078-1.06
	c0.447-0.258,0.949-0.44,1.511-0.545c0.56-0.105,1.132-0.158,1.72-0.158c0.586,0,1.155,0.058,1.709,0.168
	c0.551,0.111,1.043,0.301,1.478,0.566c0.435,0.265,0.792,0.617,1.079,1.059c0.285,0.439,0.458,0.994,0.515,1.666h-2.829
	c-0.043-0.571-0.26-0.961-0.65-1.164s-0.853-0.303-1.383-0.303c-0.168,0-0.35,0.01-0.545,0.031
	c-0.195,0.021-0.375,0.063-0.535,0.135s-0.297,0.172-0.408,0.305c-0.111,0.134-0.168,0.312-0.168,0.535
	c0,0.267,0.099,0.482,0.294,0.648c0.194,0.168,0.45,0.305,0.766,0.408c0.313,0.104,0.675,0.198,1.08,0.282
	c0.403,0.084,0.815,0.177,1.235,0.273c0.435,0.098,0.855,0.217,1.269,0.354c0.414,0.139,0.778,0.324,1.101,0.558
	c0.322,0.229,0.58,0.516,0.777,0.856c0.193,0.343,0.293,0.767,0.293,1.271c0,0.711-0.146,1.309-0.432,1.791
	c-0.286,0.481-0.659,0.869-1.12,1.164c-0.462,0.293-0.989,0.5-1.583,0.617c-0.595,0.116-1.197,0.18-1.812,0.18
	c-0.629,0-1.244-0.064-1.844-0.189c-0.603-0.125-1.136-0.336-1.604-0.629c-0.47-0.293-0.854-0.682-1.152-1.164
	c-0.302-0.479-0.466-1.086-0.491-1.811h2.828C252.523,272.074,252.588,272.351,252.721,272.582z"/>
</svg>
