<?xml version="1.0" encoding="utf-8"?>
<!-- Generator: Adobe Illustrator 16.0.0, SVG Export Plug-In . SVG Version: 6.00 Build 0)  -->
<!DOCTYPE svg PUBLIC "-//W3C//DTD SVG 1.1//EN" "http://www.w3.org/Graphics/SVG/1.1/DTD/svg11.dtd">
<svg version="1.1" id="Layer_1" xmlns="http://www.w3.org/2000/svg" xmlns:xlink="http://www.w3.org/1999/xlink" x="0px" y="0px"
	 width="269.83px" height="258.496px" viewBox="0 53.496 269.83 258.496" enable-background="new 0 53.496 269.83 258.496"
	 xml:space="preserve">
<path fill="#C0C4D4" d="M91.125,222.191l4.884,14.36h0.059l4.621-14.36h6.464v20.885h-4.299v-14.801h-0.059l-5.119,14.801h-3.539
	l-5.118-14.652H88.96v14.652h-4.299v-20.885H91.125z"/>
<path fill="#C0C4D4" d="M120.197,222.191c1.347,0,2.6,0.217,3.76,0.645c1.16,0.432,2.164,1.074,3.013,1.932
	c0.848,0.857,1.511,1.933,1.988,3.219c0.477,1.287,0.717,2.8,0.717,4.533c0,1.521-0.195,2.924-0.585,4.211
	c-0.391,1.287-0.979,2.398-1.771,3.334c-0.79,0.938-1.773,1.672-2.953,2.209c-1.181,0.537-2.569,0.806-4.169,0.806h-9.008v-20.884
	L120.197,222.191L120.197,222.191z M119.876,239.214c0.662,0,1.306-0.106,1.93-0.321c0.624-0.213,1.18-0.568,1.668-1.064
	c0.486-0.498,0.877-1.146,1.17-1.945c0.292-0.799,0.438-1.773,0.438-2.926c0-1.055-0.104-2.002-0.309-2.854
	c-0.204-0.849-0.541-1.572-1.009-2.179c-0.468-0.604-1.087-1.067-1.856-1.391c-0.771-0.32-1.722-0.482-2.853-0.482h-3.274v13.162
	H119.876z"/>
<path fill="#C0C4D4" d="M158.676,222.191v3.86h-10.091v4.826h8.745v3.565h-8.745v8.63h-4.592v-20.884L158.676,222.191
	L158.676,222.191z"/>
<path fill="#C0C4D4" d="M160.015,225.615v-3.424h4.153v3.424H160.015z M164.168,227.955v15.121h-4.153v-15.121H164.168z"/>
<path fill="#C0C4D4" d="M171.394,227.955v2.104h0.086c0.527-0.877,1.209-1.516,2.049-1.916c0.84-0.397,1.695-0.6,2.574-0.6
	c1.11,0,2.021,0.148,2.733,0.453c0.712,0.303,1.271,0.723,1.683,1.258c0.41,0.537,0.696,1.188,0.862,1.959
	c0.165,0.771,0.248,1.623,0.248,2.561v9.304h-4.153v-8.541c0-1.248-0.192-2.181-0.584-2.793c-0.391-0.615-1.082-0.923-2.076-0.923
	c-1.131,0-1.948,0.336-2.457,1.011c-0.508,0.672-0.762,1.776-0.762,3.317v7.929h-4.152v-15.121L171.394,227.955L171.394,227.955z"/>
<path fill="#C0C4D4" d="M184.612,232.604c0.06-0.976,0.303-1.783,0.729-2.429c0.428-0.643,0.977-1.159,1.641-1.549
	c0.662-0.394,1.408-0.668,2.235-0.834c0.828-0.166,1.662-0.25,2.503-0.25c0.76,0,1.528,0.056,2.311,0.162
	c0.779,0.104,1.49,0.315,2.136,0.629c0.644,0.312,1.17,0.746,1.579,1.301c0.408,0.558,0.613,1.293,0.613,2.209v7.867
	c0,0.685,0.039,1.336,0.117,1.959c0.078,0.625,0.213,1.095,0.407,1.404h-4.212c-0.076-0.234-0.145-0.474-0.188-0.718
	c-0.049-0.241-0.084-0.491-0.104-0.746c-0.663,0.685-1.442,1.16-2.34,1.435c-0.896,0.271-1.812,0.41-2.749,0.41
	c-0.725,0-1.396-0.088-2.021-0.265c-0.623-0.176-1.17-0.446-1.638-0.817s-0.834-0.838-1.097-1.404
	c-0.266-0.563-0.396-1.237-0.396-2.018c0-0.857,0.151-1.564,0.455-2.121c0.301-0.558,0.69-0.998,1.17-1.33s1.022-0.58,1.637-0.746
	c0.615-0.166,1.232-0.297,1.857-0.396c0.623-0.099,1.237-0.176,1.844-0.232c0.604-0.061,1.143-0.146,1.607-0.266
	c0.469-0.115,0.838-0.285,1.109-0.512c0.271-0.226,0.399-0.552,0.382-0.979c0-0.447-0.073-0.805-0.22-1.066
	c-0.146-0.264-0.342-0.469-0.586-0.613c-0.244-0.146-0.524-0.241-0.85-0.293c-0.32-0.049-0.668-0.071-1.038-0.071
	c-0.817,0-1.463,0.176-1.931,0.524c-0.471,0.353-0.741,0.938-0.817,1.756h-4.146V232.604z M194.205,235.675
	c-0.177,0.156-0.396,0.277-0.658,0.365c-0.262,0.088-0.546,0.162-0.848,0.221c-0.304,0.06-0.619,0.107-0.951,0.146
	c-0.331,0.038-0.663,0.088-0.994,0.145c-0.312,0.06-0.619,0.138-0.921,0.234c-0.305,0.098-0.566,0.229-0.79,0.396
	c-0.226,0.166-0.405,0.377-0.541,0.629c-0.137,0.254-0.205,0.575-0.205,0.965c0,0.371,0.067,0.686,0.205,0.938
	c0.136,0.252,0.319,0.453,0.556,0.601c0.234,0.146,0.508,0.248,0.819,0.309c0.312,0.059,0.633,0.088,0.965,0.088
	c0.819,0,1.452-0.137,1.901-0.41c0.447-0.271,0.777-0.6,0.992-0.979c0.217-0.381,0.348-0.766,0.396-1.153
	c0.05-0.392,0.073-0.701,0.073-0.938L194.205,235.675L194.205,235.675z"/>
<path fill="#C0C4D4" d="M204.524,227.955v2.104h0.086c0.527-0.877,1.209-1.516,2.05-1.916c0.838-0.397,1.694-0.6,2.573-0.6
	c1.109,0,2.021,0.148,2.732,0.453c0.713,0.303,1.271,0.723,1.684,1.258c0.41,0.537,0.697,1.188,0.863,1.959
	c0.163,0.771,0.246,1.623,0.246,2.561v9.304h-4.152v-8.541c0-1.248-0.193-2.181-0.584-2.793c-0.392-0.615-1.082-0.923-2.076-0.923
	c-1.131,0-1.949,0.336-2.456,1.011c-0.509,0.672-0.763,1.776-0.763,3.317v7.929h-4.151v-15.121L204.524,227.955L204.524,227.955z"/>
<path fill="#C0C4D4" d="M224.644,230.673c-0.662,0-1.219,0.152-1.666,0.453c-0.449,0.304-0.812,0.69-1.098,1.17
	c-0.283,0.479-0.482,1.006-0.602,1.58c-0.116,0.576-0.176,1.146-0.176,1.711c0,0.547,0.061,1.103,0.176,1.668
	c0.117,0.563,0.309,1.076,0.57,1.535c0.264,0.459,0.617,0.834,1.066,1.125c0.447,0.293,0.994,0.438,1.639,0.438
	c0.993,0,1.76-0.276,2.297-0.834c0.534-0.557,0.873-1.303,1.01-2.235h4.008c-0.273,2.008-1.055,3.539-2.342,4.592
	c-1.285,1.054-2.937,1.578-4.941,1.578c-1.131,0-2.169-0.188-3.115-0.57c-0.945-0.379-1.75-0.909-2.412-1.594
	c-0.664-0.685-1.181-1.496-1.551-2.44c-0.369-0.945-0.556-1.982-0.556-3.115c0-1.17,0.171-2.256,0.512-3.262
	c0.341-1.005,0.845-1.871,1.507-2.604c0.662-0.729,1.473-1.303,2.428-1.711s2.047-0.613,3.275-0.613c0.896,0,1.76,0.117,2.59,0.352
	c0.827,0.232,1.568,0.59,2.223,1.066c0.652,0.479,1.187,1.072,1.596,1.785c0.406,0.711,0.645,1.555,0.699,2.527h-4.062
	C227.44,231.542,226.418,230.673,224.644,230.673z"/>
<path fill="#C0C4D4" d="M233.824,225.615v-3.424h4.151v3.424H233.824z M237.978,227.955v15.121h-4.15v-15.121H237.978z"/>
<path fill="#C0C4D4" d="M240.245,232.771c0.059-0.976,0.302-1.785,0.729-2.429c0.428-0.645,0.979-1.159,1.639-1.551
	c0.662-0.392,1.408-0.668,2.238-0.834c0.828-0.164,1.662-0.248,2.5-0.248c0.76,0,1.53,0.056,2.312,0.16
	c0.777,0.106,1.49,0.315,2.135,0.629s1.17,0.746,1.579,1.303c0.41,0.556,0.614,1.291,0.614,2.207v7.869
	c0,0.683,0.039,1.336,0.115,1.959c0.078,0.625,0.215,1.093,0.41,1.404h-4.213c-0.078-0.234-0.143-0.476-0.188-0.72
	c-0.052-0.241-0.083-0.489-0.104-0.746c-0.664,0.687-1.443,1.162-2.341,1.437c-0.897,0.271-1.813,0.408-2.749,0.408
	c-0.722,0-1.396-0.086-2.02-0.265c-0.623-0.176-1.17-0.446-1.639-0.817c-0.469-0.369-0.834-0.838-1.098-1.401
	c-0.266-0.564-0.396-1.238-0.396-2.021c0-0.857,0.15-1.564,0.453-2.119c0.303-0.558,0.691-1,1.17-1.332
	c0.479-0.33,1.023-0.58,1.641-0.746c0.611-0.164,1.23-0.297,1.855-0.396c0.623-0.1,1.236-0.176,1.842-0.233
	c0.604-0.06,1.144-0.146,1.608-0.265c0.468-0.114,0.839-0.286,1.111-0.512c0.271-0.225,0.397-0.551,0.38-0.979
	c0-0.449-0.073-0.807-0.219-1.068c-0.146-0.262-0.344-0.467-0.586-0.613c-0.243-0.146-0.525-0.242-0.851-0.291
	c-0.319-0.049-0.668-0.071-1.036-0.071c-0.818,0-1.464,0.174-1.933,0.524c-0.468,0.353-0.741,0.937-0.817,1.754h-4.143V232.771z
	 M249.838,235.843c-0.175,0.156-0.396,0.277-0.657,0.365c-0.263,0.088-0.547,0.16-0.849,0.219c-0.304,0.06-0.619,0.107-0.951,0.146
	c-0.331,0.041-0.663,0.088-0.993,0.146c-0.312,0.059-0.619,0.137-0.922,0.234c-0.303,0.097-0.566,0.229-0.79,0.395
	c-0.225,0.166-0.405,0.377-0.541,0.629c-0.137,0.254-0.204,0.574-0.204,0.965c0,0.371,0.067,0.685,0.204,0.938
	c0.136,0.254,0.321,0.453,0.556,0.601c0.235,0.147,0.51,0.248,0.819,0.309c0.312,0.061,0.634,0.088,0.966,0.088
	c0.818,0,1.451-0.135,1.9-0.408c0.448-0.273,0.777-0.6,0.994-0.979c0.215-0.38,0.346-0.765,0.395-1.154
	c0.049-0.392,0.073-0.701,0.073-0.937V235.843L249.838,235.843z"/>
<path fill="#C0C4D4" d="M260.312,222.191v20.885h-4.15v-20.885H260.312z"/>
<path fill="#C0C4D4" d="M91.125,251.291l4.884,14.357h0.059l4.621-14.357h6.464v20.883h-4.299v-14.801h-0.059l-5.119,14.801h-3.539
	l-5.118-14.652H88.96v14.652h-4.299v-20.883H91.125z"/>
<path fill="#C0C4D4" d="M109.575,261.703c0.059-0.977,0.302-1.785,0.729-2.43c0.428-0.646,0.976-1.158,1.639-1.551
	c0.662-0.392,1.408-0.668,2.237-0.834c0.828-0.164,1.662-0.248,2.501-0.248c0.76,0,1.53,0.055,2.312,0.159
	c0.778,0.107,1.49,0.318,2.135,0.63c0.644,0.312,1.17,0.745,1.579,1.303c0.41,0.557,0.613,1.291,0.613,2.207v7.869
	c0,0.684,0.039,1.336,0.117,1.959c0.078,0.625,0.214,1.092,0.409,1.403h-4.212c-0.078-0.233-0.142-0.473-0.189-0.717
	c-0.049-0.244-0.083-0.492-0.103-0.746c-0.663,0.685-1.443,1.16-2.34,1.435c-0.897,0.271-1.813,0.407-2.749,0.407
	c-0.722,0-1.396-0.086-2.02-0.262c-0.624-0.177-1.17-0.449-1.638-0.819c-0.468-0.369-0.834-0.839-1.097-1.402
	c-0.265-0.564-0.396-1.236-0.396-2.021c0-0.856,0.151-1.563,0.454-2.119c0.302-0.557,0.691-0.999,1.17-1.331
	c0.479-0.33,1.023-0.58,1.639-0.746c0.613-0.164,1.231-0.297,1.856-0.396c0.623-0.099,1.237-0.176,1.843-0.233
	c0.604-0.06,1.142-0.146,1.608-0.263c0.468-0.117,0.838-0.289,1.111-0.513c0.271-0.227,0.398-0.553,0.38-0.979
	c0-0.448-0.073-0.805-0.22-1.067c-0.146-0.262-0.342-0.467-0.585-0.611c-0.243-0.146-0.525-0.244-0.849-0.293
	c-0.321-0.05-0.668-0.072-1.038-0.072c-0.819,0-1.463,0.176-1.931,0.525c-0.468,0.352-0.741,0.936-0.818,1.756H109.575
	L109.575,261.703z M119.168,264.773c-0.175,0.156-0.396,0.276-0.658,0.365c-0.262,0.088-0.546,0.159-0.848,0.219
	c-0.304,0.061-0.619,0.106-0.951,0.146c-0.331,0.041-0.663,0.088-0.994,0.146c-0.312,0.061-0.619,0.139-0.921,0.233
	c-0.303,0.099-0.566,0.229-0.79,0.396c-0.225,0.166-0.405,0.377-0.541,0.631c-0.137,0.254-0.205,0.572-0.205,0.965
	c0,0.371,0.068,0.684,0.205,0.938c0.136,0.252,0.321,0.453,0.556,0.601c0.234,0.146,0.507,0.248,0.819,0.308
	s0.633,0.088,0.965,0.088c0.819,0,1.452-0.136,1.901-0.408c0.447-0.271,0.778-0.601,0.994-0.979
	c0.215-0.381,0.346-0.767,0.395-1.155c0.049-0.39,0.073-0.701,0.073-0.937V264.773z"/>
<path fill="#C0C4D4" d="M129.487,257.052v2.105h0.088c0.526-0.878,1.209-1.519,2.048-1.916c0.838-0.4,1.695-0.603,2.573-0.603
	c1.111,0,2.022,0.15,2.735,0.454c0.711,0.302,1.271,0.722,1.682,1.259c0.412,0.535,0.697,1.188,0.863,1.959
	c0.164,0.771,0.248,1.623,0.248,2.562v9.301h-4.154v-8.541c0-1.247-0.192-2.18-0.583-2.793c-0.39-0.614-1.082-0.922-2.075-0.922
	c-1.132,0-1.95,0.336-2.457,1.011c-0.509,0.672-0.762,1.778-0.762,3.319v7.926h-4.152v-15.12L129.487,257.052L129.487,257.052z"/>
<path fill="#C0C4D4" d="M142.707,261.703c0.06-0.977,0.302-1.785,0.729-2.43c0.429-0.646,0.977-1.158,1.64-1.551
	c0.661-0.392,1.407-0.668,2.235-0.834c0.828-0.164,1.662-0.248,2.502-0.248c0.761,0,1.528,0.055,2.312,0.159
	c0.778,0.107,1.491,0.318,2.135,0.63c0.644,0.312,1.171,0.745,1.579,1.303c0.41,0.557,0.614,1.291,0.614,2.207v7.869
	c0,0.684,0.039,1.336,0.116,1.959c0.078,0.625,0.215,1.092,0.408,1.403h-4.211c-0.078-0.233-0.144-0.473-0.188-0.717
	c-0.05-0.244-0.083-0.492-0.104-0.746c-0.662,0.685-1.44,1.16-2.34,1.435c-0.898,0.273-1.812,0.407-2.749,0.407
	c-0.722,0-1.395-0.086-2.019-0.262c-0.624-0.177-1.17-0.449-1.639-0.819c-0.47-0.369-0.834-0.839-1.099-1.402
	c-0.265-0.564-0.396-1.236-0.396-2.021c0-0.856,0.15-1.563,0.455-2.119c0.303-0.557,0.689-0.999,1.17-1.331
	c0.479-0.33,1.021-0.58,1.639-0.746c0.613-0.164,1.23-0.297,1.855-0.396c0.623-0.099,1.236-0.176,1.844-0.233
	c0.604-0.06,1.142-0.146,1.606-0.263c0.47-0.117,0.839-0.289,1.111-0.513c0.271-0.227,0.397-0.553,0.38-0.979
	c0-0.448-0.072-0.805-0.219-1.067c-0.146-0.262-0.344-0.467-0.586-0.611c-0.243-0.146-0.525-0.244-0.85-0.293
	c-0.32-0.05-0.668-0.072-1.039-0.072c-0.816,0-1.463,0.176-1.931,0.525c-0.468,0.352-0.741,0.936-0.817,1.756H142.707
	L142.707,261.703z M152.3,264.773c-0.175,0.156-0.396,0.276-0.658,0.365c-0.262,0.088-0.545,0.159-0.848,0.219
	c-0.303,0.061-0.619,0.106-0.951,0.146c-0.33,0.041-0.662,0.088-0.994,0.146c-0.312,0.061-0.619,0.139-0.921,0.233
	c-0.303,0.099-0.565,0.229-0.79,0.396s-0.404,0.377-0.541,0.631s-0.205,0.572-0.205,0.965c0,0.371,0.068,0.684,0.205,0.938
	c0.137,0.252,0.321,0.453,0.557,0.601c0.234,0.146,0.509,0.248,0.818,0.308c0.312,0.06,0.633,0.088,0.965,0.088
	c0.819,0,1.453-0.136,1.901-0.408c0.448-0.271,0.779-0.601,0.994-0.979s0.346-0.767,0.396-1.155c0.049-0.39,0.072-0.701,0.072-0.937
	V264.773L152.3,264.773z"/>
<path fill="#C0C4D4" d="M173.958,273.285c-0.166,0.777-0.521,1.506-1.066,2.178c-0.547,0.674-1.336,1.244-2.369,1.711
	c-1.035,0.471-2.418,0.703-4.151,0.703c-0.741,0-1.497-0.094-2.269-0.277c-0.771-0.186-1.474-0.475-2.104-0.863
	c-0.636-0.389-1.16-0.893-1.579-1.506c-0.42-0.612-0.658-1.352-0.717-2.207h4.124c0.192,0.777,0.573,1.318,1.141,1.623
	c0.564,0.303,1.22,0.453,1.96,0.453c1.172,0,2.021-0.352,2.561-1.055c0.537-0.701,0.795-1.59,0.773-2.662v-1.986h-0.06
	c-0.448,0.799-1.089,1.39-1.915,1.771c-0.829,0.381-1.702,0.569-2.618,0.569c-1.131,0-2.104-0.198-2.925-0.602
	c-0.82-0.398-1.491-0.943-2.02-1.637c-0.529-0.693-0.912-1.502-1.156-2.43c-0.241-0.926-0.363-1.904-0.363-2.938
	c0-0.976,0.143-1.916,0.424-2.821c0.283-0.908,0.697-1.707,1.243-2.396c0.546-0.693,1.224-1.244,2.03-1.654
	c0.812-0.408,1.74-0.613,2.793-0.613c0.994,0,1.867,0.188,2.619,0.56c0.75,0.368,1.379,0.992,1.888,1.87h0.06v-2.02h3.948v14.156
	C174.207,271.812,174.123,272.503,173.958,273.285z M168.271,268.253c0.447-0.233,0.817-0.545,1.11-0.938
	c0.292-0.391,0.513-0.832,0.658-1.33c0.146-0.495,0.219-1.02,0.219-1.563c0-0.623-0.059-1.213-0.175-1.771
	c-0.117-0.557-0.312-1.049-0.585-1.479c-0.272-0.428-0.636-0.771-1.083-1.023c-0.448-0.252-1.016-0.379-1.696-0.379
	c-0.585,0-1.087,0.116-1.506,0.353c-0.42,0.231-0.771,0.551-1.053,0.951c-0.283,0.396-0.488,0.855-0.614,1.375
	c-0.127,0.516-0.189,1.057-0.189,1.62c0,0.548,0.056,1.089,0.16,1.623c0.106,0.537,0.293,1.021,0.559,1.449
	c0.263,0.428,0.607,0.777,1.035,1.053c0.432,0.273,0.968,0.408,1.609,0.408C167.304,268.604,167.819,268.486,168.271,268.253z"/>
<path fill="#C0C4D4" d="M181.985,268.546c0.625,0.604,1.521,0.906,2.689,0.906c0.84,0,1.561-0.209,2.164-0.629
	c0.604-0.419,0.977-0.863,1.112-1.33h3.653c-0.586,1.812-1.479,3.108-2.688,3.889c-1.209,0.781-2.672,1.171-4.39,1.171
	c-1.188,0-2.262-0.188-3.217-0.57c-0.957-0.379-1.766-0.92-2.429-1.623c-0.663-0.699-1.175-1.539-1.534-2.516
	c-0.361-0.976-0.541-2.048-0.541-3.218c0-1.131,0.187-2.185,0.555-3.158c0.371-0.975,0.896-1.817,1.58-2.528
	c0.685-0.713,1.496-1.271,2.441-1.685c0.945-0.407,1.993-0.612,3.145-0.612c1.287,0,2.408,0.248,3.363,0.746
	c0.955,0.496,1.74,1.166,2.354,2.004c0.612,0.838,1.058,1.793,1.33,2.864c0.272,1.072,0.368,2.193,0.293,3.363h-10.91
	C181.021,266.966,181.36,267.941,181.985,268.546z M186.681,260.591c-0.496-0.547-1.252-0.819-2.267-0.819
	c-0.663,0-1.214,0.112-1.653,0.338c-0.438,0.225-0.789,0.502-1.053,0.832c-0.264,0.332-0.448,0.686-0.557,1.055
	c-0.106,0.371-0.172,0.703-0.189,0.996h6.758C187.522,261.936,187.179,261.137,186.681,260.591z"/>
<path fill="#C0C4D4" d="M197.614,257.052v2.048h0.06c0.546-0.779,1.204-1.386,1.976-1.812c0.771-0.43,1.651-0.645,2.646-0.645
	c0.956,0,1.828,0.188,2.618,0.559c0.79,0.367,1.392,1.021,1.799,1.959c0.448-0.662,1.06-1.248,1.828-1.758
	c0.771-0.506,1.683-0.76,2.731-0.76c0.803,0,1.541,0.1,2.226,0.293c0.685,0.194,1.269,0.506,1.755,0.938
	c0.484,0.43,0.868,0.988,1.143,1.682c0.271,0.691,0.41,1.525,0.41,2.502v10.119h-4.154v-8.568c0-0.508-0.021-0.983-0.06-1.436
	c-0.039-0.447-0.146-0.838-0.321-1.17c-0.176-0.33-0.435-0.594-0.772-0.789c-0.343-0.193-0.806-0.293-1.392-0.293
	c-0.584,0-1.059,0.113-1.418,0.336c-0.359,0.227-0.645,0.52-0.85,0.879c-0.205,0.361-0.342,0.771-0.408,1.229
	c-0.068,0.459-0.104,0.922-0.104,1.391v8.425h-4.153v-8.482c0-0.447-0.01-0.893-0.028-1.328c-0.021-0.439-0.104-0.846-0.248-1.217
	c-0.146-0.367-0.392-0.668-0.729-0.894c-0.342-0.223-0.845-0.336-1.507-0.336c-0.195,0-0.453,0.045-0.774,0.134
	c-0.321,0.088-0.635,0.252-0.938,0.496c-0.303,0.243-0.561,0.596-0.772,1.053c-0.212,0.459-0.319,1.061-0.319,1.801v8.773H193.7
	v-15.121h3.916v-0.004h-0.002V257.052z"/>
<path fill="#C0C4D4" d="M223.272,268.546c0.625,0.604,1.521,0.906,2.689,0.906c0.838,0,1.561-0.209,2.164-0.629
	c0.604-0.419,0.977-0.863,1.109-1.33h3.656c-0.586,1.812-1.479,3.108-2.688,3.889c-1.209,0.781-2.672,1.171-4.39,1.171
	c-1.188,0-2.262-0.188-3.217-0.57c-0.957-0.379-1.766-0.92-2.429-1.623c-0.663-0.699-1.175-1.539-1.535-2.516
	c-0.36-0.976-0.54-2.048-0.54-3.218c0-1.131,0.184-2.185,0.555-3.158c0.371-0.975,0.896-1.817,1.58-2.528
	c0.685-0.713,1.496-1.271,2.441-1.685c0.945-0.407,1.993-0.612,3.145-0.612c1.287,0,2.408,0.248,3.363,0.746
	c0.955,0.496,1.74,1.166,2.354,2.004c0.612,0.838,1.058,1.793,1.329,2.864c0.271,1.072,0.369,2.193,0.293,3.363h-10.909
	C222.308,266.966,222.647,267.941,223.272,268.546z M227.968,260.591c-0.496-0.547-1.253-0.819-2.267-0.819
	c-0.663,0-1.216,0.112-1.653,0.338c-0.438,0.225-0.789,0.502-1.053,0.832c-0.264,0.332-0.448,0.686-0.557,1.055
	c-0.106,0.371-0.172,0.703-0.189,0.996h6.757C228.812,261.936,228.465,261.137,227.968,260.591z"/>
<path fill="#C0C4D4" d="M239.563,257.052v2.105h0.088c0.527-0.878,1.209-1.519,2.049-1.916c0.838-0.4,1.695-0.603,2.572-0.603
	c1.11,0,2.021,0.15,2.733,0.454c0.712,0.302,1.271,0.722,1.683,1.259c0.412,0.535,0.696,1.188,0.862,1.959
	c0.165,0.771,0.248,1.623,0.248,2.562v9.301h-4.151v-8.541c0-1.247-0.194-2.18-0.586-2.793c-0.391-0.614-1.082-0.922-2.076-0.922
	c-1.131,0-1.948,0.336-2.457,1.011c-0.508,0.672-0.76,1.778-0.76,3.319v7.926h-4.153v-15.12L239.563,257.052L239.563,257.052z"/>
<path fill="#C0C4D4" d="M261.267,257.052v2.777h-3.043v7.485c0,0.703,0.117,1.17,0.354,1.404c0.231,0.232,0.7,0.352,1.401,0.352
	c0.233,0,0.457-0.01,0.672-0.028c0.218-0.021,0.421-0.047,0.615-0.088v3.219c-0.352,0.06-0.742,0.099-1.17,0.117
	c-0.43,0.019-0.849,0.026-1.259,0.026c-0.646,0-1.253-0.043-1.828-0.131s-1.081-0.259-1.521-0.514
	c-0.438-0.252-0.785-0.613-1.038-1.082c-0.255-0.469-0.382-1.082-0.382-1.842v-8.922h-2.517v-2.777h2.517v-4.533h4.152v4.533
	L261.267,257.052L261.267,257.052z"/>
<g>
	<path fill="#C0C4D4" d="M83.409,61.641L8.608,136.442l74.802,74.802l74.801-74.802L83.409,61.641z M87.631,157.757H76.433v-20.629
		l-7.312,20.629h-8.864l-7.315-20.434v20.434h-11.2v-41.849h14.892l8.265,23.712l7.822-23.712h14.91V157.757z M125.72,151.634
		c-1.646,1.906-3.721,3.421-6.16,4.5c-2.428,1.076-5.306,1.623-8.554,1.623H92.328v-41.849h18.678c2.727,0,5.309,0.433,7.675,1.284
		c2.411,0.873,4.526,2.196,6.288,3.935c1.766,1.744,3.158,3.938,4.142,6.521c0.973,2.553,1.466,5.568,1.466,8.969
		c0,2.971-0.398,5.758-1.184,8.279C128.587,147.484,127.352,149.751,125.72,151.634z"/>
	<path fill="#C0C4D4" d="M116.635,129.006c-0.738-0.929-1.697-1.625-2.933-2.129c-1.28-0.521-2.92-0.785-4.873-0.785h-4.746v21.482
		h6.309c1.103,0,2.18-0.176,3.203-0.521c0.98-0.328,1.83-0.86,2.598-1.625c0.774-0.771,1.409-1.809,1.889-3.082
		c0.489-1.312,0.738-2.967,0.738-4.914c0-1.832-0.183-3.496-0.542-4.944C117.941,131.125,117.389,129.954,116.635,129.006z"/>
</g>
<path fill="#C0C4D4" d="M93.456,285.919c-0.196-0.313-0.44-0.592-0.734-0.828c-0.293-0.237-0.625-0.422-0.995-0.557
	c-0.37-0.134-0.758-0.199-1.163-0.199c-0.74,0-1.37,0.146-1.887,0.431c-0.518,0.286-0.937,0.672-1.258,1.153
	c-0.321,0.479-0.556,1.029-0.702,1.646c-0.146,0.617-0.22,1.252-0.22,1.908c0,0.629,0.072,1.239,0.22,1.834
	c0.146,0.594,0.381,1.127,0.702,1.604c0.321,0.479,0.74,0.855,1.258,1.145c0.517,0.285,1.146,0.43,1.887,0.43
	c1.006,0,1.792-0.309,2.357-0.922c0.565-0.614,0.912-1.426,1.038-2.434h3.186c-0.084,0.938-0.301,1.781-0.648,2.537
	c-0.351,0.756-0.812,1.396-1.385,1.93c-0.572,0.529-1.243,0.937-2.012,1.215c-0.77,0.279-1.614,0.42-2.536,0.42
	c-1.146,0-2.177-0.198-3.092-0.6c-0.916-0.396-1.688-0.945-2.316-1.646c-0.629-0.695-1.11-1.521-1.445-2.463
	c-0.335-0.939-0.503-1.959-0.503-3.049c0-1.117,0.168-2.154,0.503-3.113c0.335-0.957,0.816-1.791,1.445-2.504
	c0.63-0.713,1.4-1.271,2.316-1.676c0.915-0.406,1.945-0.605,3.092-0.605c0.824,0,1.604,0.117,2.337,0.354
	c0.733,0.238,1.391,0.584,1.971,1.037c0.58,0.455,1.059,1.018,1.436,1.688c0.378,0.672,0.615,1.438,0.713,2.307h-3.186
	C93.776,286.58,93.65,286.232,93.456,285.919z"/>
<path fill="#C0C4D4" d="M102.769,282.175l3.5,10.293h0.042l3.312-10.293h4.632v14.968h-3.081v-10.605h-0.042l-3.668,10.605h-2.536
	l-3.668-10.502h-0.042v10.502h-3.081v-14.968H102.769z"/>
<path fill="#C0C4D4" d="M123.858,281.925l5.598,14.968h-3.416l-1.133-3.334h-5.597l-1.174,3.334h-3.312l5.658-14.968H123.858z
	 M124.048,291.105l-1.887-5.488h-0.042l-1.949,5.488H124.048z"/>
<path fill="#C0C4D4" d="M142.181,285.919c-0.195-0.313-0.438-0.592-0.73-0.828c-0.297-0.237-0.629-0.422-0.995-0.557
	c-0.37-0.134-0.761-0.199-1.164-0.199c-0.74,0-1.369,0.146-1.888,0.431c-0.519,0.286-0.938,0.672-1.26,1.153
	c-0.317,0.479-0.555,1.029-0.701,1.646c-0.146,0.617-0.219,1.252-0.219,1.908c0,0.629,0.074,1.239,0.219,1.834
	c0.146,0.594,0.384,1.127,0.701,1.604c0.322,0.479,0.741,0.855,1.26,1.145c0.519,0.285,1.146,0.43,1.888,0.43
	c1.006,0,1.793-0.309,2.356-0.922c0.564-0.614,0.912-1.426,1.037-2.434h3.188c-0.084,0.938-0.303,1.781-0.646,2.537
	c-0.353,0.756-0.812,1.396-1.387,1.93c-0.572,0.531-1.242,0.937-2.012,1.215c-0.771,0.279-1.614,0.42-2.536,0.42
	c-1.146,0-2.179-0.198-3.092-0.6c-0.915-0.396-1.688-0.945-2.315-1.646c-0.629-0.695-1.111-1.521-1.446-2.463
	c-0.336-0.939-0.503-1.959-0.503-3.049c0-1.117,0.167-2.154,0.503-3.113c0.335-0.957,0.817-1.791,1.446-2.504
	c0.629-0.713,1.4-1.271,2.315-1.676c0.913-0.406,1.942-0.605,3.092-0.605c0.825,0,1.604,0.117,2.338,0.354
	c0.729,0.238,1.392,0.584,1.972,1.037c0.58,0.455,1.06,1.018,1.437,1.688s0.614,1.438,0.712,2.307h-3.186
	C142.502,286.58,142.376,286.232,142.181,285.919z"/>
<path fill="#C0C4D4" d="M146.86,289.126c0.267-0.707,0.644-1.31,1.133-1.806c0.488-0.493,1.074-0.881,1.761-1.149
	c0.685-0.272,1.453-0.409,2.306-0.409c0.854,0,1.625,0.137,2.316,0.409c0.689,0.271,1.281,0.656,1.771,1.149
	c0.49,0.496,0.865,1.099,1.131,1.806c0.267,0.705,0.397,1.49,0.397,2.354c0,0.867-0.134,1.648-0.397,2.351
	c-0.266,0.696-0.644,1.295-1.131,1.791c-0.488,0.496-1.08,0.877-1.771,1.144c-0.691,0.268-1.465,0.397-2.316,0.397
	c-0.853,0-1.621-0.134-2.306-0.397c-0.687-0.267-1.271-0.646-1.761-1.144c-0.49-0.496-0.866-1.095-1.133-1.791
	c-0.268-0.699-0.397-1.479-0.397-2.351C146.462,290.617,146.595,289.832,146.86,289.126z M149.563,292.751
	c0.084,0.412,0.229,0.783,0.432,1.11c0.201,0.328,0.471,0.591,0.807,0.785c0.336,0.195,0.756,0.293,1.258,0.293
	c0.504,0,0.926-0.098,1.271-0.293c0.342-0.194,0.611-0.457,0.814-0.785c0.203-0.327,0.347-0.698,0.432-1.11
	c0.084-0.412,0.126-0.836,0.126-1.271c0-0.434-0.042-0.856-0.126-1.276c-0.085-0.418-0.229-0.789-0.432-1.108
	c-0.203-0.322-0.476-0.585-0.814-0.787c-0.346-0.203-0.768-0.306-1.271-0.306c-0.502,0-0.922,0.103-1.258,0.306
	c-0.336,0.202-0.604,0.465-0.807,0.787c-0.202,0.319-0.348,0.69-0.432,1.108c-0.084,0.42-0.125,0.846-0.125,1.276
	C149.438,291.916,149.479,292.339,149.563,292.751z"/>
<path fill="#C0C4D4" d="M161.497,286.055v1.469h0.042c0.392-0.562,0.86-0.99,1.414-1.301c0.552-0.308,1.185-0.461,1.896-0.461
	c0.688,0,1.312,0.133,1.877,0.397c0.565,0.266,0.994,0.731,1.289,1.403c0.32-0.477,0.758-0.896,1.312-1.258
	c0.552-0.363,1.203-0.547,1.959-0.547c0.57,0,1.104,0.07,1.593,0.21c0.489,0.142,0.908,0.362,1.261,0.673
	c0.348,0.308,0.619,0.707,0.814,1.203c0.193,0.496,0.294,1.094,0.294,1.793v7.252h-2.979v-6.143c0-0.362-0.014-0.705-0.041-1.025
	c-0.025-0.322-0.104-0.602-0.229-0.84c-0.126-0.236-0.312-0.426-0.559-0.564c-0.244-0.139-0.573-0.209-0.994-0.209
	c-0.42,0-0.758,0.08-1.018,0.24c-0.258,0.16-0.461,0.37-0.607,0.629c-0.146,0.26-0.242,0.553-0.293,0.881
	c-0.049,0.328-0.071,0.66-0.071,0.996v6.035h-2.978v-6.078c0-0.319-0.008-0.641-0.021-0.953c-0.013-0.313-0.073-0.604-0.181-0.868
	c-0.104-0.267-0.277-0.479-0.521-0.642c-0.242-0.16-0.604-0.24-1.08-0.24c-0.139,0-0.322,0.031-0.556,0.097
	c-0.229,0.062-0.454,0.181-0.67,0.354c-0.22,0.176-0.401,0.426-0.558,0.754c-0.154,0.328-0.229,0.76-0.229,1.289v6.289h-2.979
	v-10.838L161.497,286.055L161.497,286.055z"/>
<path fill="#C0C4D4" d="M179.422,286.055v1.385h0.042c0.364-0.588,0.825-1.015,1.385-1.277c0.562-0.268,1.174-0.396,1.844-0.396
	c0.854,0,1.586,0.158,2.201,0.48c0.614,0.32,1.125,0.748,1.53,1.277c0.404,0.531,0.704,1.147,0.9,1.854
	c0.194,0.707,0.293,1.441,0.293,2.211c0,0.729-0.099,1.428-0.293,2.098c-0.196,0.672-0.492,1.267-0.892,1.781
	c-0.397,0.518-0.896,0.93-1.488,1.236c-0.594,0.307-1.289,0.461-2.086,0.461c-0.67,0-1.289-0.139-1.854-0.408
	c-0.563-0.271-1.03-0.674-1.396-1.205h-0.043v5.135h-2.977v-14.629h2.833V286.055z M183.29,294.648
	c0.327-0.193,0.594-0.449,0.796-0.767c0.203-0.313,0.347-0.682,0.431-1.1c0.084-0.421,0.125-0.849,0.125-1.279
	c0-0.435-0.045-0.858-0.136-1.276c-0.091-0.42-0.241-0.795-0.45-1.123c-0.209-0.326-0.479-0.595-0.808-0.795
	c-0.328-0.203-0.731-0.306-1.206-0.306c-0.488,0-0.896,0.103-1.227,0.306c-0.33,0.2-0.594,0.465-0.797,0.784
	c-0.203,0.32-0.348,0.691-0.432,1.111c-0.084,0.418-0.126,0.853-0.126,1.299c0,0.435,0.046,0.858,0.138,1.279
	c0.092,0.418,0.237,0.784,0.439,1.1c0.202,0.316,0.471,0.57,0.809,0.767c0.336,0.195,0.738,0.293,1.215,0.293
	C182.552,294.941,182.962,294.846,183.29,294.648z"/>
<path fill="#C0C4D4" d="M189.272,289.389c0.043-0.699,0.219-1.279,0.523-1.74s0.698-0.832,1.176-1.109
	c0.475-0.279,1.01-0.479,1.604-0.6c0.593-0.115,1.189-0.178,1.792-0.178c0.545,0,1.097,0.038,1.653,0.114
	c0.562,0.078,1.068,0.229,1.529,0.451c0.463,0.223,0.84,0.532,1.133,0.934c0.295,0.396,0.439,0.927,0.439,1.58v5.64
	c0,0.49,0.025,0.959,0.084,1.405c0.057,0.447,0.15,0.781,0.293,1.007h-3.02c-0.058-0.168-0.104-0.34-0.137-0.515
	c-0.035-0.176-0.061-0.354-0.074-0.535c-0.476,0.49-1.035,0.832-1.676,1.027c-0.644,0.192-1.301,0.293-1.971,0.293
	c-0.52,0-0.999-0.062-1.447-0.188c-0.447-0.125-0.838-0.32-1.173-0.586c-0.336-0.268-0.599-0.602-0.787-1.008
	c-0.188-0.404-0.282-0.889-0.282-1.445c0-0.612,0.108-1.121,0.324-1.521c0.219-0.396,0.496-0.715,0.84-0.953
	c0.342-0.236,0.732-0.416,1.174-0.534c0.438-0.118,0.885-0.212,1.33-0.282c0.447-0.067,0.891-0.125,1.32-0.168
	c0.432-0.041,0.817-0.104,1.153-0.188c0.335-0.084,0.601-0.207,0.796-0.367s0.287-0.396,0.271-0.701
	c0-0.322-0.054-0.576-0.158-0.766c-0.104-0.188-0.243-0.336-0.418-0.439c-0.176-0.104-0.377-0.176-0.606-0.209
	c-0.231-0.035-0.479-0.055-0.745-0.055c-0.586,0-1.048,0.125-1.383,0.377s-0.531,0.672-0.587,1.26H189.272L189.272,289.389z
	 M196.149,291.587c-0.127,0.113-0.283,0.201-0.474,0.265c-0.19,0.062-0.393,0.114-0.606,0.155c-0.217,0.043-0.442,0.078-0.682,0.104
	c-0.238,0.027-0.477,0.062-0.714,0.104c-0.224,0.041-0.442,0.098-0.659,0.168c-0.219,0.068-0.404,0.162-0.564,0.281
	c-0.161,0.119-0.291,0.27-0.389,0.451c-0.1,0.182-0.146,0.41-0.146,0.689c0,0.268,0.049,0.489,0.146,0.67
	c0.098,0.186,0.229,0.325,0.396,0.434c0.168,0.104,0.359,0.178,0.587,0.219c0.224,0.043,0.454,0.062,0.688,0.062
	c0.59,0,1.041-0.099,1.363-0.293c0.32-0.193,0.562-0.432,0.711-0.701c0.154-0.271,0.25-0.551,0.284-0.828
	c0.034-0.278,0.054-0.502,0.054-0.67L196.149,291.587L196.149,291.587z"/>
<path fill="#C0C4D4" d="M204.26,286.055v1.51h0.063c0.377-0.629,0.863-1.086,1.467-1.373c0.602-0.283,1.215-0.43,1.844-0.43
	c0.799,0,1.45,0.108,1.96,0.325c0.511,0.216,0.911,0.517,1.206,0.899c0.293,0.386,0.499,0.853,0.618,1.402
	c0.118,0.553,0.179,1.164,0.179,1.836v6.664h-2.978v-6.119c0-0.896-0.142-1.562-0.419-2.002c-0.279-0.438-0.775-0.66-1.488-0.66
	c-0.811,0-1.396,0.24-1.761,0.724c-0.363,0.481-0.546,1.274-0.546,2.379v5.683h-2.979v-10.838H204.26L204.26,286.055z"/>
<path fill="#C0C4D4" d="M213.942,284.378v-2.453h2.979v2.453H213.942z M216.92,286.055v10.838h-2.978v-10.838H216.92z"/>
<path fill="#C0C4D4" d="M221.453,294.292c0.444,0.435,1.09,0.647,1.928,0.647c0.601,0,1.118-0.147,1.552-0.448
	c0.436-0.302,0.698-0.619,0.797-0.955h2.621c-0.42,1.301-1.062,2.229-1.931,2.789c-0.866,0.559-1.914,0.838-3.146,0.838
	c-0.854,0-1.621-0.138-2.307-0.408c-0.685-0.272-1.264-0.659-1.738-1.164c-0.477-0.502-0.842-1.104-1.102-1.803
	c-0.259-0.699-0.388-1.468-0.388-2.308c0-0.811,0.133-1.562,0.396-2.264c0.264-0.699,0.643-1.303,1.131-1.812
	c0.489-0.51,1.072-0.909,1.752-1.202c0.68-0.295,1.431-0.441,2.252-0.441c0.924,0,1.729,0.179,2.412,0.535
	c0.686,0.354,1.246,0.836,1.688,1.437c0.438,0.602,0.758,1.285,0.954,2.057c0.193,0.77,0.265,1.57,0.209,2.408h-7.818
	C220.761,293.16,221.006,293.859,221.453,294.292z M224.815,288.591c-0.354-0.391-0.896-0.588-1.623-0.588
	c-0.477,0-0.871,0.082-1.186,0.242c-0.314,0.159-0.564,0.358-0.755,0.596c-0.188,0.238-0.319,0.49-0.397,0.757
	c-0.076,0.268-0.123,0.504-0.138,0.713h4.845C225.421,289.557,225.174,288.982,224.815,288.591z"/>
<path fill="#C0C4D4" d="M232.804,294.199c0.133,0.229,0.303,0.418,0.514,0.562c0.209,0.147,0.449,0.256,0.725,0.325
	c0.271,0.07,0.557,0.104,0.852,0.104c0.209,0,0.428-0.023,0.657-0.072c0.23-0.051,0.44-0.125,0.63-0.229
	c0.188-0.104,0.346-0.244,0.473-0.422c0.125-0.174,0.188-0.395,0.188-0.658c0-0.445-0.297-0.783-0.89-1.006
	c-0.597-0.225-1.425-0.447-2.485-0.672c-0.434-0.098-0.855-0.213-1.27-0.346c-0.41-0.135-0.776-0.309-1.1-0.523
	c-0.322-0.217-0.58-0.488-0.775-0.815c-0.194-0.328-0.293-0.729-0.293-1.205c0-0.699,0.137-1.271,0.408-1.72
	c0.271-0.446,0.631-0.801,1.078-1.061c0.446-0.258,0.949-0.439,1.51-0.545c0.561-0.104,1.133-0.156,1.721-0.156
	c0.587,0,1.154,0.057,1.709,0.166c0.552,0.113,1.044,0.303,1.479,0.566c0.433,0.268,0.791,0.617,1.078,1.059
	c0.286,0.441,0.459,0.996,0.514,1.668h-2.83c-0.041-0.572-0.258-0.961-0.647-1.164c-0.394-0.203-0.854-0.305-1.383-0.305
	c-0.168,0-0.351,0.012-0.546,0.033c-0.194,0.021-0.373,0.062-0.533,0.135c-0.16,0.07-0.297,0.172-0.409,0.305
	c-0.11,0.133-0.168,0.312-0.168,0.533c0,0.268,0.099,0.482,0.294,0.65s0.451,0.305,0.766,0.406c0.314,0.104,0.676,0.199,1.08,0.283
	s0.816,0.176,1.235,0.272c0.435,0.098,0.854,0.217,1.269,0.354c0.414,0.139,0.779,0.322,1.103,0.558
	c0.319,0.229,0.58,0.516,0.774,0.856c0.195,0.342,0.293,0.766,0.293,1.271c0,0.711-0.145,1.309-0.43,1.791
	c-0.287,0.481-0.66,0.868-1.121,1.163c-0.461,0.293-0.988,0.5-1.582,0.617c-0.596,0.117-1.197,0.181-1.812,0.181
	c-0.629,0-1.244-0.063-1.846-0.188s-1.135-0.337-1.604-0.63c-0.471-0.293-0.854-0.682-1.152-1.163
	c-0.301-0.479-0.465-1.087-0.492-1.812h2.828C232.604,293.691,232.67,293.966,232.804,294.199z"/>
</svg>
