<?xml version="1.0" encoding="utf-8"?>
<!-- Generator: Adobe Illustrator 16.0.0, SVG Export Plug-In . SVG Version: 6.00 Build 0)  -->
<!DOCTYPE svg PUBLIC "-//W3C//DTD SVG 1.1//EN" "http://www.w3.org/Graphics/SVG/1.1/DTD/svg11.dtd">
<svg version="1.1" id="Layer_1" xmlns="http://www.w3.org/2000/svg" xmlns:xlink="http://www.w3.org/1999/xlink" x="0px" y="0px"
	 width="259.667px" height="324.743px" viewBox="0 0 259.667 324.743" enable-background="new 0 0 259.667 324.743"
	 xml:space="preserve">
<g id="Colour" display="none">
	<rect x="-422.108" y="-27.618" display="inline" fill="#808285" width="868.457" height="433.48"/>
</g>
<g>
	<path fill="none" stroke="#B0B4C4" stroke-width="5" stroke-miterlimit="10" d="M217.259,297.497c0,1.101-0.899,2-2,2h-196
		c-1.1,0-2-0.899-2-2v-257c0-1.102,0.9-2,2-2h196c1.101,0,2,0.898,2,2V297.497z"/>
</g>
<g>
	<path fill="none" stroke="#B0B4C4" stroke-width="5" stroke-miterlimit="10" d="M217.259,55.83h16c1.101,0,2,0.898,2,2v257
		c0,1.101-0.899,2-2,2h-196c-1.1,0-2-0.899-2-2v-13.668"/>
</g>
<g>
	<path fill="#B0B4C4" d="M118.085,216.728l-0.644-1.485l-0.188-0.313c-0.25-1.608,0.207-3.558,1.104-5.509
		c1.208-2.625,4.957-14.873-8.084-21.375l-0.271-0.166c0,0,0.027,1.246,0.137,2.984c0.03,0.438,0.047,0.912,0.1,1.428
		c0.043,0.26,0.031,0.508,0.062,0.774c0.025,0.265,0.058,0.54,0.039,0.858c0.001,0.685-0.038,1.101-0.277,1.746
		c-0.215,0.617-0.499,1.277-0.795,1.986c-0.574,1.416-1.257,3.004-1.49,4.881c-0.242,1.846,0.044,4.062,1.317,5.812l0.506,0.656
		c0.171,0.229,0.345,0.437,0.519,0.586c0.359,0.348,0.724,0.697,1.089,1.049c0.658,0.666,1.399,1.273,2.012,1.997l0.881,1.118
		l0.438,0.562l0.354,0.617l0.718,1.23l0.549,1.312c0.666,1.765,1.049,3.681,1.073,5.549c0.021,0.476,0.009,0.99,0.022,1.479
		c0.014,0.449-0.055,0.896-0.071,1.342c-0.104,0.884-0.288,1.766-0.538,2.639c-0.527,1.747-1.201,3.487-1.746,5.201
		c-0.301,0.863-0.475,1.682-0.714,2.471c-0.205,0.852-0.332,1.666-0.485,2.452c-0.064,0.785-0.147,1.543-0.187,2.263
		c0.003,0.717,0,1.396,0.021,2.035c0.096,1.27,0.24,2.368,0.438,3.258c0.192,0.891,0.319,1.592,0.717,2.006
		c0.333,0.424,0.709,0.578,0.709,0.578s0.238-0.332,0.361-0.838c0.062-0.252,0.101-0.551,0.065-0.89
		c-0.035-0.337-0.119-0.715-0.16-1.147c-0.055-0.431-0.113-0.904-0.181-1.422c-0.039-0.521-0.108-1.078-0.177-1.677
		c-0.039-0.599-0.081-1.231-0.125-1.901c-0.01-0.668,0.021-1.365,0.029-2.103c0.115-0.708,0.195-1.474,0.384-2.212
		c0.221-0.788,0.47-1.615,0.774-2.391c0.555-1.601,1.402-3.219,2.104-5.074c0.154-0.479,0.34-0.945,0.472-1.447
		c0.114-0.508,0.259-1.016,0.31-1.546c0.041-0.531,0.127-1.063,0.125-1.604c0-0.5,0.022-0.979-0.01-1.504
		C119.316,220.866,118.873,218.743,118.085,216.728z M118.149,201.627c0.246,5.174-3.327,8.764-3.849,8.865
		c-0.457-0.627-0.993-1.322-1.651-2.115c-2.833-3.418,1.396-8.521,0.75-13.25C113.399,195.127,117.886,196.083,118.149,201.627z
		 M109.358,202.717c0.142-1.605,0.719-3.12,1.242-4.529c0.27-0.705,0.541-1.395,0.762-2.098c0.188-0.506,0.271-1.151,0.301-1.676
		c0.221,1.658,0.319,3.383,0.111,4.838c-0.352,2.461-1.593,5.158-1.433,7.795C109.469,205.76,109.225,204.198,109.358,202.717z"/>
	<path fill="#B0B4C4" d="M173.138,195.777c-0.495-0.017-1.252,0.001-2.139-0.196c-0.43-0.098-0.931-0.258-1.186-0.549
		c-0.118-0.146-0.189-0.275-0.184-0.455l-0.008-0.035l0.002-0.025v-0.062l0.002-0.25c0-0.17,0.041-0.265,0.055-0.396
		c0.102-0.605,0.346-1.321,0.402-2.283c0.021-0.467-0.01-1.087-0.367-1.721c-0.166-0.329-0.451-0.562-0.738-0.795
		c-0.283-0.147-0.614-0.342-0.895-0.389c-1.174-0.271-2.207-0.117-3.229,0.082c-0.53,0.069-1.041,0.203-1.541,0.307
		c-0.511,0.099-1.051,0.236-1.592,0.357c-2.144,0.518-4.408,1.168-6.822,1.885c-2.401,0.729-4.961,1.506-7.655,2.324
		c-1.35,0.391-2.734,0.787-4.142,1.135c-0.713,0.164-1.397,0.342-1.972,0.314c-0.221-0.005-0.443-0.01-0.666-0.016
		c0.25-0.396,0.593-0.854,0.912-1.266l0.728-0.916l0.092-0.115l0.089-0.117l0.041-0.062l0.17-0.246l0.338-0.498
		c0.974-1.682,1.315-3.336,1.582-5.099c0.229-1.744,0.283-3.524,0.137-5.323c-0.145-1.804-0.434-3.623-1.127-5.457
		c-0.161-0.457-0.381-0.924-0.623-1.391c-0.107-0.23-0.295-0.479-0.449-0.712l-0.122-0.177l-0.09-0.119l-0.204-0.268l-0.762-1.021
		c-0.073-0.104-0.133-0.188-0.242-0.314c-0.098-0.115-0.182-0.229-0.359-0.396c-0.115-0.129-0.4-0.342-0.695-0.479
		c-0.346-0.136-0.768-0.188-1.028-0.13c-0.599,0.097-0.838,0.285-1.101,0.427c-0.26,0.151-0.441,0.297-0.651,0.443l-1.115,0.865
		c-0.724,0.562-1.479,1.146-2.175,1.537c-0.32,0.177-0.686,0.289-0.854,0.281c-0.162-0.004-0.187-0.021-0.379-0.263
		c-0.359-0.491-0.644-1.44-0.927-2.319c-0.571-1.808-1.228-3.763-2.308-5.537c-0.529-0.892-1.156-1.733-1.852-2.521
		c-0.738-0.797-1.39-1.422-2.078-2.139c-1.392-1.395-2.68-2.846-4.33-4.24c-0.438-0.34-0.875-0.697-1.615-0.989
		c-0.365-0.134-0.95-0.263-1.568-0.02c-0.609,0.252-0.914,0.698-1.1,1.024c-0.35,0.677-0.446,1.228-0.551,1.772
		c-0.097,0.548-0.146,1.063-0.203,1.554c-0.242,1.908-0.657,3.888-1.125,5.828c-0.461,1.953-1.056,3.884-1.727,5.781
		c-0.687,1.887-1.409,3.793-2.457,5.465c-0.522,0.813-1.153,1.616-1.841,2.028c-0.338,0.205-0.626,0.254-0.788,0.188
		c-0.001,0.017-0.388-0.137-0.523-0.212c-0.166-0.08-0.382-0.197-0.577-0.312c-0.794-0.479-1.592-1.08-2.446-1.674
		c-0.895-0.564-1.714-1.232-3.135-1.59c-0.354-0.087-0.808-0.113-1.281-0.023c-0.493,0.104-0.954,0.386-1.283,0.717
		c-0.617,0.676-0.799,1.34-0.957,1.938c-0.257,1.182-0.284,2.289-0.277,3.336c0.023,2.104,0.152,4.168,0.28,6.219
		c0.119,2.048,0.271,4.082,0.272,6.095c-0.027,1.983-0.086,4.062-0.766,5.726c-0.366,0.836-0.933,1.295-1.683,1.266
		c-0.9-0.045-1.973-0.166-2.956-0.244c-2.005-0.206-4.009-0.391-6.012-0.51c-2.003-0.11-4.008-0.205-6.023-0.063
		c-1.011,0.067-2.021,0.175-3.052,0.394c-1.018,0.252-2.106,0.469-3.127,1.488c-0.508,0.51-0.811,1.4-0.687,2.131l0.11,0.517
		c0.055,0.153,0.118,0.294,0.182,0.44l0.096,0.215l0.067,0.139l0.158,0.322c0.237,0.447,0.38,0.82,0.541,1.199l0.175,0.569
		c0.021,0.167,0.065,0.356,0.062,0.491c-0.005,0.316-0.026,0.329-0.191,0.459c-0.191,0.117-0.579,0.193-0.986,0.209
		c-0.825,0.023-1.803-0.096-2.688-0.154c-0.776-0.091-1.681-0.427-2.531-0.703c-0.863-0.312-1.721-0.625-2.572-0.937
		c-1.724-0.604-3.33-1.452-5.112-2.08c-0.452-0.146-0.911-0.289-1.419-0.378c-0.5-0.079-1.042-0.164-1.74-0.021
		c-0.163,0.022-0.358,0.084-0.564,0.174c-0.188,0.063-0.413,0.209-0.62,0.379c-0.206,0.143-0.379,0.41-0.523,0.646
		c-0.118,0.237-0.188,0.495-0.239,0.74c-0.019,0.209-0.023,0.423-0.019,0.632c0.021,0.174,0.051,0.338,0.083,0.506
		c0.028,0.182,0.081,0.293,0.124,0.438l0.07,0.205l0.035,0.104c0.088,0.215,0.045,0.102,0.073,0.168
		c0.2,0.393,0.357,0.76,0.593,1.163l0.785,1.239c0.536,0.716,1.054,1.438,1.62,2.082c2.264,2.604,4.677,4.818,7.117,6.798
		c2.451,1.964,4.879,3.75,7.406,5.183c1.252,0.725,2.555,1.344,3.951,1.777c0.373,0.078,0.742,0.156,1.107,0.232
		c0.327,0.037,0.651,0.072,0.975,0.107c0.637,0.073,1.259,0.145,1.86,0.24c0.589,0.105,1.182,0.208,1.67,0.376
		c0.499,0.142,0.904,0.423,0.865,0.485c0.026,0.021-0.016,0.398-0.3,0.805c-0.249,0.395-0.575,0.793-0.924,1.168
		c-0.686,0.75-1.461,1.441-2.18,2.166c-0.706,0.721-1.37,1.424-1.977,2.138c-0.302,0.36-0.592,0.718-0.856,1.104
		c-0.261,0.398-0.525,0.769-0.688,1.395c-0.025,0.191-0.066,0.354-0.008,0.627c0.022,0.223,0.219,0.551,0.407,0.684
		c0.431,0.33,0.735,0.308,1.001,0.338c0.514,0.012,0.887-0.086,1.268-0.16c1.446-0.396,2.524-0.913,3.408-1.348
		c1.742-0.896,2.602-1.496,2.602-1.496s-1.028,0.223-2.899,0.693c-0.932,0.221-2.089,0.557-3.386,0.745
		c-0.247,0.03-0.51,0.056-0.732,0.05c0.089-0.166,0.22-0.375,0.368-0.57c0.227-0.307,0.503-0.623,0.793-0.942
		c0.584-0.64,1.248-1.296,1.963-1.972c0.695-0.678,1.47-1.383,2.254-2.233c0.389-0.422,0.772-0.879,1.127-1.438l0.255-0.446
		c0.083-0.155,0.144-0.364,0.206-0.548c0.076-0.17,0.094-0.428,0.102-0.672c0.031-0.232-0.053-0.51-0.146-0.771
		c-0.08-0.272-0.273-0.438-0.432-0.646c-0.17-0.18-0.347-0.273-0.526-0.405c-0.346-0.19-0.695-0.345-1.021-0.435
		c-0.664-0.213-1.297-0.311-1.942-0.418c-0.635-0.084-1.279-0.168-1.934-0.256c-0.32-0.037-0.645-0.076-0.971-0.115
		c-0.274-0.062-0.554-0.125-0.833-0.188c-1.141-0.373-2.346-0.919-3.492-1.668c-2.321-1.438-4.635-3.24-6.881-5.288
		c-2.242-2.046-4.488-4.31-6.506-6.812c-0.531-0.61-0.984-1.264-1.461-1.902l-0.581-0.914c-0.194-0.331-0.374-0.755-0.562-1.13
		c-0.018-0.042-0.041-0.13-0.065-0.22c0.177-0.028,0.407-0.051,0.653-0.034c0.366-0.001,0.774,0.03,1.188,0.069
		c1.67,0.17,3.455,0.522,5.15,1.14c0.855,0.306,1.719,0.614,2.586,0.924c0.885,0.312,1.723,0.642,2.783,0.853
		c0.962,0.121,1.838,0.291,2.893,0.33c0.525-0.006,1.104-0.014,1.76-0.315c0.33-0.152,0.655-0.442,0.867-0.789
		c0.088-0.175,0.178-0.364,0.234-0.546c0.03-0.17,0.058-0.344,0.078-0.518c0.026-0.336-0.019-0.621-0.047-0.925l-0.187-0.81
		c-0.171-0.518-0.355-1.041-0.557-1.446c-0.477-1.038-0.487-1.229-0.201-1.562c0.354-0.377,1.238-0.703,2.086-0.9
		c0.873-0.204,1.808-0.324,2.753-0.406c1.896-0.143,3.85-0.208,5.817-0.179c1.97,0.022,3.957,0.112,5.958,0.229
		c1.021,0.064,1.954,0.17,3.069,0.211c0.624,0.012,1.323-0.199,1.836-0.621c0.522-0.412,0.848-0.947,1.084-1.465
		c0.492-1.041,0.68-2.103,0.834-3.146c0.145-1.048,0.205-2.087,0.243-3.123c0.078-2.071,0.087-4.134,0.083-6.187
		c-0.001-2.053-0.007-4.102,0.091-6.109c0.05-1.008,0.113-1.973,0.329-2.799c0.107-0.393,0.281-0.732,0.372-0.816
		c0.044-0.021,0.033-0.02,0.048-0.025c0.032,0.008,0.104-0.014,0.25,0.027c0.594,0.146,1.494,0.7,2.329,1.229
		c0.871,0.527,1.776,1.098,2.824,1.541c0.267,0.111,0.517,0.215,0.832,0.314c0.16,0.057,0.29,0.09,0.409,0.119
		c0.089,0.027,0.336,0.086,0.541,0.1c0.868,0.092,1.594-0.303,2.076-0.691c0.971-0.824,1.518-1.762,2.064-2.686
		c2.121-3.697,3.42-7.615,4.637-11.533c0.598-1.973,1.128-3.928,1.516-5.989c0.09-0.503,0.168-0.985,0.271-1.419
		c0.083-0.363,0.199-0.72,0.312-0.947c0.199,0.115,0.498,0.34,0.771,0.597c1.331,1.237,2.661,2.762,3.986,4.194
		c0.647,0.717,1.38,1.479,1.943,2.127c0.586,0.684,1.114,1.4,1.608,2.146c0.991,1.496,1.776,3.119,2.487,4.875
		c0.185,0.438,0.373,0.889,0.588,1.35c0.226,0.459,0.438,0.947,0.847,1.457c0.202,0.252,0.474,0.52,0.832,0.717
		c0.354,0.197,0.796,0.312,1.169,0.295c0.771-0.02,1.292-0.277,1.795-0.52c0.938-0.496,1.678-1.014,2.49-1.455l1.182-0.648
		c0.102-0.05,0.207-0.104,0.309-0.15l0.07,0.119c0.209,0.342,0.488,0.832,0.771,1.201l0.198,0.271l0.049,0.066
		c0.015,0.02,0.066,0.09,0.06,0.084l0.062,0.104c0.08,0.146,0.182,0.248,0.267,0.419c0.177,0.321,0.349,0.653,0.491,1.028
		c1.188,2.965,1.867,6.365,1.732,9.5c-0.037,0.391-0.072,0.779-0.108,1.166c-0.06,0.381-0.146,0.752-0.218,1.127
		c-0.096,0.363-0.213,0.715-0.325,1.068l-0.425,0.922l-0.33,0.502l-0.166,0.25l-0.041,0.062c-0.008,0.01-0.006,0.01-0.01,0.016
		l-0.084,0.106l-0.736,0.957c-0.48,0.673-0.959,1.228-1.385,2.177c-0.053,0.133-0.104,0.325-0.127,0.525
		c-0.004,0.15,0.013,0.311,0.047,0.457c0.051,0.164,0.18,0.365,0.313,0.502c0.119,0.104,0.245,0.173,0.382,0.236
		c0.125,0.053,0.185,0.055,0.279,0.08c0.199,0.049,0.277,0.033,0.423,0.051c0.386,0.004,0.771,0.008,1.149,0.012
		c0.945,0.018,1.721-0.229,2.441-0.396c1.461-0.383,2.846-0.805,4.195-1.218c2.697-0.808,5.258-1.569,7.66-2.291
		c2.402-0.698,4.66-1.332,6.744-1.821c0.521-0.113,1.012-0.238,1.523-0.334c0.523-0.086,1.008-0.188,1.469-0.225
		c0.935-0.105,1.847-0.059,2.42,0.115c0.17,0.025,0.213,0.107,0.324,0.137c0.039,0.062,0.108,0.087,0.127,0.154
		c0.082,0.099,0.146,0.342,0.146,0.669c0.029,0.646-0.066,1.409-0.051,2.202c0.012,0.216,0.015,0.467,0.044,0.633l0.045,0.246
		l0.034,0.183l0.061,0.173c0.135,0.463,0.485,0.842,0.823,1.061c0.705,0.432,1.332,0.431,1.851,0.43
		c1.043-0.048,1.767-0.268,2.254-0.419c0.483-0.158,0.725-0.261,0.725-0.261S173.639,195.776,173.138,195.777z M58.597,207.67
		c-0.022,0.013-0.044,0.019-0.029,0.018C58.562,207.686,58.572,207.678,58.597,207.67z M118.806,158.562
		C118.833,158.531,118.843,158.534,118.806,158.562L118.806,158.562z M139.11,173.565c-0.011,0.001-0.039,0.003-0.073,0.004
		C139.143,173.536,139.223,173.527,139.11,173.565z"/>
	<path fill="#B0B4C4" d="M148.576,209.105c-0.053-0.269-0.115-0.573-0.164-0.728l-0.078-0.28l-0.037-0.108l-0.021-0.052
		l-0.041-0.103l-0.083-0.203c-0.229-0.539-0.534-0.961-0.843-1.352c-0.627-0.746-1.296-1.283-1.948-1.742
		c-0.438-0.299-0.866-0.56-1.293-0.805c-0.308-0.201-0.638-0.404-1.002-0.607c0,0-6.5-3.748-11.417-4.416
		c-4.917-0.666-9.417,1.334-7.917,3.418c1.454,2.019,7.683,0.836,13.524,2.43c0.01,0.003,0.017,0.006,0.024,0.009
		c0.916,0.347,1.927,0.718,2.988,1.161c1.06,0.447,2.192,0.945,3.235,1.586c0.52,0.318,1.007,0.686,1.363,1.066
		c0.157,0.189,0.312,0.383,0.385,0.553l0.031,0.062l0.018,0.029l0.008,0.016c-0.005-0.021,0.025,0.067-0.01-0.041l0.089,0.275
		c0.075,0.219,0.077,0.299,0.11,0.416c0.244,1.072-0.08,2.163-1.045,3.197c-0.971,1.021-2.414,1.895-4.021,2.587
		c-1.609,0.702-3.395,1.271-5.268,1.737c-3.756,0.949-7.854,1.49-12.149,1.877c-4.298,0.431-8.772,0.705-13.341,1.289
		c-2.286,0.285-4.592,0.654-6.921,1.254c-1.164,0.308-2.336,0.662-3.516,1.209c-0.589,0.277-1.182,0.611-1.763,1.061
		c-0.57,0.454-1.172,1.061-1.525,1.939c-0.176,0.432-0.271,0.918-0.269,1.386l0.019,0.344l0.006,0.087l0.018,0.118l0.019,0.106
		c0.021,0.138,0.04,0.273,0.101,0.511c0.2,0.817,0.544,1.496,1.02,2.114c0.961,1.224,2.225,1.904,3.409,2.385
		c2.41,0.932,4.785,1.22,7.108,1.439c2.32,0.201,4.622,0.256,6.849,0.274c2.191,0.024,4.337,0.147,6.398,0.446
		c1.026,0.148,2.031,0.35,2.979,0.615c0.936,0.271,1.846,0.625,2.479,1.066c0.316,0.217,0.521,0.465,0.57,0.594
		c0.027,0.067,0.039,0.102,0.033,0.159c0.002,0.015-0.009,0.03-0.008,0.048l-0.001,0.014c0,0.002,0.002-0.004,0.003-0.008
		l-0.018,0.055c-0.062,0.189-0.023,0.037-0.047,0.109c-0.181,0.367-0.98,0.854-1.795,1.147c-1.688,0.629-3.578,0.95-5.406,1.298
		c-0.459,0.089-0.914,0.178-1.364,0.264c-0.384,0.066-0.822,0.121-1.249,0.16c-0.893,0.069-1.77,0.139-2.626,0.206
		c-0.889,0.081-1.775,0.16-2.729,0.438c-0.473,0.146-0.997,0.346-1.506,0.812c-0.25,0.238-0.469,0.567-0.587,0.927
		c-0.057,0.18-0.093,0.356-0.104,0.528c-0.019,0.206-0.009,0.265,0.015,0.554l0.026,0.146c0.005,0.035,0.017,0.102,0.048,0.208
		c0.05,0.194,0.117,0.358,0.192,0.501c0.154,0.295,0.375,0.566,0.618,0.757c0.49,0.397,0.989,0.548,1.434,0.657
		c0.895,0.195,1.666,0.186,2.4,0.178c1.458-0.033,2.761-0.166,3.894-0.129c0.551,0.02,1.11,0.077,1.553,0.188
		c0.225,0.055,0.417,0.129,0.537,0.197c0.011,0.006,0.013,0.008,0.021,0.012c-0.009,0.012-0.013,0.021-0.021,0.031
		c-0.084,0.106-0.211,0.232-0.352,0.35c-0.283,0.236-0.623,0.441-0.878,0.576c-0.604,0.311-1.212,0.49-1.715,0.638
		c-1.017,0.271-1.627,0.401-1.627,0.401s0.136,0.073,0.413,0.18c0.277,0.102,0.699,0.234,1.273,0.297
		c0.572,0.068,1.308,0.082,2.176-0.167c0.474-0.151,0.89-0.341,1.322-0.649c0.217-0.156,0.438-0.34,0.658-0.603
		c0.199-0.257,0.482-0.642,0.441-1.267c-0.064-0.646-0.52-1.037-0.833-1.231c-0.336-0.205-0.658-0.322-0.974-0.412
		c-0.641-0.177-1.246-0.254-1.91-0.302c-1.303-0.08-2.633,0.015-3.988,0c-0.668-0.01-1.361-0.043-1.927-0.191
		c-0.274-0.072-0.516-0.182-0.615-0.283c-0.061-0.048-0.077-0.093-0.104-0.141c-0.016-0.029-0.019-0.049-0.018-0.045
		c-0.002,0.018-0.01-0.018-0.018-0.078l-0.021-0.146c0.024,0.094-0.002-0.049,0.015-0.039c0.001-0.027,0.01-0.043,0.014-0.055
		c0.015-0.021,0.021-0.035,0.063-0.074c0.096-0.08,0.346-0.209,0.668-0.289c0.644-0.168,1.458-0.232,2.294-0.278
		c0.844-0.046,1.729-0.062,2.664-0.136c0.471-0.035,0.938-0.078,1.459-0.16c0.451-0.076,0.907-0.154,1.367-0.232
		c1.842-0.318,3.789-0.585,5.85-1.298c0.516-0.187,1.041-0.407,1.574-0.724c0.524-0.322,1.098-0.735,1.531-1.448
		c0.1-0.149,0.264-0.528,0.271-0.585l0.031-0.09l0.038-0.137l0.019-0.082c0.021-0.108,0.048-0.215,0.058-0.328
		c0.06-0.453-0.019-0.942-0.179-1.354c-0.334-0.833-0.897-1.35-1.418-1.738c-1.068-0.771-2.166-1.158-3.262-1.5
		c-1.098-0.318-2.201-0.549-3.312-0.722c-2.223-0.347-4.479-0.491-6.743-0.541c-2.228-0.043-4.438-0.118-6.646-0.33
		c-2.188-0.22-4.411-0.553-6.294-1.312c-0.931-0.379-1.744-0.889-2.204-1.51c-0.229-0.293-0.397-0.676-0.471-0.979
		c-0.119-0.562-0.1-0.615-0.02-0.848c0.132-0.416,0.933-1.021,1.838-1.42c0.917-0.424,1.955-0.756,3.014-1.033
		c2.128-0.551,4.354-0.914,6.568-1.258c4.444-0.646,8.89-1.104,13.208-1.535c4.314-0.446,8.552-0.934,12.521-1.84
		c1.984-0.447,3.912-1,5.746-1.744c1.824-0.746,3.592-1.682,5.062-3.137c0.724-0.738,1.351-1.644,1.722-2.678
		C148.677,211.241,148.759,210.127,148.576,209.105z M126.696,237.51c0.001-0.002,0.001-0.004,0.003-0.006
		c-0.002,0.002,0,0-0.002,0.004L126.696,237.51z"/>
</g>
<g>
	<path fill="#B0B4C4" d="M59.483,119.506c0-9.269,6.972-15.521,16.016-15.521c6.565,0,10.392,3.558,12.504,7.333l-5.487,2.7
		c-1.26-2.429-3.959-4.362-7.017-4.362c-5.491,0-9.447,4.184-9.447,9.85c0,5.67,3.956,9.854,9.447,9.854
		c3.058,0,5.757-1.935,7.017-4.362l5.487,2.651c-2.112,3.736-5.938,7.377-12.504,7.377
		C66.454,135.025,59.483,128.729,59.483,119.506z"/>
	<path fill="#B0B4C4" d="M91.845,134.487v-30.006h21.229v5.625H98.231v6.297h14.527v5.623H98.231v12.461H91.845z"/>
	<path fill="#B0B4C4" d="M143.634,134.487V112.85l-8.459,21.637h-2.791l-8.452-21.637v21.637h-6.388v-30.006h8.951l7.284,18.762
		l7.289-18.762h8.996v30.006H143.634z"/>
	<path fill="#B0B4C4" d="M153.957,130.26l3.508-4.996c2.113,2.205,5.396,4.096,9.535,4.096c3.554,0,5.219-1.575,5.219-3.329
		c0-5.221-17.272-1.575-17.272-12.863c0-4.997,4.317-9.133,11.382-9.133c4.77,0,8.729,1.439,11.693,4.184l-3.553,4.771
		c-2.43-2.248-5.67-3.285-8.729-3.285c-2.698,0-4.228,1.168-4.228,2.971c0,4.722,17.23,1.527,17.23,12.729
		c0,5.49-3.962,9.626-12.017,9.626C160.925,135.025,156.787,133.092,153.957,130.26z"/>
</g>
</svg>
