<?xml version="1.0" encoding="utf-8"?>
<!-- Generator: Adobe Illustrator 16.0.0, SVG Export Plug-In . SVG Version: 6.00 Build 0)  -->
<!DOCTYPE svg PUBLIC "-//W3C//DTD SVG 1.1//EN" "http://www.w3.org/Graphics/SVG/1.1/DTD/svg11.dtd">
<svg version="1.1" id="Layer_1" xmlns="http://www.w3.org/2000/svg" xmlns:xlink="http://www.w3.org/1999/xlink" x="0px" y="0px"
	 width="257.578px" height="324.41px" viewBox="0 0 257.578 324.41" enable-background="new 0 0 257.578 324.41"
	 xml:space="preserve">
<g>
	<path fill="#B0B4C4" d="M112.071,97.182c0,0-1.254-6.681,0.417-9.186c1.67-2.506,7.099-12.667,3.062-20.74
		c0,0-1.532,11.274-3.758,11.274c-2.228,0-6.125-1.949-6.125-1.949s2.088,12.11-0.418,12.11c-2.505,0-5.707-5.985-5.707-5.985
		l-1.81,3.063l-9.882,0.277l5.985,7.377l-2.646,0.835c0,0,5.288,3.202,11.831,2.784C109.565,96.626,112.071,97.182,112.071,97.182z"
		/>
	<path fill="#B0B4C4" d="M116.942,83.821c0,0-5.568,10.021,0.835,13.641c6.403,3.62,10.439,3.759,14.477,5.846
		c4.037,2.089,6.961-1.949,5.289-4.732c-1.67-2.783,6.125-9.048,4.455-10.718c0,0-3.619,0.556-6.266,0.975
		c-2.646,0.416-3.34,0.695-3.199-1.949c0.139-2.646-5.152,1.672-6.544,2.645c-1.391,0.975-5.567,4.455-3.758-0.416
		c1.81-4.874,7.656-10.72,6.961-11.972c-0.697-1.253-3.759,1.81-4.733,1.81s-2.228-7.518-7.656-11.692
		C116.803,67.256,121.258,78.391,116.942,83.821z"/>
	<path fill="#B0B4C4" d="M52.747,120.065c0-7.046,4.97-12.211,12.017-12.211c4.587,0,7.285,1.93,8.928,4.151l-3.328,3.041
		c-1.305-1.836-3.089-2.704-5.36-2.704c-4.197,0-7.045,3.187-7.045,7.723c0,4.534,2.848,7.769,7.045,7.769
		c2.271,0,4.056-0.963,5.36-2.798l3.328,3.136c-1.643,2.173-4.341,4.149-8.928,4.149C57.717,132.321,52.747,127.11,52.747,120.065z"
		/>
	<path fill="#B0B4C4" d="M93.032,131.744v-2.558c-1.736,2.027-4.487,3.135-7.575,3.135c-3.765,0-8.604-2.528-8.604-7.646
		c0-5.403,4.791-7.698,8.604-7.698c3.187,0,5.872,0.668,7.575,2.269v-2.752c0-2.704-2.266-4.343-5.449-4.343
		c-2.61,0-4.925,0.963-6.905,2.99l-2.122-3.521c2.704-2.605,6.08-3.766,9.797-3.766c5.212,0,9.75,2.171,9.75,8.398v15.491
		L93.032,131.744L93.032,131.744z M93.032,125.509v-2.646c-1.205-1.591-3.496-2.155-5.67-2.155c-2.85,0-4.897,1.432-4.897,3.943
		c0,2.558,2.171,3.712,5.02,3.712C89.658,128.363,91.827,127.1,93.032,125.509z"/>
	<path fill="#B0B4C4" d="M102.975,131.744v-23.311h5.07v3.379c1.783-2.221,5.868-4.053,8.862-4.053l-0.104,4.908
		c-0.436-0.099-2.123-0.104-2.726,0.06c-4.79,1.297-5.938,6.203-6.032,8.187v10.83H102.975z"/>
	<path fill="#B0B4C4" d="M149.5,131.744v-15.205c0-2.506-1.109-4.196-3.861-4.196c-2.268,0-4.391,1.544-5.404,3.089v16.312h-5.067
		v-15.205c0-2.506-1.062-4.196-3.812-4.196c-2.268,0-4.341,1.592-5.402,3.089v16.312h-5.069v-23.311h5.069v3.135
		c1.015-1.398,4.052-3.714,7.625-3.714c3.475,0,5.6,1.737,6.369,4.249c1.305-2.078,4.393-4.249,7.912-4.249
		c4.25,0,6.709,2.315,6.709,7.048v16.842H149.5z"/>
	<path fill="#B0B4C4" d="M159.175,128.656l2.313-3.62c1.646,1.69,4.878,3.234,7.867,3.234c3.043,0,4.633-1.258,4.633-3.089
		c0-4.586-14.092-1.306-14.092-10.279c0-3.812,3.283-7.048,9.17-7.048c3.955,0,6.951,1.399,9.025,3.235l-2.127,3.568
		c-1.398-1.545-3.956-2.799-6.898-2.799c-2.653,0-4.297,1.254-4.297,2.897c0,4.102,14.092,1.013,14.092,10.279
		c0,4.15-3.426,7.285-9.698,7.285C165.154,132.321,161.589,131.02,159.175,128.656z"/>
</g>
<g>
	<path fill="none" stroke="#B0B4C4" stroke-width="5" stroke-miterlimit="10" d="M214,292.333c0,1.101-0.898,2-2,2H16
		c-1.1,0-2-0.899-2-2v-257c0-1.1,0.9-2,2-2h196c1.102,0,2,0.9,2,2V292.333z"/>
</g>
<g>
	<path fill="none" stroke="#B0B4C4" stroke-width="5" stroke-miterlimit="10" d="M214,50.667h16c1.102,0,2,0.9,2,2v257
		c0,1.101-0.898,2-2,2H34c-1.1,0-2-0.899-2-2V296"/>
</g>
<polyline fill="none" stroke="#B0B4C4" stroke-width="3" stroke-miterlimit="10" points="51.5,157.333 51.5,259.333 175.5,259.333 
	"/>
<rect x="65" y="175.333" fill="#B0B4C4" width="17.5" height="77"/>
<rect x="89.5" y="197.833" fill="#B0B4C4" width="17.5" height="54.5"/>
<rect x="114" y="218.333" fill="#B0B4C4" width="17.5" height="34"/>
<rect x="138.5" y="200.333" fill="#B0B4C4" width="17.5" height="52"/>
</svg>
