<?xml version="1.0" encoding="utf-8"?>
<!-- Generator: Adobe Illustrator 16.0.0, SVG Export Plug-In . SVG Version: 6.00 Build 0)  -->
<!DOCTYPE svg PUBLIC "-//W3C//DTD SVG 1.1//EN" "http://www.w3.org/Graphics/SVG/1.1/DTD/svg11.dtd">
<svg version="1.1" id="Layer_1" xmlns="http://www.w3.org/2000/svg" xmlns:xlink="http://www.w3.org/1999/xlink" x="0px" y="0px"
	 width="261.473px" height="302.328px" viewBox="8.352 9.657 261.473 302.328" enable-background="new 8.352 9.657 261.473 302.328"
	 xml:space="preserve">
<g id="Background" display="none">
	<rect x="-432.388" y="-460.886" display="inline" fill="#46494B" width="1471.442" height="844.458"/>
</g>
<g id="Layer_1_1_">
	<polyline fill="none" stroke="#B0B4C4" stroke-width="5" stroke-miterlimit="10" points="50.345,107.641 74.167,107.641 
		78.856,99.076 86.28,107.641 100.008,107.641 106.594,128.265 115.873,73.298 125.543,139.926 132.717,107.641 197.627,107.641 	
		"/>
	<g>
		<path fill="none" stroke="#B0B4C4" stroke-width="5" stroke-miterlimit="10" d="M238.986,67.57c0,0,3.679,0,8.175,0
			c4.497,0,8.176,10.486,8.176,23.303v173.991c0,12.816-10.486,23.303-23.303,23.303H81.86c-12.816,0-23.304-3.221-23.304-7.159
			c0-3.937,0-7.157,0-7.157"/>
	</g>
	<g>
		<path fill="none" stroke="#B0B4C4" stroke-width="5" stroke-miterlimit="10" d="M218.401,55.141c0,0,4.813,0,10.698,0
			c5.886,0,10.699,10.485,10.699,23.303v173.992c0,12.815-10.486,23.303-23.303,23.303H66.325c-12.816,0-23.303-4.357-23.303-9.683
			c0-5.326,0-9.684,0-9.684"/>
	</g>
	<g>
		<path fill="none" stroke="#B0B4C4" stroke-width="7" stroke-miterlimit="10" d="M25.933,70.677
			c0-17.089,13.981-31.069,31.07-31.069h134.638c17.09,0,31.07,13.98,31.07,31.069v158.456c0,17.09-13.98,31.07-31.07,31.07H57.004
			c-17.089,0-31.07-13.98-31.07-31.07V70.677z"/>
	</g>
	<circle fill="#B0B4C4" cx="70.469" cy="169.386" r="5.438"/>
	<circle fill="#B0B4C4" cx="70.469" cy="196.573" r="5.438"/>
	<circle fill="#B0B4C4" cx="70.469" cy="223.759" r="5.438"/>
	
		<line fill="none" stroke="#B0B4C4" stroke-width="4.6605" stroke-miterlimit="10" x1="87.556" y1="169.385" x2="184.651" y2="169.385"/>
	
		<line fill="none" stroke="#B0B4C4" stroke-width="4.6605" stroke-miterlimit="10" x1="87.556" y1="196.573" x2="184.651" y2="196.573"/>
	
		<line fill="none" stroke="#B0B4C4" stroke-width="4.6605" stroke-miterlimit="10" x1="87.556" y1="223.759" x2="184.651" y2="223.759"/>
</g>
</svg>
