<?xml version="1.0" encoding="utf-8"?>
<!-- Generator: Adobe Illustrator 16.0.0, SVG Export Plug-In . SVG Version: 6.00 Build 0)  -->
<!DOCTYPE svg PUBLIC "-//W3C//DTD SVG 1.1//EN" "http://www.w3.org/Graphics/SVG/1.1/DTD/svg11.dtd">
<svg version="1.1" id="Layer_1" xmlns="http://www.w3.org/2000/svg" xmlns:xlink="http://www.w3.org/1999/xlink" x="0px" y="0px"
	 width="217px" height="292px" viewBox="31.492 16.991 217 292" enable-background="new 31.492 16.991 217 292"
	 xml:space="preserve">
<g id="Background" display="none">
	<rect x="-432.388" y="-460.886" display="inline" fill="#46494B" width="1141.441" height="844.458"/>
</g>
<g id="Layer_1_1_">
	<g id="g4" transform="matrix(1,0,0,-1,205.01695,1330.9831)">
		<path id="path6" fill="none" stroke="#B0B4C4" stroke-width="7" stroke-miterlimit="10" d="M19.905,1283.678
			c0-6.549-5.606-15.432-16.823-26.646l-27.102-27.102l16.146-84.235l0.112-0.677c0-1.056-0.339-1.922-1.017-2.6l-7.229-7.227
			c-0.678-0.679-1.543-1.019-2.597-1.019c-1.581,0-2.673,0.68-3.274,2.033l-30.938,64.928l-27.664-27.665
			c5.119-17.916,7.678-27.399,7.678-28.455c0-1.054-0.338-1.92-1.016-2.598l-7.228-7.227c-0.679-0.679-1.545-1.019-2.599-1.019
			c-1.354,0-2.408,0.604-3.162,1.809l-17.502,31.615l-31.616,17.502c-1.278,0.68-1.92,1.731-1.92,3.162
			c0,1.054,0.339,1.92,1.019,2.6l7.227,7.339c0.679,0.678,1.543,1.017,2.599,1.017c1.054,0,10.538-2.56,28.455-7.679l27.663,27.665
			l-64.928,30.938c-1.354,0.604-2.032,1.693-2.032,3.274c0,1.054,0.34,1.92,1.019,2.597l7.227,7.229
			c0.679,0.677,1.543,1.016,2.599,1.016c0.302,0,0.525-0.038,0.678-0.113l84.235-16.146l27.102,27.1
			c11.216,11.216,20.1,16.825,26.647,16.825c2.407,0,4.386-0.771,5.929-2.313S19.905,1286.087,19.905,1283.678z"/>
	</g>
	<g>
		<path fill="#B0B4C4" d="M89.442,177.579l-3.85-3.193c2.396-2.888,4.045-4.572,4.112-4.645l3.572,3.499
			C93.262,173.256,91.695,174.865,89.442,177.579z"/>
		<path fill="#B0B4C4" d="M222.544,277.784l-4.766-1.516c1.207-3.793,2.052-7.526,2.512-11.1l4.959,0.641
			C224.751,269.677,223.841,273.706,222.544,277.784z M220.445,253.958c-0.436-3.823-1.397-7.397-2.866-10.627l4.551-2.07
			c1.688,3.706,2.791,7.788,3.284,12.137L220.445,253.958z M101.263,251.219c-4.083-0.4-8.059-1.587-12.15-3.621l2.227-4.479
			c3.54,1.76,6.946,2.782,10.415,3.123L101.263,251.219z M113.832,250.158l-1.182-4.857c3.088-0.752,6.438-1.88,10.869-3.658
			l1.862,4.641C120.723,248.153,117.161,249.349,113.832,250.158z M136.343,241.631l-1.98-4.59
			c3.182-1.374,6.916-2.977,10.977-4.607l1.865,4.639C143.197,238.682,139.496,240.27,136.343,241.631z M78.693,240.85
			c-3.441-2.916-6.172-6.196-8.115-9.75l4.387-2.398c1.647,3.012,3.989,5.816,6.961,8.334L78.693,240.85z M211.374,234.424
			c-2.578-2.525-5.615-4.553-9.027-6.021l1.978-4.594c3.98,1.713,7.53,4.083,10.552,7.044L211.374,234.424z M158.175,232.944
			l-1.646-4.721c3.783-1.32,7.621-2.548,11.403-3.645l1.394,4.803C165.627,230.455,161.875,231.654,158.175,232.944z
			 M180.575,226.484l-0.961-4.906c4.198-0.821,8.396-1.074,12.465-0.753l-0.397,4.984
			C188.065,225.521,184.327,225.75,180.575,226.484z M66.965,218.822c-0.066-0.877-0.104-1.777-0.104-2.674
			c-0.001-3.141,0.422-6.457,1.258-9.86l4.854,1.191c-0.738,3.014-1.113,5.931-1.112,8.668c0,0.769,0.028,1.537,0.088,2.286
			L66.965,218.822z M76.864,196.851l-4.515-2.15c1.649-3.464,3.679-7.026,6.025-10.588l4.174,2.752
			C80.329,190.235,78.415,193.594,76.864,196.851z"/>
		<path fill="#B0B4C4" d="M215.185,294.692l-4.388-2.4c0.954-1.742,1.854-3.498,2.674-5.218l4.515,2.15
			C217.126,291.029,216.183,292.867,215.185,294.692z"/>
	</g>
</g>
</svg>
