<?xml version="1.0" encoding="utf-8"?>
<!-- Generator: Adobe Illustrator 16.0.0, SVG Export Plug-In . SVG Version: 6.00 Build 0)  -->
<!DOCTYPE svg PUBLIC "-//W3C//DTD SVG 1.1//EN" "http://www.w3.org/Graphics/SVG/1.1/DTD/svg11.dtd">
<svg version="1.1" id="Layer_1" xmlns="http://www.w3.org/2000/svg" xmlns:xlink="http://www.w3.org/1999/xlink" x="0px" y="0px"
	 width="246px" height="303.991px" viewBox="12.492 28.991 246 303.991" enable-background="new 12.492 28.991 246 303.991"
	 xml:space="preserve">
<g id="Background" display="none">
	<rect x="-432.388" y="-460.886" display="inline" fill="#46494B" width="838.458" height="844.458"/>
</g>
<g>
	<path fill="#B0B4C4" d="M134.812,119.33c0,0-1.254-6.681,0.419-9.186c1.67-2.507,7.1-12.667,3.062-20.74
		c0,0-1.531,11.273-3.758,11.273c-2.229,0-6.126-1.948-6.126-1.948s2.09,12.109-0.418,12.109c-2.504,0-5.707-5.984-5.707-5.984
		l-1.811,3.062l-9.883,0.275l5.984,7.377l-2.646,0.835c0,0,5.287,3.202,11.829,2.784C132.307,118.774,134.812,119.33,134.812,119.33
		z"/>
	<path fill="#B0B4C4" d="M139.683,105.969c0,0-5.565,10.021,0.836,13.643c6.402,3.62,10.439,3.759,14.479,5.848
		c4.036,2.088,6.96-1.949,5.288-4.731c-1.67-2.783,6.125-9.05,4.455-10.72c0,0-3.619,0.558-6.267,0.977
		c-2.646,0.416-3.341,0.693-3.199-1.949c0.141-2.646-5.15,1.674-6.546,2.646c-1.391,0.976-5.563,4.455-3.758-0.415
		c1.812-4.874,7.656-10.722,6.961-11.974c-0.694-1.253-3.758,1.812-4.731,1.812s-2.229-7.519-7.654-11.692
		C139.545,89.404,144,100.539,139.683,105.969z"/>
	<path fill="#B0B4C4" d="M75.489,142.214c0-7.045,4.972-12.211,12.019-12.211c4.588,0,7.284,1.932,8.927,4.15l-3.326,3.041
		c-1.306-1.836-3.089-2.704-5.359-2.704c-4.197,0-7.045,3.188-7.045,7.724s2.848,7.771,7.045,7.771c2.271,0,4.057-0.963,5.359-2.798
		l3.326,3.136c-1.643,2.173-4.339,4.147-8.927,4.147C80.46,154.469,75.489,149.258,75.489,142.214z"/>
	<path fill="#B0B4C4" d="M115.776,153.892v-2.56c-1.736,2.026-4.486,3.135-7.576,3.135c-3.767,0-8.604-2.526-8.604-7.646
		c0-5.402,4.791-7.698,8.604-7.698c3.188,0,5.873,0.669,7.576,2.271v-2.752c0-2.704-2.269-4.345-5.449-4.345
		c-2.609,0-4.926,0.964-6.904,2.989l-2.121-3.521c2.703-2.604,6.08-3.769,9.797-3.769c5.211,0,9.75,2.173,9.75,8.398v15.49
		L115.776,153.892L115.776,153.892z M115.776,147.657v-2.646c-1.205-1.592-3.496-2.154-5.673-2.154c-2.85,0-4.895,1.433-4.895,3.941
		c0,2.56,2.172,3.713,5.02,3.713C112.401,150.511,114.569,149.248,115.776,147.657z"/>
	<path fill="#B0B4C4" d="M125.718,153.892V130.58h5.068v3.38c1.784-2.223,5.868-4.055,8.862-4.055l-0.104,4.908
		c-0.436-0.1-2.123-0.104-2.727,0.06c-4.79,1.298-5.938,6.203-6.032,8.188v10.83L125.718,153.892L125.718,153.892z"/>
	<path fill="#B0B4C4" d="M172.242,153.892v-15.205c0-2.506-1.11-4.196-3.862-4.196c-2.268,0-4.391,1.544-5.402,3.089v16.312h-5.068
		v-15.205c0-2.506-1.062-4.196-3.812-4.196c-2.27,0-4.342,1.594-5.401,3.089v16.312h-5.068V130.58h5.068v3.136
		c1.016-1.397,4.053-3.715,7.625-3.715c3.476,0,5.601,1.736,6.368,4.25c1.305-2.078,4.395-4.25,7.911-4.25
		c4.251,0,6.71,2.314,6.71,7.049v16.843H172.242z"/>
	<path fill="#B0B4C4" d="M181.918,150.804l2.314-3.619c1.645,1.689,4.876,3.232,7.865,3.232c3.041,0,4.634-1.259,4.634-3.089
		c0-4.586-14.092-1.307-14.092-10.278c0-3.812,3.281-7.049,9.167-7.049c3.957,0,6.951,1.398,9.027,3.234l-2.127,3.567
		c-1.398-1.546-3.957-2.8-6.9-2.8c-2.651,0-4.295,1.254-4.295,2.896c0,4.104,14.092,1.013,14.092,10.278
		c0,4.148-3.428,7.284-9.698,7.284C187.898,154.469,184.332,153.169,181.918,150.804z"/>
</g>
<g>
	<path fill="none" stroke="#B0B4C4" stroke-width="5" stroke-miterlimit="10" d="M239.743,318.947c0,1.119-0.938,2.035-2.08,2.035
		H33.823c-1.145,0-2.08-0.916-2.08-2.035V57.516c0-1.121,0.937-2.035,2.08-2.035h203.84c1.144,0,2.08,0.914,2.08,2.035V318.947z"/>
</g>
<circle fill="#B0B4C4" cx="86.034" cy="200.642" r="19.333"/>
<line fill="none" stroke="#B0B4C4" stroke-width="5" stroke-miterlimit="10" x1="86.034" y1="202.976" x2="86.034" y2="256.976"/>
<polyline fill="none" stroke="#B0B4C4" stroke-width="5" stroke-miterlimit="10" points="71.284,286.476 86.284,254.976 
	100.784,286.476 "/>
<line fill="none" stroke="#B0B4C4" stroke-width="5" stroke-miterlimit="10" x1="67.034" y1="232.226" x2="105.034" y2="232.226"/>
<circle fill="#B0B4C4" cx="188.076" cy="200.642" r="19.333"/>
<line fill="none" stroke="#B0B4C4" stroke-width="5" stroke-miterlimit="10" x1="188.076" y1="202.976" x2="188.076" y2="256.976"/>
<polyline fill="none" stroke="#B0B4C4" stroke-width="5" stroke-miterlimit="10" points="173.326,286.476 188.326,254.976 
	202.826,286.476 "/>
<line fill="none" stroke="#B0B4C4" stroke-width="5" stroke-miterlimit="10" x1="169.076" y1="232.226" x2="207.076" y2="232.226"/>
<polygon fill="#B0B4C4" points="186.576,245.476 170.326,273.726 205.826,273.726 189.826,244.726 "/>
<path fill="#B0B4C4" d="M152.61,180.782c0-1.168-0.438-8.305-6.283-8.89c-5.006-0.5-7.865,4.568-8.584,6.035
	c-0.719-1.467-3.578-6.535-8.584-6.035c-5.844,0.585-6.283,8.16-6.283,9.329c0,1.159,0.727,12.793,14.685,18.547v-0.001
	C151.517,194.007,152.61,181.94,152.61,180.782z"/>
</svg>
