<?xml version="1.0" encoding="utf-8"?>
<!-- Generator: Adobe Illustrator 16.0.0, SVG Export Plug-In . SVG Version: 6.00 Build 0)  -->
<!DOCTYPE svg PUBLIC "-//W3C//DTD SVG 1.1//EN" "http://www.w3.org/Graphics/SVG/1.1/DTD/svg11.dtd">
<svg version="1.1" id="Layer_1" xmlns="http://www.w3.org/2000/svg" xmlns:xlink="http://www.w3.org/1999/xlink" x="0px" y="0px"
	 width="269.83px" height="311.992px" viewBox="0 0 269.83 311.992" enable-background="new 0 0 269.83 311.992"
	 xml:space="preserve">
<path fill="#B0B4C4" d="M91.125,222.192l4.884,14.36h0.059l4.621-14.36h6.464v20.884h-4.299v-14.801h-0.059l-5.119,14.801h-3.539
	l-5.118-14.652H88.96v14.652h-4.299v-20.884H91.125z"/>
<path fill="#B0B4C4" d="M120.197,222.192c1.347,0,2.6,0.216,3.76,0.644c1.16,0.431,2.164,1.074,3.013,1.932
	c0.848,0.857,1.511,1.932,1.988,3.218c0.477,1.287,0.717,2.8,0.717,4.533c0,1.521-0.195,2.925-0.585,4.212
	c-0.391,1.287-0.979,2.398-1.771,3.334c-0.79,0.938-1.773,1.672-2.953,2.208c-1.181,0.537-2.569,0.806-4.169,0.806h-9.008v-20.884
	L120.197,222.192L120.197,222.192z M119.876,239.214c0.662,0,1.306-0.106,1.93-0.321c0.624-0.214,1.18-0.569,1.668-1.065
	c0.486-0.498,0.877-1.146,1.17-1.945c0.292-0.799,0.438-1.773,0.438-2.926c0-1.054-0.104-2.002-0.309-2.853
	c-0.204-0.849-0.541-1.573-1.009-2.179c-0.468-0.605-1.087-1.067-1.856-1.391c-0.771-0.32-1.722-0.482-2.853-0.482h-3.274v13.162
	H119.876z"/>
<path fill="#B0B4C4" d="M158.676,222.192v3.86h-10.091v4.826h8.745v3.566h-8.745v8.629h-4.592V222.19L158.676,222.192
	L158.676,222.192z"/>
<path fill="#B0B4C4" d="M160.015,225.615v-3.423h4.153v3.423H160.015z M164.168,227.955v15.121h-4.153v-15.121H164.168z"/>
<path fill="#B0B4C4" d="M171.394,227.955v2.104h0.086c0.527-0.877,1.209-1.516,2.049-1.916c0.839-0.398,1.695-0.6,2.574-0.6
	c1.11,0,2.021,0.149,2.733,0.453c0.712,0.303,1.271,0.723,1.683,1.258c0.41,0.537,0.696,1.188,0.862,1.959
	c0.165,0.771,0.248,1.623,0.248,2.561v9.303h-4.153v-8.541c0-1.248-0.193-2.181-0.584-2.793c-0.391-0.615-1.082-0.923-2.076-0.923
	c-1.131,0-1.949,0.336-2.457,1.011c-0.508,0.672-0.762,1.777-0.762,3.318v7.928h-4.152v-15.121H171.394z"/>
<path fill="#B0B4C4" d="M184.612,232.604c0.06-0.976,0.303-1.784,0.729-2.429c0.427-0.643,0.976-1.159,1.64-1.549
	c0.662-0.393,1.408-0.668,2.236-0.834s1.662-0.25,2.502-0.25c0.76,0,1.529,0.056,2.311,0.162c0.779,0.105,1.49,0.315,2.136,0.629
	c0.644,0.312,1.17,0.746,1.579,1.301c0.408,0.557,0.613,1.293,0.613,2.209v7.867c0,0.684,0.039,1.336,0.117,1.959
	c0.078,0.625,0.213,1.094,0.408,1.404h-4.212c-0.077-0.234-0.144-0.474-0.188-0.718c-0.049-0.241-0.084-0.491-0.104-0.746
	c-0.663,0.685-1.443,1.161-2.34,1.435c-0.896,0.271-1.812,0.41-2.749,0.41c-0.724,0-1.396-0.088-2.021-0.265
	c-0.623-0.176-1.17-0.446-1.638-0.817s-0.834-0.838-1.097-1.404c-0.266-0.564-0.396-1.237-0.396-2.018
	c0-0.857,0.151-1.564,0.455-2.121c0.301-0.557,0.69-0.998,1.17-1.33c0.479-0.332,1.022-0.58,1.637-0.746
	c0.615-0.166,1.232-0.297,1.857-0.396c0.623-0.098,1.237-0.176,1.844-0.232c0.604-0.061,1.142-0.146,1.607-0.265
	c0.469-0.116,0.838-0.286,1.109-0.512c0.272-0.226,0.4-0.552,0.382-0.979c0-0.447-0.073-0.805-0.22-1.066
	c-0.146-0.264-0.342-0.469-0.586-0.614s-0.524-0.241-0.849-0.292c-0.321-0.049-0.668-0.072-1.038-0.072
	c-0.818,0-1.463,0.176-1.931,0.525c-0.47,0.352-0.741,0.938-0.817,1.755H184.612z M194.205,235.675
	c-0.177,0.156-0.396,0.277-0.658,0.365c-0.262,0.088-0.546,0.162-0.848,0.221c-0.304,0.059-0.619,0.107-0.951,0.146
	c-0.331,0.039-0.663,0.088-0.994,0.145c-0.312,0.06-0.619,0.138-0.921,0.234c-0.305,0.098-0.566,0.229-0.79,0.396
	c-0.226,0.166-0.405,0.376-0.541,0.629c-0.137,0.254-0.205,0.575-0.205,0.965c0,0.371,0.067,0.685,0.205,0.938
	c0.136,0.252,0.319,0.453,0.556,0.6c0.234,0.146,0.508,0.248,0.819,0.309c0.312,0.059,0.633,0.088,0.965,0.088
	c0.819,0,1.452-0.137,1.901-0.41c0.447-0.272,0.777-0.6,0.992-0.979c0.217-0.38,0.348-0.765,0.396-1.153
	c0.049-0.392,0.073-0.701,0.073-0.938V235.675L194.205,235.675z"/>
<path fill="#B0B4C4" d="M204.524,227.955v2.104h0.086c0.527-0.877,1.209-1.516,2.05-1.916c0.838-0.398,1.694-0.6,2.573-0.6
	c1.11,0,2.021,0.149,2.733,0.453c0.712,0.303,1.272,0.723,1.683,1.258c0.41,0.537,0.697,1.188,0.863,1.959
	c0.164,0.771,0.247,1.623,0.247,2.561v9.303h-4.153v-8.541c0-1.248-0.193-2.181-0.584-2.793c-0.391-0.615-1.082-0.923-2.076-0.923
	c-1.131,0-1.949,0.336-2.456,1.011c-0.509,0.672-0.763,1.777-0.763,3.318v7.928h-4.151v-15.121H204.524z"/>
<path fill="#B0B4C4" d="M224.644,230.673c-0.662,0-1.219,0.152-1.666,0.453c-0.449,0.304-0.813,0.691-1.098,1.17
	c-0.283,0.479-0.482,1.006-0.602,1.58c-0.116,0.576-0.176,1.146-0.176,1.711c0,0.547,0.061,1.103,0.176,1.668
	c0.117,0.563,0.309,1.076,0.57,1.535c0.264,0.459,0.618,0.834,1.067,1.125c0.448,0.293,0.994,0.438,1.638,0.438
	c0.994,0,1.76-0.276,2.297-0.834c0.535-0.556,0.873-1.302,1.01-2.235h4.008c-0.273,2.008-1.055,3.539-2.342,4.592
	c-1.285,1.053-2.936,1.578-4.941,1.578c-1.131,0-2.169-0.188-3.115-0.57c-0.945-0.379-1.75-0.91-2.412-1.594
	c-0.664-0.684-1.181-1.496-1.551-2.441c-0.369-0.945-0.556-1.982-0.556-3.114c0-1.171,0.171-2.257,0.512-3.262
	s0.845-1.872,1.507-2.604c0.662-0.729,1.473-1.302,2.428-1.711c0.955-0.408,2.047-0.613,3.275-0.613c0.896,0,1.76,0.117,2.59,0.352
	c0.827,0.232,1.568,0.59,2.223,1.066c0.652,0.479,1.186,1.072,1.595,1.785c0.407,0.711,0.644,1.555,0.7,2.528h-4.063
	C227.44,231.542,226.418,230.673,224.644,230.673z"/>
<path fill="#B0B4C4" d="M233.824,225.615v-3.423h4.151v3.423H233.824z M237.978,227.955v15.121h-4.151v-15.121H237.978z"/>
<path fill="#B0B4C4" d="M240.245,232.771c0.059-0.975,0.302-1.784,0.729-2.428c0.428-0.645,0.978-1.16,1.639-1.551
	c0.662-0.392,1.408-0.668,2.238-0.834c0.828-0.164,1.662-0.248,2.5-0.248c0.76,0,1.53,0.055,2.312,0.16
	c0.777,0.106,1.49,0.316,2.135,0.629s1.17,0.746,1.579,1.303c0.41,0.556,0.614,1.291,0.614,2.207v7.869
	c0,0.683,0.039,1.336,0.115,1.959c0.078,0.625,0.215,1.093,0.41,1.404h-4.213c-0.078-0.234-0.142-0.475-0.188-0.719
	c-0.051-0.242-0.083-0.49-0.104-0.746c-0.664,0.686-1.443,1.161-2.341,1.436c-0.897,0.271-1.813,0.408-2.749,0.408
	c-0.722,0-1.396-0.086-2.02-0.264c-0.623-0.176-1.17-0.447-1.639-0.818c-0.468-0.369-0.834-0.838-1.097-1.402
	c-0.265-0.564-0.396-1.238-0.396-2.02c0-0.857,0.15-1.564,0.453-2.119c0.303-0.558,0.691-1,1.17-1.332
	c0.479-0.33,1.023-0.58,1.64-0.746c0.612-0.164,1.231-0.297,1.856-0.396c0.623-0.099,1.236-0.176,1.842-0.233
	c0.604-0.06,1.143-0.146,1.608-0.264c0.468-0.115,0.839-0.287,1.111-0.512c0.271-0.225,0.397-0.551,0.38-0.979
	c0-0.449-0.073-0.806-0.219-1.068c-0.146-0.262-0.344-0.467-0.586-0.613c-0.243-0.146-0.525-0.242-0.85-0.292
	c-0.32-0.049-0.668-0.071-1.037-0.071c-0.818,0-1.463,0.174-1.932,0.524c-0.468,0.353-0.741,0.937-0.818,1.755H240.245z
	 M249.838,235.843c-0.175,0.156-0.396,0.277-0.657,0.365c-0.263,0.088-0.547,0.16-0.849,0.219c-0.304,0.06-0.619,0.107-0.951,0.146
	c-0.331,0.041-0.663,0.088-0.993,0.146c-0.312,0.059-0.619,0.137-0.922,0.234s-0.566,0.229-0.79,0.395
	c-0.225,0.166-0.405,0.376-0.541,0.629c-0.137,0.254-0.204,0.574-0.204,0.965c0,0.371,0.067,0.684,0.204,0.938
	c0.136,0.254,0.321,0.453,0.556,0.601c0.235,0.147,0.509,0.248,0.819,0.308c0.312,0.06,0.634,0.088,0.966,0.088
	c0.818,0,1.451-0.135,1.9-0.408c0.448-0.273,0.777-0.6,0.994-0.98c0.215-0.38,0.346-0.765,0.395-1.154
	c0.049-0.391,0.073-0.701,0.073-0.937V235.843L249.838,235.843z"/>
<path fill="#B0B4C4" d="M260.312,222.192v20.884h-4.151v-20.884H260.312z"/>
<path fill="#B0B4C4" d="M91.125,251.291l4.884,14.358h0.059l4.621-14.358h6.464v20.883h-4.299v-14.801h-0.059l-5.119,14.801h-3.539
	l-5.118-14.653H88.96v14.653h-4.299v-20.883H91.125z"/>
<path fill="#B0B4C4" d="M109.575,261.703c0.059-0.977,0.302-1.785,0.729-2.43c0.428-0.645,0.976-1.158,1.639-1.55
	c0.662-0.392,1.408-0.668,2.237-0.834c0.828-0.165,1.662-0.249,2.501-0.249c0.76,0,1.53,0.055,2.312,0.16
	c0.778,0.107,1.49,0.318,2.135,0.63c0.644,0.312,1.17,0.745,1.579,1.302c0.41,0.557,0.613,1.292,0.613,2.208v7.868
	c0,0.684,0.039,1.336,0.117,1.959c0.078,0.625,0.214,1.093,0.409,1.404h-4.212c-0.078-0.234-0.142-0.473-0.189-0.717
	c-0.049-0.244-0.083-0.492-0.103-0.746c-0.663,0.684-1.443,1.16-2.34,1.434c-0.897,0.271-1.813,0.408-2.749,0.408
	c-0.722,0-1.396-0.086-2.02-0.262c-0.624-0.177-1.17-0.449-1.638-0.819c-0.468-0.37-0.834-0.839-1.097-1.403
	c-0.265-0.564-0.396-1.236-0.396-2.02c0-0.856,0.151-1.563,0.454-2.119c0.302-0.557,0.691-0.999,1.17-1.331
	c0.479-0.331,1.023-0.58,1.639-0.746c0.613-0.165,1.231-0.297,1.856-0.396c0.623-0.099,1.237-0.176,1.843-0.233
	c0.604-0.06,1.142-0.146,1.608-0.263c0.468-0.117,0.838-0.289,1.111-0.513c0.271-0.226,0.398-0.552,0.38-0.979
	c0-0.448-0.073-0.805-0.22-1.067c-0.146-0.263-0.342-0.468-0.585-0.612c-0.243-0.146-0.525-0.244-0.849-0.293
	c-0.321-0.05-0.668-0.072-1.038-0.072c-0.819,0-1.463,0.175-1.931,0.525c-0.468,0.352-0.741,0.936-0.818,1.756H109.575
	L109.575,261.703z M119.168,264.773c-0.175,0.156-0.396,0.277-0.658,0.365c-0.262,0.088-0.546,0.16-0.848,0.22
	c-0.304,0.06-0.619,0.106-0.951,0.146c-0.331,0.041-0.663,0.088-0.994,0.146c-0.312,0.061-0.619,0.139-0.921,0.234
	c-0.303,0.098-0.566,0.229-0.79,0.395c-0.225,0.166-0.405,0.377-0.541,0.631c-0.137,0.254-0.205,0.573-0.205,0.965
	c0,0.371,0.068,0.683,0.205,0.937c0.136,0.253,0.321,0.453,0.556,0.601c0.234,0.146,0.507,0.248,0.819,0.308
	c0.312,0.059,0.633,0.088,0.965,0.088c0.819,0,1.452-0.136,1.901-0.409c0.447-0.271,0.778-0.6,0.994-0.979
	c0.215-0.381,0.346-0.767,0.395-1.155c0.049-0.39,0.073-0.701,0.073-0.937V264.773z"/>
<path fill="#B0B4C4" d="M129.487,257.052v2.105h0.088c0.526-0.878,1.209-1.518,2.048-1.916c0.838-0.4,1.695-0.602,2.573-0.602
	c1.111,0,2.022,0.15,2.735,0.454c0.711,0.302,1.271,0.722,1.682,1.258s0.697,1.188,0.863,1.959c0.164,0.771,0.248,1.623,0.248,2.562
	v9.301h-4.154v-8.541c0-1.247-0.193-2.18-0.584-2.793c-0.39-0.614-1.082-0.922-2.075-0.922c-1.132,0-1.95,0.336-2.457,1.01
	c-0.509,0.673-0.762,1.779-0.762,3.32v7.926h-4.152v-15.121H129.487L129.487,257.052z"/>
<path fill="#B0B4C4" d="M142.707,261.703c0.06-0.977,0.302-1.785,0.729-2.43c0.429-0.645,0.977-1.158,1.64-1.55
	c0.661-0.392,1.407-0.668,2.235-0.834c0.828-0.165,1.662-0.249,2.502-0.249c0.761,0,1.529,0.055,2.312,0.16
	c0.778,0.107,1.491,0.318,2.135,0.63s1.171,0.745,1.579,1.302c0.41,0.557,0.614,1.292,0.614,2.208v7.868
	c0,0.684,0.039,1.336,0.116,1.959c0.078,0.625,0.215,1.093,0.408,1.404h-4.211c-0.078-0.234-0.143-0.473-0.188-0.717
	c-0.05-0.244-0.083-0.492-0.104-0.746c-0.662,0.684-1.441,1.16-2.34,1.434s-1.812,0.408-2.749,0.408
	c-0.722,0-1.395-0.086-2.019-0.262c-0.624-0.177-1.17-0.449-1.639-0.819s-0.834-0.839-1.098-1.403s-0.396-1.236-0.396-2.02
	c0-0.856,0.151-1.563,0.455-2.119c0.303-0.557,0.69-0.999,1.17-1.331c0.479-0.331,1.022-0.58,1.639-0.746
	c0.613-0.165,1.23-0.297,1.855-0.396c0.623-0.099,1.237-0.176,1.844-0.233c0.604-0.06,1.142-0.146,1.607-0.263
	c0.469-0.117,0.838-0.289,1.111-0.513c0.271-0.226,0.398-0.552,0.38-0.979c0-0.448-0.073-0.805-0.219-1.067
	s-0.343-0.468-0.585-0.612c-0.244-0.146-0.526-0.244-0.85-0.293c-0.32-0.05-0.668-0.072-1.039-0.072
	c-0.817,0-1.463,0.175-1.931,0.525c-0.468,0.352-0.741,0.936-0.817,1.756H142.707L142.707,261.703z M152.3,264.773
	c-0.175,0.156-0.396,0.277-0.658,0.365s-0.545,0.16-0.848,0.22s-0.619,0.106-0.951,0.146c-0.33,0.041-0.662,0.088-0.994,0.146
	c-0.312,0.061-0.619,0.139-0.921,0.234c-0.303,0.098-0.565,0.229-0.79,0.395s-0.404,0.377-0.541,0.631s-0.205,0.573-0.205,0.965
	c0,0.371,0.068,0.683,0.205,0.937c0.137,0.253,0.321,0.453,0.557,0.601c0.234,0.146,0.508,0.248,0.818,0.308
	c0.312,0.059,0.633,0.088,0.965,0.088c0.819,0,1.453-0.136,1.901-0.409c0.448-0.271,0.779-0.6,0.994-0.979s0.346-0.767,0.396-1.155
	c0.049-0.39,0.072-0.701,0.072-0.937V264.773L152.3,264.773z"/>
<path fill="#B0B4C4" d="M173.958,273.285c-0.166,0.777-0.521,1.506-1.066,2.178c-0.547,0.674-1.336,1.244-2.369,1.711
	c-1.035,0.47-2.418,0.703-4.152,0.703c-0.741,0-1.497-0.094-2.268-0.277c-0.771-0.186-1.474-0.475-2.105-0.863
	c-0.635-0.389-1.16-0.893-1.579-1.506c-0.42-0.613-0.658-1.352-0.717-2.208h4.124c0.193,0.778,0.574,1.319,1.141,1.623
	c0.564,0.303,1.219,0.453,1.96,0.453c1.171,0,2.021-0.351,2.56-1.054c0.537-0.701,0.795-1.59,0.774-2.662v-1.987h-0.06
	c-0.448,0.8-1.088,1.39-1.915,1.771c-0.829,0.381-1.702,0.569-2.618,0.569c-1.131,0-2.105-0.198-2.925-0.601
	c-0.82-0.399-1.491-0.944-2.019-1.637c-0.529-0.693-0.912-1.502-1.156-2.43c-0.242-0.926-0.364-1.904-0.364-2.938
	c0-0.976,0.142-1.916,0.424-2.822c0.283-0.907,0.697-1.706,1.243-2.396c0.546-0.693,1.224-1.244,2.031-1.654
	c0.811-0.408,1.74-0.613,2.793-0.613c0.994,0,1.867,0.188,2.619,0.559c0.75,0.368,1.379,0.992,1.887,1.87h0.059v-2.019h3.949v14.156
	C174.207,271.812,174.123,272.503,173.958,273.285z M168.271,268.253c0.447-0.233,0.817-0.545,1.11-0.938
	c0.292-0.391,0.513-0.833,0.658-1.33c0.146-0.496,0.219-1.02,0.219-1.564c0-0.623-0.059-1.213-0.175-1.771
	c-0.117-0.556-0.312-1.048-0.585-1.478c-0.272-0.428-0.636-0.771-1.083-1.023c-0.448-0.253-1.016-0.38-1.696-0.38
	c-0.585,0-1.087,0.117-1.506,0.353c-0.42,0.232-0.771,0.551-1.053,0.951c-0.283,0.397-0.488,0.856-0.614,1.375
	c-0.127,0.516-0.189,1.057-0.189,1.621c0,0.547,0.055,1.088,0.16,1.623c0.106,0.536,0.293,1.021,0.558,1.448
	c0.263,0.429,0.608,0.778,1.036,1.053c0.431,0.274,0.967,0.409,1.609,0.409C167.304,268.604,167.819,268.487,168.271,268.253z"/>
<path fill="#B0B4C4" d="M181.985,268.546c0.625,0.604,1.521,0.906,2.69,0.906c0.839,0,1.56-0.209,2.164-0.629
	c0.604-0.419,0.976-0.863,1.112-1.33h3.654c-0.586,1.812-1.48,3.108-2.689,3.889c-1.209,0.781-2.672,1.171-4.389,1.171
	c-1.188,0-2.262-0.188-3.217-0.57c-0.957-0.38-1.766-0.921-2.429-1.623c-0.663-0.7-1.175-1.54-1.534-2.516
	c-0.361-0.976-0.541-2.048-0.541-3.218c0-1.131,0.186-2.185,0.555-3.158c0.371-0.975,0.896-1.817,1.58-2.529
	s1.496-1.271,2.441-1.684c0.945-0.408,1.993-0.613,3.145-0.613c1.287,0,2.408,0.249,3.363,0.746s1.74,1.166,2.354,2.004
	c0.612,0.838,1.058,1.794,1.33,2.865c0.272,1.072,0.368,2.193,0.293,3.363h-10.91C181.021,266.966,181.36,267.942,181.985,268.546z
	 M186.681,260.591c-0.496-0.547-1.252-0.819-2.267-0.819c-0.663,0-1.214,0.112-1.653,0.337c-0.438,0.225-0.789,0.502-1.053,0.833
	c-0.264,0.332-0.448,0.685-0.557,1.054c-0.106,0.371-0.172,0.703-0.189,0.996h6.758
	C187.522,261.936,187.179,261.137,186.681,260.591z"/>
<path fill="#B0B4C4" d="M197.614,257.052v2.047h0.06c0.546-0.779,1.204-1.385,1.976-1.812c0.771-0.43,1.651-0.645,2.646-0.645
	c0.956,0,1.828,0.188,2.618,0.559c0.79,0.368,1.391,1.021,1.799,1.959c0.448-0.662,1.059-1.248,1.828-1.757
	c0.77-0.507,1.682-0.761,2.732-0.761c0.802,0,1.541,0.1,2.225,0.293c0.684,0.195,1.268,0.507,1.755,0.938
	c0.485,0.43,0.868,0.988,1.142,1.682c0.272,0.691,0.41,1.525,0.41,2.501v10.12h-4.154v-8.569c0-0.507-0.02-0.983-0.059-1.435
	c-0.039-0.447-0.146-0.838-0.322-1.17c-0.175-0.33-0.434-0.594-0.772-0.789c-0.343-0.194-0.806-0.293-1.392-0.293
	c-0.584,0-1.058,0.113-1.418,0.336c-0.359,0.226-0.644,0.519-0.849,0.879c-0.205,0.361-0.342,0.771-0.409,1.229
	c-0.068,0.459-0.103,0.922-0.103,1.391v8.424h-4.153v-8.482c0-0.447-0.01-0.892-0.029-1.328c-0.02-0.439-0.103-0.846-0.248-1.216
	c-0.146-0.368-0.391-0.668-0.729-0.894c-0.342-0.223-0.845-0.336-1.507-0.336c-0.195,0-0.453,0.045-0.774,0.133
	s-0.635,0.253-0.938,0.497c-0.303,0.243-0.561,0.595-0.773,1.053s-0.32,1.06-0.32,1.8v8.773H193.7v-15.121h3.916v-0.004H197.614z"/>
<path fill="#B0B4C4" d="M223.272,268.546c0.625,0.604,1.521,0.906,2.69,0.906c0.838,0,1.56-0.209,2.164-0.629
	c0.604-0.419,0.976-0.863,1.11-1.33h3.656c-0.586,1.812-1.48,3.108-2.689,3.889c-1.209,0.781-2.672,1.171-4.389,1.171
	c-1.188,0-2.262-0.188-3.217-0.57c-0.957-0.38-1.766-0.921-2.429-1.623c-0.663-0.7-1.175-1.54-1.535-2.516s-0.54-2.048-0.54-3.218
	c0-1.131,0.184-2.185,0.555-3.158c0.371-0.975,0.896-1.817,1.58-2.529s1.496-1.271,2.441-1.684c0.945-0.408,1.993-0.613,3.145-0.613
	c1.287,0,2.408,0.249,3.363,0.746s1.74,1.166,2.354,2.004c0.612,0.838,1.058,1.794,1.329,2.865c0.272,1.072,0.369,2.193,0.294,3.363
	h-10.91C222.308,266.966,222.647,267.942,223.272,268.546z M227.968,260.591c-0.496-0.547-1.253-0.819-2.267-0.819
	c-0.663,0-1.216,0.112-1.653,0.337s-0.789,0.502-1.053,0.833c-0.264,0.332-0.448,0.685-0.557,1.054
	c-0.106,0.371-0.172,0.703-0.189,0.996h6.757C228.812,261.936,228.465,261.137,227.968,260.591z"/>
<path fill="#B0B4C4" d="M239.563,257.052v2.105h0.088c0.527-0.878,1.209-1.518,2.049-1.916c0.838-0.4,1.695-0.602,2.572-0.602
	c1.111,0,2.022,0.15,2.734,0.454c0.712,0.302,1.271,0.722,1.682,1.258c0.412,0.536,0.697,1.188,0.863,1.959
	c0.165,0.771,0.248,1.623,0.248,2.562v9.301h-4.152v-8.541c0-1.247-0.194-2.18-0.586-2.793c-0.39-0.614-1.082-0.922-2.076-0.922
	c-1.131,0-1.948,0.336-2.457,1.01c-0.508,0.673-0.76,1.779-0.76,3.32v7.926h-4.153v-15.121H239.563L239.563,257.052z"/>
<path fill="#B0B4C4" d="M261.267,257.052v2.777h-3.043v7.486c0,0.702,0.117,1.17,0.354,1.404c0.232,0.232,0.701,0.352,1.402,0.352
	c0.233,0,0.457-0.011,0.672-0.029c0.217-0.02,0.42-0.047,0.615-0.088v3.219c-0.352,0.059-0.742,0.098-1.17,0.117
	c-0.43,0.019-0.849,0.027-1.259,0.027c-0.646,0-1.253-0.044-1.828-0.132s-1.081-0.258-1.521-0.513
	c-0.438-0.252-0.785-0.613-1.038-1.082c-0.254-0.469-0.382-1.082-0.382-1.842v-8.922h-2.516v-2.777h2.516v-4.534h4.152v4.534
	L261.267,257.052L261.267,257.052z"/>
<g>
	<path fill="#B0B4C4" d="M83.409,61.641L8.608,136.442l74.802,74.802l74.801-74.802L83.409,61.641z M87.631,157.757H76.433v-20.629
		l-7.312,20.629h-8.864l-7.315-20.434v20.434h-11.2v-41.849h14.892l8.265,23.712l7.822-23.712h14.91V157.757z M125.72,151.634
		c-1.646,1.906-3.721,3.421-6.16,4.5c-2.428,1.076-5.306,1.623-8.554,1.623H92.328v-41.849h18.678c2.727,0,5.309,0.433,7.675,1.284
		c2.411,0.873,4.526,2.196,6.288,3.935c1.766,1.744,3.158,3.938,4.142,6.521c0.973,2.553,1.466,5.568,1.466,8.969
		c0,2.971-0.398,5.758-1.184,8.279C128.587,147.484,127.352,149.751,125.72,151.634z"/>
	<path fill="#B0B4C4" d="M116.635,129.006c-0.738-0.929-1.697-1.625-2.933-2.129c-1.28-0.521-2.92-0.785-4.873-0.785h-4.746v21.482
		h6.309c1.103,0,2.18-0.176,3.203-0.521c0.98-0.328,1.83-0.86,2.598-1.625c0.774-0.771,1.409-1.809,1.889-3.082
		c0.489-1.312,0.738-2.967,0.738-4.914c0-1.832-0.183-3.496-0.542-4.944C117.941,131.125,117.389,129.954,116.635,129.006z"/>
</g>
<path fill="#B0B4C4" d="M93.456,285.919c-0.196-0.314-0.44-0.592-0.734-0.828c-0.293-0.237-0.625-0.422-0.995-0.557
	c-0.37-0.134-0.758-0.199-1.163-0.199c-0.74,0-1.37,0.145-1.887,0.431c-0.518,0.286-0.937,0.671-1.258,1.153
	c-0.321,0.479-0.556,1.029-0.702,1.646s-0.22,1.251-0.22,1.907c0,0.629,0.072,1.24,0.22,1.834c0.146,0.595,0.381,1.128,0.702,1.604
	c0.321,0.478,0.74,0.856,1.258,1.144c0.517,0.286,1.146,0.43,1.887,0.43c1.006,0,1.792-0.308,2.357-0.922s0.912-1.425,1.038-2.433
	h3.186c-0.084,0.938-0.301,1.781-0.648,2.537c-0.351,0.756-0.812,1.396-1.385,1.929c-0.572,0.53-1.243,0.937-2.012,1.216
	c-0.77,0.279-1.614,0.419-2.536,0.419c-1.146,0-2.177-0.198-3.092-0.599c-0.916-0.396-1.688-0.945-2.316-1.646
	c-0.629-0.696-1.11-1.521-1.445-2.463c-0.335-0.94-0.503-1.959-0.503-3.049c0-1.118,0.168-2.155,0.503-3.113
	c0.335-0.957,0.816-1.791,1.445-2.504c0.63-0.713,1.4-1.271,2.316-1.677c0.915-0.405,1.945-0.605,3.092-0.605
	c0.824,0,1.604,0.117,2.337,0.354c0.733,0.238,1.391,0.584,1.971,1.037c0.58,0.455,1.059,1.018,1.436,1.688
	c0.378,0.671,0.615,1.438,0.713,2.306h-3.186C93.776,286.58,93.65,286.233,93.456,285.919z"/>
<path fill="#B0B4C4" d="M102.769,282.175l3.5,10.293h0.042l3.312-10.293h4.632v14.967h-3.081v-10.605h-0.042l-3.668,10.605h-2.536
	l-3.668-10.502h-0.042v10.502h-3.081v-14.967H102.769z"/>
<path fill="#B0B4C4" d="M123.858,281.925l5.598,14.967h-3.416l-1.133-3.333h-5.597l-1.174,3.333h-3.312l5.658-14.967H123.858z
	 M124.048,291.106l-1.887-5.489h-0.042l-1.949,5.489H124.048z"/>
<path fill="#B0B4C4" d="M142.181,285.919c-0.195-0.314-0.438-0.592-0.731-0.828c-0.296-0.237-0.628-0.422-0.995-0.557
	c-0.37-0.134-0.76-0.199-1.164-0.199c-0.74,0-1.369,0.145-1.887,0.431c-0.519,0.286-0.938,0.671-1.26,1.153
	c-0.318,0.479-0.555,1.029-0.701,1.646c-0.146,0.616-0.22,1.251-0.22,1.907c0,0.629,0.074,1.24,0.22,1.834
	c0.146,0.595,0.383,1.128,0.701,1.604c0.322,0.478,0.741,0.856,1.26,1.144c0.518,0.286,1.146,0.43,1.887,0.43
	c1.006,0,1.793-0.308,2.357-0.922s0.912-1.425,1.037-2.433h3.187c-0.084,0.938-0.302,1.781-0.647,2.537
	c-0.352,0.756-0.812,1.396-1.386,1.929c-0.573,0.532-1.243,0.937-2.012,1.216c-0.771,0.279-1.614,0.419-2.536,0.419
	c-1.146,0-2.178-0.198-3.092-0.599c-0.915-0.396-1.688-0.945-2.315-1.646c-0.629-0.696-1.111-1.521-1.446-2.463
	c-0.336-0.94-0.503-1.959-0.503-3.049c0-1.118,0.167-2.155,0.503-3.113c0.335-0.957,0.817-1.791,1.446-2.504
	c0.629-0.713,1.4-1.271,2.315-1.677c0.914-0.406,1.943-0.605,3.092-0.605c0.825,0,1.604,0.117,2.338,0.354
	c0.73,0.238,1.391,0.584,1.971,1.037c0.58,0.455,1.06,1.018,1.437,1.688s0.614,1.438,0.712,2.306h-3.186
	C142.502,286.58,142.376,286.233,142.181,285.919z"/>
<path fill="#B0B4C4" d="M146.86,289.126c0.267-0.707,0.644-1.31,1.133-1.805c0.488-0.494,1.074-0.881,1.761-1.15
	c0.685-0.273,1.453-0.409,2.306-0.409c0.854,0,1.625,0.136,2.316,0.409c0.689,0.271,1.281,0.656,1.771,1.15
	c0.49,0.495,0.865,1.098,1.131,1.805c0.267,0.705,0.398,1.49,0.398,2.355c0,0.867-0.134,1.648-0.398,2.35
	c-0.266,0.696-0.643,1.295-1.131,1.791s-1.08,0.877-1.771,1.144s-1.465,0.397-2.316,0.397c-0.853,0-1.621-0.134-2.306-0.397
	c-0.687-0.267-1.271-0.646-1.761-1.144c-0.49-0.496-0.866-1.095-1.133-1.791c-0.267-0.699-0.397-1.48-0.397-2.35
	C146.462,290.617,146.595,289.832,146.86,289.126z M149.563,292.751c0.084,0.412,0.229,0.783,0.432,1.111
	c0.201,0.327,0.471,0.59,0.807,0.784c0.336,0.196,0.756,0.294,1.258,0.294c0.504,0,0.926-0.098,1.271-0.294
	c0.342-0.194,0.612-0.457,0.815-0.784c0.203-0.328,0.346-0.699,0.431-1.111c0.084-0.412,0.126-0.836,0.126-1.27
	s-0.042-0.857-0.126-1.277c-0.085-0.418-0.228-0.789-0.431-1.109c-0.203-0.321-0.476-0.584-0.815-0.786
	c-0.345-0.203-0.767-0.306-1.271-0.306c-0.502,0-0.922,0.103-1.258,0.306c-0.336,0.202-0.604,0.465-0.807,0.786
	c-0.202,0.32-0.348,0.691-0.432,1.109c-0.084,0.42-0.125,0.846-0.125,1.277C149.438,291.916,149.479,292.339,149.563,292.751z"/>
<path fill="#B0B4C4" d="M161.497,286.055v1.468h0.042c0.392-0.561,0.86-0.99,1.414-1.3c0.552-0.308,1.185-0.461,1.896-0.461
	c0.688,0,1.312,0.133,1.877,0.397c0.565,0.266,0.994,0.732,1.289,1.403c0.32-0.476,0.758-0.896,1.312-1.258
	c0.552-0.363,1.204-0.546,1.959-0.546c0.571,0,1.104,0.07,1.593,0.21c0.489,0.141,0.908,0.362,1.26,0.672
	c0.348,0.308,0.62,0.708,0.815,1.204c0.194,0.496,0.294,1.094,0.294,1.793v7.252h-2.979v-6.143c0-0.362-0.014-0.705-0.041-1.025
	c-0.026-0.322-0.104-0.602-0.229-0.84c-0.126-0.236-0.312-0.426-0.558-0.565c-0.244-0.139-0.574-0.209-0.994-0.209
	s-0.758,0.08-1.018,0.24c-0.258,0.161-0.461,0.371-0.607,0.629c-0.146,0.261-0.243,0.554-0.293,0.881
	c-0.049,0.328-0.072,0.66-0.072,0.996v6.036h-2.977v-6.078c0-0.32-0.008-0.641-0.021-0.954s-0.073-0.604-0.18-0.868
	c-0.104-0.267-0.278-0.479-0.522-0.642c-0.243-0.16-0.604-0.24-1.08-0.24c-0.139,0-0.323,0.031-0.556,0.097
	c-0.229,0.062-0.454,0.181-0.67,0.354c-0.219,0.176-0.401,0.427-0.557,0.755c-0.154,0.328-0.229,0.759-0.229,1.289v6.288h-2.978
	v-10.837L161.497,286.055L161.497,286.055z"/>
<path fill="#B0B4C4" d="M179.422,286.055v1.384h0.042c0.364-0.587,0.825-1.014,1.385-1.277c0.561-0.267,1.174-0.397,1.844-0.397
	c0.854,0,1.586,0.159,2.201,0.481c0.614,0.32,1.125,0.748,1.53,1.277c0.404,0.531,0.704,1.148,0.9,1.854
	c0.194,0.707,0.293,1.442,0.293,2.211c0,0.729-0.099,1.427-0.293,2.098c-0.196,0.671-0.492,1.266-0.892,1.781
	c-0.397,0.517-0.896,0.93-1.488,1.236c-0.594,0.307-1.289,0.461-2.086,0.461c-0.67,0-1.289-0.138-1.854-0.408
	c-0.564-0.272-1.031-0.674-1.395-1.205h-0.043v5.135h-2.977v-14.63H179.422z M183.29,294.648c0.327-0.193,0.594-0.449,0.796-0.766
	c0.203-0.313,0.347-0.682,0.431-1.1c0.084-0.421,0.125-0.848,0.125-1.279c0-0.435-0.045-0.858-0.136-1.277s-0.241-0.794-0.45-1.122
	c-0.209-0.327-0.479-0.595-0.808-0.796c-0.328-0.203-0.731-0.305-1.206-0.305c-0.488,0-0.896,0.102-1.227,0.305
	c-0.33,0.201-0.594,0.465-0.797,0.785s-0.347,0.691-0.431,1.111c-0.084,0.418-0.126,0.853-0.126,1.299
	c0,0.434,0.046,0.858,0.137,1.279c0.092,0.418,0.238,0.784,0.44,1.1c0.202,0.316,0.471,0.57,0.808,0.766
	c0.336,0.196,0.739,0.294,1.215,0.294C182.552,294.942,182.962,294.845,183.29,294.648z"/>
<path fill="#B0B4C4" d="M189.272,289.388c0.043-0.698,0.219-1.278,0.524-1.739s0.698-0.832,1.175-1.11
	c0.475-0.279,1.01-0.479,1.604-0.599c0.593-0.116,1.189-0.178,1.792-0.178c0.545,0,1.097,0.038,1.653,0.114
	c0.562,0.078,1.069,0.229,1.53,0.451c0.462,0.223,0.839,0.532,1.132,0.934c0.295,0.396,0.44,0.926,0.44,1.58v5.64
	c0,0.49,0.026,0.958,0.084,1.405c0.056,0.447,0.151,0.781,0.293,1.006h-3.019c-0.058-0.168-0.104-0.339-0.137-0.514
	c-0.035-0.176-0.061-0.354-0.074-0.535c-0.476,0.49-1.035,0.832-1.676,1.027c-0.644,0.193-1.301,0.293-1.971,0.293
	c-0.52,0-0.999-0.062-1.447-0.188c-0.447-0.126-0.838-0.321-1.173-0.587c-0.336-0.267-0.598-0.601-0.787-1.007
	c-0.188-0.405-0.282-0.889-0.282-1.446c0-0.612,0.108-1.121,0.324-1.521c0.219-0.397,0.496-0.715,0.84-0.953
	c0.342-0.236,0.732-0.416,1.174-0.534c0.438-0.118,0.884-0.212,1.33-0.282c0.447-0.068,0.89-0.126,1.32-0.168
	c0.432-0.042,0.817-0.104,1.153-0.188c0.335-0.084,0.601-0.207,0.796-0.367s0.287-0.396,0.271-0.701
	c0-0.322-0.053-0.577-0.158-0.766c-0.104-0.188-0.243-0.336-0.418-0.44c-0.176-0.104-0.377-0.175-0.606-0.209
	c-0.231-0.035-0.479-0.054-0.745-0.054c-0.586,0-1.048,0.125-1.383,0.377s-0.531,0.672-0.587,1.259L189.272,289.388L189.272,289.388
	z M196.149,291.587c-0.127,0.113-0.283,0.201-0.473,0.264s-0.393,0.115-0.607,0.156c-0.217,0.043-0.442,0.078-0.682,0.104
	c-0.238,0.027-0.476,0.062-0.713,0.104c-0.224,0.041-0.443,0.098-0.66,0.168c-0.218,0.068-0.404,0.162-0.564,0.281
	c-0.161,0.119-0.291,0.27-0.389,0.451c-0.099,0.182-0.146,0.411-0.146,0.69c0,0.267,0.049,0.489,0.146,0.67
	c0.098,0.185,0.229,0.325,0.397,0.433c0.168,0.104,0.36,0.178,0.587,0.219c0.223,0.043,0.454,0.062,0.689,0.062
	c0.589,0,1.041-0.098,1.363-0.293c0.32-0.193,0.561-0.431,0.711-0.701c0.154-0.271,0.25-0.55,0.284-0.828s0.054-0.502,0.054-0.67
	L196.149,291.587L196.149,291.587z"/>
<path fill="#B0B4C4" d="M204.26,286.055v1.51h0.063c0.377-0.629,0.863-1.087,1.467-1.373c0.602-0.284,1.215-0.43,1.844-0.43
	c0.799,0,1.45,0.108,1.96,0.325c0.511,0.216,0.911,0.517,1.206,0.899c0.293,0.386,0.499,0.853,0.618,1.403
	c0.118,0.553,0.179,1.164,0.179,1.835v6.665h-2.978v-6.12c0-0.896-0.142-1.562-0.419-2.002c-0.279-0.438-0.775-0.66-1.488-0.66
	c-0.811,0-1.396,0.24-1.761,0.724c-0.363,0.481-0.546,1.274-0.546,2.379v5.682h-2.978v-10.837H204.26L204.26,286.055z"/>
<path fill="#B0B4C4" d="M213.942,284.378v-2.453h2.979v2.453H213.942z M216.92,286.055v10.837h-2.978v-10.837H216.92z"/>
<path fill="#B0B4C4" d="M221.453,294.292c0.444,0.434,1.09,0.648,1.928,0.648c0.601,0,1.118-0.148,1.552-0.449
	c0.435-0.302,0.698-0.619,0.797-0.955h2.621c-0.42,1.301-1.062,2.229-1.931,2.789c-0.866,0.559-1.914,0.838-3.146,0.838
	c-0.853,0-1.621-0.138-2.306-0.408c-0.685-0.272-1.264-0.66-1.739-1.164c-0.476-0.502-0.842-1.104-1.101-1.803
	s-0.388-1.468-0.388-2.307c0-0.811,0.133-1.562,0.396-2.264c0.264-0.699,0.643-1.303,1.131-1.812
	c0.489-0.511,1.072-0.91,1.752-1.203c0.679-0.295,1.43-0.441,2.252-0.441c0.924,0,1.728,0.179,2.412,0.535
	c0.685,0.354,1.246,0.836,1.688,1.437c0.439,0.601,0.758,1.285,0.954,2.056c0.194,0.769,0.265,1.57,0.209,2.408h-7.818
	C220.761,293.16,221.006,293.859,221.453,294.292z M224.815,288.591c-0.354-0.391-0.896-0.588-1.623-0.588
	c-0.476,0-0.871,0.082-1.185,0.242s-0.565,0.358-0.755,0.596c-0.188,0.238-0.32,0.49-0.398,0.757
	c-0.076,0.267-0.123,0.503-0.137,0.713h4.844C225.421,289.556,225.174,288.982,224.815,288.591z"/>
<path fill="#B0B4C4" d="M232.804,294.199c0.133,0.229,0.303,0.418,0.514,0.563c0.209,0.147,0.449,0.255,0.724,0.325
	c0.272,0.07,0.556,0.104,0.851,0.104c0.209,0,0.428-0.023,0.658-0.072c0.23-0.05,0.44-0.125,0.629-0.229
	c0.189-0.104,0.346-0.244,0.473-0.421c0.125-0.174,0.188-0.395,0.188-0.658c0-0.446-0.297-0.783-0.89-1.006
	c-0.597-0.225-1.425-0.447-2.485-0.672c-0.434-0.098-0.855-0.213-1.27-0.346c-0.41-0.134-0.776-0.309-1.1-0.523
	c-0.322-0.217-0.58-0.488-0.775-0.816c-0.194-0.328-0.293-0.729-0.293-1.205c0-0.699,0.137-1.271,0.408-1.72
	c0.272-0.446,0.631-0.8,1.078-1.06c0.447-0.258,0.95-0.439,1.51-0.545c0.561-0.104,1.133-0.156,1.721-0.156
	c0.587,0,1.154,0.056,1.709,0.166c0.552,0.113,1.044,0.303,1.479,0.566c0.432,0.268,0.791,0.618,1.078,1.059
	c0.286,0.441,0.458,0.996,0.514,1.668h-2.83c-0.041-0.573-0.258-0.961-0.648-1.164c-0.393-0.203-0.854-0.305-1.383-0.305
	c-0.168,0-0.35,0.012-0.546,0.033c-0.194,0.021-0.373,0.063-0.533,0.135c-0.16,0.07-0.297,0.172-0.409,0.305
	c-0.111,0.133-0.168,0.312-0.168,0.533c0,0.267,0.098,0.482,0.294,0.65c0.195,0.168,0.451,0.305,0.765,0.407
	c0.315,0.104,0.676,0.199,1.08,0.283s0.817,0.175,1.236,0.272c0.434,0.098,0.854,0.217,1.268,0.354
	c0.414,0.14,0.779,0.323,1.103,0.558c0.319,0.229,0.58,0.516,0.774,0.856c0.195,0.343,0.293,0.766,0.293,1.271
	c0,0.711-0.144,1.309-0.43,1.791c-0.287,0.481-0.66,0.868-1.121,1.163c-0.461,0.293-0.988,0.5-1.582,0.618
	c-0.595,0.117-1.197,0.18-1.812,0.18c-0.629,0-1.244-0.063-1.846-0.188c-0.602-0.126-1.135-0.337-1.604-0.63
	c-0.47-0.293-0.854-0.682-1.152-1.163c-0.301-0.479-0.465-1.087-0.492-1.812h2.828C232.604,293.691,232.67,293.966,232.804,294.199z
	"/>
</svg>
