<?xml version="1.0" encoding="utf-8"?>
<!-- Generator: Adobe Illustrator 16.0.0, SVG Export Plug-In . SVG Version: 6.00 Build 0)  -->
<!DOCTYPE svg PUBLIC "-//W3C//DTD SVG 1.1//EN" "http://www.w3.org/Graphics/SVG/1.1/DTD/svg11.dtd">
<svg version="1.1" id="Layer_1" xmlns="http://www.w3.org/2000/svg" xmlns:xlink="http://www.w3.org/1999/xlink" x="0px" y="0px"
	 width="287.984px" height="332.982px" viewBox="0 0 287.984 332.982" enable-background="new 0 0 287.984 332.982"
	 xml:space="preserve">
<g id="Background" display="none">
	<rect x="-432.388" y="-460.886" display="inline" fill="#46494B" width="838.458" height="844.458"/>
</g>
<g>
	<path fill="#B0B4C4" d="M36.554,80.546V66.661h4.996v13.746c0,3.229,1.875,5.451,5.451,5.451c3.575,0,5.416-2.224,5.416-5.451
		V66.661h5.033v13.885c0,5.729-3.402,9.688-10.448,9.688S36.554,86.274,36.554,80.546z"/>
	<path fill="#B0B4C4" d="M62.03,89.817V66.661h12.185c4.409,0,6.665,2.812,6.665,5.902c0,2.881-1.805,4.856-3.99,5.31
		c2.5,0.382,4.442,2.776,4.442,5.66c0,3.505-2.291,6.283-6.733,6.283L62.03,89.817L62.03,89.817z M75.845,73.431
		c0-1.425-1.041-2.433-2.707-2.433h-6.181v4.86h6.181C74.804,75.861,75.845,74.924,75.845,73.431z M76.296,82.837
		c0-1.457-1.041-2.637-2.947-2.637h-6.39v5.276h6.39C75.186,85.476,76.296,84.505,76.296,82.837z"/>
	<path fill="#B0B4C4" d="M83.928,78.256c0-7.148,5.38-11.976,12.356-11.976c5.067,0,8.021,2.743,9.65,5.659l-4.234,2.083
		c-0.973-1.874-3.055-3.367-5.416-3.367c-4.235,0-7.291,3.229-7.291,7.602c0,4.375,3.056,7.604,7.291,7.604
		c2.36,0,4.442-1.493,5.416-3.367l4.234,2.048c-1.632,2.881-4.583,5.693-9.65,5.693C89.308,90.233,83.928,85.372,83.928,78.256z"/>
	<path fill="#B0B4C4" d="M35.444,119.904c0-7.151,5.38-11.979,12.355-11.979c5.069,0,8.021,2.743,9.65,5.659l-4.235,2.083
		c-0.972-1.875-3.055-3.368-5.416-3.368c-4.232,0-7.291,3.229-7.291,7.604s3.057,7.603,7.291,7.603c2.361,0,4.444-1.494,5.416-3.366
		l4.235,2.048c-1.631,2.881-4.582,5.691-9.65,5.691C40.825,131.881,35.444,127.021,35.444,119.904z"/>
	<path fill="#B0B4C4" d="M70.361,131.465v-1.771c-1.146,1.389-3.124,2.187-5.312,2.187c-2.673,0-5.797-1.806-5.797-5.554
		c0-3.958,3.124-5.416,5.797-5.416c2.259,0,4.2,0.729,5.312,2.048v-2.116c0-1.701-1.458-2.812-3.68-2.812
		c-1.771,0-3.438,0.694-4.825,1.979l-1.735-3.089c2.048-1.84,4.688-2.639,7.325-2.639c3.853,0,7.36,1.529,7.36,6.354v10.831
		L70.361,131.465L70.361,131.465z M70.361,127.437v-2.083c-0.729-0.976-2.117-1.493-3.541-1.493c-1.735,0-3.159,0.937-3.159,2.534
		c0,1.596,1.423,2.499,3.159,2.499C68.243,128.894,69.633,128.41,70.361,127.437z"/>
	<path fill="#B0B4C4" d="M79.14,131.465V108.31h4.407v23.152L79.14,131.465L79.14,131.465z"/>
	<path fill="#B0B4C4" d="M87.572,135.768l1.979-3.159c1.354,1.458,3.159,2.048,5.242,2.048c2.118,0,4.652-0.902,4.652-4.304v-1.632
		c-1.319,1.666-3.125,2.604-5.208,2.604c-4.165,0-7.396-2.915-7.396-8.505c0-5.485,3.16-8.541,7.396-8.541
		c2.014,0,3.853,0.835,5.208,2.57v-2.153h4.409v15.656c0,6.353-4.932,7.916-9.062,7.916
		C91.946,138.268,89.689,137.609,87.572,135.768z M99.445,125.527v-5.45c-0.765-1.076-2.361-1.874-3.785-1.874
		c-2.534,0-4.27,1.735-4.27,4.617c0,2.881,1.733,4.616,4.27,4.616C97.084,127.437,98.68,126.604,99.445,125.527z"/>
	<path fill="#B0B4C4" d="M118.289,131.465v-1.771c-1.146,1.389-3.124,2.187-5.311,2.187c-2.672,0-5.797-1.806-5.797-5.554
		c0-3.958,3.125-5.416,5.797-5.416c2.257,0,4.202,0.729,5.311,2.048v-2.116c0-1.701-1.458-2.812-3.68-2.812
		c-1.771,0-3.438,0.694-4.825,1.979l-1.735-3.089c2.05-1.84,4.688-2.639,7.326-2.639c3.854,0,7.359,1.529,7.359,6.354v10.831
		L118.289,131.465L118.289,131.465z M118.289,127.437v-2.083c-0.729-0.976-2.116-1.493-3.541-1.493
		c-1.734,0-3.159,0.937-3.159,2.534c0,1.596,1.425,2.499,3.159,2.499C116.173,128.894,117.56,128.41,118.289,127.437z"/>
	<path fill="#B0B4C4" d="M127.069,131.465v-16.767h4.409v2.256c1.215-1.458,3.263-2.674,5.346-2.674v4.306
		c-0.312-0.068-0.694-0.104-1.215-0.104c-1.457,0-3.403,0.833-4.131,1.909v11.071L127.069,131.465L127.069,131.465z"/>
	<path fill="#B0B4C4" d="M139.632,134.068c0.384,0.174,0.974,0.275,1.39,0.275c1.146,0,1.91-0.312,2.328-1.214l0.623-1.458
		l-6.806-16.976h4.725l4.373,11.664l4.406-11.664h4.724l-7.881,19.509c-1.25,3.159-3.474,3.991-6.354,4.062
		c-0.487,0-1.633-0.104-2.153-0.277L139.632,134.068z"/>
	<path fill="#B0B4C4" d="M54.259,173.112l-4.061-15.899l-4.028,15.899h-5.24l-6.631-23.154h5.521l4.061,16.733l4.409-16.733h3.854
		l4.374,16.733l4.061-16.733h5.521L59.5,173.112H54.259z"/>
	<path fill="#B0B4C4" d="M65.847,164.712c0-4.857,3.609-8.784,8.678-8.784c5.035,0,8.399,3.75,8.399,9.201v1.04H70.463
		c0.312,2.049,1.979,3.75,4.826,3.75c1.423,0,3.366-0.59,4.444-1.631l1.979,2.916c-1.666,1.527-4.304,2.326-6.906,2.326
		C69.701,173.529,65.847,170.093,65.847,164.712z M74.526,159.54c-2.741,0-3.922,1.909-4.096,3.574h8.262
		C78.553,161.517,77.442,159.54,74.526,159.54z"/>
	<path fill="#B0B4C4" d="M84.658,170.925l1.91-3.191c1.25,1.18,3.714,2.326,5.796,2.326c1.911,0,2.812-0.729,2.812-1.771
		c0-2.741-9.928-0.482-9.928-7.08c0-2.812,2.432-5.276,6.874-5.276c2.812,0,5.068,0.974,6.735,2.292l-1.772,3.125
		c-1.006-1.041-2.915-1.943-4.963-1.943c-1.597,0-2.639,0.694-2.639,1.632c0,2.465,9.964,0.382,9.964,7.151
		c0,3.09-2.639,5.346-7.29,5.346C89.24,173.529,86.429,172.557,84.658,170.925z"/>
	<path fill="#B0B4C4" d="M103.574,168.913v-8.714h-2.776v-3.853h2.776v-4.583h4.41v4.583h3.402v3.853h-3.402v7.532
		c0,1.076,0.556,1.875,1.527,1.875c0.658,0,1.282-0.244,1.525-0.521l0.938,3.368c-0.659,0.589-1.841,1.075-3.682,1.075
		C105.206,173.529,103.574,171.932,103.574,168.913z"/>
	<path fill="#B0B4C4" d="M113.327,164.712c0-4.857,3.609-8.784,8.678-8.784c5.034,0,8.401,3.75,8.401,9.201v1.04h-12.463
		c0.312,2.049,1.979,3.75,4.825,3.75c1.424,0,3.368-0.59,4.442-1.631l1.979,2.916c-1.667,1.527-4.306,2.326-6.909,2.326
		C117.179,173.529,113.327,170.093,113.327,164.712z M122.004,159.54c-2.74,0-3.923,1.909-4.096,3.574h8.262
		C126.032,161.517,124.922,159.54,122.004,159.54z"/>
	<path fill="#B0B4C4" d="M133.594,173.112v-16.769h4.409v2.258c1.215-1.458,3.265-2.676,5.349-2.676v4.308
		c-0.312-0.068-0.695-0.104-1.217-0.104c-1.458,0-3.4,0.833-4.131,1.909v11.073L133.594,173.112L133.594,173.112z"/>
	<path fill="#B0B4C4" d="M157.407,173.112v-10.137c0-2.325-1.215-3.123-3.09-3.123c-1.735,0-3.056,0.972-3.819,1.941v11.316h-4.408
		v-16.769h4.408v2.152c1.075-1.251,3.16-2.571,5.867-2.571c3.713,0,5.483,2.084,5.483,5.351v11.837L157.407,173.112L157.407,173.112
		z"/>
	<path fill="#B0B4C4" d="M56.69,214.76v-16.696l-6.527,16.696h-2.149l-6.527-16.696v16.696h-4.929v-23.152h6.907l5.623,14.476
		l5.625-14.476h6.943v23.152H56.69z"/>
	<path fill="#B0B4C4" d="M65.048,206.361c0-5.138,3.75-8.784,8.889-8.784c3.437,0,5.52,1.492,6.63,3.021l-2.881,2.708
		c-0.801-1.181-2.016-1.806-3.541-1.806c-2.673,0-4.548,1.944-4.548,4.86c0,2.915,1.874,4.893,4.548,4.893
		c1.525,0,2.739-0.691,3.541-1.839l2.881,2.707c-1.11,1.528-3.194,3.056-6.63,3.056C68.799,215.177,65.048,211.532,65.048,206.361z"
		/>
	<path fill="#B0B4C4" d="M82.437,203.201c0-7.325,5.554-11.977,12.356-11.977c4.79,0,7.812,2.43,9.546,5.173l-4.062,2.221
		c-1.075-1.631-3.054-3.021-5.484-3.021c-4.233,0-7.291,3.228-7.291,7.603c0,4.373,3.057,7.603,7.291,7.603
		c2.048,0,3.958-0.901,4.896-1.771v-2.776H93.58v-4.303h11.039v8.886c-2.361,2.64-5.66,4.342-9.824,4.342
		C87.991,215.177,82.437,210.491,82.437,203.201z"/>
	<path fill="#B0B4C4" d="M108.016,193.551c0-1.459,1.181-2.604,2.604-2.604c1.458,0,2.639,1.146,2.639,2.604s-1.181,2.64-2.639,2.64
		C109.196,196.188,108.016,195.009,108.016,193.551z M108.432,214.76v-16.768h4.408v16.768H108.432z"/>
	<path fill="#B0B4C4" d="M117.214,214.76v-23.152h4.409v23.152H117.214z"/>
	<path fill="#B0B4C4" d="M125.993,214.76v-23.152h4.41v23.152H125.993z"/>
	<path fill="#B0B4C4" d="M36.554,256.409v-23.154h9.13c7.254,0,12.288,4.617,12.288,11.562c0,7.014-5.034,11.595-12.257,11.595
		L36.554,256.409L36.554,256.409z M52.939,244.814c0-4.062-2.5-7.222-7.219-7.222h-4.236v14.478h4.202
		C50.267,252.07,52.939,248.771,52.939,244.814z"/>
	<path fill="#B0B4C4" d="M71.438,256.409v-1.771c-1.147,1.39-3.125,2.188-5.312,2.188c-2.674,0-5.797-1.804-5.797-5.555
		c0-3.956,3.123-5.415,5.797-5.415c2.255,0,4.199,0.729,5.312,2.049v-2.116c0-1.702-1.458-2.812-3.682-2.812
		c-1.771,0-3.437,0.691-4.823,1.979l-1.736-3.091c2.048-1.841,4.687-2.638,7.326-2.638c3.852,0,7.356,1.525,7.356,6.352v10.831
		L71.438,256.409L71.438,256.409z M71.438,252.384v-2.083c-0.729-0.973-2.118-1.491-3.542-1.491c-1.735,0-3.16,0.938-3.16,2.532
		c0,1.6,1.424,2.499,3.16,2.499C69.319,253.841,70.709,253.353,71.438,252.384z"/>
	<path fill="#B0B4C4" d="M80.215,256.409v-23.154h4.41v23.154H80.215z"/>
	<path fill="#B0B4C4" d="M100.347,256.409v-10.206c0-2.326-1.218-3.055-3.092-3.055c-1.734,0-3.09,0.972-3.817,1.941v11.316h-4.444
		v-23.154h4.444v8.539c1.076-1.249,3.125-2.566,5.867-2.566c3.679,0,5.449,2.013,5.449,5.274v11.906h-4.407V256.409z"/>
	<path fill="#B0B4C4" d="M108.049,248.01c0-4.758,3.332-8.781,8.854-8.781c5.554,0,8.887,4.023,8.887,8.781
		c0,4.757-3.333,8.815-8.887,8.815C111.381,256.825,108.049,252.763,108.049,248.01z M121.205,248.01
		c0-2.604-1.524-4.858-4.304-4.858c-2.742,0-4.271,2.254-4.271,4.858c0,2.641,1.527,4.895,4.271,4.895
		C119.679,252.902,121.205,250.648,121.205,248.01z"/>
	<path fill="#B0B4C4" d="M140.399,256.409v-2.117c-1.146,1.25-3.16,2.533-5.902,2.533c-3.68,0-5.416-2.013-5.416-5.275v-11.905
		h4.409v10.171c0,2.325,1.215,3.089,3.09,3.089c1.701,0,3.055-0.938,3.819-1.909v-11.352h4.408v16.768L140.399,256.409
		L140.399,256.409z"/>
	<path fill="#B0B4C4" d="M147.719,254.219l1.909-3.19c1.249,1.18,3.713,2.325,5.797,2.325c1.91,0,2.812-0.729,2.812-1.771
		c0-2.743-9.929-0.483-9.929-7.081c0-2.812,2.431-5.274,6.874-5.274c2.811,0,5.065,0.973,6.732,2.291l-1.771,3.124
		c-1.007-1.042-2.916-1.943-4.964-1.943c-1.6,0-2.641,0.693-2.641,1.63c0,2.467,9.963,0.383,9.963,7.152
		c0,3.089-2.639,5.346-7.29,5.346C152.301,256.825,149.49,255.852,147.719,254.219z"/>
	<path fill="#B0B4C4" d="M165.314,235.199c0-1.459,1.181-2.604,2.604-2.604c1.459,0,2.639,1.146,2.639,2.604
		c0,1.457-1.18,2.638-2.639,2.638C166.495,237.837,165.314,236.656,165.314,235.199z M165.731,256.409v-16.768h4.408v16.768H165.731
		z"/>
	<path fill="#B0B4C4" d="M173.437,248.01c0-4.858,3.608-8.781,8.677-8.781c5.034,0,8.401,3.749,8.401,9.198v1.04h-12.465
		c0.312,2.051,1.979,3.749,4.824,3.749c1.426,0,3.368-0.59,4.444-1.631l1.979,2.915c-1.666,1.528-4.305,2.326-6.906,2.326
		C177.29,256.825,173.437,253.389,173.437,248.01z M182.114,242.836c-2.742,0-3.922,1.908-4.096,3.574h8.262
		C186.142,244.814,185.032,242.836,182.114,242.836z"/>
</g>
<g>
	<path fill="#B0B4C4" d="M36.76,281.271c0-2.765,2.323-5.088,5.089-5.088c2.765,0,5.088,2.323,5.088,5.088
		c0,2.762-2.322,5.087-5.088,5.087S36.76,284.033,36.76,281.271z"/>
	<path fill="#B0B4C4" d="M52.9,281.271c0-2.765,2.323-5.088,5.088-5.088s5.088,2.323,5.088,5.088c0,2.762-2.323,5.087-5.088,5.087
		S52.9,284.033,52.9,281.271z"/>
	<path fill="#B0B4C4" d="M69.04,281.271c0-2.765,2.323-5.088,5.088-5.088c2.766,0,5.087,2.323,5.087,5.088
		c0,2.762-2.321,5.087-5.087,5.087C71.363,286.358,69.04,284.033,69.04,281.271z"/>
</g>
<g>
	<g>
		<path fill="#F26446" d="M219.663,78.109c0-5.979,5.027-11.008,11.009-11.008c5.982,0,11.008,5.028,11.008,11.008
			c0,5.977-5.024,11.007-11.008,11.007C224.69,89.116,219.663,84.085,219.663,78.109z"/>
	</g>
	<g>
		<path fill="#71C164" d="M219.663,120.252c0-5.978,5.027-11.008,11.009-11.008c5.982,0,11.008,5.03,11.008,11.008
			c0,5.979-5.024,11.007-11.008,11.007C224.69,131.259,219.663,126.23,219.663,120.252z"/>
	</g>
	<g>
		<path fill="#71C164" d="M219.663,162.396c0-5.979,5.027-11.008,11.009-11.008c5.982,0,11.008,5.029,11.008,11.008
			c0,5.977-5.024,11.007-11.008,11.007C224.69,173.403,219.663,168.374,219.663,162.396z"/>
	</g>
	<g>
		<path fill="#F26446" d="M219.663,204.54c0-5.979,5.027-11.008,11.009-11.008c5.982,0,11.008,5.029,11.008,11.008
			c0,5.979-5.024,11.008-11.008,11.008C224.69,215.548,219.663,210.518,219.663,204.54z"/>
	</g>
	<g>
		<path fill="#71C164" d="M219.663,246.683c0-5.979,5.027-11.01,11.009-11.01c5.982,0,11.008,5.03,11.008,11.01
			c0,5.978-5.024,11.007-11.008,11.007C224.69,257.69,219.663,252.661,219.663,246.683z"/>
	</g>
</g>
<g>
	<path fill="none" stroke="#B0B4C4" stroke-width="5" stroke-miterlimit="10" d="M268.751,316.288c0,2.403-1.966,4.369-4.369,4.369
		H17.528c-2.403,0-4.369-1.966-4.369-4.369V33.027c0-2.403,1.966-4.369,4.369-4.369h246.854c2.403,0,4.369,1.966,4.369,4.369
		V316.288z"/>
</g>
</svg>
